M48
; DRILL file {KiCad (5.1.10)-1} date 11/09/21 21:57:59
; FORMAT={-:-/ absolute / metric / decimal}
; #@! TF.CreationDate,2021-11-09T21:57:59+08:00
; #@! TF.GenerationSoftware,Kicad,Pcbnew,(5.1.10)-1
FMAT,2
METRIC
T1C0.400
T2C0.600
T3C0.800
T4C1.000
T5C3.200
%
G90
G05
T1
X88.0Y-56.2
X89.525Y-72.649
X90.0Y-68.2
X90.535Y-72.633
X90.651Y-71.084
X91.6Y-71.6
X95.75Y-55.75
X97.5Y-73.0
X98.5Y-62.0
X98.909Y-63.372
X103.5Y-76.0
X109.49Y-61.625
X109.669Y-62.688
T2
X61.0Y-86.0
X61.4Y-61.2
X62.0Y-50.4
X63.0Y-64.2
X63.2Y-67.0
X63.4Y-71.8
X63.4Y-75.2
X63.6Y-55.2
X64.8Y-50.2
X65.8Y-55.6
X66.2Y-65.2
X67.0Y-52.2
X67.4Y-50.0
X67.6Y-77.8
X68.4Y-55.2
X69.4Y-67.0
X71.0Y-50.0
X71.758Y-86.25
X71.8Y-75.2
X72.2Y-96.0
X73.0Y-51.8
X73.622Y-85.147
X74.0Y-82.0
X74.2Y-50.2
X77.6Y-50.0
X79.4Y-95.4
X79.8Y-50.0
X80.0Y-56.2
X80.2Y-65.6
X80.4Y-47.4
X82.4Y-51.4
X82.431Y-68.125
X84.8Y-56.4
X86.4Y-56.4
X88.065Y-73.3
X88.2Y-68.2
X89.3Y-78.35
X90.8Y-56.4
X90.98Y-62.364
X91.4Y-58.2
X95.5Y-69.5
X102.5Y-74.0
X103.5Y-79.0
X110.725Y-52.417
X113.984Y-52.586
X115.5Y-47.0
X115.5Y-63.0
X116.0Y-52.25
T3
X97.2Y-78.72
X97.2Y-83.6
T4
X53.8Y-47.6
X53.8Y-50.14
X53.9Y-57.1
X53.9Y-59.64
X53.9Y-62.18
X53.9Y-64.72
X53.9Y-67.26
X53.9Y-69.8
X53.9Y-72.34
X53.9Y-74.88
X53.9Y-77.42
X53.9Y-79.96
X53.9Y-82.5
X53.9Y-85.04
X53.9Y-87.58
X53.9Y-90.12
X53.9Y-92.66
X53.9Y-95.2
X58.6Y-47.6
X58.6Y-50.14
X58.8Y-96.2
X61.34Y-96.2
X63.88Y-96.2
X66.42Y-96.2
X68.96Y-96.2
X92.61Y-91.0
X93.995Y-93.84
X95.38Y-91.0
X96.765Y-93.84
X98.15Y-91.0
X99.535Y-93.84
X100.92Y-91.0
X102.305Y-93.84
X103.69Y-91.0
X105.075Y-93.84
X106.46Y-91.0
X107.845Y-93.84
X109.23Y-91.0
X110.615Y-93.84
X112.0Y-91.0
T5
X85.655Y-91.3
X118.955Y-91.3
T0
M30
