%TF.GenerationSoftware,KiCad,Pcbnew,(5.1.10)-1*%
%TF.CreationDate,2021-11-09T21:57:45+08:00*%
%TF.ProjectId,CPLD-GPU,43504c44-2d47-4505-952e-6b696361645f,rev?*%
%TF.SameCoordinates,Original*%
%TF.FileFunction,Soldermask,Bot*%
%TF.FilePolarity,Negative*%
%FSLAX46Y46*%
G04 Gerber Fmt 4.6, Leading zero omitted, Abs format (unit mm)*
G04 Created by KiCad (PCBNEW (5.1.10)-1) date 2021-11-09 21:57:45*
%MOMM*%
%LPD*%
G01*
G04 APERTURE LIST*
%ADD10O,1.700000X1.700000*%
%ADD11R,1.700000X1.700000*%
%ADD12C,4.000000*%
%ADD13C,1.600000*%
%ADD14R,1.600000X1.600000*%
%ADD15C,1.500000*%
G04 APERTURE END LIST*
D10*
%TO.C,J5*%
X68960000Y-96200000D03*
X66420000Y-96200000D03*
X63880000Y-96200000D03*
X61340000Y-96200000D03*
D11*
X58800000Y-96200000D03*
%TD*%
D12*
%TO.C,J1*%
X118955000Y-91300000D03*
X85655000Y-91300000D03*
D13*
X93995000Y-93840000D03*
X96765000Y-93840000D03*
X99535000Y-93840000D03*
X102305000Y-93840000D03*
X105075000Y-93840000D03*
X107845000Y-93840000D03*
X110615000Y-93840000D03*
X92610000Y-91000000D03*
X95380000Y-91000000D03*
X98150000Y-91000000D03*
X100920000Y-91000000D03*
X103690000Y-91000000D03*
X106460000Y-91000000D03*
X109230000Y-91000000D03*
D14*
X112000000Y-91000000D03*
%TD*%
D15*
%TO.C,Y1*%
X97200000Y-78720000D03*
X97200000Y-83600000D03*
%TD*%
D10*
%TO.C,J6*%
X53900000Y-95200000D03*
X53900000Y-92660000D03*
X53900000Y-90120000D03*
X53900000Y-87580000D03*
X53900000Y-85040000D03*
X53900000Y-82500000D03*
X53900000Y-79960000D03*
X53900000Y-77420000D03*
X53900000Y-74880000D03*
X53900000Y-72340000D03*
X53900000Y-69800000D03*
X53900000Y-67260000D03*
X53900000Y-64720000D03*
X53900000Y-62180000D03*
X53900000Y-59640000D03*
D11*
X53900000Y-57100000D03*
%TD*%
D10*
%TO.C,J3*%
X58600000Y-50140000D03*
D11*
X58600000Y-47600000D03*
%TD*%
D10*
%TO.C,J2*%
X53800000Y-50140000D03*
D11*
X53800000Y-47600000D03*
%TD*%
M02*
