%TF.GenerationSoftware,KiCad,Pcbnew,(5.1.10)-1*%
%TF.CreationDate,2021-11-09T21:57:45+08:00*%
%TF.ProjectId,CPLD-GPU,43504c44-2d47-4505-952e-6b696361645f,rev?*%
%TF.SameCoordinates,Original*%
%TF.FileFunction,Soldermask,Top*%
%TF.FilePolarity,Negative*%
%FSLAX46Y46*%
G04 Gerber Fmt 4.6, Leading zero omitted, Abs format (unit mm)*
G04 Created by KiCad (PCBNEW (5.1.10)-1) date 2021-11-09 21:57:45*
%MOMM*%
%LPD*%
G01*
G04 APERTURE LIST*
%ADD10O,1.700000X1.700000*%
%ADD11R,1.700000X1.700000*%
%ADD12R,1.600000X0.300000*%
%ADD13C,4.000000*%
%ADD14C,1.600000*%
%ADD15R,1.600000X1.600000*%
%ADD16C,1.500000*%
%ADD17R,1.500000X0.400000*%
G04 APERTURE END LIST*
%TO.C,U3*%
G36*
G01*
X79250000Y-55100000D02*
X79250000Y-53775000D01*
G75*
G02*
X79325000Y-53700000I75000J0D01*
G01*
X79475000Y-53700000D01*
G75*
G02*
X79550000Y-53775000I0J-75000D01*
G01*
X79550000Y-55100000D01*
G75*
G02*
X79475000Y-55175000I-75000J0D01*
G01*
X79325000Y-55175000D01*
G75*
G02*
X79250000Y-55100000I0J75000D01*
G01*
G37*
G36*
G01*
X79750000Y-55100000D02*
X79750000Y-53775000D01*
G75*
G02*
X79825000Y-53700000I75000J0D01*
G01*
X79975000Y-53700000D01*
G75*
G02*
X80050000Y-53775000I0J-75000D01*
G01*
X80050000Y-55100000D01*
G75*
G02*
X79975000Y-55175000I-75000J0D01*
G01*
X79825000Y-55175000D01*
G75*
G02*
X79750000Y-55100000I0J75000D01*
G01*
G37*
G36*
G01*
X80250000Y-55100000D02*
X80250000Y-53775000D01*
G75*
G02*
X80325000Y-53700000I75000J0D01*
G01*
X80475000Y-53700000D01*
G75*
G02*
X80550000Y-53775000I0J-75000D01*
G01*
X80550000Y-55100000D01*
G75*
G02*
X80475000Y-55175000I-75000J0D01*
G01*
X80325000Y-55175000D01*
G75*
G02*
X80250000Y-55100000I0J75000D01*
G01*
G37*
G36*
G01*
X80750000Y-55100000D02*
X80750000Y-53775000D01*
G75*
G02*
X80825000Y-53700000I75000J0D01*
G01*
X80975000Y-53700000D01*
G75*
G02*
X81050000Y-53775000I0J-75000D01*
G01*
X81050000Y-55100000D01*
G75*
G02*
X80975000Y-55175000I-75000J0D01*
G01*
X80825000Y-55175000D01*
G75*
G02*
X80750000Y-55100000I0J75000D01*
G01*
G37*
G36*
G01*
X81250000Y-55100000D02*
X81250000Y-53775000D01*
G75*
G02*
X81325000Y-53700000I75000J0D01*
G01*
X81475000Y-53700000D01*
G75*
G02*
X81550000Y-53775000I0J-75000D01*
G01*
X81550000Y-55100000D01*
G75*
G02*
X81475000Y-55175000I-75000J0D01*
G01*
X81325000Y-55175000D01*
G75*
G02*
X81250000Y-55100000I0J75000D01*
G01*
G37*
G36*
G01*
X81750000Y-55100000D02*
X81750000Y-53775000D01*
G75*
G02*
X81825000Y-53700000I75000J0D01*
G01*
X81975000Y-53700000D01*
G75*
G02*
X82050000Y-53775000I0J-75000D01*
G01*
X82050000Y-55100000D01*
G75*
G02*
X81975000Y-55175000I-75000J0D01*
G01*
X81825000Y-55175000D01*
G75*
G02*
X81750000Y-55100000I0J75000D01*
G01*
G37*
G36*
G01*
X82250000Y-55100000D02*
X82250000Y-53775000D01*
G75*
G02*
X82325000Y-53700000I75000J0D01*
G01*
X82475000Y-53700000D01*
G75*
G02*
X82550000Y-53775000I0J-75000D01*
G01*
X82550000Y-55100000D01*
G75*
G02*
X82475000Y-55175000I-75000J0D01*
G01*
X82325000Y-55175000D01*
G75*
G02*
X82250000Y-55100000I0J75000D01*
G01*
G37*
G36*
G01*
X82750000Y-55100000D02*
X82750000Y-53775000D01*
G75*
G02*
X82825000Y-53700000I75000J0D01*
G01*
X82975000Y-53700000D01*
G75*
G02*
X83050000Y-53775000I0J-75000D01*
G01*
X83050000Y-55100000D01*
G75*
G02*
X82975000Y-55175000I-75000J0D01*
G01*
X82825000Y-55175000D01*
G75*
G02*
X82750000Y-55100000I0J75000D01*
G01*
G37*
G36*
G01*
X83250000Y-55100000D02*
X83250000Y-53775000D01*
G75*
G02*
X83325000Y-53700000I75000J0D01*
G01*
X83475000Y-53700000D01*
G75*
G02*
X83550000Y-53775000I0J-75000D01*
G01*
X83550000Y-55100000D01*
G75*
G02*
X83475000Y-55175000I-75000J0D01*
G01*
X83325000Y-55175000D01*
G75*
G02*
X83250000Y-55100000I0J75000D01*
G01*
G37*
G36*
G01*
X83750000Y-55100000D02*
X83750000Y-53775000D01*
G75*
G02*
X83825000Y-53700000I75000J0D01*
G01*
X83975000Y-53700000D01*
G75*
G02*
X84050000Y-53775000I0J-75000D01*
G01*
X84050000Y-55100000D01*
G75*
G02*
X83975000Y-55175000I-75000J0D01*
G01*
X83825000Y-55175000D01*
G75*
G02*
X83750000Y-55100000I0J75000D01*
G01*
G37*
G36*
G01*
X84250000Y-55100000D02*
X84250000Y-53775000D01*
G75*
G02*
X84325000Y-53700000I75000J0D01*
G01*
X84475000Y-53700000D01*
G75*
G02*
X84550000Y-53775000I0J-75000D01*
G01*
X84550000Y-55100000D01*
G75*
G02*
X84475000Y-55175000I-75000J0D01*
G01*
X84325000Y-55175000D01*
G75*
G02*
X84250000Y-55100000I0J75000D01*
G01*
G37*
G36*
G01*
X84750000Y-55100000D02*
X84750000Y-53775000D01*
G75*
G02*
X84825000Y-53700000I75000J0D01*
G01*
X84975000Y-53700000D01*
G75*
G02*
X85050000Y-53775000I0J-75000D01*
G01*
X85050000Y-55100000D01*
G75*
G02*
X84975000Y-55175000I-75000J0D01*
G01*
X84825000Y-55175000D01*
G75*
G02*
X84750000Y-55100000I0J75000D01*
G01*
G37*
G36*
G01*
X85250000Y-55100000D02*
X85250000Y-53775000D01*
G75*
G02*
X85325000Y-53700000I75000J0D01*
G01*
X85475000Y-53700000D01*
G75*
G02*
X85550000Y-53775000I0J-75000D01*
G01*
X85550000Y-55100000D01*
G75*
G02*
X85475000Y-55175000I-75000J0D01*
G01*
X85325000Y-55175000D01*
G75*
G02*
X85250000Y-55100000I0J75000D01*
G01*
G37*
G36*
G01*
X85750000Y-55100000D02*
X85750000Y-53775000D01*
G75*
G02*
X85825000Y-53700000I75000J0D01*
G01*
X85975000Y-53700000D01*
G75*
G02*
X86050000Y-53775000I0J-75000D01*
G01*
X86050000Y-55100000D01*
G75*
G02*
X85975000Y-55175000I-75000J0D01*
G01*
X85825000Y-55175000D01*
G75*
G02*
X85750000Y-55100000I0J75000D01*
G01*
G37*
G36*
G01*
X86250000Y-55100000D02*
X86250000Y-53775000D01*
G75*
G02*
X86325000Y-53700000I75000J0D01*
G01*
X86475000Y-53700000D01*
G75*
G02*
X86550000Y-53775000I0J-75000D01*
G01*
X86550000Y-55100000D01*
G75*
G02*
X86475000Y-55175000I-75000J0D01*
G01*
X86325000Y-55175000D01*
G75*
G02*
X86250000Y-55100000I0J75000D01*
G01*
G37*
G36*
G01*
X86750000Y-55100000D02*
X86750000Y-53775000D01*
G75*
G02*
X86825000Y-53700000I75000J0D01*
G01*
X86975000Y-53700000D01*
G75*
G02*
X87050000Y-53775000I0J-75000D01*
G01*
X87050000Y-55100000D01*
G75*
G02*
X86975000Y-55175000I-75000J0D01*
G01*
X86825000Y-55175000D01*
G75*
G02*
X86750000Y-55100000I0J75000D01*
G01*
G37*
G36*
G01*
X87250000Y-55100000D02*
X87250000Y-53775000D01*
G75*
G02*
X87325000Y-53700000I75000J0D01*
G01*
X87475000Y-53700000D01*
G75*
G02*
X87550000Y-53775000I0J-75000D01*
G01*
X87550000Y-55100000D01*
G75*
G02*
X87475000Y-55175000I-75000J0D01*
G01*
X87325000Y-55175000D01*
G75*
G02*
X87250000Y-55100000I0J75000D01*
G01*
G37*
G36*
G01*
X87750000Y-55100000D02*
X87750000Y-53775000D01*
G75*
G02*
X87825000Y-53700000I75000J0D01*
G01*
X87975000Y-53700000D01*
G75*
G02*
X88050000Y-53775000I0J-75000D01*
G01*
X88050000Y-55100000D01*
G75*
G02*
X87975000Y-55175000I-75000J0D01*
G01*
X87825000Y-55175000D01*
G75*
G02*
X87750000Y-55100000I0J75000D01*
G01*
G37*
G36*
G01*
X88250000Y-55100000D02*
X88250000Y-53775000D01*
G75*
G02*
X88325000Y-53700000I75000J0D01*
G01*
X88475000Y-53700000D01*
G75*
G02*
X88550000Y-53775000I0J-75000D01*
G01*
X88550000Y-55100000D01*
G75*
G02*
X88475000Y-55175000I-75000J0D01*
G01*
X88325000Y-55175000D01*
G75*
G02*
X88250000Y-55100000I0J75000D01*
G01*
G37*
G36*
G01*
X88750000Y-55100000D02*
X88750000Y-53775000D01*
G75*
G02*
X88825000Y-53700000I75000J0D01*
G01*
X88975000Y-53700000D01*
G75*
G02*
X89050000Y-53775000I0J-75000D01*
G01*
X89050000Y-55100000D01*
G75*
G02*
X88975000Y-55175000I-75000J0D01*
G01*
X88825000Y-55175000D01*
G75*
G02*
X88750000Y-55100000I0J75000D01*
G01*
G37*
G36*
G01*
X89250000Y-55100000D02*
X89250000Y-53775000D01*
G75*
G02*
X89325000Y-53700000I75000J0D01*
G01*
X89475000Y-53700000D01*
G75*
G02*
X89550000Y-53775000I0J-75000D01*
G01*
X89550000Y-55100000D01*
G75*
G02*
X89475000Y-55175000I-75000J0D01*
G01*
X89325000Y-55175000D01*
G75*
G02*
X89250000Y-55100000I0J75000D01*
G01*
G37*
G36*
G01*
X89750000Y-55100000D02*
X89750000Y-53775000D01*
G75*
G02*
X89825000Y-53700000I75000J0D01*
G01*
X89975000Y-53700000D01*
G75*
G02*
X90050000Y-53775000I0J-75000D01*
G01*
X90050000Y-55100000D01*
G75*
G02*
X89975000Y-55175000I-75000J0D01*
G01*
X89825000Y-55175000D01*
G75*
G02*
X89750000Y-55100000I0J75000D01*
G01*
G37*
G36*
G01*
X90250000Y-55100000D02*
X90250000Y-53775000D01*
G75*
G02*
X90325000Y-53700000I75000J0D01*
G01*
X90475000Y-53700000D01*
G75*
G02*
X90550000Y-53775000I0J-75000D01*
G01*
X90550000Y-55100000D01*
G75*
G02*
X90475000Y-55175000I-75000J0D01*
G01*
X90325000Y-55175000D01*
G75*
G02*
X90250000Y-55100000I0J75000D01*
G01*
G37*
G36*
G01*
X90750000Y-55100000D02*
X90750000Y-53775000D01*
G75*
G02*
X90825000Y-53700000I75000J0D01*
G01*
X90975000Y-53700000D01*
G75*
G02*
X91050000Y-53775000I0J-75000D01*
G01*
X91050000Y-55100000D01*
G75*
G02*
X90975000Y-55175000I-75000J0D01*
G01*
X90825000Y-55175000D01*
G75*
G02*
X90750000Y-55100000I0J75000D01*
G01*
G37*
G36*
G01*
X91250000Y-55100000D02*
X91250000Y-53775000D01*
G75*
G02*
X91325000Y-53700000I75000J0D01*
G01*
X91475000Y-53700000D01*
G75*
G02*
X91550000Y-53775000I0J-75000D01*
G01*
X91550000Y-55100000D01*
G75*
G02*
X91475000Y-55175000I-75000J0D01*
G01*
X91325000Y-55175000D01*
G75*
G02*
X91250000Y-55100000I0J75000D01*
G01*
G37*
G36*
G01*
X92325000Y-56175000D02*
X92325000Y-56025000D01*
G75*
G02*
X92400000Y-55950000I75000J0D01*
G01*
X93725000Y-55950000D01*
G75*
G02*
X93800000Y-56025000I0J-75000D01*
G01*
X93800000Y-56175000D01*
G75*
G02*
X93725000Y-56250000I-75000J0D01*
G01*
X92400000Y-56250000D01*
G75*
G02*
X92325000Y-56175000I0J75000D01*
G01*
G37*
G36*
G01*
X92325000Y-56675000D02*
X92325000Y-56525000D01*
G75*
G02*
X92400000Y-56450000I75000J0D01*
G01*
X93725000Y-56450000D01*
G75*
G02*
X93800000Y-56525000I0J-75000D01*
G01*
X93800000Y-56675000D01*
G75*
G02*
X93725000Y-56750000I-75000J0D01*
G01*
X92400000Y-56750000D01*
G75*
G02*
X92325000Y-56675000I0J75000D01*
G01*
G37*
G36*
G01*
X92325000Y-57175000D02*
X92325000Y-57025000D01*
G75*
G02*
X92400000Y-56950000I75000J0D01*
G01*
X93725000Y-56950000D01*
G75*
G02*
X93800000Y-57025000I0J-75000D01*
G01*
X93800000Y-57175000D01*
G75*
G02*
X93725000Y-57250000I-75000J0D01*
G01*
X92400000Y-57250000D01*
G75*
G02*
X92325000Y-57175000I0J75000D01*
G01*
G37*
G36*
G01*
X92325000Y-57675000D02*
X92325000Y-57525000D01*
G75*
G02*
X92400000Y-57450000I75000J0D01*
G01*
X93725000Y-57450000D01*
G75*
G02*
X93800000Y-57525000I0J-75000D01*
G01*
X93800000Y-57675000D01*
G75*
G02*
X93725000Y-57750000I-75000J0D01*
G01*
X92400000Y-57750000D01*
G75*
G02*
X92325000Y-57675000I0J75000D01*
G01*
G37*
G36*
G01*
X92325000Y-58175000D02*
X92325000Y-58025000D01*
G75*
G02*
X92400000Y-57950000I75000J0D01*
G01*
X93725000Y-57950000D01*
G75*
G02*
X93800000Y-58025000I0J-75000D01*
G01*
X93800000Y-58175000D01*
G75*
G02*
X93725000Y-58250000I-75000J0D01*
G01*
X92400000Y-58250000D01*
G75*
G02*
X92325000Y-58175000I0J75000D01*
G01*
G37*
G36*
G01*
X92325000Y-58675000D02*
X92325000Y-58525000D01*
G75*
G02*
X92400000Y-58450000I75000J0D01*
G01*
X93725000Y-58450000D01*
G75*
G02*
X93800000Y-58525000I0J-75000D01*
G01*
X93800000Y-58675000D01*
G75*
G02*
X93725000Y-58750000I-75000J0D01*
G01*
X92400000Y-58750000D01*
G75*
G02*
X92325000Y-58675000I0J75000D01*
G01*
G37*
G36*
G01*
X92325000Y-59175000D02*
X92325000Y-59025000D01*
G75*
G02*
X92400000Y-58950000I75000J0D01*
G01*
X93725000Y-58950000D01*
G75*
G02*
X93800000Y-59025000I0J-75000D01*
G01*
X93800000Y-59175000D01*
G75*
G02*
X93725000Y-59250000I-75000J0D01*
G01*
X92400000Y-59250000D01*
G75*
G02*
X92325000Y-59175000I0J75000D01*
G01*
G37*
G36*
G01*
X92325000Y-59675000D02*
X92325000Y-59525000D01*
G75*
G02*
X92400000Y-59450000I75000J0D01*
G01*
X93725000Y-59450000D01*
G75*
G02*
X93800000Y-59525000I0J-75000D01*
G01*
X93800000Y-59675000D01*
G75*
G02*
X93725000Y-59750000I-75000J0D01*
G01*
X92400000Y-59750000D01*
G75*
G02*
X92325000Y-59675000I0J75000D01*
G01*
G37*
G36*
G01*
X92325000Y-60175000D02*
X92325000Y-60025000D01*
G75*
G02*
X92400000Y-59950000I75000J0D01*
G01*
X93725000Y-59950000D01*
G75*
G02*
X93800000Y-60025000I0J-75000D01*
G01*
X93800000Y-60175000D01*
G75*
G02*
X93725000Y-60250000I-75000J0D01*
G01*
X92400000Y-60250000D01*
G75*
G02*
X92325000Y-60175000I0J75000D01*
G01*
G37*
G36*
G01*
X92325000Y-60675000D02*
X92325000Y-60525000D01*
G75*
G02*
X92400000Y-60450000I75000J0D01*
G01*
X93725000Y-60450000D01*
G75*
G02*
X93800000Y-60525000I0J-75000D01*
G01*
X93800000Y-60675000D01*
G75*
G02*
X93725000Y-60750000I-75000J0D01*
G01*
X92400000Y-60750000D01*
G75*
G02*
X92325000Y-60675000I0J75000D01*
G01*
G37*
G36*
G01*
X92325000Y-61175000D02*
X92325000Y-61025000D01*
G75*
G02*
X92400000Y-60950000I75000J0D01*
G01*
X93725000Y-60950000D01*
G75*
G02*
X93800000Y-61025000I0J-75000D01*
G01*
X93800000Y-61175000D01*
G75*
G02*
X93725000Y-61250000I-75000J0D01*
G01*
X92400000Y-61250000D01*
G75*
G02*
X92325000Y-61175000I0J75000D01*
G01*
G37*
G36*
G01*
X92325000Y-61675000D02*
X92325000Y-61525000D01*
G75*
G02*
X92400000Y-61450000I75000J0D01*
G01*
X93725000Y-61450000D01*
G75*
G02*
X93800000Y-61525000I0J-75000D01*
G01*
X93800000Y-61675000D01*
G75*
G02*
X93725000Y-61750000I-75000J0D01*
G01*
X92400000Y-61750000D01*
G75*
G02*
X92325000Y-61675000I0J75000D01*
G01*
G37*
G36*
G01*
X92325000Y-62175000D02*
X92325000Y-62025000D01*
G75*
G02*
X92400000Y-61950000I75000J0D01*
G01*
X93725000Y-61950000D01*
G75*
G02*
X93800000Y-62025000I0J-75000D01*
G01*
X93800000Y-62175000D01*
G75*
G02*
X93725000Y-62250000I-75000J0D01*
G01*
X92400000Y-62250000D01*
G75*
G02*
X92325000Y-62175000I0J75000D01*
G01*
G37*
G36*
G01*
X92325000Y-62675000D02*
X92325000Y-62525000D01*
G75*
G02*
X92400000Y-62450000I75000J0D01*
G01*
X93725000Y-62450000D01*
G75*
G02*
X93800000Y-62525000I0J-75000D01*
G01*
X93800000Y-62675000D01*
G75*
G02*
X93725000Y-62750000I-75000J0D01*
G01*
X92400000Y-62750000D01*
G75*
G02*
X92325000Y-62675000I0J75000D01*
G01*
G37*
G36*
G01*
X92325000Y-63175000D02*
X92325000Y-63025000D01*
G75*
G02*
X92400000Y-62950000I75000J0D01*
G01*
X93725000Y-62950000D01*
G75*
G02*
X93800000Y-63025000I0J-75000D01*
G01*
X93800000Y-63175000D01*
G75*
G02*
X93725000Y-63250000I-75000J0D01*
G01*
X92400000Y-63250000D01*
G75*
G02*
X92325000Y-63175000I0J75000D01*
G01*
G37*
G36*
G01*
X92325000Y-63675000D02*
X92325000Y-63525000D01*
G75*
G02*
X92400000Y-63450000I75000J0D01*
G01*
X93725000Y-63450000D01*
G75*
G02*
X93800000Y-63525000I0J-75000D01*
G01*
X93800000Y-63675000D01*
G75*
G02*
X93725000Y-63750000I-75000J0D01*
G01*
X92400000Y-63750000D01*
G75*
G02*
X92325000Y-63675000I0J75000D01*
G01*
G37*
G36*
G01*
X92325000Y-64175000D02*
X92325000Y-64025000D01*
G75*
G02*
X92400000Y-63950000I75000J0D01*
G01*
X93725000Y-63950000D01*
G75*
G02*
X93800000Y-64025000I0J-75000D01*
G01*
X93800000Y-64175000D01*
G75*
G02*
X93725000Y-64250000I-75000J0D01*
G01*
X92400000Y-64250000D01*
G75*
G02*
X92325000Y-64175000I0J75000D01*
G01*
G37*
G36*
G01*
X92325000Y-64675000D02*
X92325000Y-64525000D01*
G75*
G02*
X92400000Y-64450000I75000J0D01*
G01*
X93725000Y-64450000D01*
G75*
G02*
X93800000Y-64525000I0J-75000D01*
G01*
X93800000Y-64675000D01*
G75*
G02*
X93725000Y-64750000I-75000J0D01*
G01*
X92400000Y-64750000D01*
G75*
G02*
X92325000Y-64675000I0J75000D01*
G01*
G37*
G36*
G01*
X92325000Y-65175000D02*
X92325000Y-65025000D01*
G75*
G02*
X92400000Y-64950000I75000J0D01*
G01*
X93725000Y-64950000D01*
G75*
G02*
X93800000Y-65025000I0J-75000D01*
G01*
X93800000Y-65175000D01*
G75*
G02*
X93725000Y-65250000I-75000J0D01*
G01*
X92400000Y-65250000D01*
G75*
G02*
X92325000Y-65175000I0J75000D01*
G01*
G37*
G36*
G01*
X92325000Y-65675000D02*
X92325000Y-65525000D01*
G75*
G02*
X92400000Y-65450000I75000J0D01*
G01*
X93725000Y-65450000D01*
G75*
G02*
X93800000Y-65525000I0J-75000D01*
G01*
X93800000Y-65675000D01*
G75*
G02*
X93725000Y-65750000I-75000J0D01*
G01*
X92400000Y-65750000D01*
G75*
G02*
X92325000Y-65675000I0J75000D01*
G01*
G37*
G36*
G01*
X92325000Y-66175000D02*
X92325000Y-66025000D01*
G75*
G02*
X92400000Y-65950000I75000J0D01*
G01*
X93725000Y-65950000D01*
G75*
G02*
X93800000Y-66025000I0J-75000D01*
G01*
X93800000Y-66175000D01*
G75*
G02*
X93725000Y-66250000I-75000J0D01*
G01*
X92400000Y-66250000D01*
G75*
G02*
X92325000Y-66175000I0J75000D01*
G01*
G37*
G36*
G01*
X92325000Y-66675000D02*
X92325000Y-66525000D01*
G75*
G02*
X92400000Y-66450000I75000J0D01*
G01*
X93725000Y-66450000D01*
G75*
G02*
X93800000Y-66525000I0J-75000D01*
G01*
X93800000Y-66675000D01*
G75*
G02*
X93725000Y-66750000I-75000J0D01*
G01*
X92400000Y-66750000D01*
G75*
G02*
X92325000Y-66675000I0J75000D01*
G01*
G37*
G36*
G01*
X92325000Y-67175000D02*
X92325000Y-67025000D01*
G75*
G02*
X92400000Y-66950000I75000J0D01*
G01*
X93725000Y-66950000D01*
G75*
G02*
X93800000Y-67025000I0J-75000D01*
G01*
X93800000Y-67175000D01*
G75*
G02*
X93725000Y-67250000I-75000J0D01*
G01*
X92400000Y-67250000D01*
G75*
G02*
X92325000Y-67175000I0J75000D01*
G01*
G37*
G36*
G01*
X92325000Y-67675000D02*
X92325000Y-67525000D01*
G75*
G02*
X92400000Y-67450000I75000J0D01*
G01*
X93725000Y-67450000D01*
G75*
G02*
X93800000Y-67525000I0J-75000D01*
G01*
X93800000Y-67675000D01*
G75*
G02*
X93725000Y-67750000I-75000J0D01*
G01*
X92400000Y-67750000D01*
G75*
G02*
X92325000Y-67675000I0J75000D01*
G01*
G37*
G36*
G01*
X92325000Y-68175000D02*
X92325000Y-68025000D01*
G75*
G02*
X92400000Y-67950000I75000J0D01*
G01*
X93725000Y-67950000D01*
G75*
G02*
X93800000Y-68025000I0J-75000D01*
G01*
X93800000Y-68175000D01*
G75*
G02*
X93725000Y-68250000I-75000J0D01*
G01*
X92400000Y-68250000D01*
G75*
G02*
X92325000Y-68175000I0J75000D01*
G01*
G37*
G36*
G01*
X91250000Y-70425000D02*
X91250000Y-69100000D01*
G75*
G02*
X91325000Y-69025000I75000J0D01*
G01*
X91475000Y-69025000D01*
G75*
G02*
X91550000Y-69100000I0J-75000D01*
G01*
X91550000Y-70425000D01*
G75*
G02*
X91475000Y-70500000I-75000J0D01*
G01*
X91325000Y-70500000D01*
G75*
G02*
X91250000Y-70425000I0J75000D01*
G01*
G37*
G36*
G01*
X90750000Y-70425000D02*
X90750000Y-69100000D01*
G75*
G02*
X90825000Y-69025000I75000J0D01*
G01*
X90975000Y-69025000D01*
G75*
G02*
X91050000Y-69100000I0J-75000D01*
G01*
X91050000Y-70425000D01*
G75*
G02*
X90975000Y-70500000I-75000J0D01*
G01*
X90825000Y-70500000D01*
G75*
G02*
X90750000Y-70425000I0J75000D01*
G01*
G37*
G36*
G01*
X90250000Y-70425000D02*
X90250000Y-69100000D01*
G75*
G02*
X90325000Y-69025000I75000J0D01*
G01*
X90475000Y-69025000D01*
G75*
G02*
X90550000Y-69100000I0J-75000D01*
G01*
X90550000Y-70425000D01*
G75*
G02*
X90475000Y-70500000I-75000J0D01*
G01*
X90325000Y-70500000D01*
G75*
G02*
X90250000Y-70425000I0J75000D01*
G01*
G37*
G36*
G01*
X89750000Y-70425000D02*
X89750000Y-69100000D01*
G75*
G02*
X89825000Y-69025000I75000J0D01*
G01*
X89975000Y-69025000D01*
G75*
G02*
X90050000Y-69100000I0J-75000D01*
G01*
X90050000Y-70425000D01*
G75*
G02*
X89975000Y-70500000I-75000J0D01*
G01*
X89825000Y-70500000D01*
G75*
G02*
X89750000Y-70425000I0J75000D01*
G01*
G37*
G36*
G01*
X89250000Y-70425000D02*
X89250000Y-69100000D01*
G75*
G02*
X89325000Y-69025000I75000J0D01*
G01*
X89475000Y-69025000D01*
G75*
G02*
X89550000Y-69100000I0J-75000D01*
G01*
X89550000Y-70425000D01*
G75*
G02*
X89475000Y-70500000I-75000J0D01*
G01*
X89325000Y-70500000D01*
G75*
G02*
X89250000Y-70425000I0J75000D01*
G01*
G37*
G36*
G01*
X88750000Y-70425000D02*
X88750000Y-69100000D01*
G75*
G02*
X88825000Y-69025000I75000J0D01*
G01*
X88975000Y-69025000D01*
G75*
G02*
X89050000Y-69100000I0J-75000D01*
G01*
X89050000Y-70425000D01*
G75*
G02*
X88975000Y-70500000I-75000J0D01*
G01*
X88825000Y-70500000D01*
G75*
G02*
X88750000Y-70425000I0J75000D01*
G01*
G37*
G36*
G01*
X88250000Y-70425000D02*
X88250000Y-69100000D01*
G75*
G02*
X88325000Y-69025000I75000J0D01*
G01*
X88475000Y-69025000D01*
G75*
G02*
X88550000Y-69100000I0J-75000D01*
G01*
X88550000Y-70425000D01*
G75*
G02*
X88475000Y-70500000I-75000J0D01*
G01*
X88325000Y-70500000D01*
G75*
G02*
X88250000Y-70425000I0J75000D01*
G01*
G37*
G36*
G01*
X87750000Y-70425000D02*
X87750000Y-69100000D01*
G75*
G02*
X87825000Y-69025000I75000J0D01*
G01*
X87975000Y-69025000D01*
G75*
G02*
X88050000Y-69100000I0J-75000D01*
G01*
X88050000Y-70425000D01*
G75*
G02*
X87975000Y-70500000I-75000J0D01*
G01*
X87825000Y-70500000D01*
G75*
G02*
X87750000Y-70425000I0J75000D01*
G01*
G37*
G36*
G01*
X87250000Y-70425000D02*
X87250000Y-69100000D01*
G75*
G02*
X87325000Y-69025000I75000J0D01*
G01*
X87475000Y-69025000D01*
G75*
G02*
X87550000Y-69100000I0J-75000D01*
G01*
X87550000Y-70425000D01*
G75*
G02*
X87475000Y-70500000I-75000J0D01*
G01*
X87325000Y-70500000D01*
G75*
G02*
X87250000Y-70425000I0J75000D01*
G01*
G37*
G36*
G01*
X86750000Y-70425000D02*
X86750000Y-69100000D01*
G75*
G02*
X86825000Y-69025000I75000J0D01*
G01*
X86975000Y-69025000D01*
G75*
G02*
X87050000Y-69100000I0J-75000D01*
G01*
X87050000Y-70425000D01*
G75*
G02*
X86975000Y-70500000I-75000J0D01*
G01*
X86825000Y-70500000D01*
G75*
G02*
X86750000Y-70425000I0J75000D01*
G01*
G37*
G36*
G01*
X86250000Y-70425000D02*
X86250000Y-69100000D01*
G75*
G02*
X86325000Y-69025000I75000J0D01*
G01*
X86475000Y-69025000D01*
G75*
G02*
X86550000Y-69100000I0J-75000D01*
G01*
X86550000Y-70425000D01*
G75*
G02*
X86475000Y-70500000I-75000J0D01*
G01*
X86325000Y-70500000D01*
G75*
G02*
X86250000Y-70425000I0J75000D01*
G01*
G37*
G36*
G01*
X85750000Y-70425000D02*
X85750000Y-69100000D01*
G75*
G02*
X85825000Y-69025000I75000J0D01*
G01*
X85975000Y-69025000D01*
G75*
G02*
X86050000Y-69100000I0J-75000D01*
G01*
X86050000Y-70425000D01*
G75*
G02*
X85975000Y-70500000I-75000J0D01*
G01*
X85825000Y-70500000D01*
G75*
G02*
X85750000Y-70425000I0J75000D01*
G01*
G37*
G36*
G01*
X85250000Y-70425000D02*
X85250000Y-69100000D01*
G75*
G02*
X85325000Y-69025000I75000J0D01*
G01*
X85475000Y-69025000D01*
G75*
G02*
X85550000Y-69100000I0J-75000D01*
G01*
X85550000Y-70425000D01*
G75*
G02*
X85475000Y-70500000I-75000J0D01*
G01*
X85325000Y-70500000D01*
G75*
G02*
X85250000Y-70425000I0J75000D01*
G01*
G37*
G36*
G01*
X84750000Y-70425000D02*
X84750000Y-69100000D01*
G75*
G02*
X84825000Y-69025000I75000J0D01*
G01*
X84975000Y-69025000D01*
G75*
G02*
X85050000Y-69100000I0J-75000D01*
G01*
X85050000Y-70425000D01*
G75*
G02*
X84975000Y-70500000I-75000J0D01*
G01*
X84825000Y-70500000D01*
G75*
G02*
X84750000Y-70425000I0J75000D01*
G01*
G37*
G36*
G01*
X84250000Y-70425000D02*
X84250000Y-69100000D01*
G75*
G02*
X84325000Y-69025000I75000J0D01*
G01*
X84475000Y-69025000D01*
G75*
G02*
X84550000Y-69100000I0J-75000D01*
G01*
X84550000Y-70425000D01*
G75*
G02*
X84475000Y-70500000I-75000J0D01*
G01*
X84325000Y-70500000D01*
G75*
G02*
X84250000Y-70425000I0J75000D01*
G01*
G37*
G36*
G01*
X83750000Y-70425000D02*
X83750000Y-69100000D01*
G75*
G02*
X83825000Y-69025000I75000J0D01*
G01*
X83975000Y-69025000D01*
G75*
G02*
X84050000Y-69100000I0J-75000D01*
G01*
X84050000Y-70425000D01*
G75*
G02*
X83975000Y-70500000I-75000J0D01*
G01*
X83825000Y-70500000D01*
G75*
G02*
X83750000Y-70425000I0J75000D01*
G01*
G37*
G36*
G01*
X83250000Y-70425000D02*
X83250000Y-69100000D01*
G75*
G02*
X83325000Y-69025000I75000J0D01*
G01*
X83475000Y-69025000D01*
G75*
G02*
X83550000Y-69100000I0J-75000D01*
G01*
X83550000Y-70425000D01*
G75*
G02*
X83475000Y-70500000I-75000J0D01*
G01*
X83325000Y-70500000D01*
G75*
G02*
X83250000Y-70425000I0J75000D01*
G01*
G37*
G36*
G01*
X82750000Y-70425000D02*
X82750000Y-69100000D01*
G75*
G02*
X82825000Y-69025000I75000J0D01*
G01*
X82975000Y-69025000D01*
G75*
G02*
X83050000Y-69100000I0J-75000D01*
G01*
X83050000Y-70425000D01*
G75*
G02*
X82975000Y-70500000I-75000J0D01*
G01*
X82825000Y-70500000D01*
G75*
G02*
X82750000Y-70425000I0J75000D01*
G01*
G37*
G36*
G01*
X82250000Y-70425000D02*
X82250000Y-69100000D01*
G75*
G02*
X82325000Y-69025000I75000J0D01*
G01*
X82475000Y-69025000D01*
G75*
G02*
X82550000Y-69100000I0J-75000D01*
G01*
X82550000Y-70425000D01*
G75*
G02*
X82475000Y-70500000I-75000J0D01*
G01*
X82325000Y-70500000D01*
G75*
G02*
X82250000Y-70425000I0J75000D01*
G01*
G37*
G36*
G01*
X81750000Y-70425000D02*
X81750000Y-69100000D01*
G75*
G02*
X81825000Y-69025000I75000J0D01*
G01*
X81975000Y-69025000D01*
G75*
G02*
X82050000Y-69100000I0J-75000D01*
G01*
X82050000Y-70425000D01*
G75*
G02*
X81975000Y-70500000I-75000J0D01*
G01*
X81825000Y-70500000D01*
G75*
G02*
X81750000Y-70425000I0J75000D01*
G01*
G37*
G36*
G01*
X81250000Y-70425000D02*
X81250000Y-69100000D01*
G75*
G02*
X81325000Y-69025000I75000J0D01*
G01*
X81475000Y-69025000D01*
G75*
G02*
X81550000Y-69100000I0J-75000D01*
G01*
X81550000Y-70425000D01*
G75*
G02*
X81475000Y-70500000I-75000J0D01*
G01*
X81325000Y-70500000D01*
G75*
G02*
X81250000Y-70425000I0J75000D01*
G01*
G37*
G36*
G01*
X80750000Y-70425000D02*
X80750000Y-69100000D01*
G75*
G02*
X80825000Y-69025000I75000J0D01*
G01*
X80975000Y-69025000D01*
G75*
G02*
X81050000Y-69100000I0J-75000D01*
G01*
X81050000Y-70425000D01*
G75*
G02*
X80975000Y-70500000I-75000J0D01*
G01*
X80825000Y-70500000D01*
G75*
G02*
X80750000Y-70425000I0J75000D01*
G01*
G37*
G36*
G01*
X80250000Y-70425000D02*
X80250000Y-69100000D01*
G75*
G02*
X80325000Y-69025000I75000J0D01*
G01*
X80475000Y-69025000D01*
G75*
G02*
X80550000Y-69100000I0J-75000D01*
G01*
X80550000Y-70425000D01*
G75*
G02*
X80475000Y-70500000I-75000J0D01*
G01*
X80325000Y-70500000D01*
G75*
G02*
X80250000Y-70425000I0J75000D01*
G01*
G37*
G36*
G01*
X79750000Y-70425000D02*
X79750000Y-69100000D01*
G75*
G02*
X79825000Y-69025000I75000J0D01*
G01*
X79975000Y-69025000D01*
G75*
G02*
X80050000Y-69100000I0J-75000D01*
G01*
X80050000Y-70425000D01*
G75*
G02*
X79975000Y-70500000I-75000J0D01*
G01*
X79825000Y-70500000D01*
G75*
G02*
X79750000Y-70425000I0J75000D01*
G01*
G37*
G36*
G01*
X79250000Y-70425000D02*
X79250000Y-69100000D01*
G75*
G02*
X79325000Y-69025000I75000J0D01*
G01*
X79475000Y-69025000D01*
G75*
G02*
X79550000Y-69100000I0J-75000D01*
G01*
X79550000Y-70425000D01*
G75*
G02*
X79475000Y-70500000I-75000J0D01*
G01*
X79325000Y-70500000D01*
G75*
G02*
X79250000Y-70425000I0J75000D01*
G01*
G37*
G36*
G01*
X77000000Y-68175000D02*
X77000000Y-68025000D01*
G75*
G02*
X77075000Y-67950000I75000J0D01*
G01*
X78400000Y-67950000D01*
G75*
G02*
X78475000Y-68025000I0J-75000D01*
G01*
X78475000Y-68175000D01*
G75*
G02*
X78400000Y-68250000I-75000J0D01*
G01*
X77075000Y-68250000D01*
G75*
G02*
X77000000Y-68175000I0J75000D01*
G01*
G37*
G36*
G01*
X77000000Y-67675000D02*
X77000000Y-67525000D01*
G75*
G02*
X77075000Y-67450000I75000J0D01*
G01*
X78400000Y-67450000D01*
G75*
G02*
X78475000Y-67525000I0J-75000D01*
G01*
X78475000Y-67675000D01*
G75*
G02*
X78400000Y-67750000I-75000J0D01*
G01*
X77075000Y-67750000D01*
G75*
G02*
X77000000Y-67675000I0J75000D01*
G01*
G37*
G36*
G01*
X77000000Y-67175000D02*
X77000000Y-67025000D01*
G75*
G02*
X77075000Y-66950000I75000J0D01*
G01*
X78400000Y-66950000D01*
G75*
G02*
X78475000Y-67025000I0J-75000D01*
G01*
X78475000Y-67175000D01*
G75*
G02*
X78400000Y-67250000I-75000J0D01*
G01*
X77075000Y-67250000D01*
G75*
G02*
X77000000Y-67175000I0J75000D01*
G01*
G37*
G36*
G01*
X77000000Y-66675000D02*
X77000000Y-66525000D01*
G75*
G02*
X77075000Y-66450000I75000J0D01*
G01*
X78400000Y-66450000D01*
G75*
G02*
X78475000Y-66525000I0J-75000D01*
G01*
X78475000Y-66675000D01*
G75*
G02*
X78400000Y-66750000I-75000J0D01*
G01*
X77075000Y-66750000D01*
G75*
G02*
X77000000Y-66675000I0J75000D01*
G01*
G37*
G36*
G01*
X77000000Y-66175000D02*
X77000000Y-66025000D01*
G75*
G02*
X77075000Y-65950000I75000J0D01*
G01*
X78400000Y-65950000D01*
G75*
G02*
X78475000Y-66025000I0J-75000D01*
G01*
X78475000Y-66175000D01*
G75*
G02*
X78400000Y-66250000I-75000J0D01*
G01*
X77075000Y-66250000D01*
G75*
G02*
X77000000Y-66175000I0J75000D01*
G01*
G37*
G36*
G01*
X77000000Y-65675000D02*
X77000000Y-65525000D01*
G75*
G02*
X77075000Y-65450000I75000J0D01*
G01*
X78400000Y-65450000D01*
G75*
G02*
X78475000Y-65525000I0J-75000D01*
G01*
X78475000Y-65675000D01*
G75*
G02*
X78400000Y-65750000I-75000J0D01*
G01*
X77075000Y-65750000D01*
G75*
G02*
X77000000Y-65675000I0J75000D01*
G01*
G37*
G36*
G01*
X77000000Y-65175000D02*
X77000000Y-65025000D01*
G75*
G02*
X77075000Y-64950000I75000J0D01*
G01*
X78400000Y-64950000D01*
G75*
G02*
X78475000Y-65025000I0J-75000D01*
G01*
X78475000Y-65175000D01*
G75*
G02*
X78400000Y-65250000I-75000J0D01*
G01*
X77075000Y-65250000D01*
G75*
G02*
X77000000Y-65175000I0J75000D01*
G01*
G37*
G36*
G01*
X77000000Y-64675000D02*
X77000000Y-64525000D01*
G75*
G02*
X77075000Y-64450000I75000J0D01*
G01*
X78400000Y-64450000D01*
G75*
G02*
X78475000Y-64525000I0J-75000D01*
G01*
X78475000Y-64675000D01*
G75*
G02*
X78400000Y-64750000I-75000J0D01*
G01*
X77075000Y-64750000D01*
G75*
G02*
X77000000Y-64675000I0J75000D01*
G01*
G37*
G36*
G01*
X77000000Y-64175000D02*
X77000000Y-64025000D01*
G75*
G02*
X77075000Y-63950000I75000J0D01*
G01*
X78400000Y-63950000D01*
G75*
G02*
X78475000Y-64025000I0J-75000D01*
G01*
X78475000Y-64175000D01*
G75*
G02*
X78400000Y-64250000I-75000J0D01*
G01*
X77075000Y-64250000D01*
G75*
G02*
X77000000Y-64175000I0J75000D01*
G01*
G37*
G36*
G01*
X77000000Y-63675000D02*
X77000000Y-63525000D01*
G75*
G02*
X77075000Y-63450000I75000J0D01*
G01*
X78400000Y-63450000D01*
G75*
G02*
X78475000Y-63525000I0J-75000D01*
G01*
X78475000Y-63675000D01*
G75*
G02*
X78400000Y-63750000I-75000J0D01*
G01*
X77075000Y-63750000D01*
G75*
G02*
X77000000Y-63675000I0J75000D01*
G01*
G37*
G36*
G01*
X77000000Y-63175000D02*
X77000000Y-63025000D01*
G75*
G02*
X77075000Y-62950000I75000J0D01*
G01*
X78400000Y-62950000D01*
G75*
G02*
X78475000Y-63025000I0J-75000D01*
G01*
X78475000Y-63175000D01*
G75*
G02*
X78400000Y-63250000I-75000J0D01*
G01*
X77075000Y-63250000D01*
G75*
G02*
X77000000Y-63175000I0J75000D01*
G01*
G37*
G36*
G01*
X77000000Y-62675000D02*
X77000000Y-62525000D01*
G75*
G02*
X77075000Y-62450000I75000J0D01*
G01*
X78400000Y-62450000D01*
G75*
G02*
X78475000Y-62525000I0J-75000D01*
G01*
X78475000Y-62675000D01*
G75*
G02*
X78400000Y-62750000I-75000J0D01*
G01*
X77075000Y-62750000D01*
G75*
G02*
X77000000Y-62675000I0J75000D01*
G01*
G37*
G36*
G01*
X77000000Y-62175000D02*
X77000000Y-62025000D01*
G75*
G02*
X77075000Y-61950000I75000J0D01*
G01*
X78400000Y-61950000D01*
G75*
G02*
X78475000Y-62025000I0J-75000D01*
G01*
X78475000Y-62175000D01*
G75*
G02*
X78400000Y-62250000I-75000J0D01*
G01*
X77075000Y-62250000D01*
G75*
G02*
X77000000Y-62175000I0J75000D01*
G01*
G37*
G36*
G01*
X77000000Y-61675000D02*
X77000000Y-61525000D01*
G75*
G02*
X77075000Y-61450000I75000J0D01*
G01*
X78400000Y-61450000D01*
G75*
G02*
X78475000Y-61525000I0J-75000D01*
G01*
X78475000Y-61675000D01*
G75*
G02*
X78400000Y-61750000I-75000J0D01*
G01*
X77075000Y-61750000D01*
G75*
G02*
X77000000Y-61675000I0J75000D01*
G01*
G37*
G36*
G01*
X77000000Y-61175000D02*
X77000000Y-61025000D01*
G75*
G02*
X77075000Y-60950000I75000J0D01*
G01*
X78400000Y-60950000D01*
G75*
G02*
X78475000Y-61025000I0J-75000D01*
G01*
X78475000Y-61175000D01*
G75*
G02*
X78400000Y-61250000I-75000J0D01*
G01*
X77075000Y-61250000D01*
G75*
G02*
X77000000Y-61175000I0J75000D01*
G01*
G37*
G36*
G01*
X77000000Y-60675000D02*
X77000000Y-60525000D01*
G75*
G02*
X77075000Y-60450000I75000J0D01*
G01*
X78400000Y-60450000D01*
G75*
G02*
X78475000Y-60525000I0J-75000D01*
G01*
X78475000Y-60675000D01*
G75*
G02*
X78400000Y-60750000I-75000J0D01*
G01*
X77075000Y-60750000D01*
G75*
G02*
X77000000Y-60675000I0J75000D01*
G01*
G37*
G36*
G01*
X77000000Y-60175000D02*
X77000000Y-60025000D01*
G75*
G02*
X77075000Y-59950000I75000J0D01*
G01*
X78400000Y-59950000D01*
G75*
G02*
X78475000Y-60025000I0J-75000D01*
G01*
X78475000Y-60175000D01*
G75*
G02*
X78400000Y-60250000I-75000J0D01*
G01*
X77075000Y-60250000D01*
G75*
G02*
X77000000Y-60175000I0J75000D01*
G01*
G37*
G36*
G01*
X77000000Y-59675000D02*
X77000000Y-59525000D01*
G75*
G02*
X77075000Y-59450000I75000J0D01*
G01*
X78400000Y-59450000D01*
G75*
G02*
X78475000Y-59525000I0J-75000D01*
G01*
X78475000Y-59675000D01*
G75*
G02*
X78400000Y-59750000I-75000J0D01*
G01*
X77075000Y-59750000D01*
G75*
G02*
X77000000Y-59675000I0J75000D01*
G01*
G37*
G36*
G01*
X77000000Y-59175000D02*
X77000000Y-59025000D01*
G75*
G02*
X77075000Y-58950000I75000J0D01*
G01*
X78400000Y-58950000D01*
G75*
G02*
X78475000Y-59025000I0J-75000D01*
G01*
X78475000Y-59175000D01*
G75*
G02*
X78400000Y-59250000I-75000J0D01*
G01*
X77075000Y-59250000D01*
G75*
G02*
X77000000Y-59175000I0J75000D01*
G01*
G37*
G36*
G01*
X77000000Y-58675000D02*
X77000000Y-58525000D01*
G75*
G02*
X77075000Y-58450000I75000J0D01*
G01*
X78400000Y-58450000D01*
G75*
G02*
X78475000Y-58525000I0J-75000D01*
G01*
X78475000Y-58675000D01*
G75*
G02*
X78400000Y-58750000I-75000J0D01*
G01*
X77075000Y-58750000D01*
G75*
G02*
X77000000Y-58675000I0J75000D01*
G01*
G37*
G36*
G01*
X77000000Y-58175000D02*
X77000000Y-58025000D01*
G75*
G02*
X77075000Y-57950000I75000J0D01*
G01*
X78400000Y-57950000D01*
G75*
G02*
X78475000Y-58025000I0J-75000D01*
G01*
X78475000Y-58175000D01*
G75*
G02*
X78400000Y-58250000I-75000J0D01*
G01*
X77075000Y-58250000D01*
G75*
G02*
X77000000Y-58175000I0J75000D01*
G01*
G37*
G36*
G01*
X77000000Y-57675000D02*
X77000000Y-57525000D01*
G75*
G02*
X77075000Y-57450000I75000J0D01*
G01*
X78400000Y-57450000D01*
G75*
G02*
X78475000Y-57525000I0J-75000D01*
G01*
X78475000Y-57675000D01*
G75*
G02*
X78400000Y-57750000I-75000J0D01*
G01*
X77075000Y-57750000D01*
G75*
G02*
X77000000Y-57675000I0J75000D01*
G01*
G37*
G36*
G01*
X77000000Y-57175000D02*
X77000000Y-57025000D01*
G75*
G02*
X77075000Y-56950000I75000J0D01*
G01*
X78400000Y-56950000D01*
G75*
G02*
X78475000Y-57025000I0J-75000D01*
G01*
X78475000Y-57175000D01*
G75*
G02*
X78400000Y-57250000I-75000J0D01*
G01*
X77075000Y-57250000D01*
G75*
G02*
X77000000Y-57175000I0J75000D01*
G01*
G37*
G36*
G01*
X77000000Y-56675000D02*
X77000000Y-56525000D01*
G75*
G02*
X77075000Y-56450000I75000J0D01*
G01*
X78400000Y-56450000D01*
G75*
G02*
X78475000Y-56525000I0J-75000D01*
G01*
X78475000Y-56675000D01*
G75*
G02*
X78400000Y-56750000I-75000J0D01*
G01*
X77075000Y-56750000D01*
G75*
G02*
X77000000Y-56675000I0J75000D01*
G01*
G37*
G36*
G01*
X77000000Y-56175000D02*
X77000000Y-56025000D01*
G75*
G02*
X77075000Y-55950000I75000J0D01*
G01*
X78400000Y-55950000D01*
G75*
G02*
X78475000Y-56025000I0J-75000D01*
G01*
X78475000Y-56175000D01*
G75*
G02*
X78400000Y-56250000I-75000J0D01*
G01*
X77075000Y-56250000D01*
G75*
G02*
X77000000Y-56175000I0J75000D01*
G01*
G37*
%TD*%
D10*
%TO.C,J5*%
X68960000Y-96200000D03*
X66420000Y-96200000D03*
X63880000Y-96200000D03*
X61340000Y-96200000D03*
D11*
X58800000Y-96200000D03*
%TD*%
%TO.C,C8*%
G36*
G01*
X69975000Y-75850000D02*
X69025000Y-75850000D01*
G75*
G02*
X68775000Y-75600000I0J250000D01*
G01*
X68775000Y-75100000D01*
G75*
G02*
X69025000Y-74850000I250000J0D01*
G01*
X69975000Y-74850000D01*
G75*
G02*
X70225000Y-75100000I0J-250000D01*
G01*
X70225000Y-75600000D01*
G75*
G02*
X69975000Y-75850000I-250000J0D01*
G01*
G37*
G36*
G01*
X69975000Y-77750000D02*
X69025000Y-77750000D01*
G75*
G02*
X68775000Y-77500000I0J250000D01*
G01*
X68775000Y-77000000D01*
G75*
G02*
X69025000Y-76750000I250000J0D01*
G01*
X69975000Y-76750000D01*
G75*
G02*
X70225000Y-77000000I0J-250000D01*
G01*
X70225000Y-77500000D01*
G75*
G02*
X69975000Y-77750000I-250000J0D01*
G01*
G37*
%TD*%
D12*
%TO.C,U5*%
X67150000Y-68500000D03*
X67150000Y-69150000D03*
X67150000Y-69800000D03*
X67150000Y-70450000D03*
X63750000Y-70450000D03*
X63750000Y-69800000D03*
X63750000Y-69150000D03*
X63750000Y-68500000D03*
%TD*%
%TO.C,U2*%
X67400000Y-60250000D03*
X67400000Y-60900000D03*
X67400000Y-61550000D03*
X67400000Y-62200000D03*
X64000000Y-62200000D03*
X64000000Y-61550000D03*
X64000000Y-60900000D03*
X64000000Y-60250000D03*
%TD*%
D13*
%TO.C,J1*%
X118955000Y-91300000D03*
X85655000Y-91300000D03*
D14*
X93995000Y-93840000D03*
X96765000Y-93840000D03*
X99535000Y-93840000D03*
X102305000Y-93840000D03*
X105075000Y-93840000D03*
X107845000Y-93840000D03*
X110615000Y-93840000D03*
X92610000Y-91000000D03*
X95380000Y-91000000D03*
X98150000Y-91000000D03*
X100920000Y-91000000D03*
X103690000Y-91000000D03*
X106460000Y-91000000D03*
X109230000Y-91000000D03*
D15*
X112000000Y-91000000D03*
%TD*%
%TO.C,C12*%
G36*
G01*
X82100000Y-49025000D02*
X82100000Y-49975000D01*
G75*
G02*
X81850000Y-50225000I-250000J0D01*
G01*
X81350000Y-50225000D01*
G75*
G02*
X81100000Y-49975000I0J250000D01*
G01*
X81100000Y-49025000D01*
G75*
G02*
X81350000Y-48775000I250000J0D01*
G01*
X81850000Y-48775000D01*
G75*
G02*
X82100000Y-49025000I0J-250000D01*
G01*
G37*
G36*
G01*
X84000000Y-49025000D02*
X84000000Y-49975000D01*
G75*
G02*
X83750000Y-50225000I-250000J0D01*
G01*
X83250000Y-50225000D01*
G75*
G02*
X83000000Y-49975000I0J250000D01*
G01*
X83000000Y-49025000D01*
G75*
G02*
X83250000Y-48775000I250000J0D01*
G01*
X83750000Y-48775000D01*
G75*
G02*
X84000000Y-49025000I0J-250000D01*
G01*
G37*
%TD*%
%TO.C,U4*%
G36*
G01*
X111225000Y-53837500D02*
X111225000Y-53562500D01*
G75*
G02*
X111362500Y-53425000I137500J0D01*
G01*
X112612500Y-53425000D01*
G75*
G02*
X112750000Y-53562500I0J-137500D01*
G01*
X112750000Y-53837500D01*
G75*
G02*
X112612500Y-53975000I-137500J0D01*
G01*
X111362500Y-53975000D01*
G75*
G02*
X111225000Y-53837500I0J137500D01*
G01*
G37*
G36*
G01*
X111225000Y-54637500D02*
X111225000Y-54362500D01*
G75*
G02*
X111362500Y-54225000I137500J0D01*
G01*
X112612500Y-54225000D01*
G75*
G02*
X112750000Y-54362500I0J-137500D01*
G01*
X112750000Y-54637500D01*
G75*
G02*
X112612500Y-54775000I-137500J0D01*
G01*
X111362500Y-54775000D01*
G75*
G02*
X111225000Y-54637500I0J137500D01*
G01*
G37*
G36*
G01*
X111225000Y-55437500D02*
X111225000Y-55162500D01*
G75*
G02*
X111362500Y-55025000I137500J0D01*
G01*
X112612500Y-55025000D01*
G75*
G02*
X112750000Y-55162500I0J-137500D01*
G01*
X112750000Y-55437500D01*
G75*
G02*
X112612500Y-55575000I-137500J0D01*
G01*
X111362500Y-55575000D01*
G75*
G02*
X111225000Y-55437500I0J137500D01*
G01*
G37*
G36*
G01*
X111225000Y-56237500D02*
X111225000Y-55962500D01*
G75*
G02*
X111362500Y-55825000I137500J0D01*
G01*
X112612500Y-55825000D01*
G75*
G02*
X112750000Y-55962500I0J-137500D01*
G01*
X112750000Y-56237500D01*
G75*
G02*
X112612500Y-56375000I-137500J0D01*
G01*
X111362500Y-56375000D01*
G75*
G02*
X111225000Y-56237500I0J137500D01*
G01*
G37*
G36*
G01*
X111225000Y-57037500D02*
X111225000Y-56762500D01*
G75*
G02*
X111362500Y-56625000I137500J0D01*
G01*
X112612500Y-56625000D01*
G75*
G02*
X112750000Y-56762500I0J-137500D01*
G01*
X112750000Y-57037500D01*
G75*
G02*
X112612500Y-57175000I-137500J0D01*
G01*
X111362500Y-57175000D01*
G75*
G02*
X111225000Y-57037500I0J137500D01*
G01*
G37*
G36*
G01*
X111225000Y-57837500D02*
X111225000Y-57562500D01*
G75*
G02*
X111362500Y-57425000I137500J0D01*
G01*
X112612500Y-57425000D01*
G75*
G02*
X112750000Y-57562500I0J-137500D01*
G01*
X112750000Y-57837500D01*
G75*
G02*
X112612500Y-57975000I-137500J0D01*
G01*
X111362500Y-57975000D01*
G75*
G02*
X111225000Y-57837500I0J137500D01*
G01*
G37*
G36*
G01*
X111225000Y-58637500D02*
X111225000Y-58362500D01*
G75*
G02*
X111362500Y-58225000I137500J0D01*
G01*
X112612500Y-58225000D01*
G75*
G02*
X112750000Y-58362500I0J-137500D01*
G01*
X112750000Y-58637500D01*
G75*
G02*
X112612500Y-58775000I-137500J0D01*
G01*
X111362500Y-58775000D01*
G75*
G02*
X111225000Y-58637500I0J137500D01*
G01*
G37*
G36*
G01*
X111225000Y-59437500D02*
X111225000Y-59162500D01*
G75*
G02*
X111362500Y-59025000I137500J0D01*
G01*
X112612500Y-59025000D01*
G75*
G02*
X112750000Y-59162500I0J-137500D01*
G01*
X112750000Y-59437500D01*
G75*
G02*
X112612500Y-59575000I-137500J0D01*
G01*
X111362500Y-59575000D01*
G75*
G02*
X111225000Y-59437500I0J137500D01*
G01*
G37*
G36*
G01*
X111225000Y-60237500D02*
X111225000Y-59962500D01*
G75*
G02*
X111362500Y-59825000I137500J0D01*
G01*
X112612500Y-59825000D01*
G75*
G02*
X112750000Y-59962500I0J-137500D01*
G01*
X112750000Y-60237500D01*
G75*
G02*
X112612500Y-60375000I-137500J0D01*
G01*
X111362500Y-60375000D01*
G75*
G02*
X111225000Y-60237500I0J137500D01*
G01*
G37*
G36*
G01*
X111225000Y-61037500D02*
X111225000Y-60762500D01*
G75*
G02*
X111362500Y-60625000I137500J0D01*
G01*
X112612500Y-60625000D01*
G75*
G02*
X112750000Y-60762500I0J-137500D01*
G01*
X112750000Y-61037500D01*
G75*
G02*
X112612500Y-61175000I-137500J0D01*
G01*
X111362500Y-61175000D01*
G75*
G02*
X111225000Y-61037500I0J137500D01*
G01*
G37*
G36*
G01*
X111225000Y-61837500D02*
X111225000Y-61562500D01*
G75*
G02*
X111362500Y-61425000I137500J0D01*
G01*
X112612500Y-61425000D01*
G75*
G02*
X112750000Y-61562500I0J-137500D01*
G01*
X112750000Y-61837500D01*
G75*
G02*
X112612500Y-61975000I-137500J0D01*
G01*
X111362500Y-61975000D01*
G75*
G02*
X111225000Y-61837500I0J137500D01*
G01*
G37*
G36*
G01*
X111225000Y-62637500D02*
X111225000Y-62362500D01*
G75*
G02*
X111362500Y-62225000I137500J0D01*
G01*
X112612500Y-62225000D01*
G75*
G02*
X112750000Y-62362500I0J-137500D01*
G01*
X112750000Y-62637500D01*
G75*
G02*
X112612500Y-62775000I-137500J0D01*
G01*
X111362500Y-62775000D01*
G75*
G02*
X111225000Y-62637500I0J137500D01*
G01*
G37*
G36*
G01*
X111225000Y-63437500D02*
X111225000Y-63162500D01*
G75*
G02*
X111362500Y-63025000I137500J0D01*
G01*
X112612500Y-63025000D01*
G75*
G02*
X112750000Y-63162500I0J-137500D01*
G01*
X112750000Y-63437500D01*
G75*
G02*
X112612500Y-63575000I-137500J0D01*
G01*
X111362500Y-63575000D01*
G75*
G02*
X111225000Y-63437500I0J137500D01*
G01*
G37*
G36*
G01*
X111225000Y-64237500D02*
X111225000Y-63962500D01*
G75*
G02*
X111362500Y-63825000I137500J0D01*
G01*
X112612500Y-63825000D01*
G75*
G02*
X112750000Y-63962500I0J-137500D01*
G01*
X112750000Y-64237500D01*
G75*
G02*
X112612500Y-64375000I-137500J0D01*
G01*
X111362500Y-64375000D01*
G75*
G02*
X111225000Y-64237500I0J137500D01*
G01*
G37*
G36*
G01*
X111225000Y-65037500D02*
X111225000Y-64762500D01*
G75*
G02*
X111362500Y-64625000I137500J0D01*
G01*
X112612500Y-64625000D01*
G75*
G02*
X112750000Y-64762500I0J-137500D01*
G01*
X112750000Y-65037500D01*
G75*
G02*
X112612500Y-65175000I-137500J0D01*
G01*
X111362500Y-65175000D01*
G75*
G02*
X111225000Y-65037500I0J137500D01*
G01*
G37*
G36*
G01*
X111225000Y-65837500D02*
X111225000Y-65562500D01*
G75*
G02*
X111362500Y-65425000I137500J0D01*
G01*
X112612500Y-65425000D01*
G75*
G02*
X112750000Y-65562500I0J-137500D01*
G01*
X112750000Y-65837500D01*
G75*
G02*
X112612500Y-65975000I-137500J0D01*
G01*
X111362500Y-65975000D01*
G75*
G02*
X111225000Y-65837500I0J137500D01*
G01*
G37*
G36*
G01*
X111225000Y-66637500D02*
X111225000Y-66362500D01*
G75*
G02*
X111362500Y-66225000I137500J0D01*
G01*
X112612500Y-66225000D01*
G75*
G02*
X112750000Y-66362500I0J-137500D01*
G01*
X112750000Y-66637500D01*
G75*
G02*
X112612500Y-66775000I-137500J0D01*
G01*
X111362500Y-66775000D01*
G75*
G02*
X111225000Y-66637500I0J137500D01*
G01*
G37*
G36*
G01*
X111225000Y-67437500D02*
X111225000Y-67162500D01*
G75*
G02*
X111362500Y-67025000I137500J0D01*
G01*
X112612500Y-67025000D01*
G75*
G02*
X112750000Y-67162500I0J-137500D01*
G01*
X112750000Y-67437500D01*
G75*
G02*
X112612500Y-67575000I-137500J0D01*
G01*
X111362500Y-67575000D01*
G75*
G02*
X111225000Y-67437500I0J137500D01*
G01*
G37*
G36*
G01*
X111225000Y-68237500D02*
X111225000Y-67962500D01*
G75*
G02*
X111362500Y-67825000I137500J0D01*
G01*
X112612500Y-67825000D01*
G75*
G02*
X112750000Y-67962500I0J-137500D01*
G01*
X112750000Y-68237500D01*
G75*
G02*
X112612500Y-68375000I-137500J0D01*
G01*
X111362500Y-68375000D01*
G75*
G02*
X111225000Y-68237500I0J137500D01*
G01*
G37*
G36*
G01*
X111225000Y-69037500D02*
X111225000Y-68762500D01*
G75*
G02*
X111362500Y-68625000I137500J0D01*
G01*
X112612500Y-68625000D01*
G75*
G02*
X112750000Y-68762500I0J-137500D01*
G01*
X112750000Y-69037500D01*
G75*
G02*
X112612500Y-69175000I-137500J0D01*
G01*
X111362500Y-69175000D01*
G75*
G02*
X111225000Y-69037500I0J137500D01*
G01*
G37*
G36*
G01*
X111225000Y-69837500D02*
X111225000Y-69562500D01*
G75*
G02*
X111362500Y-69425000I137500J0D01*
G01*
X112612500Y-69425000D01*
G75*
G02*
X112750000Y-69562500I0J-137500D01*
G01*
X112750000Y-69837500D01*
G75*
G02*
X112612500Y-69975000I-137500J0D01*
G01*
X111362500Y-69975000D01*
G75*
G02*
X111225000Y-69837500I0J137500D01*
G01*
G37*
G36*
G01*
X111225000Y-70637500D02*
X111225000Y-70362500D01*
G75*
G02*
X111362500Y-70225000I137500J0D01*
G01*
X112612500Y-70225000D01*
G75*
G02*
X112750000Y-70362500I0J-137500D01*
G01*
X112750000Y-70637500D01*
G75*
G02*
X112612500Y-70775000I-137500J0D01*
G01*
X111362500Y-70775000D01*
G75*
G02*
X111225000Y-70637500I0J137500D01*
G01*
G37*
G36*
G01*
X100050000Y-70637500D02*
X100050000Y-70362500D01*
G75*
G02*
X100187500Y-70225000I137500J0D01*
G01*
X101437500Y-70225000D01*
G75*
G02*
X101575000Y-70362500I0J-137500D01*
G01*
X101575000Y-70637500D01*
G75*
G02*
X101437500Y-70775000I-137500J0D01*
G01*
X100187500Y-70775000D01*
G75*
G02*
X100050000Y-70637500I0J137500D01*
G01*
G37*
G36*
G01*
X100050000Y-69837500D02*
X100050000Y-69562500D01*
G75*
G02*
X100187500Y-69425000I137500J0D01*
G01*
X101437500Y-69425000D01*
G75*
G02*
X101575000Y-69562500I0J-137500D01*
G01*
X101575000Y-69837500D01*
G75*
G02*
X101437500Y-69975000I-137500J0D01*
G01*
X100187500Y-69975000D01*
G75*
G02*
X100050000Y-69837500I0J137500D01*
G01*
G37*
G36*
G01*
X100050000Y-69037500D02*
X100050000Y-68762500D01*
G75*
G02*
X100187500Y-68625000I137500J0D01*
G01*
X101437500Y-68625000D01*
G75*
G02*
X101575000Y-68762500I0J-137500D01*
G01*
X101575000Y-69037500D01*
G75*
G02*
X101437500Y-69175000I-137500J0D01*
G01*
X100187500Y-69175000D01*
G75*
G02*
X100050000Y-69037500I0J137500D01*
G01*
G37*
G36*
G01*
X100050000Y-68237500D02*
X100050000Y-67962500D01*
G75*
G02*
X100187500Y-67825000I137500J0D01*
G01*
X101437500Y-67825000D01*
G75*
G02*
X101575000Y-67962500I0J-137500D01*
G01*
X101575000Y-68237500D01*
G75*
G02*
X101437500Y-68375000I-137500J0D01*
G01*
X100187500Y-68375000D01*
G75*
G02*
X100050000Y-68237500I0J137500D01*
G01*
G37*
G36*
G01*
X100050000Y-67437500D02*
X100050000Y-67162500D01*
G75*
G02*
X100187500Y-67025000I137500J0D01*
G01*
X101437500Y-67025000D01*
G75*
G02*
X101575000Y-67162500I0J-137500D01*
G01*
X101575000Y-67437500D01*
G75*
G02*
X101437500Y-67575000I-137500J0D01*
G01*
X100187500Y-67575000D01*
G75*
G02*
X100050000Y-67437500I0J137500D01*
G01*
G37*
G36*
G01*
X100050000Y-66637500D02*
X100050000Y-66362500D01*
G75*
G02*
X100187500Y-66225000I137500J0D01*
G01*
X101437500Y-66225000D01*
G75*
G02*
X101575000Y-66362500I0J-137500D01*
G01*
X101575000Y-66637500D01*
G75*
G02*
X101437500Y-66775000I-137500J0D01*
G01*
X100187500Y-66775000D01*
G75*
G02*
X100050000Y-66637500I0J137500D01*
G01*
G37*
G36*
G01*
X100050000Y-65837500D02*
X100050000Y-65562500D01*
G75*
G02*
X100187500Y-65425000I137500J0D01*
G01*
X101437500Y-65425000D01*
G75*
G02*
X101575000Y-65562500I0J-137500D01*
G01*
X101575000Y-65837500D01*
G75*
G02*
X101437500Y-65975000I-137500J0D01*
G01*
X100187500Y-65975000D01*
G75*
G02*
X100050000Y-65837500I0J137500D01*
G01*
G37*
G36*
G01*
X100050000Y-65037500D02*
X100050000Y-64762500D01*
G75*
G02*
X100187500Y-64625000I137500J0D01*
G01*
X101437500Y-64625000D01*
G75*
G02*
X101575000Y-64762500I0J-137500D01*
G01*
X101575000Y-65037500D01*
G75*
G02*
X101437500Y-65175000I-137500J0D01*
G01*
X100187500Y-65175000D01*
G75*
G02*
X100050000Y-65037500I0J137500D01*
G01*
G37*
G36*
G01*
X100050000Y-64237500D02*
X100050000Y-63962500D01*
G75*
G02*
X100187500Y-63825000I137500J0D01*
G01*
X101437500Y-63825000D01*
G75*
G02*
X101575000Y-63962500I0J-137500D01*
G01*
X101575000Y-64237500D01*
G75*
G02*
X101437500Y-64375000I-137500J0D01*
G01*
X100187500Y-64375000D01*
G75*
G02*
X100050000Y-64237500I0J137500D01*
G01*
G37*
G36*
G01*
X100050000Y-63437500D02*
X100050000Y-63162500D01*
G75*
G02*
X100187500Y-63025000I137500J0D01*
G01*
X101437500Y-63025000D01*
G75*
G02*
X101575000Y-63162500I0J-137500D01*
G01*
X101575000Y-63437500D01*
G75*
G02*
X101437500Y-63575000I-137500J0D01*
G01*
X100187500Y-63575000D01*
G75*
G02*
X100050000Y-63437500I0J137500D01*
G01*
G37*
G36*
G01*
X100050000Y-62637500D02*
X100050000Y-62362500D01*
G75*
G02*
X100187500Y-62225000I137500J0D01*
G01*
X101437500Y-62225000D01*
G75*
G02*
X101575000Y-62362500I0J-137500D01*
G01*
X101575000Y-62637500D01*
G75*
G02*
X101437500Y-62775000I-137500J0D01*
G01*
X100187500Y-62775000D01*
G75*
G02*
X100050000Y-62637500I0J137500D01*
G01*
G37*
G36*
G01*
X100050000Y-61837500D02*
X100050000Y-61562500D01*
G75*
G02*
X100187500Y-61425000I137500J0D01*
G01*
X101437500Y-61425000D01*
G75*
G02*
X101575000Y-61562500I0J-137500D01*
G01*
X101575000Y-61837500D01*
G75*
G02*
X101437500Y-61975000I-137500J0D01*
G01*
X100187500Y-61975000D01*
G75*
G02*
X100050000Y-61837500I0J137500D01*
G01*
G37*
G36*
G01*
X100050000Y-61037500D02*
X100050000Y-60762500D01*
G75*
G02*
X100187500Y-60625000I137500J0D01*
G01*
X101437500Y-60625000D01*
G75*
G02*
X101575000Y-60762500I0J-137500D01*
G01*
X101575000Y-61037500D01*
G75*
G02*
X101437500Y-61175000I-137500J0D01*
G01*
X100187500Y-61175000D01*
G75*
G02*
X100050000Y-61037500I0J137500D01*
G01*
G37*
G36*
G01*
X100050000Y-60237500D02*
X100050000Y-59962500D01*
G75*
G02*
X100187500Y-59825000I137500J0D01*
G01*
X101437500Y-59825000D01*
G75*
G02*
X101575000Y-59962500I0J-137500D01*
G01*
X101575000Y-60237500D01*
G75*
G02*
X101437500Y-60375000I-137500J0D01*
G01*
X100187500Y-60375000D01*
G75*
G02*
X100050000Y-60237500I0J137500D01*
G01*
G37*
G36*
G01*
X100050000Y-59437500D02*
X100050000Y-59162500D01*
G75*
G02*
X100187500Y-59025000I137500J0D01*
G01*
X101437500Y-59025000D01*
G75*
G02*
X101575000Y-59162500I0J-137500D01*
G01*
X101575000Y-59437500D01*
G75*
G02*
X101437500Y-59575000I-137500J0D01*
G01*
X100187500Y-59575000D01*
G75*
G02*
X100050000Y-59437500I0J137500D01*
G01*
G37*
G36*
G01*
X100050000Y-58637500D02*
X100050000Y-58362500D01*
G75*
G02*
X100187500Y-58225000I137500J0D01*
G01*
X101437500Y-58225000D01*
G75*
G02*
X101575000Y-58362500I0J-137500D01*
G01*
X101575000Y-58637500D01*
G75*
G02*
X101437500Y-58775000I-137500J0D01*
G01*
X100187500Y-58775000D01*
G75*
G02*
X100050000Y-58637500I0J137500D01*
G01*
G37*
G36*
G01*
X100050000Y-57837500D02*
X100050000Y-57562500D01*
G75*
G02*
X100187500Y-57425000I137500J0D01*
G01*
X101437500Y-57425000D01*
G75*
G02*
X101575000Y-57562500I0J-137500D01*
G01*
X101575000Y-57837500D01*
G75*
G02*
X101437500Y-57975000I-137500J0D01*
G01*
X100187500Y-57975000D01*
G75*
G02*
X100050000Y-57837500I0J137500D01*
G01*
G37*
G36*
G01*
X100050000Y-57037500D02*
X100050000Y-56762500D01*
G75*
G02*
X100187500Y-56625000I137500J0D01*
G01*
X101437500Y-56625000D01*
G75*
G02*
X101575000Y-56762500I0J-137500D01*
G01*
X101575000Y-57037500D01*
G75*
G02*
X101437500Y-57175000I-137500J0D01*
G01*
X100187500Y-57175000D01*
G75*
G02*
X100050000Y-57037500I0J137500D01*
G01*
G37*
G36*
G01*
X100050000Y-56237500D02*
X100050000Y-55962500D01*
G75*
G02*
X100187500Y-55825000I137500J0D01*
G01*
X101437500Y-55825000D01*
G75*
G02*
X101575000Y-55962500I0J-137500D01*
G01*
X101575000Y-56237500D01*
G75*
G02*
X101437500Y-56375000I-137500J0D01*
G01*
X100187500Y-56375000D01*
G75*
G02*
X100050000Y-56237500I0J137500D01*
G01*
G37*
G36*
G01*
X100050000Y-55437500D02*
X100050000Y-55162500D01*
G75*
G02*
X100187500Y-55025000I137500J0D01*
G01*
X101437500Y-55025000D01*
G75*
G02*
X101575000Y-55162500I0J-137500D01*
G01*
X101575000Y-55437500D01*
G75*
G02*
X101437500Y-55575000I-137500J0D01*
G01*
X100187500Y-55575000D01*
G75*
G02*
X100050000Y-55437500I0J137500D01*
G01*
G37*
G36*
G01*
X100050000Y-54637500D02*
X100050000Y-54362500D01*
G75*
G02*
X100187500Y-54225000I137500J0D01*
G01*
X101437500Y-54225000D01*
G75*
G02*
X101575000Y-54362500I0J-137500D01*
G01*
X101575000Y-54637500D01*
G75*
G02*
X101437500Y-54775000I-137500J0D01*
G01*
X100187500Y-54775000D01*
G75*
G02*
X100050000Y-54637500I0J137500D01*
G01*
G37*
G36*
G01*
X100050000Y-53837500D02*
X100050000Y-53562500D01*
G75*
G02*
X100187500Y-53425000I137500J0D01*
G01*
X101437500Y-53425000D01*
G75*
G02*
X101575000Y-53562500I0J-137500D01*
G01*
X101575000Y-53837500D01*
G75*
G02*
X101437500Y-53975000I-137500J0D01*
G01*
X100187500Y-53975000D01*
G75*
G02*
X100050000Y-53837500I0J137500D01*
G01*
G37*
%TD*%
%TO.C,R13*%
G36*
G01*
X109587500Y-85149999D02*
X109587500Y-86050001D01*
G75*
G02*
X109337501Y-86300000I-249999J0D01*
G01*
X108812499Y-86300000D01*
G75*
G02*
X108562500Y-86050001I0J249999D01*
G01*
X108562500Y-85149999D01*
G75*
G02*
X108812499Y-84900000I249999J0D01*
G01*
X109337501Y-84900000D01*
G75*
G02*
X109587500Y-85149999I0J-249999D01*
G01*
G37*
G36*
G01*
X111412500Y-85149999D02*
X111412500Y-86050001D01*
G75*
G02*
X111162501Y-86300000I-249999J0D01*
G01*
X110637499Y-86300000D01*
G75*
G02*
X110387500Y-86050001I0J249999D01*
G01*
X110387500Y-85149999D01*
G75*
G02*
X110637499Y-84900000I249999J0D01*
G01*
X111162501Y-84900000D01*
G75*
G02*
X111412500Y-85149999I0J-249999D01*
G01*
G37*
%TD*%
%TO.C,R14*%
G36*
G01*
X109687500Y-81749999D02*
X109687500Y-82650001D01*
G75*
G02*
X109437501Y-82900000I-249999J0D01*
G01*
X108912499Y-82900000D01*
G75*
G02*
X108662500Y-82650001I0J249999D01*
G01*
X108662500Y-81749999D01*
G75*
G02*
X108912499Y-81500000I249999J0D01*
G01*
X109437501Y-81500000D01*
G75*
G02*
X109687500Y-81749999I0J-249999D01*
G01*
G37*
G36*
G01*
X111512500Y-81749999D02*
X111512500Y-82650001D01*
G75*
G02*
X111262501Y-82900000I-249999J0D01*
G01*
X110737499Y-82900000D01*
G75*
G02*
X110487500Y-82650001I0J249999D01*
G01*
X110487500Y-81749999D01*
G75*
G02*
X110737499Y-81500000I249999J0D01*
G01*
X111262501Y-81500000D01*
G75*
G02*
X111512500Y-81749999I0J-249999D01*
G01*
G37*
%TD*%
%TO.C,R15*%
G36*
G01*
X109587500Y-78349999D02*
X109587500Y-79250001D01*
G75*
G02*
X109337501Y-79500000I-249999J0D01*
G01*
X108812499Y-79500000D01*
G75*
G02*
X108562500Y-79250001I0J249999D01*
G01*
X108562500Y-78349999D01*
G75*
G02*
X108812499Y-78100000I249999J0D01*
G01*
X109337501Y-78100000D01*
G75*
G02*
X109587500Y-78349999I0J-249999D01*
G01*
G37*
G36*
G01*
X111412500Y-78349999D02*
X111412500Y-79250001D01*
G75*
G02*
X111162501Y-79500000I-249999J0D01*
G01*
X110637499Y-79500000D01*
G75*
G02*
X110387500Y-79250001I0J249999D01*
G01*
X110387500Y-78349999D01*
G75*
G02*
X110637499Y-78100000I249999J0D01*
G01*
X111162501Y-78100000D01*
G75*
G02*
X111412500Y-78349999I0J-249999D01*
G01*
G37*
%TD*%
%TO.C,R4*%
G36*
G01*
X95687500Y-53549999D02*
X95687500Y-54450001D01*
G75*
G02*
X95437501Y-54700000I-249999J0D01*
G01*
X94912499Y-54700000D01*
G75*
G02*
X94662500Y-54450001I0J249999D01*
G01*
X94662500Y-53549999D01*
G75*
G02*
X94912499Y-53300000I249999J0D01*
G01*
X95437501Y-53300000D01*
G75*
G02*
X95687500Y-53549999I0J-249999D01*
G01*
G37*
G36*
G01*
X97512500Y-53549999D02*
X97512500Y-54450001D01*
G75*
G02*
X97262501Y-54700000I-249999J0D01*
G01*
X96737499Y-54700000D01*
G75*
G02*
X96487500Y-54450001I0J249999D01*
G01*
X96487500Y-53549999D01*
G75*
G02*
X96737499Y-53300000I249999J0D01*
G01*
X97262501Y-53300000D01*
G75*
G02*
X97512500Y-53549999I0J-249999D01*
G01*
G37*
%TD*%
%TO.C,C25*%
G36*
G01*
X110825000Y-49400000D02*
X109875000Y-49400000D01*
G75*
G02*
X109625000Y-49150000I0J250000D01*
G01*
X109625000Y-48650000D01*
G75*
G02*
X109875000Y-48400000I250000J0D01*
G01*
X110825000Y-48400000D01*
G75*
G02*
X111075000Y-48650000I0J-250000D01*
G01*
X111075000Y-49150000D01*
G75*
G02*
X110825000Y-49400000I-250000J0D01*
G01*
G37*
G36*
G01*
X110825000Y-51300000D02*
X109875000Y-51300000D01*
G75*
G02*
X109625000Y-51050000I0J250000D01*
G01*
X109625000Y-50550000D01*
G75*
G02*
X109875000Y-50300000I250000J0D01*
G01*
X110825000Y-50300000D01*
G75*
G02*
X111075000Y-50550000I0J-250000D01*
G01*
X111075000Y-51050000D01*
G75*
G02*
X110825000Y-51300000I-250000J0D01*
G01*
G37*
%TD*%
%TO.C,U7*%
G36*
G01*
X77025000Y-88275000D02*
X77025000Y-88075000D01*
G75*
G02*
X77125000Y-87975000I100000J0D01*
G01*
X78400000Y-87975000D01*
G75*
G02*
X78500000Y-88075000I0J-100000D01*
G01*
X78500000Y-88275000D01*
G75*
G02*
X78400000Y-88375000I-100000J0D01*
G01*
X77125000Y-88375000D01*
G75*
G02*
X77025000Y-88275000I0J100000D01*
G01*
G37*
G36*
G01*
X77025000Y-88925000D02*
X77025000Y-88725000D01*
G75*
G02*
X77125000Y-88625000I100000J0D01*
G01*
X78400000Y-88625000D01*
G75*
G02*
X78500000Y-88725000I0J-100000D01*
G01*
X78500000Y-88925000D01*
G75*
G02*
X78400000Y-89025000I-100000J0D01*
G01*
X77125000Y-89025000D01*
G75*
G02*
X77025000Y-88925000I0J100000D01*
G01*
G37*
G36*
G01*
X77025000Y-89575000D02*
X77025000Y-89375000D01*
G75*
G02*
X77125000Y-89275000I100000J0D01*
G01*
X78400000Y-89275000D01*
G75*
G02*
X78500000Y-89375000I0J-100000D01*
G01*
X78500000Y-89575000D01*
G75*
G02*
X78400000Y-89675000I-100000J0D01*
G01*
X77125000Y-89675000D01*
G75*
G02*
X77025000Y-89575000I0J100000D01*
G01*
G37*
G36*
G01*
X77025000Y-90225000D02*
X77025000Y-90025000D01*
G75*
G02*
X77125000Y-89925000I100000J0D01*
G01*
X78400000Y-89925000D01*
G75*
G02*
X78500000Y-90025000I0J-100000D01*
G01*
X78500000Y-90225000D01*
G75*
G02*
X78400000Y-90325000I-100000J0D01*
G01*
X77125000Y-90325000D01*
G75*
G02*
X77025000Y-90225000I0J100000D01*
G01*
G37*
G36*
G01*
X77025000Y-90875000D02*
X77025000Y-90675000D01*
G75*
G02*
X77125000Y-90575000I100000J0D01*
G01*
X78400000Y-90575000D01*
G75*
G02*
X78500000Y-90675000I0J-100000D01*
G01*
X78500000Y-90875000D01*
G75*
G02*
X78400000Y-90975000I-100000J0D01*
G01*
X77125000Y-90975000D01*
G75*
G02*
X77025000Y-90875000I0J100000D01*
G01*
G37*
G36*
G01*
X77025000Y-91525000D02*
X77025000Y-91325000D01*
G75*
G02*
X77125000Y-91225000I100000J0D01*
G01*
X78400000Y-91225000D01*
G75*
G02*
X78500000Y-91325000I0J-100000D01*
G01*
X78500000Y-91525000D01*
G75*
G02*
X78400000Y-91625000I-100000J0D01*
G01*
X77125000Y-91625000D01*
G75*
G02*
X77025000Y-91525000I0J100000D01*
G01*
G37*
G36*
G01*
X77025000Y-92175000D02*
X77025000Y-91975000D01*
G75*
G02*
X77125000Y-91875000I100000J0D01*
G01*
X78400000Y-91875000D01*
G75*
G02*
X78500000Y-91975000I0J-100000D01*
G01*
X78500000Y-92175000D01*
G75*
G02*
X78400000Y-92275000I-100000J0D01*
G01*
X77125000Y-92275000D01*
G75*
G02*
X77025000Y-92175000I0J100000D01*
G01*
G37*
G36*
G01*
X77025000Y-92825000D02*
X77025000Y-92625000D01*
G75*
G02*
X77125000Y-92525000I100000J0D01*
G01*
X78400000Y-92525000D01*
G75*
G02*
X78500000Y-92625000I0J-100000D01*
G01*
X78500000Y-92825000D01*
G75*
G02*
X78400000Y-92925000I-100000J0D01*
G01*
X77125000Y-92925000D01*
G75*
G02*
X77025000Y-92825000I0J100000D01*
G01*
G37*
G36*
G01*
X77025000Y-93475000D02*
X77025000Y-93275000D01*
G75*
G02*
X77125000Y-93175000I100000J0D01*
G01*
X78400000Y-93175000D01*
G75*
G02*
X78500000Y-93275000I0J-100000D01*
G01*
X78500000Y-93475000D01*
G75*
G02*
X78400000Y-93575000I-100000J0D01*
G01*
X77125000Y-93575000D01*
G75*
G02*
X77025000Y-93475000I0J100000D01*
G01*
G37*
G36*
G01*
X77025000Y-94125000D02*
X77025000Y-93925000D01*
G75*
G02*
X77125000Y-93825000I100000J0D01*
G01*
X78400000Y-93825000D01*
G75*
G02*
X78500000Y-93925000I0J-100000D01*
G01*
X78500000Y-94125000D01*
G75*
G02*
X78400000Y-94225000I-100000J0D01*
G01*
X77125000Y-94225000D01*
G75*
G02*
X77025000Y-94125000I0J100000D01*
G01*
G37*
G36*
G01*
X71300000Y-94125000D02*
X71300000Y-93925000D01*
G75*
G02*
X71400000Y-93825000I100000J0D01*
G01*
X72675000Y-93825000D01*
G75*
G02*
X72775000Y-93925000I0J-100000D01*
G01*
X72775000Y-94125000D01*
G75*
G02*
X72675000Y-94225000I-100000J0D01*
G01*
X71400000Y-94225000D01*
G75*
G02*
X71300000Y-94125000I0J100000D01*
G01*
G37*
G36*
G01*
X71300000Y-93475000D02*
X71300000Y-93275000D01*
G75*
G02*
X71400000Y-93175000I100000J0D01*
G01*
X72675000Y-93175000D01*
G75*
G02*
X72775000Y-93275000I0J-100000D01*
G01*
X72775000Y-93475000D01*
G75*
G02*
X72675000Y-93575000I-100000J0D01*
G01*
X71400000Y-93575000D01*
G75*
G02*
X71300000Y-93475000I0J100000D01*
G01*
G37*
G36*
G01*
X71300000Y-92825000D02*
X71300000Y-92625000D01*
G75*
G02*
X71400000Y-92525000I100000J0D01*
G01*
X72675000Y-92525000D01*
G75*
G02*
X72775000Y-92625000I0J-100000D01*
G01*
X72775000Y-92825000D01*
G75*
G02*
X72675000Y-92925000I-100000J0D01*
G01*
X71400000Y-92925000D01*
G75*
G02*
X71300000Y-92825000I0J100000D01*
G01*
G37*
G36*
G01*
X71300000Y-92175000D02*
X71300000Y-91975000D01*
G75*
G02*
X71400000Y-91875000I100000J0D01*
G01*
X72675000Y-91875000D01*
G75*
G02*
X72775000Y-91975000I0J-100000D01*
G01*
X72775000Y-92175000D01*
G75*
G02*
X72675000Y-92275000I-100000J0D01*
G01*
X71400000Y-92275000D01*
G75*
G02*
X71300000Y-92175000I0J100000D01*
G01*
G37*
G36*
G01*
X71300000Y-91525000D02*
X71300000Y-91325000D01*
G75*
G02*
X71400000Y-91225000I100000J0D01*
G01*
X72675000Y-91225000D01*
G75*
G02*
X72775000Y-91325000I0J-100000D01*
G01*
X72775000Y-91525000D01*
G75*
G02*
X72675000Y-91625000I-100000J0D01*
G01*
X71400000Y-91625000D01*
G75*
G02*
X71300000Y-91525000I0J100000D01*
G01*
G37*
G36*
G01*
X71300000Y-90875000D02*
X71300000Y-90675000D01*
G75*
G02*
X71400000Y-90575000I100000J0D01*
G01*
X72675000Y-90575000D01*
G75*
G02*
X72775000Y-90675000I0J-100000D01*
G01*
X72775000Y-90875000D01*
G75*
G02*
X72675000Y-90975000I-100000J0D01*
G01*
X71400000Y-90975000D01*
G75*
G02*
X71300000Y-90875000I0J100000D01*
G01*
G37*
G36*
G01*
X71300000Y-90225000D02*
X71300000Y-90025000D01*
G75*
G02*
X71400000Y-89925000I100000J0D01*
G01*
X72675000Y-89925000D01*
G75*
G02*
X72775000Y-90025000I0J-100000D01*
G01*
X72775000Y-90225000D01*
G75*
G02*
X72675000Y-90325000I-100000J0D01*
G01*
X71400000Y-90325000D01*
G75*
G02*
X71300000Y-90225000I0J100000D01*
G01*
G37*
G36*
G01*
X71300000Y-89575000D02*
X71300000Y-89375000D01*
G75*
G02*
X71400000Y-89275000I100000J0D01*
G01*
X72675000Y-89275000D01*
G75*
G02*
X72775000Y-89375000I0J-100000D01*
G01*
X72775000Y-89575000D01*
G75*
G02*
X72675000Y-89675000I-100000J0D01*
G01*
X71400000Y-89675000D01*
G75*
G02*
X71300000Y-89575000I0J100000D01*
G01*
G37*
G36*
G01*
X71300000Y-88925000D02*
X71300000Y-88725000D01*
G75*
G02*
X71400000Y-88625000I100000J0D01*
G01*
X72675000Y-88625000D01*
G75*
G02*
X72775000Y-88725000I0J-100000D01*
G01*
X72775000Y-88925000D01*
G75*
G02*
X72675000Y-89025000I-100000J0D01*
G01*
X71400000Y-89025000D01*
G75*
G02*
X71300000Y-88925000I0J100000D01*
G01*
G37*
G36*
G01*
X71300000Y-88275000D02*
X71300000Y-88075000D01*
G75*
G02*
X71400000Y-87975000I100000J0D01*
G01*
X72675000Y-87975000D01*
G75*
G02*
X72775000Y-88075000I0J-100000D01*
G01*
X72775000Y-88275000D01*
G75*
G02*
X72675000Y-88375000I-100000J0D01*
G01*
X71400000Y-88375000D01*
G75*
G02*
X71300000Y-88275000I0J100000D01*
G01*
G37*
%TD*%
%TO.C,U6*%
G36*
G01*
X77025000Y-78275000D02*
X77025000Y-78075000D01*
G75*
G02*
X77125000Y-77975000I100000J0D01*
G01*
X78400000Y-77975000D01*
G75*
G02*
X78500000Y-78075000I0J-100000D01*
G01*
X78500000Y-78275000D01*
G75*
G02*
X78400000Y-78375000I-100000J0D01*
G01*
X77125000Y-78375000D01*
G75*
G02*
X77025000Y-78275000I0J100000D01*
G01*
G37*
G36*
G01*
X77025000Y-78925000D02*
X77025000Y-78725000D01*
G75*
G02*
X77125000Y-78625000I100000J0D01*
G01*
X78400000Y-78625000D01*
G75*
G02*
X78500000Y-78725000I0J-100000D01*
G01*
X78500000Y-78925000D01*
G75*
G02*
X78400000Y-79025000I-100000J0D01*
G01*
X77125000Y-79025000D01*
G75*
G02*
X77025000Y-78925000I0J100000D01*
G01*
G37*
G36*
G01*
X77025000Y-79575000D02*
X77025000Y-79375000D01*
G75*
G02*
X77125000Y-79275000I100000J0D01*
G01*
X78400000Y-79275000D01*
G75*
G02*
X78500000Y-79375000I0J-100000D01*
G01*
X78500000Y-79575000D01*
G75*
G02*
X78400000Y-79675000I-100000J0D01*
G01*
X77125000Y-79675000D01*
G75*
G02*
X77025000Y-79575000I0J100000D01*
G01*
G37*
G36*
G01*
X77025000Y-80225000D02*
X77025000Y-80025000D01*
G75*
G02*
X77125000Y-79925000I100000J0D01*
G01*
X78400000Y-79925000D01*
G75*
G02*
X78500000Y-80025000I0J-100000D01*
G01*
X78500000Y-80225000D01*
G75*
G02*
X78400000Y-80325000I-100000J0D01*
G01*
X77125000Y-80325000D01*
G75*
G02*
X77025000Y-80225000I0J100000D01*
G01*
G37*
G36*
G01*
X77025000Y-80875000D02*
X77025000Y-80675000D01*
G75*
G02*
X77125000Y-80575000I100000J0D01*
G01*
X78400000Y-80575000D01*
G75*
G02*
X78500000Y-80675000I0J-100000D01*
G01*
X78500000Y-80875000D01*
G75*
G02*
X78400000Y-80975000I-100000J0D01*
G01*
X77125000Y-80975000D01*
G75*
G02*
X77025000Y-80875000I0J100000D01*
G01*
G37*
G36*
G01*
X77025000Y-81525000D02*
X77025000Y-81325000D01*
G75*
G02*
X77125000Y-81225000I100000J0D01*
G01*
X78400000Y-81225000D01*
G75*
G02*
X78500000Y-81325000I0J-100000D01*
G01*
X78500000Y-81525000D01*
G75*
G02*
X78400000Y-81625000I-100000J0D01*
G01*
X77125000Y-81625000D01*
G75*
G02*
X77025000Y-81525000I0J100000D01*
G01*
G37*
G36*
G01*
X77025000Y-82175000D02*
X77025000Y-81975000D01*
G75*
G02*
X77125000Y-81875000I100000J0D01*
G01*
X78400000Y-81875000D01*
G75*
G02*
X78500000Y-81975000I0J-100000D01*
G01*
X78500000Y-82175000D01*
G75*
G02*
X78400000Y-82275000I-100000J0D01*
G01*
X77125000Y-82275000D01*
G75*
G02*
X77025000Y-82175000I0J100000D01*
G01*
G37*
G36*
G01*
X77025000Y-82825000D02*
X77025000Y-82625000D01*
G75*
G02*
X77125000Y-82525000I100000J0D01*
G01*
X78400000Y-82525000D01*
G75*
G02*
X78500000Y-82625000I0J-100000D01*
G01*
X78500000Y-82825000D01*
G75*
G02*
X78400000Y-82925000I-100000J0D01*
G01*
X77125000Y-82925000D01*
G75*
G02*
X77025000Y-82825000I0J100000D01*
G01*
G37*
G36*
G01*
X77025000Y-83475000D02*
X77025000Y-83275000D01*
G75*
G02*
X77125000Y-83175000I100000J0D01*
G01*
X78400000Y-83175000D01*
G75*
G02*
X78500000Y-83275000I0J-100000D01*
G01*
X78500000Y-83475000D01*
G75*
G02*
X78400000Y-83575000I-100000J0D01*
G01*
X77125000Y-83575000D01*
G75*
G02*
X77025000Y-83475000I0J100000D01*
G01*
G37*
G36*
G01*
X77025000Y-84125000D02*
X77025000Y-83925000D01*
G75*
G02*
X77125000Y-83825000I100000J0D01*
G01*
X78400000Y-83825000D01*
G75*
G02*
X78500000Y-83925000I0J-100000D01*
G01*
X78500000Y-84125000D01*
G75*
G02*
X78400000Y-84225000I-100000J0D01*
G01*
X77125000Y-84225000D01*
G75*
G02*
X77025000Y-84125000I0J100000D01*
G01*
G37*
G36*
G01*
X71300000Y-84125000D02*
X71300000Y-83925000D01*
G75*
G02*
X71400000Y-83825000I100000J0D01*
G01*
X72675000Y-83825000D01*
G75*
G02*
X72775000Y-83925000I0J-100000D01*
G01*
X72775000Y-84125000D01*
G75*
G02*
X72675000Y-84225000I-100000J0D01*
G01*
X71400000Y-84225000D01*
G75*
G02*
X71300000Y-84125000I0J100000D01*
G01*
G37*
G36*
G01*
X71300000Y-83475000D02*
X71300000Y-83275000D01*
G75*
G02*
X71400000Y-83175000I100000J0D01*
G01*
X72675000Y-83175000D01*
G75*
G02*
X72775000Y-83275000I0J-100000D01*
G01*
X72775000Y-83475000D01*
G75*
G02*
X72675000Y-83575000I-100000J0D01*
G01*
X71400000Y-83575000D01*
G75*
G02*
X71300000Y-83475000I0J100000D01*
G01*
G37*
G36*
G01*
X71300000Y-82825000D02*
X71300000Y-82625000D01*
G75*
G02*
X71400000Y-82525000I100000J0D01*
G01*
X72675000Y-82525000D01*
G75*
G02*
X72775000Y-82625000I0J-100000D01*
G01*
X72775000Y-82825000D01*
G75*
G02*
X72675000Y-82925000I-100000J0D01*
G01*
X71400000Y-82925000D01*
G75*
G02*
X71300000Y-82825000I0J100000D01*
G01*
G37*
G36*
G01*
X71300000Y-82175000D02*
X71300000Y-81975000D01*
G75*
G02*
X71400000Y-81875000I100000J0D01*
G01*
X72675000Y-81875000D01*
G75*
G02*
X72775000Y-81975000I0J-100000D01*
G01*
X72775000Y-82175000D01*
G75*
G02*
X72675000Y-82275000I-100000J0D01*
G01*
X71400000Y-82275000D01*
G75*
G02*
X71300000Y-82175000I0J100000D01*
G01*
G37*
G36*
G01*
X71300000Y-81525000D02*
X71300000Y-81325000D01*
G75*
G02*
X71400000Y-81225000I100000J0D01*
G01*
X72675000Y-81225000D01*
G75*
G02*
X72775000Y-81325000I0J-100000D01*
G01*
X72775000Y-81525000D01*
G75*
G02*
X72675000Y-81625000I-100000J0D01*
G01*
X71400000Y-81625000D01*
G75*
G02*
X71300000Y-81525000I0J100000D01*
G01*
G37*
G36*
G01*
X71300000Y-80875000D02*
X71300000Y-80675000D01*
G75*
G02*
X71400000Y-80575000I100000J0D01*
G01*
X72675000Y-80575000D01*
G75*
G02*
X72775000Y-80675000I0J-100000D01*
G01*
X72775000Y-80875000D01*
G75*
G02*
X72675000Y-80975000I-100000J0D01*
G01*
X71400000Y-80975000D01*
G75*
G02*
X71300000Y-80875000I0J100000D01*
G01*
G37*
G36*
G01*
X71300000Y-80225000D02*
X71300000Y-80025000D01*
G75*
G02*
X71400000Y-79925000I100000J0D01*
G01*
X72675000Y-79925000D01*
G75*
G02*
X72775000Y-80025000I0J-100000D01*
G01*
X72775000Y-80225000D01*
G75*
G02*
X72675000Y-80325000I-100000J0D01*
G01*
X71400000Y-80325000D01*
G75*
G02*
X71300000Y-80225000I0J100000D01*
G01*
G37*
G36*
G01*
X71300000Y-79575000D02*
X71300000Y-79375000D01*
G75*
G02*
X71400000Y-79275000I100000J0D01*
G01*
X72675000Y-79275000D01*
G75*
G02*
X72775000Y-79375000I0J-100000D01*
G01*
X72775000Y-79575000D01*
G75*
G02*
X72675000Y-79675000I-100000J0D01*
G01*
X71400000Y-79675000D01*
G75*
G02*
X71300000Y-79575000I0J100000D01*
G01*
G37*
G36*
G01*
X71300000Y-78925000D02*
X71300000Y-78725000D01*
G75*
G02*
X71400000Y-78625000I100000J0D01*
G01*
X72675000Y-78625000D01*
G75*
G02*
X72775000Y-78725000I0J-100000D01*
G01*
X72775000Y-78925000D01*
G75*
G02*
X72675000Y-79025000I-100000J0D01*
G01*
X71400000Y-79025000D01*
G75*
G02*
X71300000Y-78925000I0J100000D01*
G01*
G37*
G36*
G01*
X71300000Y-78275000D02*
X71300000Y-78075000D01*
G75*
G02*
X71400000Y-77975000I100000J0D01*
G01*
X72675000Y-77975000D01*
G75*
G02*
X72775000Y-78075000I0J-100000D01*
G01*
X72775000Y-78275000D01*
G75*
G02*
X72675000Y-78375000I-100000J0D01*
G01*
X71400000Y-78375000D01*
G75*
G02*
X71300000Y-78275000I0J100000D01*
G01*
G37*
%TD*%
D16*
%TO.C,Y1*%
X97200000Y-78720000D03*
X97200000Y-83600000D03*
%TD*%
D17*
%TO.C,U1*%
X90930000Y-75000000D03*
X90930000Y-75650000D03*
X90930000Y-76300000D03*
X88270000Y-76300000D03*
X88270000Y-75650000D03*
X88270000Y-75000000D03*
%TD*%
%TO.C,R22*%
G36*
G01*
X75512500Y-96149999D02*
X75512500Y-97050001D01*
G75*
G02*
X75262501Y-97300000I-249999J0D01*
G01*
X74737499Y-97300000D01*
G75*
G02*
X74487500Y-97050001I0J249999D01*
G01*
X74487500Y-96149999D01*
G75*
G02*
X74737499Y-95900000I249999J0D01*
G01*
X75262501Y-95900000D01*
G75*
G02*
X75512500Y-96149999I0J-249999D01*
G01*
G37*
G36*
G01*
X77337500Y-96149999D02*
X77337500Y-97050001D01*
G75*
G02*
X77087501Y-97300000I-249999J0D01*
G01*
X76562499Y-97300000D01*
G75*
G02*
X76312500Y-97050001I0J249999D01*
G01*
X76312500Y-96149999D01*
G75*
G02*
X76562499Y-95900000I249999J0D01*
G01*
X77087501Y-95900000D01*
G75*
G02*
X77337500Y-96149999I0J-249999D01*
G01*
G37*
%TD*%
%TO.C,R21*%
G36*
G01*
X63900001Y-85812500D02*
X62999999Y-85812500D01*
G75*
G02*
X62750000Y-85562501I0J249999D01*
G01*
X62750000Y-85037499D01*
G75*
G02*
X62999999Y-84787500I249999J0D01*
G01*
X63900001Y-84787500D01*
G75*
G02*
X64150000Y-85037499I0J-249999D01*
G01*
X64150000Y-85562501D01*
G75*
G02*
X63900001Y-85812500I-249999J0D01*
G01*
G37*
G36*
G01*
X63900001Y-87637500D02*
X62999999Y-87637500D01*
G75*
G02*
X62750000Y-87387501I0J249999D01*
G01*
X62750000Y-86862499D01*
G75*
G02*
X62999999Y-86612500I249999J0D01*
G01*
X63900001Y-86612500D01*
G75*
G02*
X64150000Y-86862499I0J-249999D01*
G01*
X64150000Y-87387501D01*
G75*
G02*
X63900001Y-87637500I-249999J0D01*
G01*
G37*
%TD*%
%TO.C,R20*%
G36*
G01*
X118612500Y-71849999D02*
X118612500Y-72750001D01*
G75*
G02*
X118362501Y-73000000I-249999J0D01*
G01*
X117837499Y-73000000D01*
G75*
G02*
X117587500Y-72750001I0J249999D01*
G01*
X117587500Y-71849999D01*
G75*
G02*
X117837499Y-71600000I249999J0D01*
G01*
X118362501Y-71600000D01*
G75*
G02*
X118612500Y-71849999I0J-249999D01*
G01*
G37*
G36*
G01*
X120437500Y-71849999D02*
X120437500Y-72750001D01*
G75*
G02*
X120187501Y-73000000I-249999J0D01*
G01*
X119662499Y-73000000D01*
G75*
G02*
X119412500Y-72750001I0J249999D01*
G01*
X119412500Y-71849999D01*
G75*
G02*
X119662499Y-71600000I249999J0D01*
G01*
X120187501Y-71600000D01*
G75*
G02*
X120437500Y-71849999I0J-249999D01*
G01*
G37*
%TD*%
%TO.C,R19*%
G36*
G01*
X118612500Y-75349999D02*
X118612500Y-76250001D01*
G75*
G02*
X118362501Y-76500000I-249999J0D01*
G01*
X117837499Y-76500000D01*
G75*
G02*
X117587500Y-76250001I0J249999D01*
G01*
X117587500Y-75349999D01*
G75*
G02*
X117837499Y-75100000I249999J0D01*
G01*
X118362501Y-75100000D01*
G75*
G02*
X118612500Y-75349999I0J-249999D01*
G01*
G37*
G36*
G01*
X120437500Y-75349999D02*
X120437500Y-76250001D01*
G75*
G02*
X120187501Y-76500000I-249999J0D01*
G01*
X119662499Y-76500000D01*
G75*
G02*
X119412500Y-76250001I0J249999D01*
G01*
X119412500Y-75349999D01*
G75*
G02*
X119662499Y-75100000I249999J0D01*
G01*
X120187501Y-75100000D01*
G75*
G02*
X120437500Y-75349999I0J-249999D01*
G01*
G37*
%TD*%
%TO.C,R18*%
G36*
G01*
X118612500Y-78649999D02*
X118612500Y-79550001D01*
G75*
G02*
X118362501Y-79800000I-249999J0D01*
G01*
X117837499Y-79800000D01*
G75*
G02*
X117587500Y-79550001I0J249999D01*
G01*
X117587500Y-78649999D01*
G75*
G02*
X117837499Y-78400000I249999J0D01*
G01*
X118362501Y-78400000D01*
G75*
G02*
X118612500Y-78649999I0J-249999D01*
G01*
G37*
G36*
G01*
X120437500Y-78649999D02*
X120437500Y-79550001D01*
G75*
G02*
X120187501Y-79800000I-249999J0D01*
G01*
X119662499Y-79800000D01*
G75*
G02*
X119412500Y-79550001I0J249999D01*
G01*
X119412500Y-78649999D01*
G75*
G02*
X119662499Y-78400000I249999J0D01*
G01*
X120187501Y-78400000D01*
G75*
G02*
X120437500Y-78649999I0J-249999D01*
G01*
G37*
%TD*%
%TO.C,R17*%
G36*
G01*
X118612500Y-82049999D02*
X118612500Y-82950001D01*
G75*
G02*
X118362501Y-83200000I-249999J0D01*
G01*
X117837499Y-83200000D01*
G75*
G02*
X117587500Y-82950001I0J249999D01*
G01*
X117587500Y-82049999D01*
G75*
G02*
X117837499Y-81800000I249999J0D01*
G01*
X118362501Y-81800000D01*
G75*
G02*
X118612500Y-82049999I0J-249999D01*
G01*
G37*
G36*
G01*
X120437500Y-82049999D02*
X120437500Y-82950001D01*
G75*
G02*
X120187501Y-83200000I-249999J0D01*
G01*
X119662499Y-83200000D01*
G75*
G02*
X119412500Y-82950001I0J249999D01*
G01*
X119412500Y-82049999D01*
G75*
G02*
X119662499Y-81800000I249999J0D01*
G01*
X120187501Y-81800000D01*
G75*
G02*
X120437500Y-82049999I0J-249999D01*
G01*
G37*
%TD*%
%TO.C,R16*%
G36*
G01*
X118612500Y-85349999D02*
X118612500Y-86250001D01*
G75*
G02*
X118362501Y-86500000I-249999J0D01*
G01*
X117837499Y-86500000D01*
G75*
G02*
X117587500Y-86250001I0J249999D01*
G01*
X117587500Y-85349999D01*
G75*
G02*
X117837499Y-85100000I249999J0D01*
G01*
X118362501Y-85100000D01*
G75*
G02*
X118612500Y-85349999I0J-249999D01*
G01*
G37*
G36*
G01*
X120437500Y-85349999D02*
X120437500Y-86250001D01*
G75*
G02*
X120187501Y-86500000I-249999J0D01*
G01*
X119662499Y-86500000D01*
G75*
G02*
X119412500Y-86250001I0J249999D01*
G01*
X119412500Y-85349999D01*
G75*
G02*
X119662499Y-85100000I249999J0D01*
G01*
X120187501Y-85100000D01*
G75*
G02*
X120437500Y-85349999I0J-249999D01*
G01*
G37*
%TD*%
%TO.C,R12*%
G36*
G01*
X118587500Y-68399999D02*
X118587500Y-69300001D01*
G75*
G02*
X118337501Y-69550000I-249999J0D01*
G01*
X117812499Y-69550000D01*
G75*
G02*
X117562500Y-69300001I0J249999D01*
G01*
X117562500Y-68399999D01*
G75*
G02*
X117812499Y-68150000I249999J0D01*
G01*
X118337501Y-68150000D01*
G75*
G02*
X118587500Y-68399999I0J-249999D01*
G01*
G37*
G36*
G01*
X120412500Y-68399999D02*
X120412500Y-69300001D01*
G75*
G02*
X120162501Y-69550000I-249999J0D01*
G01*
X119637499Y-69550000D01*
G75*
G02*
X119387500Y-69300001I0J249999D01*
G01*
X119387500Y-68399999D01*
G75*
G02*
X119637499Y-68150000I249999J0D01*
G01*
X120162501Y-68150000D01*
G75*
G02*
X120412500Y-68399999I0J-249999D01*
G01*
G37*
%TD*%
%TO.C,R11*%
G36*
G01*
X118487500Y-65149999D02*
X118487500Y-66050001D01*
G75*
G02*
X118237501Y-66300000I-249999J0D01*
G01*
X117712499Y-66300000D01*
G75*
G02*
X117462500Y-66050001I0J249999D01*
G01*
X117462500Y-65149999D01*
G75*
G02*
X117712499Y-64900000I249999J0D01*
G01*
X118237501Y-64900000D01*
G75*
G02*
X118487500Y-65149999I0J-249999D01*
G01*
G37*
G36*
G01*
X120312500Y-65149999D02*
X120312500Y-66050001D01*
G75*
G02*
X120062501Y-66300000I-249999J0D01*
G01*
X119537499Y-66300000D01*
G75*
G02*
X119287500Y-66050001I0J249999D01*
G01*
X119287500Y-65149999D01*
G75*
G02*
X119537499Y-64900000I249999J0D01*
G01*
X120062501Y-64900000D01*
G75*
G02*
X120312500Y-65149999I0J-249999D01*
G01*
G37*
%TD*%
%TO.C,R10*%
G36*
G01*
X118487500Y-58449999D02*
X118487500Y-59350001D01*
G75*
G02*
X118237501Y-59600000I-249999J0D01*
G01*
X117712499Y-59600000D01*
G75*
G02*
X117462500Y-59350001I0J249999D01*
G01*
X117462500Y-58449999D01*
G75*
G02*
X117712499Y-58200000I249999J0D01*
G01*
X118237501Y-58200000D01*
G75*
G02*
X118487500Y-58449999I0J-249999D01*
G01*
G37*
G36*
G01*
X120312500Y-58449999D02*
X120312500Y-59350001D01*
G75*
G02*
X120062501Y-59600000I-249999J0D01*
G01*
X119537499Y-59600000D01*
G75*
G02*
X119287500Y-59350001I0J249999D01*
G01*
X119287500Y-58449999D01*
G75*
G02*
X119537499Y-58200000I249999J0D01*
G01*
X120062501Y-58200000D01*
G75*
G02*
X120312500Y-58449999I0J-249999D01*
G01*
G37*
%TD*%
%TO.C,R9*%
G36*
G01*
X118487500Y-61849999D02*
X118487500Y-62750001D01*
G75*
G02*
X118237501Y-63000000I-249999J0D01*
G01*
X117712499Y-63000000D01*
G75*
G02*
X117462500Y-62750001I0J249999D01*
G01*
X117462500Y-61849999D01*
G75*
G02*
X117712499Y-61600000I249999J0D01*
G01*
X118237501Y-61600000D01*
G75*
G02*
X118487500Y-61849999I0J-249999D01*
G01*
G37*
G36*
G01*
X120312500Y-61849999D02*
X120312500Y-62750001D01*
G75*
G02*
X120062501Y-63000000I-249999J0D01*
G01*
X119537499Y-63000000D01*
G75*
G02*
X119287500Y-62750001I0J249999D01*
G01*
X119287500Y-61849999D01*
G75*
G02*
X119537499Y-61600000I249999J0D01*
G01*
X120062501Y-61600000D01*
G75*
G02*
X120312500Y-61849999I0J-249999D01*
G01*
G37*
%TD*%
%TO.C,R8*%
G36*
G01*
X118287500Y-55149999D02*
X118287500Y-56050001D01*
G75*
G02*
X118037501Y-56300000I-249999J0D01*
G01*
X117512499Y-56300000D01*
G75*
G02*
X117262500Y-56050001I0J249999D01*
G01*
X117262500Y-55149999D01*
G75*
G02*
X117512499Y-54900000I249999J0D01*
G01*
X118037501Y-54900000D01*
G75*
G02*
X118287500Y-55149999I0J-249999D01*
G01*
G37*
G36*
G01*
X120112500Y-55149999D02*
X120112500Y-56050001D01*
G75*
G02*
X119862501Y-56300000I-249999J0D01*
G01*
X119337499Y-56300000D01*
G75*
G02*
X119087500Y-56050001I0J249999D01*
G01*
X119087500Y-55149999D01*
G75*
G02*
X119337499Y-54900000I249999J0D01*
G01*
X119862501Y-54900000D01*
G75*
G02*
X120112500Y-55149999I0J-249999D01*
G01*
G37*
%TD*%
%TO.C,R7*%
G36*
G01*
X118287500Y-51899999D02*
X118287500Y-52800001D01*
G75*
G02*
X118037501Y-53050000I-249999J0D01*
G01*
X117512499Y-53050000D01*
G75*
G02*
X117262500Y-52800001I0J249999D01*
G01*
X117262500Y-51899999D01*
G75*
G02*
X117512499Y-51650000I249999J0D01*
G01*
X118037501Y-51650000D01*
G75*
G02*
X118287500Y-51899999I0J-249999D01*
G01*
G37*
G36*
G01*
X120112500Y-51899999D02*
X120112500Y-52800001D01*
G75*
G02*
X119862501Y-53050000I-249999J0D01*
G01*
X119337499Y-53050000D01*
G75*
G02*
X119087500Y-52800001I0J249999D01*
G01*
X119087500Y-51899999D01*
G75*
G02*
X119337499Y-51650000I249999J0D01*
G01*
X119862501Y-51650000D01*
G75*
G02*
X120112500Y-51899999I0J-249999D01*
G01*
G37*
%TD*%
%TO.C,R6*%
G36*
G01*
X118287500Y-48649999D02*
X118287500Y-49550001D01*
G75*
G02*
X118037501Y-49800000I-249999J0D01*
G01*
X117512499Y-49800000D01*
G75*
G02*
X117262500Y-49550001I0J249999D01*
G01*
X117262500Y-48649999D01*
G75*
G02*
X117512499Y-48400000I249999J0D01*
G01*
X118037501Y-48400000D01*
G75*
G02*
X118287500Y-48649999I0J-249999D01*
G01*
G37*
G36*
G01*
X120112500Y-48649999D02*
X120112500Y-49550001D01*
G75*
G02*
X119862501Y-49800000I-249999J0D01*
G01*
X119337499Y-49800000D01*
G75*
G02*
X119087500Y-49550001I0J249999D01*
G01*
X119087500Y-48649999D01*
G75*
G02*
X119337499Y-48400000I249999J0D01*
G01*
X119862501Y-48400000D01*
G75*
G02*
X120112500Y-48649999I0J-249999D01*
G01*
G37*
%TD*%
%TO.C,R5*%
G36*
G01*
X115350001Y-59787500D02*
X114449999Y-59787500D01*
G75*
G02*
X114200000Y-59537501I0J249999D01*
G01*
X114200000Y-59012499D01*
G75*
G02*
X114449999Y-58762500I249999J0D01*
G01*
X115350001Y-58762500D01*
G75*
G02*
X115600000Y-59012499I0J-249999D01*
G01*
X115600000Y-59537501D01*
G75*
G02*
X115350001Y-59787500I-249999J0D01*
G01*
G37*
G36*
G01*
X115350001Y-61612500D02*
X114449999Y-61612500D01*
G75*
G02*
X114200000Y-61362501I0J249999D01*
G01*
X114200000Y-60837499D01*
G75*
G02*
X114449999Y-60587500I249999J0D01*
G01*
X115350001Y-60587500D01*
G75*
G02*
X115600000Y-60837499I0J-249999D01*
G01*
X115600000Y-61362501D01*
G75*
G02*
X115350001Y-61612500I-249999J0D01*
G01*
G37*
%TD*%
%TO.C,R3*%
G36*
G01*
X114449999Y-55837500D02*
X115350001Y-55837500D01*
G75*
G02*
X115600000Y-56087499I0J-249999D01*
G01*
X115600000Y-56612501D01*
G75*
G02*
X115350001Y-56862500I-249999J0D01*
G01*
X114449999Y-56862500D01*
G75*
G02*
X114200000Y-56612501I0J249999D01*
G01*
X114200000Y-56087499D01*
G75*
G02*
X114449999Y-55837500I249999J0D01*
G01*
G37*
G36*
G01*
X114449999Y-54012500D02*
X115350001Y-54012500D01*
G75*
G02*
X115600000Y-54262499I0J-249999D01*
G01*
X115600000Y-54787501D01*
G75*
G02*
X115350001Y-55037500I-249999J0D01*
G01*
X114449999Y-55037500D01*
G75*
G02*
X114200000Y-54787501I0J249999D01*
G01*
X114200000Y-54262499D01*
G75*
G02*
X114449999Y-54012500I249999J0D01*
G01*
G37*
%TD*%
%TO.C,R2*%
G36*
G01*
X93050001Y-79337500D02*
X92149999Y-79337500D01*
G75*
G02*
X91900000Y-79087501I0J249999D01*
G01*
X91900000Y-78562499D01*
G75*
G02*
X92149999Y-78312500I249999J0D01*
G01*
X93050001Y-78312500D01*
G75*
G02*
X93300000Y-78562499I0J-249999D01*
G01*
X93300000Y-79087501D01*
G75*
G02*
X93050001Y-79337500I-249999J0D01*
G01*
G37*
G36*
G01*
X93050001Y-81162500D02*
X92149999Y-81162500D01*
G75*
G02*
X91900000Y-80912501I0J249999D01*
G01*
X91900000Y-80387499D01*
G75*
G02*
X92149999Y-80137500I249999J0D01*
G01*
X93050001Y-80137500D01*
G75*
G02*
X93300000Y-80387499I0J-249999D01*
G01*
X93300000Y-80912501D01*
G75*
G02*
X93050001Y-81162500I-249999J0D01*
G01*
G37*
%TD*%
%TO.C,R1*%
G36*
G01*
X88050001Y-79162500D02*
X87149999Y-79162500D01*
G75*
G02*
X86900000Y-78912501I0J249999D01*
G01*
X86900000Y-78387499D01*
G75*
G02*
X87149999Y-78137500I249999J0D01*
G01*
X88050001Y-78137500D01*
G75*
G02*
X88300000Y-78387499I0J-249999D01*
G01*
X88300000Y-78912501D01*
G75*
G02*
X88050001Y-79162500I-249999J0D01*
G01*
G37*
G36*
G01*
X88050001Y-80987500D02*
X87149999Y-80987500D01*
G75*
G02*
X86900000Y-80737501I0J249999D01*
G01*
X86900000Y-80212499D01*
G75*
G02*
X87149999Y-79962500I249999J0D01*
G01*
X88050001Y-79962500D01*
G75*
G02*
X88300000Y-80212499I0J-249999D01*
G01*
X88300000Y-80737501D01*
G75*
G02*
X88050001Y-80987500I-249999J0D01*
G01*
G37*
%TD*%
D10*
%TO.C,J6*%
X53900000Y-95200000D03*
X53900000Y-92660000D03*
X53900000Y-90120000D03*
X53900000Y-87580000D03*
X53900000Y-85040000D03*
X53900000Y-82500000D03*
X53900000Y-79960000D03*
X53900000Y-77420000D03*
X53900000Y-74880000D03*
X53900000Y-72340000D03*
X53900000Y-69800000D03*
X53900000Y-67260000D03*
X53900000Y-64720000D03*
X53900000Y-62180000D03*
X53900000Y-59640000D03*
D11*
X53900000Y-57100000D03*
%TD*%
D10*
%TO.C,J3*%
X58600000Y-50140000D03*
D11*
X58600000Y-47600000D03*
%TD*%
D10*
%TO.C,J2*%
X53800000Y-50140000D03*
D11*
X53800000Y-47600000D03*
%TD*%
%TO.C,C26*%
G36*
G01*
X67925000Y-48000000D02*
X68875000Y-48000000D01*
G75*
G02*
X69125000Y-48250000I0J-250000D01*
G01*
X69125000Y-48750000D01*
G75*
G02*
X68875000Y-49000000I-250000J0D01*
G01*
X67925000Y-49000000D01*
G75*
G02*
X67675000Y-48750000I0J250000D01*
G01*
X67675000Y-48250000D01*
G75*
G02*
X67925000Y-48000000I250000J0D01*
G01*
G37*
G36*
G01*
X67925000Y-46100000D02*
X68875000Y-46100000D01*
G75*
G02*
X69125000Y-46350000I0J-250000D01*
G01*
X69125000Y-46850000D01*
G75*
G02*
X68875000Y-47100000I-250000J0D01*
G01*
X67925000Y-47100000D01*
G75*
G02*
X67675000Y-46850000I0J250000D01*
G01*
X67675000Y-46350000D01*
G75*
G02*
X67925000Y-46100000I250000J0D01*
G01*
G37*
%TD*%
%TO.C,C24*%
G36*
G01*
X82100000Y-45525000D02*
X82100000Y-46475000D01*
G75*
G02*
X81850000Y-46725000I-250000J0D01*
G01*
X81350000Y-46725000D01*
G75*
G02*
X81100000Y-46475000I0J250000D01*
G01*
X81100000Y-45525000D01*
G75*
G02*
X81350000Y-45275000I250000J0D01*
G01*
X81850000Y-45275000D01*
G75*
G02*
X82100000Y-45525000I0J-250000D01*
G01*
G37*
G36*
G01*
X84000000Y-45525000D02*
X84000000Y-46475000D01*
G75*
G02*
X83750000Y-46725000I-250000J0D01*
G01*
X83250000Y-46725000D01*
G75*
G02*
X83000000Y-46475000I0J250000D01*
G01*
X83000000Y-45525000D01*
G75*
G02*
X83250000Y-45275000I250000J0D01*
G01*
X83750000Y-45275000D01*
G75*
G02*
X84000000Y-45525000I0J-250000D01*
G01*
G37*
%TD*%
%TO.C,C23*%
G36*
G01*
X101000000Y-73675000D02*
X101000000Y-72725000D01*
G75*
G02*
X101250000Y-72475000I250000J0D01*
G01*
X101750000Y-72475000D01*
G75*
G02*
X102000000Y-72725000I0J-250000D01*
G01*
X102000000Y-73675000D01*
G75*
G02*
X101750000Y-73925000I-250000J0D01*
G01*
X101250000Y-73925000D01*
G75*
G02*
X101000000Y-73675000I0J250000D01*
G01*
G37*
G36*
G01*
X99100000Y-73675000D02*
X99100000Y-72725000D01*
G75*
G02*
X99350000Y-72475000I250000J0D01*
G01*
X99850000Y-72475000D01*
G75*
G02*
X100100000Y-72725000I0J-250000D01*
G01*
X100100000Y-73675000D01*
G75*
G02*
X99850000Y-73925000I-250000J0D01*
G01*
X99350000Y-73925000D01*
G75*
G02*
X99100000Y-73675000I0J250000D01*
G01*
G37*
%TD*%
%TO.C,C22*%
G36*
G01*
X77725000Y-48000000D02*
X78675000Y-48000000D01*
G75*
G02*
X78925000Y-48250000I0J-250000D01*
G01*
X78925000Y-48750000D01*
G75*
G02*
X78675000Y-49000000I-250000J0D01*
G01*
X77725000Y-49000000D01*
G75*
G02*
X77475000Y-48750000I0J250000D01*
G01*
X77475000Y-48250000D01*
G75*
G02*
X77725000Y-48000000I250000J0D01*
G01*
G37*
G36*
G01*
X77725000Y-46100000D02*
X78675000Y-46100000D01*
G75*
G02*
X78925000Y-46350000I0J-250000D01*
G01*
X78925000Y-46850000D01*
G75*
G02*
X78675000Y-47100000I-250000J0D01*
G01*
X77725000Y-47100000D01*
G75*
G02*
X77475000Y-46850000I0J250000D01*
G01*
X77475000Y-46350000D01*
G75*
G02*
X77725000Y-46100000I250000J0D01*
G01*
G37*
%TD*%
%TO.C,C21*%
G36*
G01*
X104325000Y-77150000D02*
X105275000Y-77150000D01*
G75*
G02*
X105525000Y-77400000I0J-250000D01*
G01*
X105525000Y-77900000D01*
G75*
G02*
X105275000Y-78150000I-250000J0D01*
G01*
X104325000Y-78150000D01*
G75*
G02*
X104075000Y-77900000I0J250000D01*
G01*
X104075000Y-77400000D01*
G75*
G02*
X104325000Y-77150000I250000J0D01*
G01*
G37*
G36*
G01*
X104325000Y-75250000D02*
X105275000Y-75250000D01*
G75*
G02*
X105525000Y-75500000I0J-250000D01*
G01*
X105525000Y-76000000D01*
G75*
G02*
X105275000Y-76250000I-250000J0D01*
G01*
X104325000Y-76250000D01*
G75*
G02*
X104075000Y-76000000I0J250000D01*
G01*
X104075000Y-75500000D01*
G75*
G02*
X104325000Y-75250000I250000J0D01*
G01*
G37*
%TD*%
%TO.C,C20*%
G36*
G01*
X66225000Y-75850000D02*
X65275000Y-75850000D01*
G75*
G02*
X65025000Y-75600000I0J250000D01*
G01*
X65025000Y-75100000D01*
G75*
G02*
X65275000Y-74850000I250000J0D01*
G01*
X66225000Y-74850000D01*
G75*
G02*
X66475000Y-75100000I0J-250000D01*
G01*
X66475000Y-75600000D01*
G75*
G02*
X66225000Y-75850000I-250000J0D01*
G01*
G37*
G36*
G01*
X66225000Y-77750000D02*
X65275000Y-77750000D01*
G75*
G02*
X65025000Y-77500000I0J250000D01*
G01*
X65025000Y-77000000D01*
G75*
G02*
X65275000Y-76750000I250000J0D01*
G01*
X66225000Y-76750000D01*
G75*
G02*
X66475000Y-77000000I0J-250000D01*
G01*
X66475000Y-77500000D01*
G75*
G02*
X66225000Y-77750000I-250000J0D01*
G01*
G37*
%TD*%
%TO.C,C19*%
G36*
G01*
X70500000Y-52275000D02*
X70500000Y-51325000D01*
G75*
G02*
X70750000Y-51075000I250000J0D01*
G01*
X71250000Y-51075000D01*
G75*
G02*
X71500000Y-51325000I0J-250000D01*
G01*
X71500000Y-52275000D01*
G75*
G02*
X71250000Y-52525000I-250000J0D01*
G01*
X70750000Y-52525000D01*
G75*
G02*
X70500000Y-52275000I0J250000D01*
G01*
G37*
G36*
G01*
X68600000Y-52275000D02*
X68600000Y-51325000D01*
G75*
G02*
X68850000Y-51075000I250000J0D01*
G01*
X69350000Y-51075000D01*
G75*
G02*
X69600000Y-51325000I0J-250000D01*
G01*
X69600000Y-52275000D01*
G75*
G02*
X69350000Y-52525000I-250000J0D01*
G01*
X68850000Y-52525000D01*
G75*
G02*
X68600000Y-52275000I0J250000D01*
G01*
G37*
%TD*%
%TO.C,C18*%
G36*
G01*
X66575000Y-86600000D02*
X67525000Y-86600000D01*
G75*
G02*
X67775000Y-86850000I0J-250000D01*
G01*
X67775000Y-87350000D01*
G75*
G02*
X67525000Y-87600000I-250000J0D01*
G01*
X66575000Y-87600000D01*
G75*
G02*
X66325000Y-87350000I0J250000D01*
G01*
X66325000Y-86850000D01*
G75*
G02*
X66575000Y-86600000I250000J0D01*
G01*
G37*
G36*
G01*
X66575000Y-84700000D02*
X67525000Y-84700000D01*
G75*
G02*
X67775000Y-84950000I0J-250000D01*
G01*
X67775000Y-85450000D01*
G75*
G02*
X67525000Y-85700000I-250000J0D01*
G01*
X66575000Y-85700000D01*
G75*
G02*
X66325000Y-85450000I0J250000D01*
G01*
X66325000Y-84950000D01*
G75*
G02*
X66575000Y-84700000I250000J0D01*
G01*
G37*
%TD*%
%TO.C,C17*%
G36*
G01*
X62125000Y-48000000D02*
X63075000Y-48000000D01*
G75*
G02*
X63325000Y-48250000I0J-250000D01*
G01*
X63325000Y-48750000D01*
G75*
G02*
X63075000Y-49000000I-250000J0D01*
G01*
X62125000Y-49000000D01*
G75*
G02*
X61875000Y-48750000I0J250000D01*
G01*
X61875000Y-48250000D01*
G75*
G02*
X62125000Y-48000000I250000J0D01*
G01*
G37*
G36*
G01*
X62125000Y-46100000D02*
X63075000Y-46100000D01*
G75*
G02*
X63325000Y-46350000I0J-250000D01*
G01*
X63325000Y-46850000D01*
G75*
G02*
X63075000Y-47100000I-250000J0D01*
G01*
X62125000Y-47100000D01*
G75*
G02*
X61875000Y-46850000I0J250000D01*
G01*
X61875000Y-46350000D01*
G75*
G02*
X62125000Y-46100000I250000J0D01*
G01*
G37*
%TD*%
%TO.C,C16*%
G36*
G01*
X62500000Y-56525000D02*
X62500000Y-57475000D01*
G75*
G02*
X62250000Y-57725000I-250000J0D01*
G01*
X61750000Y-57725000D01*
G75*
G02*
X61500000Y-57475000I0J250000D01*
G01*
X61500000Y-56525000D01*
G75*
G02*
X61750000Y-56275000I250000J0D01*
G01*
X62250000Y-56275000D01*
G75*
G02*
X62500000Y-56525000I0J-250000D01*
G01*
G37*
G36*
G01*
X64400000Y-56525000D02*
X64400000Y-57475000D01*
G75*
G02*
X64150000Y-57725000I-250000J0D01*
G01*
X63650000Y-57725000D01*
G75*
G02*
X63400000Y-57475000I0J250000D01*
G01*
X63400000Y-56525000D01*
G75*
G02*
X63650000Y-56275000I250000J0D01*
G01*
X64150000Y-56275000D01*
G75*
G02*
X64400000Y-56525000I0J-250000D01*
G01*
G37*
%TD*%
%TO.C,C15*%
G36*
G01*
X62300000Y-65025000D02*
X62300000Y-65975000D01*
G75*
G02*
X62050000Y-66225000I-250000J0D01*
G01*
X61550000Y-66225000D01*
G75*
G02*
X61300000Y-65975000I0J250000D01*
G01*
X61300000Y-65025000D01*
G75*
G02*
X61550000Y-64775000I250000J0D01*
G01*
X62050000Y-64775000D01*
G75*
G02*
X62300000Y-65025000I0J-250000D01*
G01*
G37*
G36*
G01*
X64200000Y-65025000D02*
X64200000Y-65975000D01*
G75*
G02*
X63950000Y-66225000I-250000J0D01*
G01*
X63450000Y-66225000D01*
G75*
G02*
X63200000Y-65975000I0J250000D01*
G01*
X63200000Y-65025000D01*
G75*
G02*
X63450000Y-64775000I250000J0D01*
G01*
X63950000Y-64775000D01*
G75*
G02*
X64200000Y-65025000I0J-250000D01*
G01*
G37*
%TD*%
%TO.C,C14*%
G36*
G01*
X114325000Y-49400000D02*
X113375000Y-49400000D01*
G75*
G02*
X113125000Y-49150000I0J250000D01*
G01*
X113125000Y-48650000D01*
G75*
G02*
X113375000Y-48400000I250000J0D01*
G01*
X114325000Y-48400000D01*
G75*
G02*
X114575000Y-48650000I0J-250000D01*
G01*
X114575000Y-49150000D01*
G75*
G02*
X114325000Y-49400000I-250000J0D01*
G01*
G37*
G36*
G01*
X114325000Y-51300000D02*
X113375000Y-51300000D01*
G75*
G02*
X113125000Y-51050000I0J250000D01*
G01*
X113125000Y-50550000D01*
G75*
G02*
X113375000Y-50300000I250000J0D01*
G01*
X114325000Y-50300000D01*
G75*
G02*
X114575000Y-50550000I0J-250000D01*
G01*
X114575000Y-51050000D01*
G75*
G02*
X114325000Y-51300000I-250000J0D01*
G01*
G37*
%TD*%
%TO.C,C13*%
G36*
G01*
X71325000Y-48000000D02*
X72275000Y-48000000D01*
G75*
G02*
X72525000Y-48250000I0J-250000D01*
G01*
X72525000Y-48750000D01*
G75*
G02*
X72275000Y-49000000I-250000J0D01*
G01*
X71325000Y-49000000D01*
G75*
G02*
X71075000Y-48750000I0J250000D01*
G01*
X71075000Y-48250000D01*
G75*
G02*
X71325000Y-48000000I250000J0D01*
G01*
G37*
G36*
G01*
X71325000Y-46100000D02*
X72275000Y-46100000D01*
G75*
G02*
X72525000Y-46350000I0J-250000D01*
G01*
X72525000Y-46850000D01*
G75*
G02*
X72275000Y-47100000I-250000J0D01*
G01*
X71325000Y-47100000D01*
G75*
G02*
X71075000Y-46850000I0J250000D01*
G01*
X71075000Y-46350000D01*
G75*
G02*
X71325000Y-46100000I250000J0D01*
G01*
G37*
%TD*%
%TO.C,C11*%
G36*
G01*
X96400000Y-71575000D02*
X96400000Y-70625000D01*
G75*
G02*
X96650000Y-70375000I250000J0D01*
G01*
X97150000Y-70375000D01*
G75*
G02*
X97400000Y-70625000I0J-250000D01*
G01*
X97400000Y-71575000D01*
G75*
G02*
X97150000Y-71825000I-250000J0D01*
G01*
X96650000Y-71825000D01*
G75*
G02*
X96400000Y-71575000I0J250000D01*
G01*
G37*
G36*
G01*
X94500000Y-71575000D02*
X94500000Y-70625000D01*
G75*
G02*
X94750000Y-70375000I250000J0D01*
G01*
X95250000Y-70375000D01*
G75*
G02*
X95500000Y-70625000I0J-250000D01*
G01*
X95500000Y-71575000D01*
G75*
G02*
X95250000Y-71825000I-250000J0D01*
G01*
X94750000Y-71825000D01*
G75*
G02*
X94500000Y-71575000I0J250000D01*
G01*
G37*
%TD*%
%TO.C,C10*%
G36*
G01*
X74525000Y-48000000D02*
X75475000Y-48000000D01*
G75*
G02*
X75725000Y-48250000I0J-250000D01*
G01*
X75725000Y-48750000D01*
G75*
G02*
X75475000Y-49000000I-250000J0D01*
G01*
X74525000Y-49000000D01*
G75*
G02*
X74275000Y-48750000I0J250000D01*
G01*
X74275000Y-48250000D01*
G75*
G02*
X74525000Y-48000000I250000J0D01*
G01*
G37*
G36*
G01*
X74525000Y-46100000D02*
X75475000Y-46100000D01*
G75*
G02*
X75725000Y-46350000I0J-250000D01*
G01*
X75725000Y-46850000D01*
G75*
G02*
X75475000Y-47100000I-250000J0D01*
G01*
X74525000Y-47100000D01*
G75*
G02*
X74275000Y-46850000I0J250000D01*
G01*
X74275000Y-46350000D01*
G75*
G02*
X74525000Y-46100000I250000J0D01*
G01*
G37*
%TD*%
%TO.C,C9*%
G36*
G01*
X100925000Y-77150000D02*
X101875000Y-77150000D01*
G75*
G02*
X102125000Y-77400000I0J-250000D01*
G01*
X102125000Y-77900000D01*
G75*
G02*
X101875000Y-78150000I-250000J0D01*
G01*
X100925000Y-78150000D01*
G75*
G02*
X100675000Y-77900000I0J250000D01*
G01*
X100675000Y-77400000D01*
G75*
G02*
X100925000Y-77150000I250000J0D01*
G01*
G37*
G36*
G01*
X100925000Y-75250000D02*
X101875000Y-75250000D01*
G75*
G02*
X102125000Y-75500000I0J-250000D01*
G01*
X102125000Y-76000000D01*
G75*
G02*
X101875000Y-76250000I-250000J0D01*
G01*
X100925000Y-76250000D01*
G75*
G02*
X100675000Y-76000000I0J250000D01*
G01*
X100675000Y-75500000D01*
G75*
G02*
X100925000Y-75250000I250000J0D01*
G01*
G37*
%TD*%
%TO.C,C7*%
G36*
G01*
X87300000Y-72675000D02*
X87300000Y-71725000D01*
G75*
G02*
X87550000Y-71475000I250000J0D01*
G01*
X88050000Y-71475000D01*
G75*
G02*
X88300000Y-71725000I0J-250000D01*
G01*
X88300000Y-72675000D01*
G75*
G02*
X88050000Y-72925000I-250000J0D01*
G01*
X87550000Y-72925000D01*
G75*
G02*
X87300000Y-72675000I0J250000D01*
G01*
G37*
G36*
G01*
X85400000Y-72675000D02*
X85400000Y-71725000D01*
G75*
G02*
X85650000Y-71475000I250000J0D01*
G01*
X86150000Y-71475000D01*
G75*
G02*
X86400000Y-71725000I0J-250000D01*
G01*
X86400000Y-72675000D01*
G75*
G02*
X86150000Y-72925000I-250000J0D01*
G01*
X85650000Y-72925000D01*
G75*
G02*
X85400000Y-72675000I0J250000D01*
G01*
G37*
%TD*%
%TO.C,C6*%
G36*
G01*
X69125000Y-86600000D02*
X70075000Y-86600000D01*
G75*
G02*
X70325000Y-86850000I0J-250000D01*
G01*
X70325000Y-87350000D01*
G75*
G02*
X70075000Y-87600000I-250000J0D01*
G01*
X69125000Y-87600000D01*
G75*
G02*
X68875000Y-87350000I0J250000D01*
G01*
X68875000Y-86850000D01*
G75*
G02*
X69125000Y-86600000I250000J0D01*
G01*
G37*
G36*
G01*
X69125000Y-84700000D02*
X70075000Y-84700000D01*
G75*
G02*
X70325000Y-84950000I0J-250000D01*
G01*
X70325000Y-85450000D01*
G75*
G02*
X70075000Y-85700000I-250000J0D01*
G01*
X69125000Y-85700000D01*
G75*
G02*
X68875000Y-85450000I0J250000D01*
G01*
X68875000Y-84950000D01*
G75*
G02*
X69125000Y-84700000I250000J0D01*
G01*
G37*
%TD*%
%TO.C,C5*%
G36*
G01*
X64925000Y-48000000D02*
X65875000Y-48000000D01*
G75*
G02*
X66125000Y-48250000I0J-250000D01*
G01*
X66125000Y-48750000D01*
G75*
G02*
X65875000Y-49000000I-250000J0D01*
G01*
X64925000Y-49000000D01*
G75*
G02*
X64675000Y-48750000I0J250000D01*
G01*
X64675000Y-48250000D01*
G75*
G02*
X64925000Y-48000000I250000J0D01*
G01*
G37*
G36*
G01*
X64925000Y-46100000D02*
X65875000Y-46100000D01*
G75*
G02*
X66125000Y-46350000I0J-250000D01*
G01*
X66125000Y-46850000D01*
G75*
G02*
X65875000Y-47100000I-250000J0D01*
G01*
X64925000Y-47100000D01*
G75*
G02*
X64675000Y-46850000I0J250000D01*
G01*
X64675000Y-46350000D01*
G75*
G02*
X64925000Y-46100000I250000J0D01*
G01*
G37*
%TD*%
%TO.C,C4*%
G36*
G01*
X68400000Y-57475000D02*
X68400000Y-56525000D01*
G75*
G02*
X68650000Y-56275000I250000J0D01*
G01*
X69150000Y-56275000D01*
G75*
G02*
X69400000Y-56525000I0J-250000D01*
G01*
X69400000Y-57475000D01*
G75*
G02*
X69150000Y-57725000I-250000J0D01*
G01*
X68650000Y-57725000D01*
G75*
G02*
X68400000Y-57475000I0J250000D01*
G01*
G37*
G36*
G01*
X66500000Y-57475000D02*
X66500000Y-56525000D01*
G75*
G02*
X66750000Y-56275000I250000J0D01*
G01*
X67250000Y-56275000D01*
G75*
G02*
X67500000Y-56525000I0J-250000D01*
G01*
X67500000Y-57475000D01*
G75*
G02*
X67250000Y-57725000I-250000J0D01*
G01*
X66750000Y-57725000D01*
G75*
G02*
X66500000Y-57475000I0J250000D01*
G01*
G37*
%TD*%
%TO.C,C3*%
G36*
G01*
X69000000Y-65975000D02*
X69000000Y-65025000D01*
G75*
G02*
X69250000Y-64775000I250000J0D01*
G01*
X69750000Y-64775000D01*
G75*
G02*
X70000000Y-65025000I0J-250000D01*
G01*
X70000000Y-65975000D01*
G75*
G02*
X69750000Y-66225000I-250000J0D01*
G01*
X69250000Y-66225000D01*
G75*
G02*
X69000000Y-65975000I0J250000D01*
G01*
G37*
G36*
G01*
X67100000Y-65975000D02*
X67100000Y-65025000D01*
G75*
G02*
X67350000Y-64775000I250000J0D01*
G01*
X67850000Y-64775000D01*
G75*
G02*
X68100000Y-65025000I0J-250000D01*
G01*
X68100000Y-65975000D01*
G75*
G02*
X67850000Y-66225000I-250000J0D01*
G01*
X67350000Y-66225000D01*
G75*
G02*
X67100000Y-65975000I0J250000D01*
G01*
G37*
%TD*%
%TO.C,C2*%
G36*
G01*
X93075000Y-85200000D02*
X92125000Y-85200000D01*
G75*
G02*
X91875000Y-84950000I0J250000D01*
G01*
X91875000Y-84450000D01*
G75*
G02*
X92125000Y-84200000I250000J0D01*
G01*
X93075000Y-84200000D01*
G75*
G02*
X93325000Y-84450000I0J-250000D01*
G01*
X93325000Y-84950000D01*
G75*
G02*
X93075000Y-85200000I-250000J0D01*
G01*
G37*
G36*
G01*
X93075000Y-87100000D02*
X92125000Y-87100000D01*
G75*
G02*
X91875000Y-86850000I0J250000D01*
G01*
X91875000Y-86350000D01*
G75*
G02*
X92125000Y-86100000I250000J0D01*
G01*
X93075000Y-86100000D01*
G75*
G02*
X93325000Y-86350000I0J-250000D01*
G01*
X93325000Y-86850000D01*
G75*
G02*
X93075000Y-87100000I-250000J0D01*
G01*
G37*
%TD*%
%TO.C,C1*%
G36*
G01*
X88075000Y-85200000D02*
X87125000Y-85200000D01*
G75*
G02*
X86875000Y-84950000I0J250000D01*
G01*
X86875000Y-84450000D01*
G75*
G02*
X87125000Y-84200000I250000J0D01*
G01*
X88075000Y-84200000D01*
G75*
G02*
X88325000Y-84450000I0J-250000D01*
G01*
X88325000Y-84950000D01*
G75*
G02*
X88075000Y-85200000I-250000J0D01*
G01*
G37*
G36*
G01*
X88075000Y-87100000D02*
X87125000Y-87100000D01*
G75*
G02*
X86875000Y-86850000I0J250000D01*
G01*
X86875000Y-86350000D01*
G75*
G02*
X87125000Y-86100000I250000J0D01*
G01*
X88075000Y-86100000D01*
G75*
G02*
X88325000Y-86350000I0J-250000D01*
G01*
X88325000Y-86850000D01*
G75*
G02*
X88075000Y-87100000I-250000J0D01*
G01*
G37*
%TD*%
M02*
