%TF.GenerationSoftware,KiCad,Pcbnew,(5.1.10)-1*%
%TF.CreationDate,2021-11-09T21:57:45+08:00*%
%TF.ProjectId,CPLD-GPU,43504c44-2d47-4505-952e-6b696361645f,rev?*%
%TF.SameCoordinates,Original*%
%TF.FileFunction,Legend,Top*%
%TF.FilePolarity,Positive*%
%FSLAX46Y46*%
G04 Gerber Fmt 4.6, Leading zero omitted, Abs format (unit mm)*
G04 Created by KiCad (PCBNEW (5.1.10)-1) date 2021-11-09 21:57:45*
%MOMM*%
%LPD*%
G01*
G04 APERTURE LIST*
%ADD10C,0.100000*%
%ADD11C,0.120000*%
%ADD12C,0.150000*%
%ADD13O,1.700000X1.700000*%
%ADD14R,1.700000X1.700000*%
%ADD15R,1.600000X0.300000*%
%ADD16C,4.000000*%
%ADD17C,1.600000*%
%ADD18R,1.600000X1.600000*%
%ADD19C,1.500000*%
%ADD20R,1.500000X0.400000*%
G04 APERTURE END LIST*
D10*
X57093809Y-52222380D02*
X57712857Y-52222380D01*
X57379523Y-52603333D01*
X57522380Y-52603333D01*
X57617619Y-52650952D01*
X57665238Y-52698571D01*
X57712857Y-52793809D01*
X57712857Y-53031904D01*
X57665238Y-53127142D01*
X57617619Y-53174761D01*
X57522380Y-53222380D01*
X57236666Y-53222380D01*
X57141428Y-53174761D01*
X57093809Y-53127142D01*
X58141428Y-53127142D02*
X58189047Y-53174761D01*
X58141428Y-53222380D01*
X58093809Y-53174761D01*
X58141428Y-53127142D01*
X58141428Y-53222380D01*
X58522380Y-52222380D02*
X59141428Y-52222380D01*
X58808095Y-52603333D01*
X58950952Y-52603333D01*
X59046190Y-52650952D01*
X59093809Y-52698571D01*
X59141428Y-52793809D01*
X59141428Y-53031904D01*
X59093809Y-53127142D01*
X59046190Y-53174761D01*
X58950952Y-53222380D01*
X58665238Y-53222380D01*
X58570000Y-53174761D01*
X58522380Y-53127142D01*
X59427142Y-52222380D02*
X59760476Y-53222380D01*
X60093809Y-52222380D01*
X53108095Y-52250000D02*
X53012857Y-52202380D01*
X52870000Y-52202380D01*
X52727142Y-52250000D01*
X52631904Y-52345238D01*
X52584285Y-52440476D01*
X52536666Y-52630952D01*
X52536666Y-52773809D01*
X52584285Y-52964285D01*
X52631904Y-53059523D01*
X52727142Y-53154761D01*
X52870000Y-53202380D01*
X52965238Y-53202380D01*
X53108095Y-53154761D01*
X53155714Y-53107142D01*
X53155714Y-52773809D01*
X52965238Y-52773809D01*
X53584285Y-53202380D02*
X53584285Y-52202380D01*
X54155714Y-53202380D01*
X54155714Y-52202380D01*
X54631904Y-53202380D02*
X54631904Y-52202380D01*
X54870000Y-52202380D01*
X55012857Y-52250000D01*
X55108095Y-52345238D01*
X55155714Y-52440476D01*
X55203333Y-52630952D01*
X55203333Y-52773809D01*
X55155714Y-52964285D01*
X55108095Y-53059523D01*
X55012857Y-53154761D01*
X54870000Y-53202380D01*
X54631904Y-53202380D01*
D11*
%TO.C,U3*%
X91810000Y-69210000D02*
X92510000Y-69210000D01*
X92510000Y-69210000D02*
X92510000Y-68510000D01*
X78990000Y-69210000D02*
X78290000Y-69210000D01*
X78290000Y-69210000D02*
X78290000Y-68510000D01*
X91810000Y-54990000D02*
X92510000Y-54990000D01*
X92510000Y-54990000D02*
X92510000Y-55690000D01*
X78990000Y-54990000D02*
X78290000Y-54990000D01*
X78290000Y-54990000D02*
X78290000Y-55690000D01*
X78290000Y-55690000D02*
X77000000Y-55690000D01*
%TO.C,J5*%
X70290000Y-97530000D02*
X70290000Y-94870000D01*
X60070000Y-97530000D02*
X70290000Y-97530000D01*
X60070000Y-94870000D02*
X70290000Y-94870000D01*
X60070000Y-97530000D02*
X60070000Y-94870000D01*
X58800000Y-97530000D02*
X57470000Y-97530000D01*
X57470000Y-97530000D02*
X57470000Y-96200000D01*
%TO.C,C8*%
X68765000Y-76561252D02*
X68765000Y-76038748D01*
X70235000Y-76561252D02*
X70235000Y-76038748D01*
%TO.C,U5*%
X66950000Y-67975000D02*
X62950000Y-67975000D01*
X66950000Y-70975000D02*
X63950000Y-70975000D01*
%TO.C,U2*%
X67200000Y-59725000D02*
X63200000Y-59725000D01*
X67200000Y-62725000D02*
X64200000Y-62725000D01*
%TO.C,J1*%
X112000000Y-87778675D02*
X111750000Y-87345662D01*
X112250000Y-87345662D02*
X112000000Y-87778675D01*
X111750000Y-87345662D02*
X112250000Y-87345662D01*
X121965000Y-88240000D02*
X121965000Y-98720000D01*
X82645000Y-88240000D02*
X121965000Y-88240000D01*
X82645000Y-98720000D02*
X82645000Y-88240000D01*
%TO.C,C12*%
X82811252Y-50235000D02*
X82288748Y-50235000D01*
X82811252Y-48765000D02*
X82288748Y-48765000D01*
%TO.C,U4*%
X106400000Y-71415000D02*
X111590000Y-71415000D01*
X111590000Y-71415000D02*
X111590000Y-71035000D01*
X106400000Y-71415000D02*
X101210000Y-71415000D01*
X101210000Y-71415000D02*
X101210000Y-71035000D01*
X106400000Y-52785000D02*
X111590000Y-52785000D01*
X111590000Y-52785000D02*
X111590000Y-53165000D01*
X106400000Y-52785000D02*
X101210000Y-52785000D01*
X101210000Y-52785000D02*
X101210000Y-53165000D01*
X101210000Y-53165000D02*
X100050000Y-53165000D01*
%TO.C,R13*%
X110214564Y-86335000D02*
X109760436Y-86335000D01*
X110214564Y-84865000D02*
X109760436Y-84865000D01*
%TO.C,R14*%
X110314564Y-82935000D02*
X109860436Y-82935000D01*
X110314564Y-81465000D02*
X109860436Y-81465000D01*
%TO.C,R15*%
X110214564Y-79535000D02*
X109760436Y-79535000D01*
X110214564Y-78065000D02*
X109760436Y-78065000D01*
%TO.C,R4*%
X96314564Y-54735000D02*
X95860436Y-54735000D01*
X96314564Y-53265000D02*
X95860436Y-53265000D01*
%TO.C,C25*%
X109615000Y-50111252D02*
X109615000Y-49588748D01*
X111085000Y-50111252D02*
X111085000Y-49588748D01*
%TO.C,U7*%
X74900000Y-94485000D02*
X77100000Y-94485000D01*
X74900000Y-94485000D02*
X72700000Y-94485000D01*
X74900000Y-87715000D02*
X77100000Y-87715000D01*
X74900000Y-87715000D02*
X71300000Y-87715000D01*
%TO.C,U6*%
X74900000Y-84485000D02*
X77100000Y-84485000D01*
X74900000Y-84485000D02*
X72700000Y-84485000D01*
X74900000Y-77715000D02*
X77100000Y-77715000D01*
X74900000Y-77715000D02*
X71300000Y-77715000D01*
%TO.C,Y1*%
X94675000Y-84360000D02*
X94675000Y-77960000D01*
X99725000Y-84360000D02*
X99725000Y-77960000D01*
X99725000Y-77960000D02*
G75*
G03*
X94675000Y-77960000I-2525000J0D01*
G01*
X99725000Y-84360000D02*
G75*
G02*
X94675000Y-84360000I-2525000J0D01*
G01*
%TO.C,U1*%
X90300000Y-74490000D02*
X88400000Y-74490000D01*
X88900000Y-76810000D02*
X90300000Y-76810000D01*
%TO.C,R22*%
X76139564Y-97335000D02*
X75685436Y-97335000D01*
X76139564Y-95865000D02*
X75685436Y-95865000D01*
%TO.C,R21*%
X62715000Y-86439564D02*
X62715000Y-85985436D01*
X64185000Y-86439564D02*
X64185000Y-85985436D01*
%TO.C,R20*%
X119239564Y-73035000D02*
X118785436Y-73035000D01*
X119239564Y-71565000D02*
X118785436Y-71565000D01*
%TO.C,R19*%
X119239564Y-76535000D02*
X118785436Y-76535000D01*
X119239564Y-75065000D02*
X118785436Y-75065000D01*
%TO.C,R18*%
X119239564Y-79835000D02*
X118785436Y-79835000D01*
X119239564Y-78365000D02*
X118785436Y-78365000D01*
%TO.C,R17*%
X119239564Y-83235000D02*
X118785436Y-83235000D01*
X119239564Y-81765000D02*
X118785436Y-81765000D01*
%TO.C,R16*%
X119239564Y-86535000D02*
X118785436Y-86535000D01*
X119239564Y-85065000D02*
X118785436Y-85065000D01*
%TO.C,R12*%
X119214564Y-69585000D02*
X118760436Y-69585000D01*
X119214564Y-68115000D02*
X118760436Y-68115000D01*
%TO.C,R11*%
X119114564Y-66335000D02*
X118660436Y-66335000D01*
X119114564Y-64865000D02*
X118660436Y-64865000D01*
%TO.C,R10*%
X119114564Y-59635000D02*
X118660436Y-59635000D01*
X119114564Y-58165000D02*
X118660436Y-58165000D01*
%TO.C,R9*%
X119114564Y-63035000D02*
X118660436Y-63035000D01*
X119114564Y-61565000D02*
X118660436Y-61565000D01*
%TO.C,R8*%
X118914564Y-56335000D02*
X118460436Y-56335000D01*
X118914564Y-54865000D02*
X118460436Y-54865000D01*
%TO.C,R7*%
X118914564Y-53085000D02*
X118460436Y-53085000D01*
X118914564Y-51615000D02*
X118460436Y-51615000D01*
%TO.C,R6*%
X118914564Y-49835000D02*
X118460436Y-49835000D01*
X118914564Y-48365000D02*
X118460436Y-48365000D01*
%TO.C,R5*%
X114165000Y-60414564D02*
X114165000Y-59960436D01*
X115635000Y-60414564D02*
X115635000Y-59960436D01*
%TO.C,R3*%
X115635000Y-55210436D02*
X115635000Y-55664564D01*
X114165000Y-55210436D02*
X114165000Y-55664564D01*
%TO.C,R2*%
X91865000Y-79964564D02*
X91865000Y-79510436D01*
X93335000Y-79964564D02*
X93335000Y-79510436D01*
%TO.C,R1*%
X86865000Y-79789564D02*
X86865000Y-79335436D01*
X88335000Y-79789564D02*
X88335000Y-79335436D01*
%TO.C,J6*%
X52570000Y-96530000D02*
X55230000Y-96530000D01*
X52570000Y-58370000D02*
X52570000Y-96530000D01*
X55230000Y-58370000D02*
X55230000Y-96530000D01*
X52570000Y-58370000D02*
X55230000Y-58370000D01*
X52570000Y-57100000D02*
X52570000Y-55770000D01*
X52570000Y-55770000D02*
X53900000Y-55770000D01*
%TO.C,J3*%
X57270000Y-51470000D02*
X59930000Y-51470000D01*
X57270000Y-48870000D02*
X57270000Y-51470000D01*
X59930000Y-48870000D02*
X59930000Y-51470000D01*
X57270000Y-48870000D02*
X59930000Y-48870000D01*
X57270000Y-47600000D02*
X57270000Y-46270000D01*
X57270000Y-46270000D02*
X58600000Y-46270000D01*
%TO.C,J2*%
X52470000Y-51470000D02*
X55130000Y-51470000D01*
X52470000Y-48870000D02*
X52470000Y-51470000D01*
X55130000Y-48870000D02*
X55130000Y-51470000D01*
X52470000Y-48870000D02*
X55130000Y-48870000D01*
X52470000Y-47600000D02*
X52470000Y-46270000D01*
X52470000Y-46270000D02*
X53800000Y-46270000D01*
%TO.C,C26*%
X69135000Y-47288748D02*
X69135000Y-47811252D01*
X67665000Y-47288748D02*
X67665000Y-47811252D01*
%TO.C,C24*%
X82811252Y-46735000D02*
X82288748Y-46735000D01*
X82811252Y-45265000D02*
X82288748Y-45265000D01*
%TO.C,C23*%
X100288748Y-72465000D02*
X100811252Y-72465000D01*
X100288748Y-73935000D02*
X100811252Y-73935000D01*
%TO.C,C22*%
X78935000Y-47288748D02*
X78935000Y-47811252D01*
X77465000Y-47288748D02*
X77465000Y-47811252D01*
%TO.C,C21*%
X105535000Y-76438748D02*
X105535000Y-76961252D01*
X104065000Y-76438748D02*
X104065000Y-76961252D01*
%TO.C,C20*%
X65015000Y-76561252D02*
X65015000Y-76038748D01*
X66485000Y-76561252D02*
X66485000Y-76038748D01*
%TO.C,C19*%
X69788748Y-51065000D02*
X70311252Y-51065000D01*
X69788748Y-52535000D02*
X70311252Y-52535000D01*
%TO.C,C18*%
X67785000Y-85888748D02*
X67785000Y-86411252D01*
X66315000Y-85888748D02*
X66315000Y-86411252D01*
%TO.C,C17*%
X63335000Y-47288748D02*
X63335000Y-47811252D01*
X61865000Y-47288748D02*
X61865000Y-47811252D01*
%TO.C,C16*%
X63211252Y-57735000D02*
X62688748Y-57735000D01*
X63211252Y-56265000D02*
X62688748Y-56265000D01*
%TO.C,C15*%
X63011252Y-66235000D02*
X62488748Y-66235000D01*
X63011252Y-64765000D02*
X62488748Y-64765000D01*
%TO.C,C14*%
X113115000Y-50111252D02*
X113115000Y-49588748D01*
X114585000Y-50111252D02*
X114585000Y-49588748D01*
%TO.C,C13*%
X72535000Y-47288748D02*
X72535000Y-47811252D01*
X71065000Y-47288748D02*
X71065000Y-47811252D01*
%TO.C,C11*%
X95688748Y-70365000D02*
X96211252Y-70365000D01*
X95688748Y-71835000D02*
X96211252Y-71835000D01*
%TO.C,C10*%
X75735000Y-47288748D02*
X75735000Y-47811252D01*
X74265000Y-47288748D02*
X74265000Y-47811252D01*
%TO.C,C9*%
X102135000Y-76438748D02*
X102135000Y-76961252D01*
X100665000Y-76438748D02*
X100665000Y-76961252D01*
%TO.C,C7*%
X86588748Y-71465000D02*
X87111252Y-71465000D01*
X86588748Y-72935000D02*
X87111252Y-72935000D01*
%TO.C,C6*%
X70335000Y-85888748D02*
X70335000Y-86411252D01*
X68865000Y-85888748D02*
X68865000Y-86411252D01*
%TO.C,C5*%
X66135000Y-47288748D02*
X66135000Y-47811252D01*
X64665000Y-47288748D02*
X64665000Y-47811252D01*
%TO.C,C4*%
X67688748Y-56265000D02*
X68211252Y-56265000D01*
X67688748Y-57735000D02*
X68211252Y-57735000D01*
%TO.C,C3*%
X68288748Y-64765000D02*
X68811252Y-64765000D01*
X68288748Y-66235000D02*
X68811252Y-66235000D01*
%TO.C,C2*%
X91865000Y-85911252D02*
X91865000Y-85388748D01*
X93335000Y-85911252D02*
X93335000Y-85388748D01*
%TO.C,C1*%
X86865000Y-85911252D02*
X86865000Y-85388748D01*
X88335000Y-85911252D02*
X88335000Y-85388748D01*
%TO.C,U3*%
D12*
X84638095Y-52202380D02*
X84638095Y-53011904D01*
X84685714Y-53107142D01*
X84733333Y-53154761D01*
X84828571Y-53202380D01*
X85019047Y-53202380D01*
X85114285Y-53154761D01*
X85161904Y-53107142D01*
X85209523Y-53011904D01*
X85209523Y-52202380D01*
X85590476Y-52202380D02*
X86209523Y-52202380D01*
X85876190Y-52583333D01*
X86019047Y-52583333D01*
X86114285Y-52630952D01*
X86161904Y-52678571D01*
X86209523Y-52773809D01*
X86209523Y-53011904D01*
X86161904Y-53107142D01*
X86114285Y-53154761D01*
X86019047Y-53202380D01*
X85733333Y-53202380D01*
X85638095Y-53154761D01*
X85590476Y-53107142D01*
%TO.C,J5*%
X57396666Y-93072380D02*
X57396666Y-93786666D01*
X57349047Y-93929523D01*
X57253809Y-94024761D01*
X57110952Y-94072380D01*
X57015714Y-94072380D01*
X58349047Y-93072380D02*
X57872857Y-93072380D01*
X57825238Y-93548571D01*
X57872857Y-93500952D01*
X57968095Y-93453333D01*
X58206190Y-93453333D01*
X58301428Y-93500952D01*
X58349047Y-93548571D01*
X58396666Y-93643809D01*
X58396666Y-93881904D01*
X58349047Y-93977142D01*
X58301428Y-94024761D01*
X58206190Y-94072380D01*
X57968095Y-94072380D01*
X57872857Y-94024761D01*
X57825238Y-93977142D01*
%TO.C,C8*%
X69333333Y-74107142D02*
X69285714Y-74154761D01*
X69142857Y-74202380D01*
X69047619Y-74202380D01*
X68904761Y-74154761D01*
X68809523Y-74059523D01*
X68761904Y-73964285D01*
X68714285Y-73773809D01*
X68714285Y-73630952D01*
X68761904Y-73440476D01*
X68809523Y-73345238D01*
X68904761Y-73250000D01*
X69047619Y-73202380D01*
X69142857Y-73202380D01*
X69285714Y-73250000D01*
X69333333Y-73297619D01*
X69904761Y-73630952D02*
X69809523Y-73583333D01*
X69761904Y-73535714D01*
X69714285Y-73440476D01*
X69714285Y-73392857D01*
X69761904Y-73297619D01*
X69809523Y-73250000D01*
X69904761Y-73202380D01*
X70095238Y-73202380D01*
X70190476Y-73250000D01*
X70238095Y-73297619D01*
X70285714Y-73392857D01*
X70285714Y-73440476D01*
X70238095Y-73535714D01*
X70190476Y-73583333D01*
X70095238Y-73630952D01*
X69904761Y-73630952D01*
X69809523Y-73678571D01*
X69761904Y-73726190D01*
X69714285Y-73821428D01*
X69714285Y-74011904D01*
X69761904Y-74107142D01*
X69809523Y-74154761D01*
X69904761Y-74202380D01*
X70095238Y-74202380D01*
X70190476Y-74154761D01*
X70238095Y-74107142D01*
X70285714Y-74011904D01*
X70285714Y-73821428D01*
X70238095Y-73726190D01*
X70190476Y-73678571D01*
X70095238Y-73630952D01*
%TO.C,U5*%
X64688095Y-66527380D02*
X64688095Y-67336904D01*
X64735714Y-67432142D01*
X64783333Y-67479761D01*
X64878571Y-67527380D01*
X65069047Y-67527380D01*
X65164285Y-67479761D01*
X65211904Y-67432142D01*
X65259523Y-67336904D01*
X65259523Y-66527380D01*
X66211904Y-66527380D02*
X65735714Y-66527380D01*
X65688095Y-67003571D01*
X65735714Y-66955952D01*
X65830952Y-66908333D01*
X66069047Y-66908333D01*
X66164285Y-66955952D01*
X66211904Y-67003571D01*
X66259523Y-67098809D01*
X66259523Y-67336904D01*
X66211904Y-67432142D01*
X66164285Y-67479761D01*
X66069047Y-67527380D01*
X65830952Y-67527380D01*
X65735714Y-67479761D01*
X65688095Y-67432142D01*
%TO.C,U2*%
X64938095Y-58277380D02*
X64938095Y-59086904D01*
X64985714Y-59182142D01*
X65033333Y-59229761D01*
X65128571Y-59277380D01*
X65319047Y-59277380D01*
X65414285Y-59229761D01*
X65461904Y-59182142D01*
X65509523Y-59086904D01*
X65509523Y-58277380D01*
X65938095Y-58372619D02*
X65985714Y-58325000D01*
X66080952Y-58277380D01*
X66319047Y-58277380D01*
X66414285Y-58325000D01*
X66461904Y-58372619D01*
X66509523Y-58467857D01*
X66509523Y-58563095D01*
X66461904Y-58705952D01*
X65890476Y-59277380D01*
X66509523Y-59277380D01*
%TO.C,J1*%
X101971666Y-86752380D02*
X101971666Y-87466666D01*
X101924047Y-87609523D01*
X101828809Y-87704761D01*
X101685952Y-87752380D01*
X101590714Y-87752380D01*
X102971666Y-87752380D02*
X102400238Y-87752380D01*
X102685952Y-87752380D02*
X102685952Y-86752380D01*
X102590714Y-86895238D01*
X102495476Y-86990476D01*
X102400238Y-87038095D01*
%TO.C,C12*%
X81907142Y-51537142D02*
X81859523Y-51584761D01*
X81716666Y-51632380D01*
X81621428Y-51632380D01*
X81478571Y-51584761D01*
X81383333Y-51489523D01*
X81335714Y-51394285D01*
X81288095Y-51203809D01*
X81288095Y-51060952D01*
X81335714Y-50870476D01*
X81383333Y-50775238D01*
X81478571Y-50680000D01*
X81621428Y-50632380D01*
X81716666Y-50632380D01*
X81859523Y-50680000D01*
X81907142Y-50727619D01*
X82859523Y-51632380D02*
X82288095Y-51632380D01*
X82573809Y-51632380D02*
X82573809Y-50632380D01*
X82478571Y-50775238D01*
X82383333Y-50870476D01*
X82288095Y-50918095D01*
X83240476Y-50727619D02*
X83288095Y-50680000D01*
X83383333Y-50632380D01*
X83621428Y-50632380D01*
X83716666Y-50680000D01*
X83764285Y-50727619D01*
X83811904Y-50822857D01*
X83811904Y-50918095D01*
X83764285Y-51060952D01*
X83192857Y-51632380D01*
X83811904Y-51632380D01*
%TO.C,U4*%
X105638095Y-51392380D02*
X105638095Y-52201904D01*
X105685714Y-52297142D01*
X105733333Y-52344761D01*
X105828571Y-52392380D01*
X106019047Y-52392380D01*
X106114285Y-52344761D01*
X106161904Y-52297142D01*
X106209523Y-52201904D01*
X106209523Y-51392380D01*
X107114285Y-51725714D02*
X107114285Y-52392380D01*
X106876190Y-51344761D02*
X106638095Y-52059047D01*
X107257142Y-52059047D01*
%TO.C,R13*%
X109344642Y-87702380D02*
X109011309Y-87226190D01*
X108773214Y-87702380D02*
X108773214Y-86702380D01*
X109154166Y-86702380D01*
X109249404Y-86750000D01*
X109297023Y-86797619D01*
X109344642Y-86892857D01*
X109344642Y-87035714D01*
X109297023Y-87130952D01*
X109249404Y-87178571D01*
X109154166Y-87226190D01*
X108773214Y-87226190D01*
X110297023Y-87702380D02*
X109725595Y-87702380D01*
X110011309Y-87702380D02*
X110011309Y-86702380D01*
X109916071Y-86845238D01*
X109820833Y-86940476D01*
X109725595Y-86988095D01*
X110630357Y-86702380D02*
X111249404Y-86702380D01*
X110916071Y-87083333D01*
X111058928Y-87083333D01*
X111154166Y-87130952D01*
X111201785Y-87178571D01*
X111249404Y-87273809D01*
X111249404Y-87511904D01*
X111201785Y-87607142D01*
X111154166Y-87654761D01*
X111058928Y-87702380D01*
X110773214Y-87702380D01*
X110677976Y-87654761D01*
X110630357Y-87607142D01*
%TO.C,R14*%
X109444642Y-84302380D02*
X109111309Y-83826190D01*
X108873214Y-84302380D02*
X108873214Y-83302380D01*
X109254166Y-83302380D01*
X109349404Y-83350000D01*
X109397023Y-83397619D01*
X109444642Y-83492857D01*
X109444642Y-83635714D01*
X109397023Y-83730952D01*
X109349404Y-83778571D01*
X109254166Y-83826190D01*
X108873214Y-83826190D01*
X110397023Y-84302380D02*
X109825595Y-84302380D01*
X110111309Y-84302380D02*
X110111309Y-83302380D01*
X110016071Y-83445238D01*
X109920833Y-83540476D01*
X109825595Y-83588095D01*
X111254166Y-83635714D02*
X111254166Y-84302380D01*
X111016071Y-83254761D02*
X110777976Y-83969047D01*
X111397023Y-83969047D01*
%TO.C,R15*%
X109344642Y-80902380D02*
X109011309Y-80426190D01*
X108773214Y-80902380D02*
X108773214Y-79902380D01*
X109154166Y-79902380D01*
X109249404Y-79950000D01*
X109297023Y-79997619D01*
X109344642Y-80092857D01*
X109344642Y-80235714D01*
X109297023Y-80330952D01*
X109249404Y-80378571D01*
X109154166Y-80426190D01*
X108773214Y-80426190D01*
X110297023Y-80902380D02*
X109725595Y-80902380D01*
X110011309Y-80902380D02*
X110011309Y-79902380D01*
X109916071Y-80045238D01*
X109820833Y-80140476D01*
X109725595Y-80188095D01*
X111201785Y-79902380D02*
X110725595Y-79902380D01*
X110677976Y-80378571D01*
X110725595Y-80330952D01*
X110820833Y-80283333D01*
X111058928Y-80283333D01*
X111154166Y-80330952D01*
X111201785Y-80378571D01*
X111249404Y-80473809D01*
X111249404Y-80711904D01*
X111201785Y-80807142D01*
X111154166Y-80854761D01*
X111058928Y-80902380D01*
X110820833Y-80902380D01*
X110725595Y-80854761D01*
X110677976Y-80807142D01*
%TO.C,R4*%
X95920833Y-56102380D02*
X95587500Y-55626190D01*
X95349404Y-56102380D02*
X95349404Y-55102380D01*
X95730357Y-55102380D01*
X95825595Y-55150000D01*
X95873214Y-55197619D01*
X95920833Y-55292857D01*
X95920833Y-55435714D01*
X95873214Y-55530952D01*
X95825595Y-55578571D01*
X95730357Y-55626190D01*
X95349404Y-55626190D01*
X96777976Y-55435714D02*
X96777976Y-56102380D01*
X96539880Y-55054761D02*
X96301785Y-55769047D01*
X96920833Y-55769047D01*
%TO.C,C25*%
X109707142Y-47857142D02*
X109659523Y-47904761D01*
X109516666Y-47952380D01*
X109421428Y-47952380D01*
X109278571Y-47904761D01*
X109183333Y-47809523D01*
X109135714Y-47714285D01*
X109088095Y-47523809D01*
X109088095Y-47380952D01*
X109135714Y-47190476D01*
X109183333Y-47095238D01*
X109278571Y-47000000D01*
X109421428Y-46952380D01*
X109516666Y-46952380D01*
X109659523Y-47000000D01*
X109707142Y-47047619D01*
X110088095Y-47047619D02*
X110135714Y-47000000D01*
X110230952Y-46952380D01*
X110469047Y-46952380D01*
X110564285Y-47000000D01*
X110611904Y-47047619D01*
X110659523Y-47142857D01*
X110659523Y-47238095D01*
X110611904Y-47380952D01*
X110040476Y-47952380D01*
X110659523Y-47952380D01*
X111564285Y-46952380D02*
X111088095Y-46952380D01*
X111040476Y-47428571D01*
X111088095Y-47380952D01*
X111183333Y-47333333D01*
X111421428Y-47333333D01*
X111516666Y-47380952D01*
X111564285Y-47428571D01*
X111611904Y-47523809D01*
X111611904Y-47761904D01*
X111564285Y-47857142D01*
X111516666Y-47904761D01*
X111421428Y-47952380D01*
X111183333Y-47952380D01*
X111088095Y-47904761D01*
X111040476Y-47857142D01*
%TO.C,U7*%
X74138095Y-86352380D02*
X74138095Y-87161904D01*
X74185714Y-87257142D01*
X74233333Y-87304761D01*
X74328571Y-87352380D01*
X74519047Y-87352380D01*
X74614285Y-87304761D01*
X74661904Y-87257142D01*
X74709523Y-87161904D01*
X74709523Y-86352380D01*
X75090476Y-86352380D02*
X75757142Y-86352380D01*
X75328571Y-87352380D01*
%TO.C,U6*%
X74138095Y-76352380D02*
X74138095Y-77161904D01*
X74185714Y-77257142D01*
X74233333Y-77304761D01*
X74328571Y-77352380D01*
X74519047Y-77352380D01*
X74614285Y-77304761D01*
X74661904Y-77257142D01*
X74709523Y-77161904D01*
X74709523Y-76352380D01*
X75614285Y-76352380D02*
X75423809Y-76352380D01*
X75328571Y-76400000D01*
X75280952Y-76447619D01*
X75185714Y-76590476D01*
X75138095Y-76780952D01*
X75138095Y-77161904D01*
X75185714Y-77257142D01*
X75233333Y-77304761D01*
X75328571Y-77352380D01*
X75519047Y-77352380D01*
X75614285Y-77304761D01*
X75661904Y-77257142D01*
X75709523Y-77161904D01*
X75709523Y-76923809D01*
X75661904Y-76828571D01*
X75614285Y-76780952D01*
X75519047Y-76733333D01*
X75328571Y-76733333D01*
X75233333Y-76780952D01*
X75185714Y-76828571D01*
X75138095Y-76923809D01*
%TO.C,Y1*%
X94673809Y-74396190D02*
X94673809Y-74872380D01*
X94340476Y-73872380D02*
X94673809Y-74396190D01*
X95007142Y-73872380D01*
X95864285Y-74872380D02*
X95292857Y-74872380D01*
X95578571Y-74872380D02*
X95578571Y-73872380D01*
X95483333Y-74015238D01*
X95388095Y-74110476D01*
X95292857Y-74158095D01*
%TO.C,U1*%
X88838095Y-73102380D02*
X88838095Y-73911904D01*
X88885714Y-74007142D01*
X88933333Y-74054761D01*
X89028571Y-74102380D01*
X89219047Y-74102380D01*
X89314285Y-74054761D01*
X89361904Y-74007142D01*
X89409523Y-73911904D01*
X89409523Y-73102380D01*
X90409523Y-74102380D02*
X89838095Y-74102380D01*
X90123809Y-74102380D02*
X90123809Y-73102380D01*
X90028571Y-73245238D01*
X89933333Y-73340476D01*
X89838095Y-73388095D01*
%TO.C,R22*%
X78507142Y-96952380D02*
X78173809Y-96476190D01*
X77935714Y-96952380D02*
X77935714Y-95952380D01*
X78316666Y-95952380D01*
X78411904Y-96000000D01*
X78459523Y-96047619D01*
X78507142Y-96142857D01*
X78507142Y-96285714D01*
X78459523Y-96380952D01*
X78411904Y-96428571D01*
X78316666Y-96476190D01*
X77935714Y-96476190D01*
X78888095Y-96047619D02*
X78935714Y-96000000D01*
X79030952Y-95952380D01*
X79269047Y-95952380D01*
X79364285Y-96000000D01*
X79411904Y-96047619D01*
X79459523Y-96142857D01*
X79459523Y-96238095D01*
X79411904Y-96380952D01*
X78840476Y-96952380D01*
X79459523Y-96952380D01*
X79840476Y-96047619D02*
X79888095Y-96000000D01*
X79983333Y-95952380D01*
X80221428Y-95952380D01*
X80316666Y-96000000D01*
X80364285Y-96047619D01*
X80411904Y-96142857D01*
X80411904Y-96238095D01*
X80364285Y-96380952D01*
X79792857Y-96952380D01*
X80411904Y-96952380D01*
%TO.C,R21*%
X62757142Y-84302380D02*
X62423809Y-83826190D01*
X62185714Y-84302380D02*
X62185714Y-83302380D01*
X62566666Y-83302380D01*
X62661904Y-83350000D01*
X62709523Y-83397619D01*
X62757142Y-83492857D01*
X62757142Y-83635714D01*
X62709523Y-83730952D01*
X62661904Y-83778571D01*
X62566666Y-83826190D01*
X62185714Y-83826190D01*
X63138095Y-83397619D02*
X63185714Y-83350000D01*
X63280952Y-83302380D01*
X63519047Y-83302380D01*
X63614285Y-83350000D01*
X63661904Y-83397619D01*
X63709523Y-83492857D01*
X63709523Y-83588095D01*
X63661904Y-83730952D01*
X63090476Y-84302380D01*
X63709523Y-84302380D01*
X64661904Y-84302380D02*
X64090476Y-84302380D01*
X64376190Y-84302380D02*
X64376190Y-83302380D01*
X64280952Y-83445238D01*
X64185714Y-83540476D01*
X64090476Y-83588095D01*
%TO.C,R20*%
X118369642Y-74402380D02*
X118036309Y-73926190D01*
X117798214Y-74402380D02*
X117798214Y-73402380D01*
X118179166Y-73402380D01*
X118274404Y-73450000D01*
X118322023Y-73497619D01*
X118369642Y-73592857D01*
X118369642Y-73735714D01*
X118322023Y-73830952D01*
X118274404Y-73878571D01*
X118179166Y-73926190D01*
X117798214Y-73926190D01*
X118750595Y-73497619D02*
X118798214Y-73450000D01*
X118893452Y-73402380D01*
X119131547Y-73402380D01*
X119226785Y-73450000D01*
X119274404Y-73497619D01*
X119322023Y-73592857D01*
X119322023Y-73688095D01*
X119274404Y-73830952D01*
X118702976Y-74402380D01*
X119322023Y-74402380D01*
X119941071Y-73402380D02*
X120036309Y-73402380D01*
X120131547Y-73450000D01*
X120179166Y-73497619D01*
X120226785Y-73592857D01*
X120274404Y-73783333D01*
X120274404Y-74021428D01*
X120226785Y-74211904D01*
X120179166Y-74307142D01*
X120131547Y-74354761D01*
X120036309Y-74402380D01*
X119941071Y-74402380D01*
X119845833Y-74354761D01*
X119798214Y-74307142D01*
X119750595Y-74211904D01*
X119702976Y-74021428D01*
X119702976Y-73783333D01*
X119750595Y-73592857D01*
X119798214Y-73497619D01*
X119845833Y-73450000D01*
X119941071Y-73402380D01*
%TO.C,R19*%
X118369642Y-77902380D02*
X118036309Y-77426190D01*
X117798214Y-77902380D02*
X117798214Y-76902380D01*
X118179166Y-76902380D01*
X118274404Y-76950000D01*
X118322023Y-76997619D01*
X118369642Y-77092857D01*
X118369642Y-77235714D01*
X118322023Y-77330952D01*
X118274404Y-77378571D01*
X118179166Y-77426190D01*
X117798214Y-77426190D01*
X119322023Y-77902380D02*
X118750595Y-77902380D01*
X119036309Y-77902380D02*
X119036309Y-76902380D01*
X118941071Y-77045238D01*
X118845833Y-77140476D01*
X118750595Y-77188095D01*
X119798214Y-77902380D02*
X119988690Y-77902380D01*
X120083928Y-77854761D01*
X120131547Y-77807142D01*
X120226785Y-77664285D01*
X120274404Y-77473809D01*
X120274404Y-77092857D01*
X120226785Y-76997619D01*
X120179166Y-76950000D01*
X120083928Y-76902380D01*
X119893452Y-76902380D01*
X119798214Y-76950000D01*
X119750595Y-76997619D01*
X119702976Y-77092857D01*
X119702976Y-77330952D01*
X119750595Y-77426190D01*
X119798214Y-77473809D01*
X119893452Y-77521428D01*
X120083928Y-77521428D01*
X120179166Y-77473809D01*
X120226785Y-77426190D01*
X120274404Y-77330952D01*
%TO.C,R18*%
X118369642Y-81202380D02*
X118036309Y-80726190D01*
X117798214Y-81202380D02*
X117798214Y-80202380D01*
X118179166Y-80202380D01*
X118274404Y-80250000D01*
X118322023Y-80297619D01*
X118369642Y-80392857D01*
X118369642Y-80535714D01*
X118322023Y-80630952D01*
X118274404Y-80678571D01*
X118179166Y-80726190D01*
X117798214Y-80726190D01*
X119322023Y-81202380D02*
X118750595Y-81202380D01*
X119036309Y-81202380D02*
X119036309Y-80202380D01*
X118941071Y-80345238D01*
X118845833Y-80440476D01*
X118750595Y-80488095D01*
X119893452Y-80630952D02*
X119798214Y-80583333D01*
X119750595Y-80535714D01*
X119702976Y-80440476D01*
X119702976Y-80392857D01*
X119750595Y-80297619D01*
X119798214Y-80250000D01*
X119893452Y-80202380D01*
X120083928Y-80202380D01*
X120179166Y-80250000D01*
X120226785Y-80297619D01*
X120274404Y-80392857D01*
X120274404Y-80440476D01*
X120226785Y-80535714D01*
X120179166Y-80583333D01*
X120083928Y-80630952D01*
X119893452Y-80630952D01*
X119798214Y-80678571D01*
X119750595Y-80726190D01*
X119702976Y-80821428D01*
X119702976Y-81011904D01*
X119750595Y-81107142D01*
X119798214Y-81154761D01*
X119893452Y-81202380D01*
X120083928Y-81202380D01*
X120179166Y-81154761D01*
X120226785Y-81107142D01*
X120274404Y-81011904D01*
X120274404Y-80821428D01*
X120226785Y-80726190D01*
X120179166Y-80678571D01*
X120083928Y-80630952D01*
%TO.C,R17*%
X118369642Y-84602380D02*
X118036309Y-84126190D01*
X117798214Y-84602380D02*
X117798214Y-83602380D01*
X118179166Y-83602380D01*
X118274404Y-83650000D01*
X118322023Y-83697619D01*
X118369642Y-83792857D01*
X118369642Y-83935714D01*
X118322023Y-84030952D01*
X118274404Y-84078571D01*
X118179166Y-84126190D01*
X117798214Y-84126190D01*
X119322023Y-84602380D02*
X118750595Y-84602380D01*
X119036309Y-84602380D02*
X119036309Y-83602380D01*
X118941071Y-83745238D01*
X118845833Y-83840476D01*
X118750595Y-83888095D01*
X119655357Y-83602380D02*
X120322023Y-83602380D01*
X119893452Y-84602380D01*
%TO.C,R16*%
X118369642Y-87902380D02*
X118036309Y-87426190D01*
X117798214Y-87902380D02*
X117798214Y-86902380D01*
X118179166Y-86902380D01*
X118274404Y-86950000D01*
X118322023Y-86997619D01*
X118369642Y-87092857D01*
X118369642Y-87235714D01*
X118322023Y-87330952D01*
X118274404Y-87378571D01*
X118179166Y-87426190D01*
X117798214Y-87426190D01*
X119322023Y-87902380D02*
X118750595Y-87902380D01*
X119036309Y-87902380D02*
X119036309Y-86902380D01*
X118941071Y-87045238D01*
X118845833Y-87140476D01*
X118750595Y-87188095D01*
X120179166Y-86902380D02*
X119988690Y-86902380D01*
X119893452Y-86950000D01*
X119845833Y-86997619D01*
X119750595Y-87140476D01*
X119702976Y-87330952D01*
X119702976Y-87711904D01*
X119750595Y-87807142D01*
X119798214Y-87854761D01*
X119893452Y-87902380D01*
X120083928Y-87902380D01*
X120179166Y-87854761D01*
X120226785Y-87807142D01*
X120274404Y-87711904D01*
X120274404Y-87473809D01*
X120226785Y-87378571D01*
X120179166Y-87330952D01*
X120083928Y-87283333D01*
X119893452Y-87283333D01*
X119798214Y-87330952D01*
X119750595Y-87378571D01*
X119702976Y-87473809D01*
%TO.C,R12*%
X118344642Y-70952380D02*
X118011309Y-70476190D01*
X117773214Y-70952380D02*
X117773214Y-69952380D01*
X118154166Y-69952380D01*
X118249404Y-70000000D01*
X118297023Y-70047619D01*
X118344642Y-70142857D01*
X118344642Y-70285714D01*
X118297023Y-70380952D01*
X118249404Y-70428571D01*
X118154166Y-70476190D01*
X117773214Y-70476190D01*
X119297023Y-70952380D02*
X118725595Y-70952380D01*
X119011309Y-70952380D02*
X119011309Y-69952380D01*
X118916071Y-70095238D01*
X118820833Y-70190476D01*
X118725595Y-70238095D01*
X119677976Y-70047619D02*
X119725595Y-70000000D01*
X119820833Y-69952380D01*
X120058928Y-69952380D01*
X120154166Y-70000000D01*
X120201785Y-70047619D01*
X120249404Y-70142857D01*
X120249404Y-70238095D01*
X120201785Y-70380952D01*
X119630357Y-70952380D01*
X120249404Y-70952380D01*
%TO.C,R11*%
X118244642Y-67702380D02*
X117911309Y-67226190D01*
X117673214Y-67702380D02*
X117673214Y-66702380D01*
X118054166Y-66702380D01*
X118149404Y-66750000D01*
X118197023Y-66797619D01*
X118244642Y-66892857D01*
X118244642Y-67035714D01*
X118197023Y-67130952D01*
X118149404Y-67178571D01*
X118054166Y-67226190D01*
X117673214Y-67226190D01*
X119197023Y-67702380D02*
X118625595Y-67702380D01*
X118911309Y-67702380D02*
X118911309Y-66702380D01*
X118816071Y-66845238D01*
X118720833Y-66940476D01*
X118625595Y-66988095D01*
X120149404Y-67702380D02*
X119577976Y-67702380D01*
X119863690Y-67702380D02*
X119863690Y-66702380D01*
X119768452Y-66845238D01*
X119673214Y-66940476D01*
X119577976Y-66988095D01*
%TO.C,R10*%
X118244642Y-61002380D02*
X117911309Y-60526190D01*
X117673214Y-61002380D02*
X117673214Y-60002380D01*
X118054166Y-60002380D01*
X118149404Y-60050000D01*
X118197023Y-60097619D01*
X118244642Y-60192857D01*
X118244642Y-60335714D01*
X118197023Y-60430952D01*
X118149404Y-60478571D01*
X118054166Y-60526190D01*
X117673214Y-60526190D01*
X119197023Y-61002380D02*
X118625595Y-61002380D01*
X118911309Y-61002380D02*
X118911309Y-60002380D01*
X118816071Y-60145238D01*
X118720833Y-60240476D01*
X118625595Y-60288095D01*
X119816071Y-60002380D02*
X119911309Y-60002380D01*
X120006547Y-60050000D01*
X120054166Y-60097619D01*
X120101785Y-60192857D01*
X120149404Y-60383333D01*
X120149404Y-60621428D01*
X120101785Y-60811904D01*
X120054166Y-60907142D01*
X120006547Y-60954761D01*
X119911309Y-61002380D01*
X119816071Y-61002380D01*
X119720833Y-60954761D01*
X119673214Y-60907142D01*
X119625595Y-60811904D01*
X119577976Y-60621428D01*
X119577976Y-60383333D01*
X119625595Y-60192857D01*
X119673214Y-60097619D01*
X119720833Y-60050000D01*
X119816071Y-60002380D01*
%TO.C,R9*%
X118720833Y-64402380D02*
X118387500Y-63926190D01*
X118149404Y-64402380D02*
X118149404Y-63402380D01*
X118530357Y-63402380D01*
X118625595Y-63450000D01*
X118673214Y-63497619D01*
X118720833Y-63592857D01*
X118720833Y-63735714D01*
X118673214Y-63830952D01*
X118625595Y-63878571D01*
X118530357Y-63926190D01*
X118149404Y-63926190D01*
X119197023Y-64402380D02*
X119387500Y-64402380D01*
X119482738Y-64354761D01*
X119530357Y-64307142D01*
X119625595Y-64164285D01*
X119673214Y-63973809D01*
X119673214Y-63592857D01*
X119625595Y-63497619D01*
X119577976Y-63450000D01*
X119482738Y-63402380D01*
X119292261Y-63402380D01*
X119197023Y-63450000D01*
X119149404Y-63497619D01*
X119101785Y-63592857D01*
X119101785Y-63830952D01*
X119149404Y-63926190D01*
X119197023Y-63973809D01*
X119292261Y-64021428D01*
X119482738Y-64021428D01*
X119577976Y-63973809D01*
X119625595Y-63926190D01*
X119673214Y-63830952D01*
%TO.C,R8*%
X118520833Y-57702380D02*
X118187500Y-57226190D01*
X117949404Y-57702380D02*
X117949404Y-56702380D01*
X118330357Y-56702380D01*
X118425595Y-56750000D01*
X118473214Y-56797619D01*
X118520833Y-56892857D01*
X118520833Y-57035714D01*
X118473214Y-57130952D01*
X118425595Y-57178571D01*
X118330357Y-57226190D01*
X117949404Y-57226190D01*
X119092261Y-57130952D02*
X118997023Y-57083333D01*
X118949404Y-57035714D01*
X118901785Y-56940476D01*
X118901785Y-56892857D01*
X118949404Y-56797619D01*
X118997023Y-56750000D01*
X119092261Y-56702380D01*
X119282738Y-56702380D01*
X119377976Y-56750000D01*
X119425595Y-56797619D01*
X119473214Y-56892857D01*
X119473214Y-56940476D01*
X119425595Y-57035714D01*
X119377976Y-57083333D01*
X119282738Y-57130952D01*
X119092261Y-57130952D01*
X118997023Y-57178571D01*
X118949404Y-57226190D01*
X118901785Y-57321428D01*
X118901785Y-57511904D01*
X118949404Y-57607142D01*
X118997023Y-57654761D01*
X119092261Y-57702380D01*
X119282738Y-57702380D01*
X119377976Y-57654761D01*
X119425595Y-57607142D01*
X119473214Y-57511904D01*
X119473214Y-57321428D01*
X119425595Y-57226190D01*
X119377976Y-57178571D01*
X119282738Y-57130952D01*
%TO.C,R7*%
X118520833Y-54452380D02*
X118187500Y-53976190D01*
X117949404Y-54452380D02*
X117949404Y-53452380D01*
X118330357Y-53452380D01*
X118425595Y-53500000D01*
X118473214Y-53547619D01*
X118520833Y-53642857D01*
X118520833Y-53785714D01*
X118473214Y-53880952D01*
X118425595Y-53928571D01*
X118330357Y-53976190D01*
X117949404Y-53976190D01*
X118854166Y-53452380D02*
X119520833Y-53452380D01*
X119092261Y-54452380D01*
%TO.C,R6*%
X118520833Y-51202380D02*
X118187500Y-50726190D01*
X117949404Y-51202380D02*
X117949404Y-50202380D01*
X118330357Y-50202380D01*
X118425595Y-50250000D01*
X118473214Y-50297619D01*
X118520833Y-50392857D01*
X118520833Y-50535714D01*
X118473214Y-50630952D01*
X118425595Y-50678571D01*
X118330357Y-50726190D01*
X117949404Y-50726190D01*
X119377976Y-50202380D02*
X119187500Y-50202380D01*
X119092261Y-50250000D01*
X119044642Y-50297619D01*
X118949404Y-50440476D01*
X118901785Y-50630952D01*
X118901785Y-51011904D01*
X118949404Y-51107142D01*
X118997023Y-51154761D01*
X119092261Y-51202380D01*
X119282738Y-51202380D01*
X119377976Y-51154761D01*
X119425595Y-51107142D01*
X119473214Y-51011904D01*
X119473214Y-50773809D01*
X119425595Y-50678571D01*
X119377976Y-50630952D01*
X119282738Y-50583333D01*
X119092261Y-50583333D01*
X118997023Y-50630952D01*
X118949404Y-50678571D01*
X118901785Y-50773809D01*
%TO.C,R5*%
X114733333Y-58302380D02*
X114400000Y-57826190D01*
X114161904Y-58302380D02*
X114161904Y-57302380D01*
X114542857Y-57302380D01*
X114638095Y-57350000D01*
X114685714Y-57397619D01*
X114733333Y-57492857D01*
X114733333Y-57635714D01*
X114685714Y-57730952D01*
X114638095Y-57778571D01*
X114542857Y-57826190D01*
X114161904Y-57826190D01*
X115638095Y-57302380D02*
X115161904Y-57302380D01*
X115114285Y-57778571D01*
X115161904Y-57730952D01*
X115257142Y-57683333D01*
X115495238Y-57683333D01*
X115590476Y-57730952D01*
X115638095Y-57778571D01*
X115685714Y-57873809D01*
X115685714Y-58111904D01*
X115638095Y-58207142D01*
X115590476Y-58254761D01*
X115495238Y-58302380D01*
X115257142Y-58302380D01*
X115161904Y-58254761D01*
X115114285Y-58207142D01*
%TO.C,R3*%
X114733333Y-53552380D02*
X114400000Y-53076190D01*
X114161904Y-53552380D02*
X114161904Y-52552380D01*
X114542857Y-52552380D01*
X114638095Y-52600000D01*
X114685714Y-52647619D01*
X114733333Y-52742857D01*
X114733333Y-52885714D01*
X114685714Y-52980952D01*
X114638095Y-53028571D01*
X114542857Y-53076190D01*
X114161904Y-53076190D01*
X115066666Y-52552380D02*
X115685714Y-52552380D01*
X115352380Y-52933333D01*
X115495238Y-52933333D01*
X115590476Y-52980952D01*
X115638095Y-53028571D01*
X115685714Y-53123809D01*
X115685714Y-53361904D01*
X115638095Y-53457142D01*
X115590476Y-53504761D01*
X115495238Y-53552380D01*
X115209523Y-53552380D01*
X115114285Y-53504761D01*
X115066666Y-53457142D01*
%TO.C,R2*%
X90473333Y-80232380D02*
X90140000Y-79756190D01*
X89901904Y-80232380D02*
X89901904Y-79232380D01*
X90282857Y-79232380D01*
X90378095Y-79280000D01*
X90425714Y-79327619D01*
X90473333Y-79422857D01*
X90473333Y-79565714D01*
X90425714Y-79660952D01*
X90378095Y-79708571D01*
X90282857Y-79756190D01*
X89901904Y-79756190D01*
X90854285Y-79327619D02*
X90901904Y-79280000D01*
X90997142Y-79232380D01*
X91235238Y-79232380D01*
X91330476Y-79280000D01*
X91378095Y-79327619D01*
X91425714Y-79422857D01*
X91425714Y-79518095D01*
X91378095Y-79660952D01*
X90806666Y-80232380D01*
X91425714Y-80232380D01*
%TO.C,R1*%
X85343333Y-80102380D02*
X85010000Y-79626190D01*
X84771904Y-80102380D02*
X84771904Y-79102380D01*
X85152857Y-79102380D01*
X85248095Y-79150000D01*
X85295714Y-79197619D01*
X85343333Y-79292857D01*
X85343333Y-79435714D01*
X85295714Y-79530952D01*
X85248095Y-79578571D01*
X85152857Y-79626190D01*
X84771904Y-79626190D01*
X86295714Y-80102380D02*
X85724285Y-80102380D01*
X86010000Y-80102380D02*
X86010000Y-79102380D01*
X85914761Y-79245238D01*
X85819523Y-79340476D01*
X85724285Y-79388095D01*
%TO.C,J6*%
X53566666Y-54222380D02*
X53566666Y-54936666D01*
X53519047Y-55079523D01*
X53423809Y-55174761D01*
X53280952Y-55222380D01*
X53185714Y-55222380D01*
X54471428Y-54222380D02*
X54280952Y-54222380D01*
X54185714Y-54270000D01*
X54138095Y-54317619D01*
X54042857Y-54460476D01*
X53995238Y-54650952D01*
X53995238Y-55031904D01*
X54042857Y-55127142D01*
X54090476Y-55174761D01*
X54185714Y-55222380D01*
X54376190Y-55222380D01*
X54471428Y-55174761D01*
X54519047Y-55127142D01*
X54566666Y-55031904D01*
X54566666Y-54793809D01*
X54519047Y-54698571D01*
X54471428Y-54650952D01*
X54376190Y-54603333D01*
X54185714Y-54603333D01*
X54090476Y-54650952D01*
X54042857Y-54698571D01*
X53995238Y-54793809D01*
%TO.C,J3*%
X58266666Y-44722380D02*
X58266666Y-45436666D01*
X58219047Y-45579523D01*
X58123809Y-45674761D01*
X57980952Y-45722380D01*
X57885714Y-45722380D01*
X58647619Y-44722380D02*
X59266666Y-44722380D01*
X58933333Y-45103333D01*
X59076190Y-45103333D01*
X59171428Y-45150952D01*
X59219047Y-45198571D01*
X59266666Y-45293809D01*
X59266666Y-45531904D01*
X59219047Y-45627142D01*
X59171428Y-45674761D01*
X59076190Y-45722380D01*
X58790476Y-45722380D01*
X58695238Y-45674761D01*
X58647619Y-45627142D01*
%TO.C,J2*%
X53466666Y-44722380D02*
X53466666Y-45436666D01*
X53419047Y-45579523D01*
X53323809Y-45674761D01*
X53180952Y-45722380D01*
X53085714Y-45722380D01*
X53895238Y-44817619D02*
X53942857Y-44770000D01*
X54038095Y-44722380D01*
X54276190Y-44722380D01*
X54371428Y-44770000D01*
X54419047Y-44817619D01*
X54466666Y-44912857D01*
X54466666Y-45008095D01*
X54419047Y-45150952D01*
X53847619Y-45722380D01*
X54466666Y-45722380D01*
%TO.C,C26*%
X67857142Y-45357142D02*
X67809523Y-45404761D01*
X67666666Y-45452380D01*
X67571428Y-45452380D01*
X67428571Y-45404761D01*
X67333333Y-45309523D01*
X67285714Y-45214285D01*
X67238095Y-45023809D01*
X67238095Y-44880952D01*
X67285714Y-44690476D01*
X67333333Y-44595238D01*
X67428571Y-44500000D01*
X67571428Y-44452380D01*
X67666666Y-44452380D01*
X67809523Y-44500000D01*
X67857142Y-44547619D01*
X68238095Y-44547619D02*
X68285714Y-44500000D01*
X68380952Y-44452380D01*
X68619047Y-44452380D01*
X68714285Y-44500000D01*
X68761904Y-44547619D01*
X68809523Y-44642857D01*
X68809523Y-44738095D01*
X68761904Y-44880952D01*
X68190476Y-45452380D01*
X68809523Y-45452380D01*
X69666666Y-44452380D02*
X69476190Y-44452380D01*
X69380952Y-44500000D01*
X69333333Y-44547619D01*
X69238095Y-44690476D01*
X69190476Y-44880952D01*
X69190476Y-45261904D01*
X69238095Y-45357142D01*
X69285714Y-45404761D01*
X69380952Y-45452380D01*
X69571428Y-45452380D01*
X69666666Y-45404761D01*
X69714285Y-45357142D01*
X69761904Y-45261904D01*
X69761904Y-45023809D01*
X69714285Y-44928571D01*
X69666666Y-44880952D01*
X69571428Y-44833333D01*
X69380952Y-44833333D01*
X69285714Y-44880952D01*
X69238095Y-44928571D01*
X69190476Y-45023809D01*
%TO.C,C24*%
X81907142Y-48037142D02*
X81859523Y-48084761D01*
X81716666Y-48132380D01*
X81621428Y-48132380D01*
X81478571Y-48084761D01*
X81383333Y-47989523D01*
X81335714Y-47894285D01*
X81288095Y-47703809D01*
X81288095Y-47560952D01*
X81335714Y-47370476D01*
X81383333Y-47275238D01*
X81478571Y-47180000D01*
X81621428Y-47132380D01*
X81716666Y-47132380D01*
X81859523Y-47180000D01*
X81907142Y-47227619D01*
X82288095Y-47227619D02*
X82335714Y-47180000D01*
X82430952Y-47132380D01*
X82669047Y-47132380D01*
X82764285Y-47180000D01*
X82811904Y-47227619D01*
X82859523Y-47322857D01*
X82859523Y-47418095D01*
X82811904Y-47560952D01*
X82240476Y-48132380D01*
X82859523Y-48132380D01*
X83716666Y-47465714D02*
X83716666Y-48132380D01*
X83478571Y-47084761D02*
X83240476Y-47799047D01*
X83859523Y-47799047D01*
%TO.C,C23*%
X103357142Y-73757142D02*
X103309523Y-73804761D01*
X103166666Y-73852380D01*
X103071428Y-73852380D01*
X102928571Y-73804761D01*
X102833333Y-73709523D01*
X102785714Y-73614285D01*
X102738095Y-73423809D01*
X102738095Y-73280952D01*
X102785714Y-73090476D01*
X102833333Y-72995238D01*
X102928571Y-72900000D01*
X103071428Y-72852380D01*
X103166666Y-72852380D01*
X103309523Y-72900000D01*
X103357142Y-72947619D01*
X103738095Y-72947619D02*
X103785714Y-72900000D01*
X103880952Y-72852380D01*
X104119047Y-72852380D01*
X104214285Y-72900000D01*
X104261904Y-72947619D01*
X104309523Y-73042857D01*
X104309523Y-73138095D01*
X104261904Y-73280952D01*
X103690476Y-73852380D01*
X104309523Y-73852380D01*
X104642857Y-72852380D02*
X105261904Y-72852380D01*
X104928571Y-73233333D01*
X105071428Y-73233333D01*
X105166666Y-73280952D01*
X105214285Y-73328571D01*
X105261904Y-73423809D01*
X105261904Y-73661904D01*
X105214285Y-73757142D01*
X105166666Y-73804761D01*
X105071428Y-73852380D01*
X104785714Y-73852380D01*
X104690476Y-73804761D01*
X104642857Y-73757142D01*
%TO.C,C22*%
X77557142Y-45357142D02*
X77509523Y-45404761D01*
X77366666Y-45452380D01*
X77271428Y-45452380D01*
X77128571Y-45404761D01*
X77033333Y-45309523D01*
X76985714Y-45214285D01*
X76938095Y-45023809D01*
X76938095Y-44880952D01*
X76985714Y-44690476D01*
X77033333Y-44595238D01*
X77128571Y-44500000D01*
X77271428Y-44452380D01*
X77366666Y-44452380D01*
X77509523Y-44500000D01*
X77557142Y-44547619D01*
X77938095Y-44547619D02*
X77985714Y-44500000D01*
X78080952Y-44452380D01*
X78319047Y-44452380D01*
X78414285Y-44500000D01*
X78461904Y-44547619D01*
X78509523Y-44642857D01*
X78509523Y-44738095D01*
X78461904Y-44880952D01*
X77890476Y-45452380D01*
X78509523Y-45452380D01*
X78890476Y-44547619D02*
X78938095Y-44500000D01*
X79033333Y-44452380D01*
X79271428Y-44452380D01*
X79366666Y-44500000D01*
X79414285Y-44547619D01*
X79461904Y-44642857D01*
X79461904Y-44738095D01*
X79414285Y-44880952D01*
X78842857Y-45452380D01*
X79461904Y-45452380D01*
%TO.C,C21*%
X106457142Y-77207142D02*
X106409523Y-77254761D01*
X106266666Y-77302380D01*
X106171428Y-77302380D01*
X106028571Y-77254761D01*
X105933333Y-77159523D01*
X105885714Y-77064285D01*
X105838095Y-76873809D01*
X105838095Y-76730952D01*
X105885714Y-76540476D01*
X105933333Y-76445238D01*
X106028571Y-76350000D01*
X106171428Y-76302380D01*
X106266666Y-76302380D01*
X106409523Y-76350000D01*
X106457142Y-76397619D01*
X106838095Y-76397619D02*
X106885714Y-76350000D01*
X106980952Y-76302380D01*
X107219047Y-76302380D01*
X107314285Y-76350000D01*
X107361904Y-76397619D01*
X107409523Y-76492857D01*
X107409523Y-76588095D01*
X107361904Y-76730952D01*
X106790476Y-77302380D01*
X107409523Y-77302380D01*
X108361904Y-77302380D02*
X107790476Y-77302380D01*
X108076190Y-77302380D02*
X108076190Y-76302380D01*
X107980952Y-76445238D01*
X107885714Y-76540476D01*
X107790476Y-76588095D01*
%TO.C,C20*%
X65107142Y-74107142D02*
X65059523Y-74154761D01*
X64916666Y-74202380D01*
X64821428Y-74202380D01*
X64678571Y-74154761D01*
X64583333Y-74059523D01*
X64535714Y-73964285D01*
X64488095Y-73773809D01*
X64488095Y-73630952D01*
X64535714Y-73440476D01*
X64583333Y-73345238D01*
X64678571Y-73250000D01*
X64821428Y-73202380D01*
X64916666Y-73202380D01*
X65059523Y-73250000D01*
X65107142Y-73297619D01*
X65488095Y-73297619D02*
X65535714Y-73250000D01*
X65630952Y-73202380D01*
X65869047Y-73202380D01*
X65964285Y-73250000D01*
X66011904Y-73297619D01*
X66059523Y-73392857D01*
X66059523Y-73488095D01*
X66011904Y-73630952D01*
X65440476Y-74202380D01*
X66059523Y-74202380D01*
X66678571Y-73202380D02*
X66773809Y-73202380D01*
X66869047Y-73250000D01*
X66916666Y-73297619D01*
X66964285Y-73392857D01*
X67011904Y-73583333D01*
X67011904Y-73821428D01*
X66964285Y-74011904D01*
X66916666Y-74107142D01*
X66869047Y-74154761D01*
X66773809Y-74202380D01*
X66678571Y-74202380D01*
X66583333Y-74154761D01*
X66535714Y-74107142D01*
X66488095Y-74011904D01*
X66440476Y-73821428D01*
X66440476Y-73583333D01*
X66488095Y-73392857D01*
X66535714Y-73297619D01*
X66583333Y-73250000D01*
X66678571Y-73202380D01*
%TO.C,C19*%
X69287142Y-53867142D02*
X69239523Y-53914761D01*
X69096666Y-53962380D01*
X69001428Y-53962380D01*
X68858571Y-53914761D01*
X68763333Y-53819523D01*
X68715714Y-53724285D01*
X68668095Y-53533809D01*
X68668095Y-53390952D01*
X68715714Y-53200476D01*
X68763333Y-53105238D01*
X68858571Y-53010000D01*
X69001428Y-52962380D01*
X69096666Y-52962380D01*
X69239523Y-53010000D01*
X69287142Y-53057619D01*
X70239523Y-53962380D02*
X69668095Y-53962380D01*
X69953809Y-53962380D02*
X69953809Y-52962380D01*
X69858571Y-53105238D01*
X69763333Y-53200476D01*
X69668095Y-53248095D01*
X70715714Y-53962380D02*
X70906190Y-53962380D01*
X71001428Y-53914761D01*
X71049047Y-53867142D01*
X71144285Y-53724285D01*
X71191904Y-53533809D01*
X71191904Y-53152857D01*
X71144285Y-53057619D01*
X71096666Y-53010000D01*
X71001428Y-52962380D01*
X70810952Y-52962380D01*
X70715714Y-53010000D01*
X70668095Y-53057619D01*
X70620476Y-53152857D01*
X70620476Y-53390952D01*
X70668095Y-53486190D01*
X70715714Y-53533809D01*
X70810952Y-53581428D01*
X71001428Y-53581428D01*
X71096666Y-53533809D01*
X71144285Y-53486190D01*
X71191904Y-53390952D01*
%TO.C,C18*%
X66407142Y-83927142D02*
X66359523Y-83974761D01*
X66216666Y-84022380D01*
X66121428Y-84022380D01*
X65978571Y-83974761D01*
X65883333Y-83879523D01*
X65835714Y-83784285D01*
X65788095Y-83593809D01*
X65788095Y-83450952D01*
X65835714Y-83260476D01*
X65883333Y-83165238D01*
X65978571Y-83070000D01*
X66121428Y-83022380D01*
X66216666Y-83022380D01*
X66359523Y-83070000D01*
X66407142Y-83117619D01*
X67359523Y-84022380D02*
X66788095Y-84022380D01*
X67073809Y-84022380D02*
X67073809Y-83022380D01*
X66978571Y-83165238D01*
X66883333Y-83260476D01*
X66788095Y-83308095D01*
X67930952Y-83450952D02*
X67835714Y-83403333D01*
X67788095Y-83355714D01*
X67740476Y-83260476D01*
X67740476Y-83212857D01*
X67788095Y-83117619D01*
X67835714Y-83070000D01*
X67930952Y-83022380D01*
X68121428Y-83022380D01*
X68216666Y-83070000D01*
X68264285Y-83117619D01*
X68311904Y-83212857D01*
X68311904Y-83260476D01*
X68264285Y-83355714D01*
X68216666Y-83403333D01*
X68121428Y-83450952D01*
X67930952Y-83450952D01*
X67835714Y-83498571D01*
X67788095Y-83546190D01*
X67740476Y-83641428D01*
X67740476Y-83831904D01*
X67788095Y-83927142D01*
X67835714Y-83974761D01*
X67930952Y-84022380D01*
X68121428Y-84022380D01*
X68216666Y-83974761D01*
X68264285Y-83927142D01*
X68311904Y-83831904D01*
X68311904Y-83641428D01*
X68264285Y-83546190D01*
X68216666Y-83498571D01*
X68121428Y-83450952D01*
%TO.C,C17*%
X61857142Y-45357142D02*
X61809523Y-45404761D01*
X61666666Y-45452380D01*
X61571428Y-45452380D01*
X61428571Y-45404761D01*
X61333333Y-45309523D01*
X61285714Y-45214285D01*
X61238095Y-45023809D01*
X61238095Y-44880952D01*
X61285714Y-44690476D01*
X61333333Y-44595238D01*
X61428571Y-44500000D01*
X61571428Y-44452380D01*
X61666666Y-44452380D01*
X61809523Y-44500000D01*
X61857142Y-44547619D01*
X62809523Y-45452380D02*
X62238095Y-45452380D01*
X62523809Y-45452380D02*
X62523809Y-44452380D01*
X62428571Y-44595238D01*
X62333333Y-44690476D01*
X62238095Y-44738095D01*
X63142857Y-44452380D02*
X63809523Y-44452380D01*
X63380952Y-45452380D01*
%TO.C,C16*%
X59057142Y-57257142D02*
X59009523Y-57304761D01*
X58866666Y-57352380D01*
X58771428Y-57352380D01*
X58628571Y-57304761D01*
X58533333Y-57209523D01*
X58485714Y-57114285D01*
X58438095Y-56923809D01*
X58438095Y-56780952D01*
X58485714Y-56590476D01*
X58533333Y-56495238D01*
X58628571Y-56400000D01*
X58771428Y-56352380D01*
X58866666Y-56352380D01*
X59009523Y-56400000D01*
X59057142Y-56447619D01*
X60009523Y-57352380D02*
X59438095Y-57352380D01*
X59723809Y-57352380D02*
X59723809Y-56352380D01*
X59628571Y-56495238D01*
X59533333Y-56590476D01*
X59438095Y-56638095D01*
X60866666Y-56352380D02*
X60676190Y-56352380D01*
X60580952Y-56400000D01*
X60533333Y-56447619D01*
X60438095Y-56590476D01*
X60390476Y-56780952D01*
X60390476Y-57161904D01*
X60438095Y-57257142D01*
X60485714Y-57304761D01*
X60580952Y-57352380D01*
X60771428Y-57352380D01*
X60866666Y-57304761D01*
X60914285Y-57257142D01*
X60961904Y-57161904D01*
X60961904Y-56923809D01*
X60914285Y-56828571D01*
X60866666Y-56780952D01*
X60771428Y-56733333D01*
X60580952Y-56733333D01*
X60485714Y-56780952D01*
X60438095Y-56828571D01*
X60390476Y-56923809D01*
%TO.C,C15*%
X58857142Y-65857142D02*
X58809523Y-65904761D01*
X58666666Y-65952380D01*
X58571428Y-65952380D01*
X58428571Y-65904761D01*
X58333333Y-65809523D01*
X58285714Y-65714285D01*
X58238095Y-65523809D01*
X58238095Y-65380952D01*
X58285714Y-65190476D01*
X58333333Y-65095238D01*
X58428571Y-65000000D01*
X58571428Y-64952380D01*
X58666666Y-64952380D01*
X58809523Y-65000000D01*
X58857142Y-65047619D01*
X59809523Y-65952380D02*
X59238095Y-65952380D01*
X59523809Y-65952380D02*
X59523809Y-64952380D01*
X59428571Y-65095238D01*
X59333333Y-65190476D01*
X59238095Y-65238095D01*
X60714285Y-64952380D02*
X60238095Y-64952380D01*
X60190476Y-65428571D01*
X60238095Y-65380952D01*
X60333333Y-65333333D01*
X60571428Y-65333333D01*
X60666666Y-65380952D01*
X60714285Y-65428571D01*
X60761904Y-65523809D01*
X60761904Y-65761904D01*
X60714285Y-65857142D01*
X60666666Y-65904761D01*
X60571428Y-65952380D01*
X60333333Y-65952380D01*
X60238095Y-65904761D01*
X60190476Y-65857142D01*
%TO.C,C14*%
X112957142Y-47757142D02*
X112909523Y-47804761D01*
X112766666Y-47852380D01*
X112671428Y-47852380D01*
X112528571Y-47804761D01*
X112433333Y-47709523D01*
X112385714Y-47614285D01*
X112338095Y-47423809D01*
X112338095Y-47280952D01*
X112385714Y-47090476D01*
X112433333Y-46995238D01*
X112528571Y-46900000D01*
X112671428Y-46852380D01*
X112766666Y-46852380D01*
X112909523Y-46900000D01*
X112957142Y-46947619D01*
X113909523Y-47852380D02*
X113338095Y-47852380D01*
X113623809Y-47852380D02*
X113623809Y-46852380D01*
X113528571Y-46995238D01*
X113433333Y-47090476D01*
X113338095Y-47138095D01*
X114766666Y-47185714D02*
X114766666Y-47852380D01*
X114528571Y-46804761D02*
X114290476Y-47519047D01*
X114909523Y-47519047D01*
%TO.C,C13*%
X71057142Y-45407142D02*
X71009523Y-45454761D01*
X70866666Y-45502380D01*
X70771428Y-45502380D01*
X70628571Y-45454761D01*
X70533333Y-45359523D01*
X70485714Y-45264285D01*
X70438095Y-45073809D01*
X70438095Y-44930952D01*
X70485714Y-44740476D01*
X70533333Y-44645238D01*
X70628571Y-44550000D01*
X70771428Y-44502380D01*
X70866666Y-44502380D01*
X71009523Y-44550000D01*
X71057142Y-44597619D01*
X72009523Y-45502380D02*
X71438095Y-45502380D01*
X71723809Y-45502380D02*
X71723809Y-44502380D01*
X71628571Y-44645238D01*
X71533333Y-44740476D01*
X71438095Y-44788095D01*
X72342857Y-44502380D02*
X72961904Y-44502380D01*
X72628571Y-44883333D01*
X72771428Y-44883333D01*
X72866666Y-44930952D01*
X72914285Y-44978571D01*
X72961904Y-45073809D01*
X72961904Y-45311904D01*
X72914285Y-45407142D01*
X72866666Y-45454761D01*
X72771428Y-45502380D01*
X72485714Y-45502380D01*
X72390476Y-45454761D01*
X72342857Y-45407142D01*
%TO.C,C11*%
X95287142Y-73167142D02*
X95239523Y-73214761D01*
X95096666Y-73262380D01*
X95001428Y-73262380D01*
X94858571Y-73214761D01*
X94763333Y-73119523D01*
X94715714Y-73024285D01*
X94668095Y-72833809D01*
X94668095Y-72690952D01*
X94715714Y-72500476D01*
X94763333Y-72405238D01*
X94858571Y-72310000D01*
X95001428Y-72262380D01*
X95096666Y-72262380D01*
X95239523Y-72310000D01*
X95287142Y-72357619D01*
X96239523Y-73262380D02*
X95668095Y-73262380D01*
X95953809Y-73262380D02*
X95953809Y-72262380D01*
X95858571Y-72405238D01*
X95763333Y-72500476D01*
X95668095Y-72548095D01*
X97191904Y-73262380D02*
X96620476Y-73262380D01*
X96906190Y-73262380D02*
X96906190Y-72262380D01*
X96810952Y-72405238D01*
X96715714Y-72500476D01*
X96620476Y-72548095D01*
%TO.C,C10*%
X74357142Y-45357142D02*
X74309523Y-45404761D01*
X74166666Y-45452380D01*
X74071428Y-45452380D01*
X73928571Y-45404761D01*
X73833333Y-45309523D01*
X73785714Y-45214285D01*
X73738095Y-45023809D01*
X73738095Y-44880952D01*
X73785714Y-44690476D01*
X73833333Y-44595238D01*
X73928571Y-44500000D01*
X74071428Y-44452380D01*
X74166666Y-44452380D01*
X74309523Y-44500000D01*
X74357142Y-44547619D01*
X75309523Y-45452380D02*
X74738095Y-45452380D01*
X75023809Y-45452380D02*
X75023809Y-44452380D01*
X74928571Y-44595238D01*
X74833333Y-44690476D01*
X74738095Y-44738095D01*
X75928571Y-44452380D02*
X76023809Y-44452380D01*
X76119047Y-44500000D01*
X76166666Y-44547619D01*
X76214285Y-44642857D01*
X76261904Y-44833333D01*
X76261904Y-45071428D01*
X76214285Y-45261904D01*
X76166666Y-45357142D01*
X76119047Y-45404761D01*
X76023809Y-45452380D01*
X75928571Y-45452380D01*
X75833333Y-45404761D01*
X75785714Y-45357142D01*
X75738095Y-45261904D01*
X75690476Y-45071428D01*
X75690476Y-44833333D01*
X75738095Y-44642857D01*
X75785714Y-44547619D01*
X75833333Y-44500000D01*
X75928571Y-44452380D01*
%TO.C,C9*%
X101183333Y-79507142D02*
X101135714Y-79554761D01*
X100992857Y-79602380D01*
X100897619Y-79602380D01*
X100754761Y-79554761D01*
X100659523Y-79459523D01*
X100611904Y-79364285D01*
X100564285Y-79173809D01*
X100564285Y-79030952D01*
X100611904Y-78840476D01*
X100659523Y-78745238D01*
X100754761Y-78650000D01*
X100897619Y-78602380D01*
X100992857Y-78602380D01*
X101135714Y-78650000D01*
X101183333Y-78697619D01*
X101659523Y-79602380D02*
X101850000Y-79602380D01*
X101945238Y-79554761D01*
X101992857Y-79507142D01*
X102088095Y-79364285D01*
X102135714Y-79173809D01*
X102135714Y-78792857D01*
X102088095Y-78697619D01*
X102040476Y-78650000D01*
X101945238Y-78602380D01*
X101754761Y-78602380D01*
X101659523Y-78650000D01*
X101611904Y-78697619D01*
X101564285Y-78792857D01*
X101564285Y-79030952D01*
X101611904Y-79126190D01*
X101659523Y-79173809D01*
X101754761Y-79221428D01*
X101945238Y-79221428D01*
X102040476Y-79173809D01*
X102088095Y-79126190D01*
X102135714Y-79030952D01*
%TO.C,C7*%
X84033333Y-71957142D02*
X83985714Y-72004761D01*
X83842857Y-72052380D01*
X83747619Y-72052380D01*
X83604761Y-72004761D01*
X83509523Y-71909523D01*
X83461904Y-71814285D01*
X83414285Y-71623809D01*
X83414285Y-71480952D01*
X83461904Y-71290476D01*
X83509523Y-71195238D01*
X83604761Y-71100000D01*
X83747619Y-71052380D01*
X83842857Y-71052380D01*
X83985714Y-71100000D01*
X84033333Y-71147619D01*
X84366666Y-71052380D02*
X85033333Y-71052380D01*
X84604761Y-72052380D01*
%TO.C,C6*%
X69433333Y-89017142D02*
X69385714Y-89064761D01*
X69242857Y-89112380D01*
X69147619Y-89112380D01*
X69004761Y-89064761D01*
X68909523Y-88969523D01*
X68861904Y-88874285D01*
X68814285Y-88683809D01*
X68814285Y-88540952D01*
X68861904Y-88350476D01*
X68909523Y-88255238D01*
X69004761Y-88160000D01*
X69147619Y-88112380D01*
X69242857Y-88112380D01*
X69385714Y-88160000D01*
X69433333Y-88207619D01*
X70290476Y-88112380D02*
X70100000Y-88112380D01*
X70004761Y-88160000D01*
X69957142Y-88207619D01*
X69861904Y-88350476D01*
X69814285Y-88540952D01*
X69814285Y-88921904D01*
X69861904Y-89017142D01*
X69909523Y-89064761D01*
X70004761Y-89112380D01*
X70195238Y-89112380D01*
X70290476Y-89064761D01*
X70338095Y-89017142D01*
X70385714Y-88921904D01*
X70385714Y-88683809D01*
X70338095Y-88588571D01*
X70290476Y-88540952D01*
X70195238Y-88493333D01*
X70004761Y-88493333D01*
X69909523Y-88540952D01*
X69861904Y-88588571D01*
X69814285Y-88683809D01*
%TO.C,C5*%
X65233333Y-45357142D02*
X65185714Y-45404761D01*
X65042857Y-45452380D01*
X64947619Y-45452380D01*
X64804761Y-45404761D01*
X64709523Y-45309523D01*
X64661904Y-45214285D01*
X64614285Y-45023809D01*
X64614285Y-44880952D01*
X64661904Y-44690476D01*
X64709523Y-44595238D01*
X64804761Y-44500000D01*
X64947619Y-44452380D01*
X65042857Y-44452380D01*
X65185714Y-44500000D01*
X65233333Y-44547619D01*
X66138095Y-44452380D02*
X65661904Y-44452380D01*
X65614285Y-44928571D01*
X65661904Y-44880952D01*
X65757142Y-44833333D01*
X65995238Y-44833333D01*
X66090476Y-44880952D01*
X66138095Y-44928571D01*
X66185714Y-45023809D01*
X66185714Y-45261904D01*
X66138095Y-45357142D01*
X66090476Y-45404761D01*
X65995238Y-45452380D01*
X65757142Y-45452380D01*
X65661904Y-45404761D01*
X65614285Y-45357142D01*
%TO.C,C4*%
X70783333Y-57357142D02*
X70735714Y-57404761D01*
X70592857Y-57452380D01*
X70497619Y-57452380D01*
X70354761Y-57404761D01*
X70259523Y-57309523D01*
X70211904Y-57214285D01*
X70164285Y-57023809D01*
X70164285Y-56880952D01*
X70211904Y-56690476D01*
X70259523Y-56595238D01*
X70354761Y-56500000D01*
X70497619Y-56452380D01*
X70592857Y-56452380D01*
X70735714Y-56500000D01*
X70783333Y-56547619D01*
X71640476Y-56785714D02*
X71640476Y-57452380D01*
X71402380Y-56404761D02*
X71164285Y-57119047D01*
X71783333Y-57119047D01*
%TO.C,C3*%
X71083333Y-65857142D02*
X71035714Y-65904761D01*
X70892857Y-65952380D01*
X70797619Y-65952380D01*
X70654761Y-65904761D01*
X70559523Y-65809523D01*
X70511904Y-65714285D01*
X70464285Y-65523809D01*
X70464285Y-65380952D01*
X70511904Y-65190476D01*
X70559523Y-65095238D01*
X70654761Y-65000000D01*
X70797619Y-64952380D01*
X70892857Y-64952380D01*
X71035714Y-65000000D01*
X71083333Y-65047619D01*
X71416666Y-64952380D02*
X72035714Y-64952380D01*
X71702380Y-65333333D01*
X71845238Y-65333333D01*
X71940476Y-65380952D01*
X71988095Y-65428571D01*
X72035714Y-65523809D01*
X72035714Y-65761904D01*
X71988095Y-65857142D01*
X71940476Y-65904761D01*
X71845238Y-65952380D01*
X71559523Y-65952380D01*
X71464285Y-65904761D01*
X71416666Y-65857142D01*
%TO.C,C2*%
X90583333Y-86027142D02*
X90535714Y-86074761D01*
X90392857Y-86122380D01*
X90297619Y-86122380D01*
X90154761Y-86074761D01*
X90059523Y-85979523D01*
X90011904Y-85884285D01*
X89964285Y-85693809D01*
X89964285Y-85550952D01*
X90011904Y-85360476D01*
X90059523Y-85265238D01*
X90154761Y-85170000D01*
X90297619Y-85122380D01*
X90392857Y-85122380D01*
X90535714Y-85170000D01*
X90583333Y-85217619D01*
X90964285Y-85217619D02*
X91011904Y-85170000D01*
X91107142Y-85122380D01*
X91345238Y-85122380D01*
X91440476Y-85170000D01*
X91488095Y-85217619D01*
X91535714Y-85312857D01*
X91535714Y-85408095D01*
X91488095Y-85550952D01*
X90916666Y-86122380D01*
X91535714Y-86122380D01*
%TO.C,C1*%
X85453333Y-86017142D02*
X85405714Y-86064761D01*
X85262857Y-86112380D01*
X85167619Y-86112380D01*
X85024761Y-86064761D01*
X84929523Y-85969523D01*
X84881904Y-85874285D01*
X84834285Y-85683809D01*
X84834285Y-85540952D01*
X84881904Y-85350476D01*
X84929523Y-85255238D01*
X85024761Y-85160000D01*
X85167619Y-85112380D01*
X85262857Y-85112380D01*
X85405714Y-85160000D01*
X85453333Y-85207619D01*
X86405714Y-86112380D02*
X85834285Y-86112380D01*
X86120000Y-86112380D02*
X86120000Y-85112380D01*
X86024761Y-85255238D01*
X85929523Y-85350476D01*
X85834285Y-85398095D01*
%TD*%
%LPC*%
%TO.C,U3*%
G36*
G01*
X79250000Y-55100000D02*
X79250000Y-53775000D01*
G75*
G02*
X79325000Y-53700000I75000J0D01*
G01*
X79475000Y-53700000D01*
G75*
G02*
X79550000Y-53775000I0J-75000D01*
G01*
X79550000Y-55100000D01*
G75*
G02*
X79475000Y-55175000I-75000J0D01*
G01*
X79325000Y-55175000D01*
G75*
G02*
X79250000Y-55100000I0J75000D01*
G01*
G37*
G36*
G01*
X79750000Y-55100000D02*
X79750000Y-53775000D01*
G75*
G02*
X79825000Y-53700000I75000J0D01*
G01*
X79975000Y-53700000D01*
G75*
G02*
X80050000Y-53775000I0J-75000D01*
G01*
X80050000Y-55100000D01*
G75*
G02*
X79975000Y-55175000I-75000J0D01*
G01*
X79825000Y-55175000D01*
G75*
G02*
X79750000Y-55100000I0J75000D01*
G01*
G37*
G36*
G01*
X80250000Y-55100000D02*
X80250000Y-53775000D01*
G75*
G02*
X80325000Y-53700000I75000J0D01*
G01*
X80475000Y-53700000D01*
G75*
G02*
X80550000Y-53775000I0J-75000D01*
G01*
X80550000Y-55100000D01*
G75*
G02*
X80475000Y-55175000I-75000J0D01*
G01*
X80325000Y-55175000D01*
G75*
G02*
X80250000Y-55100000I0J75000D01*
G01*
G37*
G36*
G01*
X80750000Y-55100000D02*
X80750000Y-53775000D01*
G75*
G02*
X80825000Y-53700000I75000J0D01*
G01*
X80975000Y-53700000D01*
G75*
G02*
X81050000Y-53775000I0J-75000D01*
G01*
X81050000Y-55100000D01*
G75*
G02*
X80975000Y-55175000I-75000J0D01*
G01*
X80825000Y-55175000D01*
G75*
G02*
X80750000Y-55100000I0J75000D01*
G01*
G37*
G36*
G01*
X81250000Y-55100000D02*
X81250000Y-53775000D01*
G75*
G02*
X81325000Y-53700000I75000J0D01*
G01*
X81475000Y-53700000D01*
G75*
G02*
X81550000Y-53775000I0J-75000D01*
G01*
X81550000Y-55100000D01*
G75*
G02*
X81475000Y-55175000I-75000J0D01*
G01*
X81325000Y-55175000D01*
G75*
G02*
X81250000Y-55100000I0J75000D01*
G01*
G37*
G36*
G01*
X81750000Y-55100000D02*
X81750000Y-53775000D01*
G75*
G02*
X81825000Y-53700000I75000J0D01*
G01*
X81975000Y-53700000D01*
G75*
G02*
X82050000Y-53775000I0J-75000D01*
G01*
X82050000Y-55100000D01*
G75*
G02*
X81975000Y-55175000I-75000J0D01*
G01*
X81825000Y-55175000D01*
G75*
G02*
X81750000Y-55100000I0J75000D01*
G01*
G37*
G36*
G01*
X82250000Y-55100000D02*
X82250000Y-53775000D01*
G75*
G02*
X82325000Y-53700000I75000J0D01*
G01*
X82475000Y-53700000D01*
G75*
G02*
X82550000Y-53775000I0J-75000D01*
G01*
X82550000Y-55100000D01*
G75*
G02*
X82475000Y-55175000I-75000J0D01*
G01*
X82325000Y-55175000D01*
G75*
G02*
X82250000Y-55100000I0J75000D01*
G01*
G37*
G36*
G01*
X82750000Y-55100000D02*
X82750000Y-53775000D01*
G75*
G02*
X82825000Y-53700000I75000J0D01*
G01*
X82975000Y-53700000D01*
G75*
G02*
X83050000Y-53775000I0J-75000D01*
G01*
X83050000Y-55100000D01*
G75*
G02*
X82975000Y-55175000I-75000J0D01*
G01*
X82825000Y-55175000D01*
G75*
G02*
X82750000Y-55100000I0J75000D01*
G01*
G37*
G36*
G01*
X83250000Y-55100000D02*
X83250000Y-53775000D01*
G75*
G02*
X83325000Y-53700000I75000J0D01*
G01*
X83475000Y-53700000D01*
G75*
G02*
X83550000Y-53775000I0J-75000D01*
G01*
X83550000Y-55100000D01*
G75*
G02*
X83475000Y-55175000I-75000J0D01*
G01*
X83325000Y-55175000D01*
G75*
G02*
X83250000Y-55100000I0J75000D01*
G01*
G37*
G36*
G01*
X83750000Y-55100000D02*
X83750000Y-53775000D01*
G75*
G02*
X83825000Y-53700000I75000J0D01*
G01*
X83975000Y-53700000D01*
G75*
G02*
X84050000Y-53775000I0J-75000D01*
G01*
X84050000Y-55100000D01*
G75*
G02*
X83975000Y-55175000I-75000J0D01*
G01*
X83825000Y-55175000D01*
G75*
G02*
X83750000Y-55100000I0J75000D01*
G01*
G37*
G36*
G01*
X84250000Y-55100000D02*
X84250000Y-53775000D01*
G75*
G02*
X84325000Y-53700000I75000J0D01*
G01*
X84475000Y-53700000D01*
G75*
G02*
X84550000Y-53775000I0J-75000D01*
G01*
X84550000Y-55100000D01*
G75*
G02*
X84475000Y-55175000I-75000J0D01*
G01*
X84325000Y-55175000D01*
G75*
G02*
X84250000Y-55100000I0J75000D01*
G01*
G37*
G36*
G01*
X84750000Y-55100000D02*
X84750000Y-53775000D01*
G75*
G02*
X84825000Y-53700000I75000J0D01*
G01*
X84975000Y-53700000D01*
G75*
G02*
X85050000Y-53775000I0J-75000D01*
G01*
X85050000Y-55100000D01*
G75*
G02*
X84975000Y-55175000I-75000J0D01*
G01*
X84825000Y-55175000D01*
G75*
G02*
X84750000Y-55100000I0J75000D01*
G01*
G37*
G36*
G01*
X85250000Y-55100000D02*
X85250000Y-53775000D01*
G75*
G02*
X85325000Y-53700000I75000J0D01*
G01*
X85475000Y-53700000D01*
G75*
G02*
X85550000Y-53775000I0J-75000D01*
G01*
X85550000Y-55100000D01*
G75*
G02*
X85475000Y-55175000I-75000J0D01*
G01*
X85325000Y-55175000D01*
G75*
G02*
X85250000Y-55100000I0J75000D01*
G01*
G37*
G36*
G01*
X85750000Y-55100000D02*
X85750000Y-53775000D01*
G75*
G02*
X85825000Y-53700000I75000J0D01*
G01*
X85975000Y-53700000D01*
G75*
G02*
X86050000Y-53775000I0J-75000D01*
G01*
X86050000Y-55100000D01*
G75*
G02*
X85975000Y-55175000I-75000J0D01*
G01*
X85825000Y-55175000D01*
G75*
G02*
X85750000Y-55100000I0J75000D01*
G01*
G37*
G36*
G01*
X86250000Y-55100000D02*
X86250000Y-53775000D01*
G75*
G02*
X86325000Y-53700000I75000J0D01*
G01*
X86475000Y-53700000D01*
G75*
G02*
X86550000Y-53775000I0J-75000D01*
G01*
X86550000Y-55100000D01*
G75*
G02*
X86475000Y-55175000I-75000J0D01*
G01*
X86325000Y-55175000D01*
G75*
G02*
X86250000Y-55100000I0J75000D01*
G01*
G37*
G36*
G01*
X86750000Y-55100000D02*
X86750000Y-53775000D01*
G75*
G02*
X86825000Y-53700000I75000J0D01*
G01*
X86975000Y-53700000D01*
G75*
G02*
X87050000Y-53775000I0J-75000D01*
G01*
X87050000Y-55100000D01*
G75*
G02*
X86975000Y-55175000I-75000J0D01*
G01*
X86825000Y-55175000D01*
G75*
G02*
X86750000Y-55100000I0J75000D01*
G01*
G37*
G36*
G01*
X87250000Y-55100000D02*
X87250000Y-53775000D01*
G75*
G02*
X87325000Y-53700000I75000J0D01*
G01*
X87475000Y-53700000D01*
G75*
G02*
X87550000Y-53775000I0J-75000D01*
G01*
X87550000Y-55100000D01*
G75*
G02*
X87475000Y-55175000I-75000J0D01*
G01*
X87325000Y-55175000D01*
G75*
G02*
X87250000Y-55100000I0J75000D01*
G01*
G37*
G36*
G01*
X87750000Y-55100000D02*
X87750000Y-53775000D01*
G75*
G02*
X87825000Y-53700000I75000J0D01*
G01*
X87975000Y-53700000D01*
G75*
G02*
X88050000Y-53775000I0J-75000D01*
G01*
X88050000Y-55100000D01*
G75*
G02*
X87975000Y-55175000I-75000J0D01*
G01*
X87825000Y-55175000D01*
G75*
G02*
X87750000Y-55100000I0J75000D01*
G01*
G37*
G36*
G01*
X88250000Y-55100000D02*
X88250000Y-53775000D01*
G75*
G02*
X88325000Y-53700000I75000J0D01*
G01*
X88475000Y-53700000D01*
G75*
G02*
X88550000Y-53775000I0J-75000D01*
G01*
X88550000Y-55100000D01*
G75*
G02*
X88475000Y-55175000I-75000J0D01*
G01*
X88325000Y-55175000D01*
G75*
G02*
X88250000Y-55100000I0J75000D01*
G01*
G37*
G36*
G01*
X88750000Y-55100000D02*
X88750000Y-53775000D01*
G75*
G02*
X88825000Y-53700000I75000J0D01*
G01*
X88975000Y-53700000D01*
G75*
G02*
X89050000Y-53775000I0J-75000D01*
G01*
X89050000Y-55100000D01*
G75*
G02*
X88975000Y-55175000I-75000J0D01*
G01*
X88825000Y-55175000D01*
G75*
G02*
X88750000Y-55100000I0J75000D01*
G01*
G37*
G36*
G01*
X89250000Y-55100000D02*
X89250000Y-53775000D01*
G75*
G02*
X89325000Y-53700000I75000J0D01*
G01*
X89475000Y-53700000D01*
G75*
G02*
X89550000Y-53775000I0J-75000D01*
G01*
X89550000Y-55100000D01*
G75*
G02*
X89475000Y-55175000I-75000J0D01*
G01*
X89325000Y-55175000D01*
G75*
G02*
X89250000Y-55100000I0J75000D01*
G01*
G37*
G36*
G01*
X89750000Y-55100000D02*
X89750000Y-53775000D01*
G75*
G02*
X89825000Y-53700000I75000J0D01*
G01*
X89975000Y-53700000D01*
G75*
G02*
X90050000Y-53775000I0J-75000D01*
G01*
X90050000Y-55100000D01*
G75*
G02*
X89975000Y-55175000I-75000J0D01*
G01*
X89825000Y-55175000D01*
G75*
G02*
X89750000Y-55100000I0J75000D01*
G01*
G37*
G36*
G01*
X90250000Y-55100000D02*
X90250000Y-53775000D01*
G75*
G02*
X90325000Y-53700000I75000J0D01*
G01*
X90475000Y-53700000D01*
G75*
G02*
X90550000Y-53775000I0J-75000D01*
G01*
X90550000Y-55100000D01*
G75*
G02*
X90475000Y-55175000I-75000J0D01*
G01*
X90325000Y-55175000D01*
G75*
G02*
X90250000Y-55100000I0J75000D01*
G01*
G37*
G36*
G01*
X90750000Y-55100000D02*
X90750000Y-53775000D01*
G75*
G02*
X90825000Y-53700000I75000J0D01*
G01*
X90975000Y-53700000D01*
G75*
G02*
X91050000Y-53775000I0J-75000D01*
G01*
X91050000Y-55100000D01*
G75*
G02*
X90975000Y-55175000I-75000J0D01*
G01*
X90825000Y-55175000D01*
G75*
G02*
X90750000Y-55100000I0J75000D01*
G01*
G37*
G36*
G01*
X91250000Y-55100000D02*
X91250000Y-53775000D01*
G75*
G02*
X91325000Y-53700000I75000J0D01*
G01*
X91475000Y-53700000D01*
G75*
G02*
X91550000Y-53775000I0J-75000D01*
G01*
X91550000Y-55100000D01*
G75*
G02*
X91475000Y-55175000I-75000J0D01*
G01*
X91325000Y-55175000D01*
G75*
G02*
X91250000Y-55100000I0J75000D01*
G01*
G37*
G36*
G01*
X92325000Y-56175000D02*
X92325000Y-56025000D01*
G75*
G02*
X92400000Y-55950000I75000J0D01*
G01*
X93725000Y-55950000D01*
G75*
G02*
X93800000Y-56025000I0J-75000D01*
G01*
X93800000Y-56175000D01*
G75*
G02*
X93725000Y-56250000I-75000J0D01*
G01*
X92400000Y-56250000D01*
G75*
G02*
X92325000Y-56175000I0J75000D01*
G01*
G37*
G36*
G01*
X92325000Y-56675000D02*
X92325000Y-56525000D01*
G75*
G02*
X92400000Y-56450000I75000J0D01*
G01*
X93725000Y-56450000D01*
G75*
G02*
X93800000Y-56525000I0J-75000D01*
G01*
X93800000Y-56675000D01*
G75*
G02*
X93725000Y-56750000I-75000J0D01*
G01*
X92400000Y-56750000D01*
G75*
G02*
X92325000Y-56675000I0J75000D01*
G01*
G37*
G36*
G01*
X92325000Y-57175000D02*
X92325000Y-57025000D01*
G75*
G02*
X92400000Y-56950000I75000J0D01*
G01*
X93725000Y-56950000D01*
G75*
G02*
X93800000Y-57025000I0J-75000D01*
G01*
X93800000Y-57175000D01*
G75*
G02*
X93725000Y-57250000I-75000J0D01*
G01*
X92400000Y-57250000D01*
G75*
G02*
X92325000Y-57175000I0J75000D01*
G01*
G37*
G36*
G01*
X92325000Y-57675000D02*
X92325000Y-57525000D01*
G75*
G02*
X92400000Y-57450000I75000J0D01*
G01*
X93725000Y-57450000D01*
G75*
G02*
X93800000Y-57525000I0J-75000D01*
G01*
X93800000Y-57675000D01*
G75*
G02*
X93725000Y-57750000I-75000J0D01*
G01*
X92400000Y-57750000D01*
G75*
G02*
X92325000Y-57675000I0J75000D01*
G01*
G37*
G36*
G01*
X92325000Y-58175000D02*
X92325000Y-58025000D01*
G75*
G02*
X92400000Y-57950000I75000J0D01*
G01*
X93725000Y-57950000D01*
G75*
G02*
X93800000Y-58025000I0J-75000D01*
G01*
X93800000Y-58175000D01*
G75*
G02*
X93725000Y-58250000I-75000J0D01*
G01*
X92400000Y-58250000D01*
G75*
G02*
X92325000Y-58175000I0J75000D01*
G01*
G37*
G36*
G01*
X92325000Y-58675000D02*
X92325000Y-58525000D01*
G75*
G02*
X92400000Y-58450000I75000J0D01*
G01*
X93725000Y-58450000D01*
G75*
G02*
X93800000Y-58525000I0J-75000D01*
G01*
X93800000Y-58675000D01*
G75*
G02*
X93725000Y-58750000I-75000J0D01*
G01*
X92400000Y-58750000D01*
G75*
G02*
X92325000Y-58675000I0J75000D01*
G01*
G37*
G36*
G01*
X92325000Y-59175000D02*
X92325000Y-59025000D01*
G75*
G02*
X92400000Y-58950000I75000J0D01*
G01*
X93725000Y-58950000D01*
G75*
G02*
X93800000Y-59025000I0J-75000D01*
G01*
X93800000Y-59175000D01*
G75*
G02*
X93725000Y-59250000I-75000J0D01*
G01*
X92400000Y-59250000D01*
G75*
G02*
X92325000Y-59175000I0J75000D01*
G01*
G37*
G36*
G01*
X92325000Y-59675000D02*
X92325000Y-59525000D01*
G75*
G02*
X92400000Y-59450000I75000J0D01*
G01*
X93725000Y-59450000D01*
G75*
G02*
X93800000Y-59525000I0J-75000D01*
G01*
X93800000Y-59675000D01*
G75*
G02*
X93725000Y-59750000I-75000J0D01*
G01*
X92400000Y-59750000D01*
G75*
G02*
X92325000Y-59675000I0J75000D01*
G01*
G37*
G36*
G01*
X92325000Y-60175000D02*
X92325000Y-60025000D01*
G75*
G02*
X92400000Y-59950000I75000J0D01*
G01*
X93725000Y-59950000D01*
G75*
G02*
X93800000Y-60025000I0J-75000D01*
G01*
X93800000Y-60175000D01*
G75*
G02*
X93725000Y-60250000I-75000J0D01*
G01*
X92400000Y-60250000D01*
G75*
G02*
X92325000Y-60175000I0J75000D01*
G01*
G37*
G36*
G01*
X92325000Y-60675000D02*
X92325000Y-60525000D01*
G75*
G02*
X92400000Y-60450000I75000J0D01*
G01*
X93725000Y-60450000D01*
G75*
G02*
X93800000Y-60525000I0J-75000D01*
G01*
X93800000Y-60675000D01*
G75*
G02*
X93725000Y-60750000I-75000J0D01*
G01*
X92400000Y-60750000D01*
G75*
G02*
X92325000Y-60675000I0J75000D01*
G01*
G37*
G36*
G01*
X92325000Y-61175000D02*
X92325000Y-61025000D01*
G75*
G02*
X92400000Y-60950000I75000J0D01*
G01*
X93725000Y-60950000D01*
G75*
G02*
X93800000Y-61025000I0J-75000D01*
G01*
X93800000Y-61175000D01*
G75*
G02*
X93725000Y-61250000I-75000J0D01*
G01*
X92400000Y-61250000D01*
G75*
G02*
X92325000Y-61175000I0J75000D01*
G01*
G37*
G36*
G01*
X92325000Y-61675000D02*
X92325000Y-61525000D01*
G75*
G02*
X92400000Y-61450000I75000J0D01*
G01*
X93725000Y-61450000D01*
G75*
G02*
X93800000Y-61525000I0J-75000D01*
G01*
X93800000Y-61675000D01*
G75*
G02*
X93725000Y-61750000I-75000J0D01*
G01*
X92400000Y-61750000D01*
G75*
G02*
X92325000Y-61675000I0J75000D01*
G01*
G37*
G36*
G01*
X92325000Y-62175000D02*
X92325000Y-62025000D01*
G75*
G02*
X92400000Y-61950000I75000J0D01*
G01*
X93725000Y-61950000D01*
G75*
G02*
X93800000Y-62025000I0J-75000D01*
G01*
X93800000Y-62175000D01*
G75*
G02*
X93725000Y-62250000I-75000J0D01*
G01*
X92400000Y-62250000D01*
G75*
G02*
X92325000Y-62175000I0J75000D01*
G01*
G37*
G36*
G01*
X92325000Y-62675000D02*
X92325000Y-62525000D01*
G75*
G02*
X92400000Y-62450000I75000J0D01*
G01*
X93725000Y-62450000D01*
G75*
G02*
X93800000Y-62525000I0J-75000D01*
G01*
X93800000Y-62675000D01*
G75*
G02*
X93725000Y-62750000I-75000J0D01*
G01*
X92400000Y-62750000D01*
G75*
G02*
X92325000Y-62675000I0J75000D01*
G01*
G37*
G36*
G01*
X92325000Y-63175000D02*
X92325000Y-63025000D01*
G75*
G02*
X92400000Y-62950000I75000J0D01*
G01*
X93725000Y-62950000D01*
G75*
G02*
X93800000Y-63025000I0J-75000D01*
G01*
X93800000Y-63175000D01*
G75*
G02*
X93725000Y-63250000I-75000J0D01*
G01*
X92400000Y-63250000D01*
G75*
G02*
X92325000Y-63175000I0J75000D01*
G01*
G37*
G36*
G01*
X92325000Y-63675000D02*
X92325000Y-63525000D01*
G75*
G02*
X92400000Y-63450000I75000J0D01*
G01*
X93725000Y-63450000D01*
G75*
G02*
X93800000Y-63525000I0J-75000D01*
G01*
X93800000Y-63675000D01*
G75*
G02*
X93725000Y-63750000I-75000J0D01*
G01*
X92400000Y-63750000D01*
G75*
G02*
X92325000Y-63675000I0J75000D01*
G01*
G37*
G36*
G01*
X92325000Y-64175000D02*
X92325000Y-64025000D01*
G75*
G02*
X92400000Y-63950000I75000J0D01*
G01*
X93725000Y-63950000D01*
G75*
G02*
X93800000Y-64025000I0J-75000D01*
G01*
X93800000Y-64175000D01*
G75*
G02*
X93725000Y-64250000I-75000J0D01*
G01*
X92400000Y-64250000D01*
G75*
G02*
X92325000Y-64175000I0J75000D01*
G01*
G37*
G36*
G01*
X92325000Y-64675000D02*
X92325000Y-64525000D01*
G75*
G02*
X92400000Y-64450000I75000J0D01*
G01*
X93725000Y-64450000D01*
G75*
G02*
X93800000Y-64525000I0J-75000D01*
G01*
X93800000Y-64675000D01*
G75*
G02*
X93725000Y-64750000I-75000J0D01*
G01*
X92400000Y-64750000D01*
G75*
G02*
X92325000Y-64675000I0J75000D01*
G01*
G37*
G36*
G01*
X92325000Y-65175000D02*
X92325000Y-65025000D01*
G75*
G02*
X92400000Y-64950000I75000J0D01*
G01*
X93725000Y-64950000D01*
G75*
G02*
X93800000Y-65025000I0J-75000D01*
G01*
X93800000Y-65175000D01*
G75*
G02*
X93725000Y-65250000I-75000J0D01*
G01*
X92400000Y-65250000D01*
G75*
G02*
X92325000Y-65175000I0J75000D01*
G01*
G37*
G36*
G01*
X92325000Y-65675000D02*
X92325000Y-65525000D01*
G75*
G02*
X92400000Y-65450000I75000J0D01*
G01*
X93725000Y-65450000D01*
G75*
G02*
X93800000Y-65525000I0J-75000D01*
G01*
X93800000Y-65675000D01*
G75*
G02*
X93725000Y-65750000I-75000J0D01*
G01*
X92400000Y-65750000D01*
G75*
G02*
X92325000Y-65675000I0J75000D01*
G01*
G37*
G36*
G01*
X92325000Y-66175000D02*
X92325000Y-66025000D01*
G75*
G02*
X92400000Y-65950000I75000J0D01*
G01*
X93725000Y-65950000D01*
G75*
G02*
X93800000Y-66025000I0J-75000D01*
G01*
X93800000Y-66175000D01*
G75*
G02*
X93725000Y-66250000I-75000J0D01*
G01*
X92400000Y-66250000D01*
G75*
G02*
X92325000Y-66175000I0J75000D01*
G01*
G37*
G36*
G01*
X92325000Y-66675000D02*
X92325000Y-66525000D01*
G75*
G02*
X92400000Y-66450000I75000J0D01*
G01*
X93725000Y-66450000D01*
G75*
G02*
X93800000Y-66525000I0J-75000D01*
G01*
X93800000Y-66675000D01*
G75*
G02*
X93725000Y-66750000I-75000J0D01*
G01*
X92400000Y-66750000D01*
G75*
G02*
X92325000Y-66675000I0J75000D01*
G01*
G37*
G36*
G01*
X92325000Y-67175000D02*
X92325000Y-67025000D01*
G75*
G02*
X92400000Y-66950000I75000J0D01*
G01*
X93725000Y-66950000D01*
G75*
G02*
X93800000Y-67025000I0J-75000D01*
G01*
X93800000Y-67175000D01*
G75*
G02*
X93725000Y-67250000I-75000J0D01*
G01*
X92400000Y-67250000D01*
G75*
G02*
X92325000Y-67175000I0J75000D01*
G01*
G37*
G36*
G01*
X92325000Y-67675000D02*
X92325000Y-67525000D01*
G75*
G02*
X92400000Y-67450000I75000J0D01*
G01*
X93725000Y-67450000D01*
G75*
G02*
X93800000Y-67525000I0J-75000D01*
G01*
X93800000Y-67675000D01*
G75*
G02*
X93725000Y-67750000I-75000J0D01*
G01*
X92400000Y-67750000D01*
G75*
G02*
X92325000Y-67675000I0J75000D01*
G01*
G37*
G36*
G01*
X92325000Y-68175000D02*
X92325000Y-68025000D01*
G75*
G02*
X92400000Y-67950000I75000J0D01*
G01*
X93725000Y-67950000D01*
G75*
G02*
X93800000Y-68025000I0J-75000D01*
G01*
X93800000Y-68175000D01*
G75*
G02*
X93725000Y-68250000I-75000J0D01*
G01*
X92400000Y-68250000D01*
G75*
G02*
X92325000Y-68175000I0J75000D01*
G01*
G37*
G36*
G01*
X91250000Y-70425000D02*
X91250000Y-69100000D01*
G75*
G02*
X91325000Y-69025000I75000J0D01*
G01*
X91475000Y-69025000D01*
G75*
G02*
X91550000Y-69100000I0J-75000D01*
G01*
X91550000Y-70425000D01*
G75*
G02*
X91475000Y-70500000I-75000J0D01*
G01*
X91325000Y-70500000D01*
G75*
G02*
X91250000Y-70425000I0J75000D01*
G01*
G37*
G36*
G01*
X90750000Y-70425000D02*
X90750000Y-69100000D01*
G75*
G02*
X90825000Y-69025000I75000J0D01*
G01*
X90975000Y-69025000D01*
G75*
G02*
X91050000Y-69100000I0J-75000D01*
G01*
X91050000Y-70425000D01*
G75*
G02*
X90975000Y-70500000I-75000J0D01*
G01*
X90825000Y-70500000D01*
G75*
G02*
X90750000Y-70425000I0J75000D01*
G01*
G37*
G36*
G01*
X90250000Y-70425000D02*
X90250000Y-69100000D01*
G75*
G02*
X90325000Y-69025000I75000J0D01*
G01*
X90475000Y-69025000D01*
G75*
G02*
X90550000Y-69100000I0J-75000D01*
G01*
X90550000Y-70425000D01*
G75*
G02*
X90475000Y-70500000I-75000J0D01*
G01*
X90325000Y-70500000D01*
G75*
G02*
X90250000Y-70425000I0J75000D01*
G01*
G37*
G36*
G01*
X89750000Y-70425000D02*
X89750000Y-69100000D01*
G75*
G02*
X89825000Y-69025000I75000J0D01*
G01*
X89975000Y-69025000D01*
G75*
G02*
X90050000Y-69100000I0J-75000D01*
G01*
X90050000Y-70425000D01*
G75*
G02*
X89975000Y-70500000I-75000J0D01*
G01*
X89825000Y-70500000D01*
G75*
G02*
X89750000Y-70425000I0J75000D01*
G01*
G37*
G36*
G01*
X89250000Y-70425000D02*
X89250000Y-69100000D01*
G75*
G02*
X89325000Y-69025000I75000J0D01*
G01*
X89475000Y-69025000D01*
G75*
G02*
X89550000Y-69100000I0J-75000D01*
G01*
X89550000Y-70425000D01*
G75*
G02*
X89475000Y-70500000I-75000J0D01*
G01*
X89325000Y-70500000D01*
G75*
G02*
X89250000Y-70425000I0J75000D01*
G01*
G37*
G36*
G01*
X88750000Y-70425000D02*
X88750000Y-69100000D01*
G75*
G02*
X88825000Y-69025000I75000J0D01*
G01*
X88975000Y-69025000D01*
G75*
G02*
X89050000Y-69100000I0J-75000D01*
G01*
X89050000Y-70425000D01*
G75*
G02*
X88975000Y-70500000I-75000J0D01*
G01*
X88825000Y-70500000D01*
G75*
G02*
X88750000Y-70425000I0J75000D01*
G01*
G37*
G36*
G01*
X88250000Y-70425000D02*
X88250000Y-69100000D01*
G75*
G02*
X88325000Y-69025000I75000J0D01*
G01*
X88475000Y-69025000D01*
G75*
G02*
X88550000Y-69100000I0J-75000D01*
G01*
X88550000Y-70425000D01*
G75*
G02*
X88475000Y-70500000I-75000J0D01*
G01*
X88325000Y-70500000D01*
G75*
G02*
X88250000Y-70425000I0J75000D01*
G01*
G37*
G36*
G01*
X87750000Y-70425000D02*
X87750000Y-69100000D01*
G75*
G02*
X87825000Y-69025000I75000J0D01*
G01*
X87975000Y-69025000D01*
G75*
G02*
X88050000Y-69100000I0J-75000D01*
G01*
X88050000Y-70425000D01*
G75*
G02*
X87975000Y-70500000I-75000J0D01*
G01*
X87825000Y-70500000D01*
G75*
G02*
X87750000Y-70425000I0J75000D01*
G01*
G37*
G36*
G01*
X87250000Y-70425000D02*
X87250000Y-69100000D01*
G75*
G02*
X87325000Y-69025000I75000J0D01*
G01*
X87475000Y-69025000D01*
G75*
G02*
X87550000Y-69100000I0J-75000D01*
G01*
X87550000Y-70425000D01*
G75*
G02*
X87475000Y-70500000I-75000J0D01*
G01*
X87325000Y-70500000D01*
G75*
G02*
X87250000Y-70425000I0J75000D01*
G01*
G37*
G36*
G01*
X86750000Y-70425000D02*
X86750000Y-69100000D01*
G75*
G02*
X86825000Y-69025000I75000J0D01*
G01*
X86975000Y-69025000D01*
G75*
G02*
X87050000Y-69100000I0J-75000D01*
G01*
X87050000Y-70425000D01*
G75*
G02*
X86975000Y-70500000I-75000J0D01*
G01*
X86825000Y-70500000D01*
G75*
G02*
X86750000Y-70425000I0J75000D01*
G01*
G37*
G36*
G01*
X86250000Y-70425000D02*
X86250000Y-69100000D01*
G75*
G02*
X86325000Y-69025000I75000J0D01*
G01*
X86475000Y-69025000D01*
G75*
G02*
X86550000Y-69100000I0J-75000D01*
G01*
X86550000Y-70425000D01*
G75*
G02*
X86475000Y-70500000I-75000J0D01*
G01*
X86325000Y-70500000D01*
G75*
G02*
X86250000Y-70425000I0J75000D01*
G01*
G37*
G36*
G01*
X85750000Y-70425000D02*
X85750000Y-69100000D01*
G75*
G02*
X85825000Y-69025000I75000J0D01*
G01*
X85975000Y-69025000D01*
G75*
G02*
X86050000Y-69100000I0J-75000D01*
G01*
X86050000Y-70425000D01*
G75*
G02*
X85975000Y-70500000I-75000J0D01*
G01*
X85825000Y-70500000D01*
G75*
G02*
X85750000Y-70425000I0J75000D01*
G01*
G37*
G36*
G01*
X85250000Y-70425000D02*
X85250000Y-69100000D01*
G75*
G02*
X85325000Y-69025000I75000J0D01*
G01*
X85475000Y-69025000D01*
G75*
G02*
X85550000Y-69100000I0J-75000D01*
G01*
X85550000Y-70425000D01*
G75*
G02*
X85475000Y-70500000I-75000J0D01*
G01*
X85325000Y-70500000D01*
G75*
G02*
X85250000Y-70425000I0J75000D01*
G01*
G37*
G36*
G01*
X84750000Y-70425000D02*
X84750000Y-69100000D01*
G75*
G02*
X84825000Y-69025000I75000J0D01*
G01*
X84975000Y-69025000D01*
G75*
G02*
X85050000Y-69100000I0J-75000D01*
G01*
X85050000Y-70425000D01*
G75*
G02*
X84975000Y-70500000I-75000J0D01*
G01*
X84825000Y-70500000D01*
G75*
G02*
X84750000Y-70425000I0J75000D01*
G01*
G37*
G36*
G01*
X84250000Y-70425000D02*
X84250000Y-69100000D01*
G75*
G02*
X84325000Y-69025000I75000J0D01*
G01*
X84475000Y-69025000D01*
G75*
G02*
X84550000Y-69100000I0J-75000D01*
G01*
X84550000Y-70425000D01*
G75*
G02*
X84475000Y-70500000I-75000J0D01*
G01*
X84325000Y-70500000D01*
G75*
G02*
X84250000Y-70425000I0J75000D01*
G01*
G37*
G36*
G01*
X83750000Y-70425000D02*
X83750000Y-69100000D01*
G75*
G02*
X83825000Y-69025000I75000J0D01*
G01*
X83975000Y-69025000D01*
G75*
G02*
X84050000Y-69100000I0J-75000D01*
G01*
X84050000Y-70425000D01*
G75*
G02*
X83975000Y-70500000I-75000J0D01*
G01*
X83825000Y-70500000D01*
G75*
G02*
X83750000Y-70425000I0J75000D01*
G01*
G37*
G36*
G01*
X83250000Y-70425000D02*
X83250000Y-69100000D01*
G75*
G02*
X83325000Y-69025000I75000J0D01*
G01*
X83475000Y-69025000D01*
G75*
G02*
X83550000Y-69100000I0J-75000D01*
G01*
X83550000Y-70425000D01*
G75*
G02*
X83475000Y-70500000I-75000J0D01*
G01*
X83325000Y-70500000D01*
G75*
G02*
X83250000Y-70425000I0J75000D01*
G01*
G37*
G36*
G01*
X82750000Y-70425000D02*
X82750000Y-69100000D01*
G75*
G02*
X82825000Y-69025000I75000J0D01*
G01*
X82975000Y-69025000D01*
G75*
G02*
X83050000Y-69100000I0J-75000D01*
G01*
X83050000Y-70425000D01*
G75*
G02*
X82975000Y-70500000I-75000J0D01*
G01*
X82825000Y-70500000D01*
G75*
G02*
X82750000Y-70425000I0J75000D01*
G01*
G37*
G36*
G01*
X82250000Y-70425000D02*
X82250000Y-69100000D01*
G75*
G02*
X82325000Y-69025000I75000J0D01*
G01*
X82475000Y-69025000D01*
G75*
G02*
X82550000Y-69100000I0J-75000D01*
G01*
X82550000Y-70425000D01*
G75*
G02*
X82475000Y-70500000I-75000J0D01*
G01*
X82325000Y-70500000D01*
G75*
G02*
X82250000Y-70425000I0J75000D01*
G01*
G37*
G36*
G01*
X81750000Y-70425000D02*
X81750000Y-69100000D01*
G75*
G02*
X81825000Y-69025000I75000J0D01*
G01*
X81975000Y-69025000D01*
G75*
G02*
X82050000Y-69100000I0J-75000D01*
G01*
X82050000Y-70425000D01*
G75*
G02*
X81975000Y-70500000I-75000J0D01*
G01*
X81825000Y-70500000D01*
G75*
G02*
X81750000Y-70425000I0J75000D01*
G01*
G37*
G36*
G01*
X81250000Y-70425000D02*
X81250000Y-69100000D01*
G75*
G02*
X81325000Y-69025000I75000J0D01*
G01*
X81475000Y-69025000D01*
G75*
G02*
X81550000Y-69100000I0J-75000D01*
G01*
X81550000Y-70425000D01*
G75*
G02*
X81475000Y-70500000I-75000J0D01*
G01*
X81325000Y-70500000D01*
G75*
G02*
X81250000Y-70425000I0J75000D01*
G01*
G37*
G36*
G01*
X80750000Y-70425000D02*
X80750000Y-69100000D01*
G75*
G02*
X80825000Y-69025000I75000J0D01*
G01*
X80975000Y-69025000D01*
G75*
G02*
X81050000Y-69100000I0J-75000D01*
G01*
X81050000Y-70425000D01*
G75*
G02*
X80975000Y-70500000I-75000J0D01*
G01*
X80825000Y-70500000D01*
G75*
G02*
X80750000Y-70425000I0J75000D01*
G01*
G37*
G36*
G01*
X80250000Y-70425000D02*
X80250000Y-69100000D01*
G75*
G02*
X80325000Y-69025000I75000J0D01*
G01*
X80475000Y-69025000D01*
G75*
G02*
X80550000Y-69100000I0J-75000D01*
G01*
X80550000Y-70425000D01*
G75*
G02*
X80475000Y-70500000I-75000J0D01*
G01*
X80325000Y-70500000D01*
G75*
G02*
X80250000Y-70425000I0J75000D01*
G01*
G37*
G36*
G01*
X79750000Y-70425000D02*
X79750000Y-69100000D01*
G75*
G02*
X79825000Y-69025000I75000J0D01*
G01*
X79975000Y-69025000D01*
G75*
G02*
X80050000Y-69100000I0J-75000D01*
G01*
X80050000Y-70425000D01*
G75*
G02*
X79975000Y-70500000I-75000J0D01*
G01*
X79825000Y-70500000D01*
G75*
G02*
X79750000Y-70425000I0J75000D01*
G01*
G37*
G36*
G01*
X79250000Y-70425000D02*
X79250000Y-69100000D01*
G75*
G02*
X79325000Y-69025000I75000J0D01*
G01*
X79475000Y-69025000D01*
G75*
G02*
X79550000Y-69100000I0J-75000D01*
G01*
X79550000Y-70425000D01*
G75*
G02*
X79475000Y-70500000I-75000J0D01*
G01*
X79325000Y-70500000D01*
G75*
G02*
X79250000Y-70425000I0J75000D01*
G01*
G37*
G36*
G01*
X77000000Y-68175000D02*
X77000000Y-68025000D01*
G75*
G02*
X77075000Y-67950000I75000J0D01*
G01*
X78400000Y-67950000D01*
G75*
G02*
X78475000Y-68025000I0J-75000D01*
G01*
X78475000Y-68175000D01*
G75*
G02*
X78400000Y-68250000I-75000J0D01*
G01*
X77075000Y-68250000D01*
G75*
G02*
X77000000Y-68175000I0J75000D01*
G01*
G37*
G36*
G01*
X77000000Y-67675000D02*
X77000000Y-67525000D01*
G75*
G02*
X77075000Y-67450000I75000J0D01*
G01*
X78400000Y-67450000D01*
G75*
G02*
X78475000Y-67525000I0J-75000D01*
G01*
X78475000Y-67675000D01*
G75*
G02*
X78400000Y-67750000I-75000J0D01*
G01*
X77075000Y-67750000D01*
G75*
G02*
X77000000Y-67675000I0J75000D01*
G01*
G37*
G36*
G01*
X77000000Y-67175000D02*
X77000000Y-67025000D01*
G75*
G02*
X77075000Y-66950000I75000J0D01*
G01*
X78400000Y-66950000D01*
G75*
G02*
X78475000Y-67025000I0J-75000D01*
G01*
X78475000Y-67175000D01*
G75*
G02*
X78400000Y-67250000I-75000J0D01*
G01*
X77075000Y-67250000D01*
G75*
G02*
X77000000Y-67175000I0J75000D01*
G01*
G37*
G36*
G01*
X77000000Y-66675000D02*
X77000000Y-66525000D01*
G75*
G02*
X77075000Y-66450000I75000J0D01*
G01*
X78400000Y-66450000D01*
G75*
G02*
X78475000Y-66525000I0J-75000D01*
G01*
X78475000Y-66675000D01*
G75*
G02*
X78400000Y-66750000I-75000J0D01*
G01*
X77075000Y-66750000D01*
G75*
G02*
X77000000Y-66675000I0J75000D01*
G01*
G37*
G36*
G01*
X77000000Y-66175000D02*
X77000000Y-66025000D01*
G75*
G02*
X77075000Y-65950000I75000J0D01*
G01*
X78400000Y-65950000D01*
G75*
G02*
X78475000Y-66025000I0J-75000D01*
G01*
X78475000Y-66175000D01*
G75*
G02*
X78400000Y-66250000I-75000J0D01*
G01*
X77075000Y-66250000D01*
G75*
G02*
X77000000Y-66175000I0J75000D01*
G01*
G37*
G36*
G01*
X77000000Y-65675000D02*
X77000000Y-65525000D01*
G75*
G02*
X77075000Y-65450000I75000J0D01*
G01*
X78400000Y-65450000D01*
G75*
G02*
X78475000Y-65525000I0J-75000D01*
G01*
X78475000Y-65675000D01*
G75*
G02*
X78400000Y-65750000I-75000J0D01*
G01*
X77075000Y-65750000D01*
G75*
G02*
X77000000Y-65675000I0J75000D01*
G01*
G37*
G36*
G01*
X77000000Y-65175000D02*
X77000000Y-65025000D01*
G75*
G02*
X77075000Y-64950000I75000J0D01*
G01*
X78400000Y-64950000D01*
G75*
G02*
X78475000Y-65025000I0J-75000D01*
G01*
X78475000Y-65175000D01*
G75*
G02*
X78400000Y-65250000I-75000J0D01*
G01*
X77075000Y-65250000D01*
G75*
G02*
X77000000Y-65175000I0J75000D01*
G01*
G37*
G36*
G01*
X77000000Y-64675000D02*
X77000000Y-64525000D01*
G75*
G02*
X77075000Y-64450000I75000J0D01*
G01*
X78400000Y-64450000D01*
G75*
G02*
X78475000Y-64525000I0J-75000D01*
G01*
X78475000Y-64675000D01*
G75*
G02*
X78400000Y-64750000I-75000J0D01*
G01*
X77075000Y-64750000D01*
G75*
G02*
X77000000Y-64675000I0J75000D01*
G01*
G37*
G36*
G01*
X77000000Y-64175000D02*
X77000000Y-64025000D01*
G75*
G02*
X77075000Y-63950000I75000J0D01*
G01*
X78400000Y-63950000D01*
G75*
G02*
X78475000Y-64025000I0J-75000D01*
G01*
X78475000Y-64175000D01*
G75*
G02*
X78400000Y-64250000I-75000J0D01*
G01*
X77075000Y-64250000D01*
G75*
G02*
X77000000Y-64175000I0J75000D01*
G01*
G37*
G36*
G01*
X77000000Y-63675000D02*
X77000000Y-63525000D01*
G75*
G02*
X77075000Y-63450000I75000J0D01*
G01*
X78400000Y-63450000D01*
G75*
G02*
X78475000Y-63525000I0J-75000D01*
G01*
X78475000Y-63675000D01*
G75*
G02*
X78400000Y-63750000I-75000J0D01*
G01*
X77075000Y-63750000D01*
G75*
G02*
X77000000Y-63675000I0J75000D01*
G01*
G37*
G36*
G01*
X77000000Y-63175000D02*
X77000000Y-63025000D01*
G75*
G02*
X77075000Y-62950000I75000J0D01*
G01*
X78400000Y-62950000D01*
G75*
G02*
X78475000Y-63025000I0J-75000D01*
G01*
X78475000Y-63175000D01*
G75*
G02*
X78400000Y-63250000I-75000J0D01*
G01*
X77075000Y-63250000D01*
G75*
G02*
X77000000Y-63175000I0J75000D01*
G01*
G37*
G36*
G01*
X77000000Y-62675000D02*
X77000000Y-62525000D01*
G75*
G02*
X77075000Y-62450000I75000J0D01*
G01*
X78400000Y-62450000D01*
G75*
G02*
X78475000Y-62525000I0J-75000D01*
G01*
X78475000Y-62675000D01*
G75*
G02*
X78400000Y-62750000I-75000J0D01*
G01*
X77075000Y-62750000D01*
G75*
G02*
X77000000Y-62675000I0J75000D01*
G01*
G37*
G36*
G01*
X77000000Y-62175000D02*
X77000000Y-62025000D01*
G75*
G02*
X77075000Y-61950000I75000J0D01*
G01*
X78400000Y-61950000D01*
G75*
G02*
X78475000Y-62025000I0J-75000D01*
G01*
X78475000Y-62175000D01*
G75*
G02*
X78400000Y-62250000I-75000J0D01*
G01*
X77075000Y-62250000D01*
G75*
G02*
X77000000Y-62175000I0J75000D01*
G01*
G37*
G36*
G01*
X77000000Y-61675000D02*
X77000000Y-61525000D01*
G75*
G02*
X77075000Y-61450000I75000J0D01*
G01*
X78400000Y-61450000D01*
G75*
G02*
X78475000Y-61525000I0J-75000D01*
G01*
X78475000Y-61675000D01*
G75*
G02*
X78400000Y-61750000I-75000J0D01*
G01*
X77075000Y-61750000D01*
G75*
G02*
X77000000Y-61675000I0J75000D01*
G01*
G37*
G36*
G01*
X77000000Y-61175000D02*
X77000000Y-61025000D01*
G75*
G02*
X77075000Y-60950000I75000J0D01*
G01*
X78400000Y-60950000D01*
G75*
G02*
X78475000Y-61025000I0J-75000D01*
G01*
X78475000Y-61175000D01*
G75*
G02*
X78400000Y-61250000I-75000J0D01*
G01*
X77075000Y-61250000D01*
G75*
G02*
X77000000Y-61175000I0J75000D01*
G01*
G37*
G36*
G01*
X77000000Y-60675000D02*
X77000000Y-60525000D01*
G75*
G02*
X77075000Y-60450000I75000J0D01*
G01*
X78400000Y-60450000D01*
G75*
G02*
X78475000Y-60525000I0J-75000D01*
G01*
X78475000Y-60675000D01*
G75*
G02*
X78400000Y-60750000I-75000J0D01*
G01*
X77075000Y-60750000D01*
G75*
G02*
X77000000Y-60675000I0J75000D01*
G01*
G37*
G36*
G01*
X77000000Y-60175000D02*
X77000000Y-60025000D01*
G75*
G02*
X77075000Y-59950000I75000J0D01*
G01*
X78400000Y-59950000D01*
G75*
G02*
X78475000Y-60025000I0J-75000D01*
G01*
X78475000Y-60175000D01*
G75*
G02*
X78400000Y-60250000I-75000J0D01*
G01*
X77075000Y-60250000D01*
G75*
G02*
X77000000Y-60175000I0J75000D01*
G01*
G37*
G36*
G01*
X77000000Y-59675000D02*
X77000000Y-59525000D01*
G75*
G02*
X77075000Y-59450000I75000J0D01*
G01*
X78400000Y-59450000D01*
G75*
G02*
X78475000Y-59525000I0J-75000D01*
G01*
X78475000Y-59675000D01*
G75*
G02*
X78400000Y-59750000I-75000J0D01*
G01*
X77075000Y-59750000D01*
G75*
G02*
X77000000Y-59675000I0J75000D01*
G01*
G37*
G36*
G01*
X77000000Y-59175000D02*
X77000000Y-59025000D01*
G75*
G02*
X77075000Y-58950000I75000J0D01*
G01*
X78400000Y-58950000D01*
G75*
G02*
X78475000Y-59025000I0J-75000D01*
G01*
X78475000Y-59175000D01*
G75*
G02*
X78400000Y-59250000I-75000J0D01*
G01*
X77075000Y-59250000D01*
G75*
G02*
X77000000Y-59175000I0J75000D01*
G01*
G37*
G36*
G01*
X77000000Y-58675000D02*
X77000000Y-58525000D01*
G75*
G02*
X77075000Y-58450000I75000J0D01*
G01*
X78400000Y-58450000D01*
G75*
G02*
X78475000Y-58525000I0J-75000D01*
G01*
X78475000Y-58675000D01*
G75*
G02*
X78400000Y-58750000I-75000J0D01*
G01*
X77075000Y-58750000D01*
G75*
G02*
X77000000Y-58675000I0J75000D01*
G01*
G37*
G36*
G01*
X77000000Y-58175000D02*
X77000000Y-58025000D01*
G75*
G02*
X77075000Y-57950000I75000J0D01*
G01*
X78400000Y-57950000D01*
G75*
G02*
X78475000Y-58025000I0J-75000D01*
G01*
X78475000Y-58175000D01*
G75*
G02*
X78400000Y-58250000I-75000J0D01*
G01*
X77075000Y-58250000D01*
G75*
G02*
X77000000Y-58175000I0J75000D01*
G01*
G37*
G36*
G01*
X77000000Y-57675000D02*
X77000000Y-57525000D01*
G75*
G02*
X77075000Y-57450000I75000J0D01*
G01*
X78400000Y-57450000D01*
G75*
G02*
X78475000Y-57525000I0J-75000D01*
G01*
X78475000Y-57675000D01*
G75*
G02*
X78400000Y-57750000I-75000J0D01*
G01*
X77075000Y-57750000D01*
G75*
G02*
X77000000Y-57675000I0J75000D01*
G01*
G37*
G36*
G01*
X77000000Y-57175000D02*
X77000000Y-57025000D01*
G75*
G02*
X77075000Y-56950000I75000J0D01*
G01*
X78400000Y-56950000D01*
G75*
G02*
X78475000Y-57025000I0J-75000D01*
G01*
X78475000Y-57175000D01*
G75*
G02*
X78400000Y-57250000I-75000J0D01*
G01*
X77075000Y-57250000D01*
G75*
G02*
X77000000Y-57175000I0J75000D01*
G01*
G37*
G36*
G01*
X77000000Y-56675000D02*
X77000000Y-56525000D01*
G75*
G02*
X77075000Y-56450000I75000J0D01*
G01*
X78400000Y-56450000D01*
G75*
G02*
X78475000Y-56525000I0J-75000D01*
G01*
X78475000Y-56675000D01*
G75*
G02*
X78400000Y-56750000I-75000J0D01*
G01*
X77075000Y-56750000D01*
G75*
G02*
X77000000Y-56675000I0J75000D01*
G01*
G37*
G36*
G01*
X77000000Y-56175000D02*
X77000000Y-56025000D01*
G75*
G02*
X77075000Y-55950000I75000J0D01*
G01*
X78400000Y-55950000D01*
G75*
G02*
X78475000Y-56025000I0J-75000D01*
G01*
X78475000Y-56175000D01*
G75*
G02*
X78400000Y-56250000I-75000J0D01*
G01*
X77075000Y-56250000D01*
G75*
G02*
X77000000Y-56175000I0J75000D01*
G01*
G37*
%TD*%
D13*
%TO.C,J5*%
X68960000Y-96200000D03*
X66420000Y-96200000D03*
X63880000Y-96200000D03*
X61340000Y-96200000D03*
D14*
X58800000Y-96200000D03*
%TD*%
%TO.C,C8*%
G36*
G01*
X69975000Y-75850000D02*
X69025000Y-75850000D01*
G75*
G02*
X68775000Y-75600000I0J250000D01*
G01*
X68775000Y-75100000D01*
G75*
G02*
X69025000Y-74850000I250000J0D01*
G01*
X69975000Y-74850000D01*
G75*
G02*
X70225000Y-75100000I0J-250000D01*
G01*
X70225000Y-75600000D01*
G75*
G02*
X69975000Y-75850000I-250000J0D01*
G01*
G37*
G36*
G01*
X69975000Y-77750000D02*
X69025000Y-77750000D01*
G75*
G02*
X68775000Y-77500000I0J250000D01*
G01*
X68775000Y-77000000D01*
G75*
G02*
X69025000Y-76750000I250000J0D01*
G01*
X69975000Y-76750000D01*
G75*
G02*
X70225000Y-77000000I0J-250000D01*
G01*
X70225000Y-77500000D01*
G75*
G02*
X69975000Y-77750000I-250000J0D01*
G01*
G37*
%TD*%
D15*
%TO.C,U5*%
X67150000Y-68500000D03*
X67150000Y-69150000D03*
X67150000Y-69800000D03*
X67150000Y-70450000D03*
X63750000Y-70450000D03*
X63750000Y-69800000D03*
X63750000Y-69150000D03*
X63750000Y-68500000D03*
%TD*%
%TO.C,U2*%
X67400000Y-60250000D03*
X67400000Y-60900000D03*
X67400000Y-61550000D03*
X67400000Y-62200000D03*
X64000000Y-62200000D03*
X64000000Y-61550000D03*
X64000000Y-60900000D03*
X64000000Y-60250000D03*
%TD*%
D16*
%TO.C,J1*%
X118955000Y-91300000D03*
X85655000Y-91300000D03*
D17*
X93995000Y-93840000D03*
X96765000Y-93840000D03*
X99535000Y-93840000D03*
X102305000Y-93840000D03*
X105075000Y-93840000D03*
X107845000Y-93840000D03*
X110615000Y-93840000D03*
X92610000Y-91000000D03*
X95380000Y-91000000D03*
X98150000Y-91000000D03*
X100920000Y-91000000D03*
X103690000Y-91000000D03*
X106460000Y-91000000D03*
X109230000Y-91000000D03*
D18*
X112000000Y-91000000D03*
%TD*%
%TO.C,C12*%
G36*
G01*
X82100000Y-49025000D02*
X82100000Y-49975000D01*
G75*
G02*
X81850000Y-50225000I-250000J0D01*
G01*
X81350000Y-50225000D01*
G75*
G02*
X81100000Y-49975000I0J250000D01*
G01*
X81100000Y-49025000D01*
G75*
G02*
X81350000Y-48775000I250000J0D01*
G01*
X81850000Y-48775000D01*
G75*
G02*
X82100000Y-49025000I0J-250000D01*
G01*
G37*
G36*
G01*
X84000000Y-49025000D02*
X84000000Y-49975000D01*
G75*
G02*
X83750000Y-50225000I-250000J0D01*
G01*
X83250000Y-50225000D01*
G75*
G02*
X83000000Y-49975000I0J250000D01*
G01*
X83000000Y-49025000D01*
G75*
G02*
X83250000Y-48775000I250000J0D01*
G01*
X83750000Y-48775000D01*
G75*
G02*
X84000000Y-49025000I0J-250000D01*
G01*
G37*
%TD*%
%TO.C,U4*%
G36*
G01*
X111225000Y-53837500D02*
X111225000Y-53562500D01*
G75*
G02*
X111362500Y-53425000I137500J0D01*
G01*
X112612500Y-53425000D01*
G75*
G02*
X112750000Y-53562500I0J-137500D01*
G01*
X112750000Y-53837500D01*
G75*
G02*
X112612500Y-53975000I-137500J0D01*
G01*
X111362500Y-53975000D01*
G75*
G02*
X111225000Y-53837500I0J137500D01*
G01*
G37*
G36*
G01*
X111225000Y-54637500D02*
X111225000Y-54362500D01*
G75*
G02*
X111362500Y-54225000I137500J0D01*
G01*
X112612500Y-54225000D01*
G75*
G02*
X112750000Y-54362500I0J-137500D01*
G01*
X112750000Y-54637500D01*
G75*
G02*
X112612500Y-54775000I-137500J0D01*
G01*
X111362500Y-54775000D01*
G75*
G02*
X111225000Y-54637500I0J137500D01*
G01*
G37*
G36*
G01*
X111225000Y-55437500D02*
X111225000Y-55162500D01*
G75*
G02*
X111362500Y-55025000I137500J0D01*
G01*
X112612500Y-55025000D01*
G75*
G02*
X112750000Y-55162500I0J-137500D01*
G01*
X112750000Y-55437500D01*
G75*
G02*
X112612500Y-55575000I-137500J0D01*
G01*
X111362500Y-55575000D01*
G75*
G02*
X111225000Y-55437500I0J137500D01*
G01*
G37*
G36*
G01*
X111225000Y-56237500D02*
X111225000Y-55962500D01*
G75*
G02*
X111362500Y-55825000I137500J0D01*
G01*
X112612500Y-55825000D01*
G75*
G02*
X112750000Y-55962500I0J-137500D01*
G01*
X112750000Y-56237500D01*
G75*
G02*
X112612500Y-56375000I-137500J0D01*
G01*
X111362500Y-56375000D01*
G75*
G02*
X111225000Y-56237500I0J137500D01*
G01*
G37*
G36*
G01*
X111225000Y-57037500D02*
X111225000Y-56762500D01*
G75*
G02*
X111362500Y-56625000I137500J0D01*
G01*
X112612500Y-56625000D01*
G75*
G02*
X112750000Y-56762500I0J-137500D01*
G01*
X112750000Y-57037500D01*
G75*
G02*
X112612500Y-57175000I-137500J0D01*
G01*
X111362500Y-57175000D01*
G75*
G02*
X111225000Y-57037500I0J137500D01*
G01*
G37*
G36*
G01*
X111225000Y-57837500D02*
X111225000Y-57562500D01*
G75*
G02*
X111362500Y-57425000I137500J0D01*
G01*
X112612500Y-57425000D01*
G75*
G02*
X112750000Y-57562500I0J-137500D01*
G01*
X112750000Y-57837500D01*
G75*
G02*
X112612500Y-57975000I-137500J0D01*
G01*
X111362500Y-57975000D01*
G75*
G02*
X111225000Y-57837500I0J137500D01*
G01*
G37*
G36*
G01*
X111225000Y-58637500D02*
X111225000Y-58362500D01*
G75*
G02*
X111362500Y-58225000I137500J0D01*
G01*
X112612500Y-58225000D01*
G75*
G02*
X112750000Y-58362500I0J-137500D01*
G01*
X112750000Y-58637500D01*
G75*
G02*
X112612500Y-58775000I-137500J0D01*
G01*
X111362500Y-58775000D01*
G75*
G02*
X111225000Y-58637500I0J137500D01*
G01*
G37*
G36*
G01*
X111225000Y-59437500D02*
X111225000Y-59162500D01*
G75*
G02*
X111362500Y-59025000I137500J0D01*
G01*
X112612500Y-59025000D01*
G75*
G02*
X112750000Y-59162500I0J-137500D01*
G01*
X112750000Y-59437500D01*
G75*
G02*
X112612500Y-59575000I-137500J0D01*
G01*
X111362500Y-59575000D01*
G75*
G02*
X111225000Y-59437500I0J137500D01*
G01*
G37*
G36*
G01*
X111225000Y-60237500D02*
X111225000Y-59962500D01*
G75*
G02*
X111362500Y-59825000I137500J0D01*
G01*
X112612500Y-59825000D01*
G75*
G02*
X112750000Y-59962500I0J-137500D01*
G01*
X112750000Y-60237500D01*
G75*
G02*
X112612500Y-60375000I-137500J0D01*
G01*
X111362500Y-60375000D01*
G75*
G02*
X111225000Y-60237500I0J137500D01*
G01*
G37*
G36*
G01*
X111225000Y-61037500D02*
X111225000Y-60762500D01*
G75*
G02*
X111362500Y-60625000I137500J0D01*
G01*
X112612500Y-60625000D01*
G75*
G02*
X112750000Y-60762500I0J-137500D01*
G01*
X112750000Y-61037500D01*
G75*
G02*
X112612500Y-61175000I-137500J0D01*
G01*
X111362500Y-61175000D01*
G75*
G02*
X111225000Y-61037500I0J137500D01*
G01*
G37*
G36*
G01*
X111225000Y-61837500D02*
X111225000Y-61562500D01*
G75*
G02*
X111362500Y-61425000I137500J0D01*
G01*
X112612500Y-61425000D01*
G75*
G02*
X112750000Y-61562500I0J-137500D01*
G01*
X112750000Y-61837500D01*
G75*
G02*
X112612500Y-61975000I-137500J0D01*
G01*
X111362500Y-61975000D01*
G75*
G02*
X111225000Y-61837500I0J137500D01*
G01*
G37*
G36*
G01*
X111225000Y-62637500D02*
X111225000Y-62362500D01*
G75*
G02*
X111362500Y-62225000I137500J0D01*
G01*
X112612500Y-62225000D01*
G75*
G02*
X112750000Y-62362500I0J-137500D01*
G01*
X112750000Y-62637500D01*
G75*
G02*
X112612500Y-62775000I-137500J0D01*
G01*
X111362500Y-62775000D01*
G75*
G02*
X111225000Y-62637500I0J137500D01*
G01*
G37*
G36*
G01*
X111225000Y-63437500D02*
X111225000Y-63162500D01*
G75*
G02*
X111362500Y-63025000I137500J0D01*
G01*
X112612500Y-63025000D01*
G75*
G02*
X112750000Y-63162500I0J-137500D01*
G01*
X112750000Y-63437500D01*
G75*
G02*
X112612500Y-63575000I-137500J0D01*
G01*
X111362500Y-63575000D01*
G75*
G02*
X111225000Y-63437500I0J137500D01*
G01*
G37*
G36*
G01*
X111225000Y-64237500D02*
X111225000Y-63962500D01*
G75*
G02*
X111362500Y-63825000I137500J0D01*
G01*
X112612500Y-63825000D01*
G75*
G02*
X112750000Y-63962500I0J-137500D01*
G01*
X112750000Y-64237500D01*
G75*
G02*
X112612500Y-64375000I-137500J0D01*
G01*
X111362500Y-64375000D01*
G75*
G02*
X111225000Y-64237500I0J137500D01*
G01*
G37*
G36*
G01*
X111225000Y-65037500D02*
X111225000Y-64762500D01*
G75*
G02*
X111362500Y-64625000I137500J0D01*
G01*
X112612500Y-64625000D01*
G75*
G02*
X112750000Y-64762500I0J-137500D01*
G01*
X112750000Y-65037500D01*
G75*
G02*
X112612500Y-65175000I-137500J0D01*
G01*
X111362500Y-65175000D01*
G75*
G02*
X111225000Y-65037500I0J137500D01*
G01*
G37*
G36*
G01*
X111225000Y-65837500D02*
X111225000Y-65562500D01*
G75*
G02*
X111362500Y-65425000I137500J0D01*
G01*
X112612500Y-65425000D01*
G75*
G02*
X112750000Y-65562500I0J-137500D01*
G01*
X112750000Y-65837500D01*
G75*
G02*
X112612500Y-65975000I-137500J0D01*
G01*
X111362500Y-65975000D01*
G75*
G02*
X111225000Y-65837500I0J137500D01*
G01*
G37*
G36*
G01*
X111225000Y-66637500D02*
X111225000Y-66362500D01*
G75*
G02*
X111362500Y-66225000I137500J0D01*
G01*
X112612500Y-66225000D01*
G75*
G02*
X112750000Y-66362500I0J-137500D01*
G01*
X112750000Y-66637500D01*
G75*
G02*
X112612500Y-66775000I-137500J0D01*
G01*
X111362500Y-66775000D01*
G75*
G02*
X111225000Y-66637500I0J137500D01*
G01*
G37*
G36*
G01*
X111225000Y-67437500D02*
X111225000Y-67162500D01*
G75*
G02*
X111362500Y-67025000I137500J0D01*
G01*
X112612500Y-67025000D01*
G75*
G02*
X112750000Y-67162500I0J-137500D01*
G01*
X112750000Y-67437500D01*
G75*
G02*
X112612500Y-67575000I-137500J0D01*
G01*
X111362500Y-67575000D01*
G75*
G02*
X111225000Y-67437500I0J137500D01*
G01*
G37*
G36*
G01*
X111225000Y-68237500D02*
X111225000Y-67962500D01*
G75*
G02*
X111362500Y-67825000I137500J0D01*
G01*
X112612500Y-67825000D01*
G75*
G02*
X112750000Y-67962500I0J-137500D01*
G01*
X112750000Y-68237500D01*
G75*
G02*
X112612500Y-68375000I-137500J0D01*
G01*
X111362500Y-68375000D01*
G75*
G02*
X111225000Y-68237500I0J137500D01*
G01*
G37*
G36*
G01*
X111225000Y-69037500D02*
X111225000Y-68762500D01*
G75*
G02*
X111362500Y-68625000I137500J0D01*
G01*
X112612500Y-68625000D01*
G75*
G02*
X112750000Y-68762500I0J-137500D01*
G01*
X112750000Y-69037500D01*
G75*
G02*
X112612500Y-69175000I-137500J0D01*
G01*
X111362500Y-69175000D01*
G75*
G02*
X111225000Y-69037500I0J137500D01*
G01*
G37*
G36*
G01*
X111225000Y-69837500D02*
X111225000Y-69562500D01*
G75*
G02*
X111362500Y-69425000I137500J0D01*
G01*
X112612500Y-69425000D01*
G75*
G02*
X112750000Y-69562500I0J-137500D01*
G01*
X112750000Y-69837500D01*
G75*
G02*
X112612500Y-69975000I-137500J0D01*
G01*
X111362500Y-69975000D01*
G75*
G02*
X111225000Y-69837500I0J137500D01*
G01*
G37*
G36*
G01*
X111225000Y-70637500D02*
X111225000Y-70362500D01*
G75*
G02*
X111362500Y-70225000I137500J0D01*
G01*
X112612500Y-70225000D01*
G75*
G02*
X112750000Y-70362500I0J-137500D01*
G01*
X112750000Y-70637500D01*
G75*
G02*
X112612500Y-70775000I-137500J0D01*
G01*
X111362500Y-70775000D01*
G75*
G02*
X111225000Y-70637500I0J137500D01*
G01*
G37*
G36*
G01*
X100050000Y-70637500D02*
X100050000Y-70362500D01*
G75*
G02*
X100187500Y-70225000I137500J0D01*
G01*
X101437500Y-70225000D01*
G75*
G02*
X101575000Y-70362500I0J-137500D01*
G01*
X101575000Y-70637500D01*
G75*
G02*
X101437500Y-70775000I-137500J0D01*
G01*
X100187500Y-70775000D01*
G75*
G02*
X100050000Y-70637500I0J137500D01*
G01*
G37*
G36*
G01*
X100050000Y-69837500D02*
X100050000Y-69562500D01*
G75*
G02*
X100187500Y-69425000I137500J0D01*
G01*
X101437500Y-69425000D01*
G75*
G02*
X101575000Y-69562500I0J-137500D01*
G01*
X101575000Y-69837500D01*
G75*
G02*
X101437500Y-69975000I-137500J0D01*
G01*
X100187500Y-69975000D01*
G75*
G02*
X100050000Y-69837500I0J137500D01*
G01*
G37*
G36*
G01*
X100050000Y-69037500D02*
X100050000Y-68762500D01*
G75*
G02*
X100187500Y-68625000I137500J0D01*
G01*
X101437500Y-68625000D01*
G75*
G02*
X101575000Y-68762500I0J-137500D01*
G01*
X101575000Y-69037500D01*
G75*
G02*
X101437500Y-69175000I-137500J0D01*
G01*
X100187500Y-69175000D01*
G75*
G02*
X100050000Y-69037500I0J137500D01*
G01*
G37*
G36*
G01*
X100050000Y-68237500D02*
X100050000Y-67962500D01*
G75*
G02*
X100187500Y-67825000I137500J0D01*
G01*
X101437500Y-67825000D01*
G75*
G02*
X101575000Y-67962500I0J-137500D01*
G01*
X101575000Y-68237500D01*
G75*
G02*
X101437500Y-68375000I-137500J0D01*
G01*
X100187500Y-68375000D01*
G75*
G02*
X100050000Y-68237500I0J137500D01*
G01*
G37*
G36*
G01*
X100050000Y-67437500D02*
X100050000Y-67162500D01*
G75*
G02*
X100187500Y-67025000I137500J0D01*
G01*
X101437500Y-67025000D01*
G75*
G02*
X101575000Y-67162500I0J-137500D01*
G01*
X101575000Y-67437500D01*
G75*
G02*
X101437500Y-67575000I-137500J0D01*
G01*
X100187500Y-67575000D01*
G75*
G02*
X100050000Y-67437500I0J137500D01*
G01*
G37*
G36*
G01*
X100050000Y-66637500D02*
X100050000Y-66362500D01*
G75*
G02*
X100187500Y-66225000I137500J0D01*
G01*
X101437500Y-66225000D01*
G75*
G02*
X101575000Y-66362500I0J-137500D01*
G01*
X101575000Y-66637500D01*
G75*
G02*
X101437500Y-66775000I-137500J0D01*
G01*
X100187500Y-66775000D01*
G75*
G02*
X100050000Y-66637500I0J137500D01*
G01*
G37*
G36*
G01*
X100050000Y-65837500D02*
X100050000Y-65562500D01*
G75*
G02*
X100187500Y-65425000I137500J0D01*
G01*
X101437500Y-65425000D01*
G75*
G02*
X101575000Y-65562500I0J-137500D01*
G01*
X101575000Y-65837500D01*
G75*
G02*
X101437500Y-65975000I-137500J0D01*
G01*
X100187500Y-65975000D01*
G75*
G02*
X100050000Y-65837500I0J137500D01*
G01*
G37*
G36*
G01*
X100050000Y-65037500D02*
X100050000Y-64762500D01*
G75*
G02*
X100187500Y-64625000I137500J0D01*
G01*
X101437500Y-64625000D01*
G75*
G02*
X101575000Y-64762500I0J-137500D01*
G01*
X101575000Y-65037500D01*
G75*
G02*
X101437500Y-65175000I-137500J0D01*
G01*
X100187500Y-65175000D01*
G75*
G02*
X100050000Y-65037500I0J137500D01*
G01*
G37*
G36*
G01*
X100050000Y-64237500D02*
X100050000Y-63962500D01*
G75*
G02*
X100187500Y-63825000I137500J0D01*
G01*
X101437500Y-63825000D01*
G75*
G02*
X101575000Y-63962500I0J-137500D01*
G01*
X101575000Y-64237500D01*
G75*
G02*
X101437500Y-64375000I-137500J0D01*
G01*
X100187500Y-64375000D01*
G75*
G02*
X100050000Y-64237500I0J137500D01*
G01*
G37*
G36*
G01*
X100050000Y-63437500D02*
X100050000Y-63162500D01*
G75*
G02*
X100187500Y-63025000I137500J0D01*
G01*
X101437500Y-63025000D01*
G75*
G02*
X101575000Y-63162500I0J-137500D01*
G01*
X101575000Y-63437500D01*
G75*
G02*
X101437500Y-63575000I-137500J0D01*
G01*
X100187500Y-63575000D01*
G75*
G02*
X100050000Y-63437500I0J137500D01*
G01*
G37*
G36*
G01*
X100050000Y-62637500D02*
X100050000Y-62362500D01*
G75*
G02*
X100187500Y-62225000I137500J0D01*
G01*
X101437500Y-62225000D01*
G75*
G02*
X101575000Y-62362500I0J-137500D01*
G01*
X101575000Y-62637500D01*
G75*
G02*
X101437500Y-62775000I-137500J0D01*
G01*
X100187500Y-62775000D01*
G75*
G02*
X100050000Y-62637500I0J137500D01*
G01*
G37*
G36*
G01*
X100050000Y-61837500D02*
X100050000Y-61562500D01*
G75*
G02*
X100187500Y-61425000I137500J0D01*
G01*
X101437500Y-61425000D01*
G75*
G02*
X101575000Y-61562500I0J-137500D01*
G01*
X101575000Y-61837500D01*
G75*
G02*
X101437500Y-61975000I-137500J0D01*
G01*
X100187500Y-61975000D01*
G75*
G02*
X100050000Y-61837500I0J137500D01*
G01*
G37*
G36*
G01*
X100050000Y-61037500D02*
X100050000Y-60762500D01*
G75*
G02*
X100187500Y-60625000I137500J0D01*
G01*
X101437500Y-60625000D01*
G75*
G02*
X101575000Y-60762500I0J-137500D01*
G01*
X101575000Y-61037500D01*
G75*
G02*
X101437500Y-61175000I-137500J0D01*
G01*
X100187500Y-61175000D01*
G75*
G02*
X100050000Y-61037500I0J137500D01*
G01*
G37*
G36*
G01*
X100050000Y-60237500D02*
X100050000Y-59962500D01*
G75*
G02*
X100187500Y-59825000I137500J0D01*
G01*
X101437500Y-59825000D01*
G75*
G02*
X101575000Y-59962500I0J-137500D01*
G01*
X101575000Y-60237500D01*
G75*
G02*
X101437500Y-60375000I-137500J0D01*
G01*
X100187500Y-60375000D01*
G75*
G02*
X100050000Y-60237500I0J137500D01*
G01*
G37*
G36*
G01*
X100050000Y-59437500D02*
X100050000Y-59162500D01*
G75*
G02*
X100187500Y-59025000I137500J0D01*
G01*
X101437500Y-59025000D01*
G75*
G02*
X101575000Y-59162500I0J-137500D01*
G01*
X101575000Y-59437500D01*
G75*
G02*
X101437500Y-59575000I-137500J0D01*
G01*
X100187500Y-59575000D01*
G75*
G02*
X100050000Y-59437500I0J137500D01*
G01*
G37*
G36*
G01*
X100050000Y-58637500D02*
X100050000Y-58362500D01*
G75*
G02*
X100187500Y-58225000I137500J0D01*
G01*
X101437500Y-58225000D01*
G75*
G02*
X101575000Y-58362500I0J-137500D01*
G01*
X101575000Y-58637500D01*
G75*
G02*
X101437500Y-58775000I-137500J0D01*
G01*
X100187500Y-58775000D01*
G75*
G02*
X100050000Y-58637500I0J137500D01*
G01*
G37*
G36*
G01*
X100050000Y-57837500D02*
X100050000Y-57562500D01*
G75*
G02*
X100187500Y-57425000I137500J0D01*
G01*
X101437500Y-57425000D01*
G75*
G02*
X101575000Y-57562500I0J-137500D01*
G01*
X101575000Y-57837500D01*
G75*
G02*
X101437500Y-57975000I-137500J0D01*
G01*
X100187500Y-57975000D01*
G75*
G02*
X100050000Y-57837500I0J137500D01*
G01*
G37*
G36*
G01*
X100050000Y-57037500D02*
X100050000Y-56762500D01*
G75*
G02*
X100187500Y-56625000I137500J0D01*
G01*
X101437500Y-56625000D01*
G75*
G02*
X101575000Y-56762500I0J-137500D01*
G01*
X101575000Y-57037500D01*
G75*
G02*
X101437500Y-57175000I-137500J0D01*
G01*
X100187500Y-57175000D01*
G75*
G02*
X100050000Y-57037500I0J137500D01*
G01*
G37*
G36*
G01*
X100050000Y-56237500D02*
X100050000Y-55962500D01*
G75*
G02*
X100187500Y-55825000I137500J0D01*
G01*
X101437500Y-55825000D01*
G75*
G02*
X101575000Y-55962500I0J-137500D01*
G01*
X101575000Y-56237500D01*
G75*
G02*
X101437500Y-56375000I-137500J0D01*
G01*
X100187500Y-56375000D01*
G75*
G02*
X100050000Y-56237500I0J137500D01*
G01*
G37*
G36*
G01*
X100050000Y-55437500D02*
X100050000Y-55162500D01*
G75*
G02*
X100187500Y-55025000I137500J0D01*
G01*
X101437500Y-55025000D01*
G75*
G02*
X101575000Y-55162500I0J-137500D01*
G01*
X101575000Y-55437500D01*
G75*
G02*
X101437500Y-55575000I-137500J0D01*
G01*
X100187500Y-55575000D01*
G75*
G02*
X100050000Y-55437500I0J137500D01*
G01*
G37*
G36*
G01*
X100050000Y-54637500D02*
X100050000Y-54362500D01*
G75*
G02*
X100187500Y-54225000I137500J0D01*
G01*
X101437500Y-54225000D01*
G75*
G02*
X101575000Y-54362500I0J-137500D01*
G01*
X101575000Y-54637500D01*
G75*
G02*
X101437500Y-54775000I-137500J0D01*
G01*
X100187500Y-54775000D01*
G75*
G02*
X100050000Y-54637500I0J137500D01*
G01*
G37*
G36*
G01*
X100050000Y-53837500D02*
X100050000Y-53562500D01*
G75*
G02*
X100187500Y-53425000I137500J0D01*
G01*
X101437500Y-53425000D01*
G75*
G02*
X101575000Y-53562500I0J-137500D01*
G01*
X101575000Y-53837500D01*
G75*
G02*
X101437500Y-53975000I-137500J0D01*
G01*
X100187500Y-53975000D01*
G75*
G02*
X100050000Y-53837500I0J137500D01*
G01*
G37*
%TD*%
%TO.C,R13*%
G36*
G01*
X109587500Y-85149999D02*
X109587500Y-86050001D01*
G75*
G02*
X109337501Y-86300000I-249999J0D01*
G01*
X108812499Y-86300000D01*
G75*
G02*
X108562500Y-86050001I0J249999D01*
G01*
X108562500Y-85149999D01*
G75*
G02*
X108812499Y-84900000I249999J0D01*
G01*
X109337501Y-84900000D01*
G75*
G02*
X109587500Y-85149999I0J-249999D01*
G01*
G37*
G36*
G01*
X111412500Y-85149999D02*
X111412500Y-86050001D01*
G75*
G02*
X111162501Y-86300000I-249999J0D01*
G01*
X110637499Y-86300000D01*
G75*
G02*
X110387500Y-86050001I0J249999D01*
G01*
X110387500Y-85149999D01*
G75*
G02*
X110637499Y-84900000I249999J0D01*
G01*
X111162501Y-84900000D01*
G75*
G02*
X111412500Y-85149999I0J-249999D01*
G01*
G37*
%TD*%
%TO.C,R14*%
G36*
G01*
X109687500Y-81749999D02*
X109687500Y-82650001D01*
G75*
G02*
X109437501Y-82900000I-249999J0D01*
G01*
X108912499Y-82900000D01*
G75*
G02*
X108662500Y-82650001I0J249999D01*
G01*
X108662500Y-81749999D01*
G75*
G02*
X108912499Y-81500000I249999J0D01*
G01*
X109437501Y-81500000D01*
G75*
G02*
X109687500Y-81749999I0J-249999D01*
G01*
G37*
G36*
G01*
X111512500Y-81749999D02*
X111512500Y-82650001D01*
G75*
G02*
X111262501Y-82900000I-249999J0D01*
G01*
X110737499Y-82900000D01*
G75*
G02*
X110487500Y-82650001I0J249999D01*
G01*
X110487500Y-81749999D01*
G75*
G02*
X110737499Y-81500000I249999J0D01*
G01*
X111262501Y-81500000D01*
G75*
G02*
X111512500Y-81749999I0J-249999D01*
G01*
G37*
%TD*%
%TO.C,R15*%
G36*
G01*
X109587500Y-78349999D02*
X109587500Y-79250001D01*
G75*
G02*
X109337501Y-79500000I-249999J0D01*
G01*
X108812499Y-79500000D01*
G75*
G02*
X108562500Y-79250001I0J249999D01*
G01*
X108562500Y-78349999D01*
G75*
G02*
X108812499Y-78100000I249999J0D01*
G01*
X109337501Y-78100000D01*
G75*
G02*
X109587500Y-78349999I0J-249999D01*
G01*
G37*
G36*
G01*
X111412500Y-78349999D02*
X111412500Y-79250001D01*
G75*
G02*
X111162501Y-79500000I-249999J0D01*
G01*
X110637499Y-79500000D01*
G75*
G02*
X110387500Y-79250001I0J249999D01*
G01*
X110387500Y-78349999D01*
G75*
G02*
X110637499Y-78100000I249999J0D01*
G01*
X111162501Y-78100000D01*
G75*
G02*
X111412500Y-78349999I0J-249999D01*
G01*
G37*
%TD*%
%TO.C,R4*%
G36*
G01*
X95687500Y-53549999D02*
X95687500Y-54450001D01*
G75*
G02*
X95437501Y-54700000I-249999J0D01*
G01*
X94912499Y-54700000D01*
G75*
G02*
X94662500Y-54450001I0J249999D01*
G01*
X94662500Y-53549999D01*
G75*
G02*
X94912499Y-53300000I249999J0D01*
G01*
X95437501Y-53300000D01*
G75*
G02*
X95687500Y-53549999I0J-249999D01*
G01*
G37*
G36*
G01*
X97512500Y-53549999D02*
X97512500Y-54450001D01*
G75*
G02*
X97262501Y-54700000I-249999J0D01*
G01*
X96737499Y-54700000D01*
G75*
G02*
X96487500Y-54450001I0J249999D01*
G01*
X96487500Y-53549999D01*
G75*
G02*
X96737499Y-53300000I249999J0D01*
G01*
X97262501Y-53300000D01*
G75*
G02*
X97512500Y-53549999I0J-249999D01*
G01*
G37*
%TD*%
%TO.C,C25*%
G36*
G01*
X110825000Y-49400000D02*
X109875000Y-49400000D01*
G75*
G02*
X109625000Y-49150000I0J250000D01*
G01*
X109625000Y-48650000D01*
G75*
G02*
X109875000Y-48400000I250000J0D01*
G01*
X110825000Y-48400000D01*
G75*
G02*
X111075000Y-48650000I0J-250000D01*
G01*
X111075000Y-49150000D01*
G75*
G02*
X110825000Y-49400000I-250000J0D01*
G01*
G37*
G36*
G01*
X110825000Y-51300000D02*
X109875000Y-51300000D01*
G75*
G02*
X109625000Y-51050000I0J250000D01*
G01*
X109625000Y-50550000D01*
G75*
G02*
X109875000Y-50300000I250000J0D01*
G01*
X110825000Y-50300000D01*
G75*
G02*
X111075000Y-50550000I0J-250000D01*
G01*
X111075000Y-51050000D01*
G75*
G02*
X110825000Y-51300000I-250000J0D01*
G01*
G37*
%TD*%
%TO.C,U7*%
G36*
G01*
X77025000Y-88275000D02*
X77025000Y-88075000D01*
G75*
G02*
X77125000Y-87975000I100000J0D01*
G01*
X78400000Y-87975000D01*
G75*
G02*
X78500000Y-88075000I0J-100000D01*
G01*
X78500000Y-88275000D01*
G75*
G02*
X78400000Y-88375000I-100000J0D01*
G01*
X77125000Y-88375000D01*
G75*
G02*
X77025000Y-88275000I0J100000D01*
G01*
G37*
G36*
G01*
X77025000Y-88925000D02*
X77025000Y-88725000D01*
G75*
G02*
X77125000Y-88625000I100000J0D01*
G01*
X78400000Y-88625000D01*
G75*
G02*
X78500000Y-88725000I0J-100000D01*
G01*
X78500000Y-88925000D01*
G75*
G02*
X78400000Y-89025000I-100000J0D01*
G01*
X77125000Y-89025000D01*
G75*
G02*
X77025000Y-88925000I0J100000D01*
G01*
G37*
G36*
G01*
X77025000Y-89575000D02*
X77025000Y-89375000D01*
G75*
G02*
X77125000Y-89275000I100000J0D01*
G01*
X78400000Y-89275000D01*
G75*
G02*
X78500000Y-89375000I0J-100000D01*
G01*
X78500000Y-89575000D01*
G75*
G02*
X78400000Y-89675000I-100000J0D01*
G01*
X77125000Y-89675000D01*
G75*
G02*
X77025000Y-89575000I0J100000D01*
G01*
G37*
G36*
G01*
X77025000Y-90225000D02*
X77025000Y-90025000D01*
G75*
G02*
X77125000Y-89925000I100000J0D01*
G01*
X78400000Y-89925000D01*
G75*
G02*
X78500000Y-90025000I0J-100000D01*
G01*
X78500000Y-90225000D01*
G75*
G02*
X78400000Y-90325000I-100000J0D01*
G01*
X77125000Y-90325000D01*
G75*
G02*
X77025000Y-90225000I0J100000D01*
G01*
G37*
G36*
G01*
X77025000Y-90875000D02*
X77025000Y-90675000D01*
G75*
G02*
X77125000Y-90575000I100000J0D01*
G01*
X78400000Y-90575000D01*
G75*
G02*
X78500000Y-90675000I0J-100000D01*
G01*
X78500000Y-90875000D01*
G75*
G02*
X78400000Y-90975000I-100000J0D01*
G01*
X77125000Y-90975000D01*
G75*
G02*
X77025000Y-90875000I0J100000D01*
G01*
G37*
G36*
G01*
X77025000Y-91525000D02*
X77025000Y-91325000D01*
G75*
G02*
X77125000Y-91225000I100000J0D01*
G01*
X78400000Y-91225000D01*
G75*
G02*
X78500000Y-91325000I0J-100000D01*
G01*
X78500000Y-91525000D01*
G75*
G02*
X78400000Y-91625000I-100000J0D01*
G01*
X77125000Y-91625000D01*
G75*
G02*
X77025000Y-91525000I0J100000D01*
G01*
G37*
G36*
G01*
X77025000Y-92175000D02*
X77025000Y-91975000D01*
G75*
G02*
X77125000Y-91875000I100000J0D01*
G01*
X78400000Y-91875000D01*
G75*
G02*
X78500000Y-91975000I0J-100000D01*
G01*
X78500000Y-92175000D01*
G75*
G02*
X78400000Y-92275000I-100000J0D01*
G01*
X77125000Y-92275000D01*
G75*
G02*
X77025000Y-92175000I0J100000D01*
G01*
G37*
G36*
G01*
X77025000Y-92825000D02*
X77025000Y-92625000D01*
G75*
G02*
X77125000Y-92525000I100000J0D01*
G01*
X78400000Y-92525000D01*
G75*
G02*
X78500000Y-92625000I0J-100000D01*
G01*
X78500000Y-92825000D01*
G75*
G02*
X78400000Y-92925000I-100000J0D01*
G01*
X77125000Y-92925000D01*
G75*
G02*
X77025000Y-92825000I0J100000D01*
G01*
G37*
G36*
G01*
X77025000Y-93475000D02*
X77025000Y-93275000D01*
G75*
G02*
X77125000Y-93175000I100000J0D01*
G01*
X78400000Y-93175000D01*
G75*
G02*
X78500000Y-93275000I0J-100000D01*
G01*
X78500000Y-93475000D01*
G75*
G02*
X78400000Y-93575000I-100000J0D01*
G01*
X77125000Y-93575000D01*
G75*
G02*
X77025000Y-93475000I0J100000D01*
G01*
G37*
G36*
G01*
X77025000Y-94125000D02*
X77025000Y-93925000D01*
G75*
G02*
X77125000Y-93825000I100000J0D01*
G01*
X78400000Y-93825000D01*
G75*
G02*
X78500000Y-93925000I0J-100000D01*
G01*
X78500000Y-94125000D01*
G75*
G02*
X78400000Y-94225000I-100000J0D01*
G01*
X77125000Y-94225000D01*
G75*
G02*
X77025000Y-94125000I0J100000D01*
G01*
G37*
G36*
G01*
X71300000Y-94125000D02*
X71300000Y-93925000D01*
G75*
G02*
X71400000Y-93825000I100000J0D01*
G01*
X72675000Y-93825000D01*
G75*
G02*
X72775000Y-93925000I0J-100000D01*
G01*
X72775000Y-94125000D01*
G75*
G02*
X72675000Y-94225000I-100000J0D01*
G01*
X71400000Y-94225000D01*
G75*
G02*
X71300000Y-94125000I0J100000D01*
G01*
G37*
G36*
G01*
X71300000Y-93475000D02*
X71300000Y-93275000D01*
G75*
G02*
X71400000Y-93175000I100000J0D01*
G01*
X72675000Y-93175000D01*
G75*
G02*
X72775000Y-93275000I0J-100000D01*
G01*
X72775000Y-93475000D01*
G75*
G02*
X72675000Y-93575000I-100000J0D01*
G01*
X71400000Y-93575000D01*
G75*
G02*
X71300000Y-93475000I0J100000D01*
G01*
G37*
G36*
G01*
X71300000Y-92825000D02*
X71300000Y-92625000D01*
G75*
G02*
X71400000Y-92525000I100000J0D01*
G01*
X72675000Y-92525000D01*
G75*
G02*
X72775000Y-92625000I0J-100000D01*
G01*
X72775000Y-92825000D01*
G75*
G02*
X72675000Y-92925000I-100000J0D01*
G01*
X71400000Y-92925000D01*
G75*
G02*
X71300000Y-92825000I0J100000D01*
G01*
G37*
G36*
G01*
X71300000Y-92175000D02*
X71300000Y-91975000D01*
G75*
G02*
X71400000Y-91875000I100000J0D01*
G01*
X72675000Y-91875000D01*
G75*
G02*
X72775000Y-91975000I0J-100000D01*
G01*
X72775000Y-92175000D01*
G75*
G02*
X72675000Y-92275000I-100000J0D01*
G01*
X71400000Y-92275000D01*
G75*
G02*
X71300000Y-92175000I0J100000D01*
G01*
G37*
G36*
G01*
X71300000Y-91525000D02*
X71300000Y-91325000D01*
G75*
G02*
X71400000Y-91225000I100000J0D01*
G01*
X72675000Y-91225000D01*
G75*
G02*
X72775000Y-91325000I0J-100000D01*
G01*
X72775000Y-91525000D01*
G75*
G02*
X72675000Y-91625000I-100000J0D01*
G01*
X71400000Y-91625000D01*
G75*
G02*
X71300000Y-91525000I0J100000D01*
G01*
G37*
G36*
G01*
X71300000Y-90875000D02*
X71300000Y-90675000D01*
G75*
G02*
X71400000Y-90575000I100000J0D01*
G01*
X72675000Y-90575000D01*
G75*
G02*
X72775000Y-90675000I0J-100000D01*
G01*
X72775000Y-90875000D01*
G75*
G02*
X72675000Y-90975000I-100000J0D01*
G01*
X71400000Y-90975000D01*
G75*
G02*
X71300000Y-90875000I0J100000D01*
G01*
G37*
G36*
G01*
X71300000Y-90225000D02*
X71300000Y-90025000D01*
G75*
G02*
X71400000Y-89925000I100000J0D01*
G01*
X72675000Y-89925000D01*
G75*
G02*
X72775000Y-90025000I0J-100000D01*
G01*
X72775000Y-90225000D01*
G75*
G02*
X72675000Y-90325000I-100000J0D01*
G01*
X71400000Y-90325000D01*
G75*
G02*
X71300000Y-90225000I0J100000D01*
G01*
G37*
G36*
G01*
X71300000Y-89575000D02*
X71300000Y-89375000D01*
G75*
G02*
X71400000Y-89275000I100000J0D01*
G01*
X72675000Y-89275000D01*
G75*
G02*
X72775000Y-89375000I0J-100000D01*
G01*
X72775000Y-89575000D01*
G75*
G02*
X72675000Y-89675000I-100000J0D01*
G01*
X71400000Y-89675000D01*
G75*
G02*
X71300000Y-89575000I0J100000D01*
G01*
G37*
G36*
G01*
X71300000Y-88925000D02*
X71300000Y-88725000D01*
G75*
G02*
X71400000Y-88625000I100000J0D01*
G01*
X72675000Y-88625000D01*
G75*
G02*
X72775000Y-88725000I0J-100000D01*
G01*
X72775000Y-88925000D01*
G75*
G02*
X72675000Y-89025000I-100000J0D01*
G01*
X71400000Y-89025000D01*
G75*
G02*
X71300000Y-88925000I0J100000D01*
G01*
G37*
G36*
G01*
X71300000Y-88275000D02*
X71300000Y-88075000D01*
G75*
G02*
X71400000Y-87975000I100000J0D01*
G01*
X72675000Y-87975000D01*
G75*
G02*
X72775000Y-88075000I0J-100000D01*
G01*
X72775000Y-88275000D01*
G75*
G02*
X72675000Y-88375000I-100000J0D01*
G01*
X71400000Y-88375000D01*
G75*
G02*
X71300000Y-88275000I0J100000D01*
G01*
G37*
%TD*%
%TO.C,U6*%
G36*
G01*
X77025000Y-78275000D02*
X77025000Y-78075000D01*
G75*
G02*
X77125000Y-77975000I100000J0D01*
G01*
X78400000Y-77975000D01*
G75*
G02*
X78500000Y-78075000I0J-100000D01*
G01*
X78500000Y-78275000D01*
G75*
G02*
X78400000Y-78375000I-100000J0D01*
G01*
X77125000Y-78375000D01*
G75*
G02*
X77025000Y-78275000I0J100000D01*
G01*
G37*
G36*
G01*
X77025000Y-78925000D02*
X77025000Y-78725000D01*
G75*
G02*
X77125000Y-78625000I100000J0D01*
G01*
X78400000Y-78625000D01*
G75*
G02*
X78500000Y-78725000I0J-100000D01*
G01*
X78500000Y-78925000D01*
G75*
G02*
X78400000Y-79025000I-100000J0D01*
G01*
X77125000Y-79025000D01*
G75*
G02*
X77025000Y-78925000I0J100000D01*
G01*
G37*
G36*
G01*
X77025000Y-79575000D02*
X77025000Y-79375000D01*
G75*
G02*
X77125000Y-79275000I100000J0D01*
G01*
X78400000Y-79275000D01*
G75*
G02*
X78500000Y-79375000I0J-100000D01*
G01*
X78500000Y-79575000D01*
G75*
G02*
X78400000Y-79675000I-100000J0D01*
G01*
X77125000Y-79675000D01*
G75*
G02*
X77025000Y-79575000I0J100000D01*
G01*
G37*
G36*
G01*
X77025000Y-80225000D02*
X77025000Y-80025000D01*
G75*
G02*
X77125000Y-79925000I100000J0D01*
G01*
X78400000Y-79925000D01*
G75*
G02*
X78500000Y-80025000I0J-100000D01*
G01*
X78500000Y-80225000D01*
G75*
G02*
X78400000Y-80325000I-100000J0D01*
G01*
X77125000Y-80325000D01*
G75*
G02*
X77025000Y-80225000I0J100000D01*
G01*
G37*
G36*
G01*
X77025000Y-80875000D02*
X77025000Y-80675000D01*
G75*
G02*
X77125000Y-80575000I100000J0D01*
G01*
X78400000Y-80575000D01*
G75*
G02*
X78500000Y-80675000I0J-100000D01*
G01*
X78500000Y-80875000D01*
G75*
G02*
X78400000Y-80975000I-100000J0D01*
G01*
X77125000Y-80975000D01*
G75*
G02*
X77025000Y-80875000I0J100000D01*
G01*
G37*
G36*
G01*
X77025000Y-81525000D02*
X77025000Y-81325000D01*
G75*
G02*
X77125000Y-81225000I100000J0D01*
G01*
X78400000Y-81225000D01*
G75*
G02*
X78500000Y-81325000I0J-100000D01*
G01*
X78500000Y-81525000D01*
G75*
G02*
X78400000Y-81625000I-100000J0D01*
G01*
X77125000Y-81625000D01*
G75*
G02*
X77025000Y-81525000I0J100000D01*
G01*
G37*
G36*
G01*
X77025000Y-82175000D02*
X77025000Y-81975000D01*
G75*
G02*
X77125000Y-81875000I100000J0D01*
G01*
X78400000Y-81875000D01*
G75*
G02*
X78500000Y-81975000I0J-100000D01*
G01*
X78500000Y-82175000D01*
G75*
G02*
X78400000Y-82275000I-100000J0D01*
G01*
X77125000Y-82275000D01*
G75*
G02*
X77025000Y-82175000I0J100000D01*
G01*
G37*
G36*
G01*
X77025000Y-82825000D02*
X77025000Y-82625000D01*
G75*
G02*
X77125000Y-82525000I100000J0D01*
G01*
X78400000Y-82525000D01*
G75*
G02*
X78500000Y-82625000I0J-100000D01*
G01*
X78500000Y-82825000D01*
G75*
G02*
X78400000Y-82925000I-100000J0D01*
G01*
X77125000Y-82925000D01*
G75*
G02*
X77025000Y-82825000I0J100000D01*
G01*
G37*
G36*
G01*
X77025000Y-83475000D02*
X77025000Y-83275000D01*
G75*
G02*
X77125000Y-83175000I100000J0D01*
G01*
X78400000Y-83175000D01*
G75*
G02*
X78500000Y-83275000I0J-100000D01*
G01*
X78500000Y-83475000D01*
G75*
G02*
X78400000Y-83575000I-100000J0D01*
G01*
X77125000Y-83575000D01*
G75*
G02*
X77025000Y-83475000I0J100000D01*
G01*
G37*
G36*
G01*
X77025000Y-84125000D02*
X77025000Y-83925000D01*
G75*
G02*
X77125000Y-83825000I100000J0D01*
G01*
X78400000Y-83825000D01*
G75*
G02*
X78500000Y-83925000I0J-100000D01*
G01*
X78500000Y-84125000D01*
G75*
G02*
X78400000Y-84225000I-100000J0D01*
G01*
X77125000Y-84225000D01*
G75*
G02*
X77025000Y-84125000I0J100000D01*
G01*
G37*
G36*
G01*
X71300000Y-84125000D02*
X71300000Y-83925000D01*
G75*
G02*
X71400000Y-83825000I100000J0D01*
G01*
X72675000Y-83825000D01*
G75*
G02*
X72775000Y-83925000I0J-100000D01*
G01*
X72775000Y-84125000D01*
G75*
G02*
X72675000Y-84225000I-100000J0D01*
G01*
X71400000Y-84225000D01*
G75*
G02*
X71300000Y-84125000I0J100000D01*
G01*
G37*
G36*
G01*
X71300000Y-83475000D02*
X71300000Y-83275000D01*
G75*
G02*
X71400000Y-83175000I100000J0D01*
G01*
X72675000Y-83175000D01*
G75*
G02*
X72775000Y-83275000I0J-100000D01*
G01*
X72775000Y-83475000D01*
G75*
G02*
X72675000Y-83575000I-100000J0D01*
G01*
X71400000Y-83575000D01*
G75*
G02*
X71300000Y-83475000I0J100000D01*
G01*
G37*
G36*
G01*
X71300000Y-82825000D02*
X71300000Y-82625000D01*
G75*
G02*
X71400000Y-82525000I100000J0D01*
G01*
X72675000Y-82525000D01*
G75*
G02*
X72775000Y-82625000I0J-100000D01*
G01*
X72775000Y-82825000D01*
G75*
G02*
X72675000Y-82925000I-100000J0D01*
G01*
X71400000Y-82925000D01*
G75*
G02*
X71300000Y-82825000I0J100000D01*
G01*
G37*
G36*
G01*
X71300000Y-82175000D02*
X71300000Y-81975000D01*
G75*
G02*
X71400000Y-81875000I100000J0D01*
G01*
X72675000Y-81875000D01*
G75*
G02*
X72775000Y-81975000I0J-100000D01*
G01*
X72775000Y-82175000D01*
G75*
G02*
X72675000Y-82275000I-100000J0D01*
G01*
X71400000Y-82275000D01*
G75*
G02*
X71300000Y-82175000I0J100000D01*
G01*
G37*
G36*
G01*
X71300000Y-81525000D02*
X71300000Y-81325000D01*
G75*
G02*
X71400000Y-81225000I100000J0D01*
G01*
X72675000Y-81225000D01*
G75*
G02*
X72775000Y-81325000I0J-100000D01*
G01*
X72775000Y-81525000D01*
G75*
G02*
X72675000Y-81625000I-100000J0D01*
G01*
X71400000Y-81625000D01*
G75*
G02*
X71300000Y-81525000I0J100000D01*
G01*
G37*
G36*
G01*
X71300000Y-80875000D02*
X71300000Y-80675000D01*
G75*
G02*
X71400000Y-80575000I100000J0D01*
G01*
X72675000Y-80575000D01*
G75*
G02*
X72775000Y-80675000I0J-100000D01*
G01*
X72775000Y-80875000D01*
G75*
G02*
X72675000Y-80975000I-100000J0D01*
G01*
X71400000Y-80975000D01*
G75*
G02*
X71300000Y-80875000I0J100000D01*
G01*
G37*
G36*
G01*
X71300000Y-80225000D02*
X71300000Y-80025000D01*
G75*
G02*
X71400000Y-79925000I100000J0D01*
G01*
X72675000Y-79925000D01*
G75*
G02*
X72775000Y-80025000I0J-100000D01*
G01*
X72775000Y-80225000D01*
G75*
G02*
X72675000Y-80325000I-100000J0D01*
G01*
X71400000Y-80325000D01*
G75*
G02*
X71300000Y-80225000I0J100000D01*
G01*
G37*
G36*
G01*
X71300000Y-79575000D02*
X71300000Y-79375000D01*
G75*
G02*
X71400000Y-79275000I100000J0D01*
G01*
X72675000Y-79275000D01*
G75*
G02*
X72775000Y-79375000I0J-100000D01*
G01*
X72775000Y-79575000D01*
G75*
G02*
X72675000Y-79675000I-100000J0D01*
G01*
X71400000Y-79675000D01*
G75*
G02*
X71300000Y-79575000I0J100000D01*
G01*
G37*
G36*
G01*
X71300000Y-78925000D02*
X71300000Y-78725000D01*
G75*
G02*
X71400000Y-78625000I100000J0D01*
G01*
X72675000Y-78625000D01*
G75*
G02*
X72775000Y-78725000I0J-100000D01*
G01*
X72775000Y-78925000D01*
G75*
G02*
X72675000Y-79025000I-100000J0D01*
G01*
X71400000Y-79025000D01*
G75*
G02*
X71300000Y-78925000I0J100000D01*
G01*
G37*
G36*
G01*
X71300000Y-78275000D02*
X71300000Y-78075000D01*
G75*
G02*
X71400000Y-77975000I100000J0D01*
G01*
X72675000Y-77975000D01*
G75*
G02*
X72775000Y-78075000I0J-100000D01*
G01*
X72775000Y-78275000D01*
G75*
G02*
X72675000Y-78375000I-100000J0D01*
G01*
X71400000Y-78375000D01*
G75*
G02*
X71300000Y-78275000I0J100000D01*
G01*
G37*
%TD*%
D19*
%TO.C,Y1*%
X97200000Y-78720000D03*
X97200000Y-83600000D03*
%TD*%
D20*
%TO.C,U1*%
X90930000Y-75000000D03*
X90930000Y-75650000D03*
X90930000Y-76300000D03*
X88270000Y-76300000D03*
X88270000Y-75650000D03*
X88270000Y-75000000D03*
%TD*%
%TO.C,R22*%
G36*
G01*
X75512500Y-96149999D02*
X75512500Y-97050001D01*
G75*
G02*
X75262501Y-97300000I-249999J0D01*
G01*
X74737499Y-97300000D01*
G75*
G02*
X74487500Y-97050001I0J249999D01*
G01*
X74487500Y-96149999D01*
G75*
G02*
X74737499Y-95900000I249999J0D01*
G01*
X75262501Y-95900000D01*
G75*
G02*
X75512500Y-96149999I0J-249999D01*
G01*
G37*
G36*
G01*
X77337500Y-96149999D02*
X77337500Y-97050001D01*
G75*
G02*
X77087501Y-97300000I-249999J0D01*
G01*
X76562499Y-97300000D01*
G75*
G02*
X76312500Y-97050001I0J249999D01*
G01*
X76312500Y-96149999D01*
G75*
G02*
X76562499Y-95900000I249999J0D01*
G01*
X77087501Y-95900000D01*
G75*
G02*
X77337500Y-96149999I0J-249999D01*
G01*
G37*
%TD*%
%TO.C,R21*%
G36*
G01*
X63900001Y-85812500D02*
X62999999Y-85812500D01*
G75*
G02*
X62750000Y-85562501I0J249999D01*
G01*
X62750000Y-85037499D01*
G75*
G02*
X62999999Y-84787500I249999J0D01*
G01*
X63900001Y-84787500D01*
G75*
G02*
X64150000Y-85037499I0J-249999D01*
G01*
X64150000Y-85562501D01*
G75*
G02*
X63900001Y-85812500I-249999J0D01*
G01*
G37*
G36*
G01*
X63900001Y-87637500D02*
X62999999Y-87637500D01*
G75*
G02*
X62750000Y-87387501I0J249999D01*
G01*
X62750000Y-86862499D01*
G75*
G02*
X62999999Y-86612500I249999J0D01*
G01*
X63900001Y-86612500D01*
G75*
G02*
X64150000Y-86862499I0J-249999D01*
G01*
X64150000Y-87387501D01*
G75*
G02*
X63900001Y-87637500I-249999J0D01*
G01*
G37*
%TD*%
%TO.C,R20*%
G36*
G01*
X118612500Y-71849999D02*
X118612500Y-72750001D01*
G75*
G02*
X118362501Y-73000000I-249999J0D01*
G01*
X117837499Y-73000000D01*
G75*
G02*
X117587500Y-72750001I0J249999D01*
G01*
X117587500Y-71849999D01*
G75*
G02*
X117837499Y-71600000I249999J0D01*
G01*
X118362501Y-71600000D01*
G75*
G02*
X118612500Y-71849999I0J-249999D01*
G01*
G37*
G36*
G01*
X120437500Y-71849999D02*
X120437500Y-72750001D01*
G75*
G02*
X120187501Y-73000000I-249999J0D01*
G01*
X119662499Y-73000000D01*
G75*
G02*
X119412500Y-72750001I0J249999D01*
G01*
X119412500Y-71849999D01*
G75*
G02*
X119662499Y-71600000I249999J0D01*
G01*
X120187501Y-71600000D01*
G75*
G02*
X120437500Y-71849999I0J-249999D01*
G01*
G37*
%TD*%
%TO.C,R19*%
G36*
G01*
X118612500Y-75349999D02*
X118612500Y-76250001D01*
G75*
G02*
X118362501Y-76500000I-249999J0D01*
G01*
X117837499Y-76500000D01*
G75*
G02*
X117587500Y-76250001I0J249999D01*
G01*
X117587500Y-75349999D01*
G75*
G02*
X117837499Y-75100000I249999J0D01*
G01*
X118362501Y-75100000D01*
G75*
G02*
X118612500Y-75349999I0J-249999D01*
G01*
G37*
G36*
G01*
X120437500Y-75349999D02*
X120437500Y-76250001D01*
G75*
G02*
X120187501Y-76500000I-249999J0D01*
G01*
X119662499Y-76500000D01*
G75*
G02*
X119412500Y-76250001I0J249999D01*
G01*
X119412500Y-75349999D01*
G75*
G02*
X119662499Y-75100000I249999J0D01*
G01*
X120187501Y-75100000D01*
G75*
G02*
X120437500Y-75349999I0J-249999D01*
G01*
G37*
%TD*%
%TO.C,R18*%
G36*
G01*
X118612500Y-78649999D02*
X118612500Y-79550001D01*
G75*
G02*
X118362501Y-79800000I-249999J0D01*
G01*
X117837499Y-79800000D01*
G75*
G02*
X117587500Y-79550001I0J249999D01*
G01*
X117587500Y-78649999D01*
G75*
G02*
X117837499Y-78400000I249999J0D01*
G01*
X118362501Y-78400000D01*
G75*
G02*
X118612500Y-78649999I0J-249999D01*
G01*
G37*
G36*
G01*
X120437500Y-78649999D02*
X120437500Y-79550001D01*
G75*
G02*
X120187501Y-79800000I-249999J0D01*
G01*
X119662499Y-79800000D01*
G75*
G02*
X119412500Y-79550001I0J249999D01*
G01*
X119412500Y-78649999D01*
G75*
G02*
X119662499Y-78400000I249999J0D01*
G01*
X120187501Y-78400000D01*
G75*
G02*
X120437500Y-78649999I0J-249999D01*
G01*
G37*
%TD*%
%TO.C,R17*%
G36*
G01*
X118612500Y-82049999D02*
X118612500Y-82950001D01*
G75*
G02*
X118362501Y-83200000I-249999J0D01*
G01*
X117837499Y-83200000D01*
G75*
G02*
X117587500Y-82950001I0J249999D01*
G01*
X117587500Y-82049999D01*
G75*
G02*
X117837499Y-81800000I249999J0D01*
G01*
X118362501Y-81800000D01*
G75*
G02*
X118612500Y-82049999I0J-249999D01*
G01*
G37*
G36*
G01*
X120437500Y-82049999D02*
X120437500Y-82950001D01*
G75*
G02*
X120187501Y-83200000I-249999J0D01*
G01*
X119662499Y-83200000D01*
G75*
G02*
X119412500Y-82950001I0J249999D01*
G01*
X119412500Y-82049999D01*
G75*
G02*
X119662499Y-81800000I249999J0D01*
G01*
X120187501Y-81800000D01*
G75*
G02*
X120437500Y-82049999I0J-249999D01*
G01*
G37*
%TD*%
%TO.C,R16*%
G36*
G01*
X118612500Y-85349999D02*
X118612500Y-86250001D01*
G75*
G02*
X118362501Y-86500000I-249999J0D01*
G01*
X117837499Y-86500000D01*
G75*
G02*
X117587500Y-86250001I0J249999D01*
G01*
X117587500Y-85349999D01*
G75*
G02*
X117837499Y-85100000I249999J0D01*
G01*
X118362501Y-85100000D01*
G75*
G02*
X118612500Y-85349999I0J-249999D01*
G01*
G37*
G36*
G01*
X120437500Y-85349999D02*
X120437500Y-86250001D01*
G75*
G02*
X120187501Y-86500000I-249999J0D01*
G01*
X119662499Y-86500000D01*
G75*
G02*
X119412500Y-86250001I0J249999D01*
G01*
X119412500Y-85349999D01*
G75*
G02*
X119662499Y-85100000I249999J0D01*
G01*
X120187501Y-85100000D01*
G75*
G02*
X120437500Y-85349999I0J-249999D01*
G01*
G37*
%TD*%
%TO.C,R12*%
G36*
G01*
X118587500Y-68399999D02*
X118587500Y-69300001D01*
G75*
G02*
X118337501Y-69550000I-249999J0D01*
G01*
X117812499Y-69550000D01*
G75*
G02*
X117562500Y-69300001I0J249999D01*
G01*
X117562500Y-68399999D01*
G75*
G02*
X117812499Y-68150000I249999J0D01*
G01*
X118337501Y-68150000D01*
G75*
G02*
X118587500Y-68399999I0J-249999D01*
G01*
G37*
G36*
G01*
X120412500Y-68399999D02*
X120412500Y-69300001D01*
G75*
G02*
X120162501Y-69550000I-249999J0D01*
G01*
X119637499Y-69550000D01*
G75*
G02*
X119387500Y-69300001I0J249999D01*
G01*
X119387500Y-68399999D01*
G75*
G02*
X119637499Y-68150000I249999J0D01*
G01*
X120162501Y-68150000D01*
G75*
G02*
X120412500Y-68399999I0J-249999D01*
G01*
G37*
%TD*%
%TO.C,R11*%
G36*
G01*
X118487500Y-65149999D02*
X118487500Y-66050001D01*
G75*
G02*
X118237501Y-66300000I-249999J0D01*
G01*
X117712499Y-66300000D01*
G75*
G02*
X117462500Y-66050001I0J249999D01*
G01*
X117462500Y-65149999D01*
G75*
G02*
X117712499Y-64900000I249999J0D01*
G01*
X118237501Y-64900000D01*
G75*
G02*
X118487500Y-65149999I0J-249999D01*
G01*
G37*
G36*
G01*
X120312500Y-65149999D02*
X120312500Y-66050001D01*
G75*
G02*
X120062501Y-66300000I-249999J0D01*
G01*
X119537499Y-66300000D01*
G75*
G02*
X119287500Y-66050001I0J249999D01*
G01*
X119287500Y-65149999D01*
G75*
G02*
X119537499Y-64900000I249999J0D01*
G01*
X120062501Y-64900000D01*
G75*
G02*
X120312500Y-65149999I0J-249999D01*
G01*
G37*
%TD*%
%TO.C,R10*%
G36*
G01*
X118487500Y-58449999D02*
X118487500Y-59350001D01*
G75*
G02*
X118237501Y-59600000I-249999J0D01*
G01*
X117712499Y-59600000D01*
G75*
G02*
X117462500Y-59350001I0J249999D01*
G01*
X117462500Y-58449999D01*
G75*
G02*
X117712499Y-58200000I249999J0D01*
G01*
X118237501Y-58200000D01*
G75*
G02*
X118487500Y-58449999I0J-249999D01*
G01*
G37*
G36*
G01*
X120312500Y-58449999D02*
X120312500Y-59350001D01*
G75*
G02*
X120062501Y-59600000I-249999J0D01*
G01*
X119537499Y-59600000D01*
G75*
G02*
X119287500Y-59350001I0J249999D01*
G01*
X119287500Y-58449999D01*
G75*
G02*
X119537499Y-58200000I249999J0D01*
G01*
X120062501Y-58200000D01*
G75*
G02*
X120312500Y-58449999I0J-249999D01*
G01*
G37*
%TD*%
%TO.C,R9*%
G36*
G01*
X118487500Y-61849999D02*
X118487500Y-62750001D01*
G75*
G02*
X118237501Y-63000000I-249999J0D01*
G01*
X117712499Y-63000000D01*
G75*
G02*
X117462500Y-62750001I0J249999D01*
G01*
X117462500Y-61849999D01*
G75*
G02*
X117712499Y-61600000I249999J0D01*
G01*
X118237501Y-61600000D01*
G75*
G02*
X118487500Y-61849999I0J-249999D01*
G01*
G37*
G36*
G01*
X120312500Y-61849999D02*
X120312500Y-62750001D01*
G75*
G02*
X120062501Y-63000000I-249999J0D01*
G01*
X119537499Y-63000000D01*
G75*
G02*
X119287500Y-62750001I0J249999D01*
G01*
X119287500Y-61849999D01*
G75*
G02*
X119537499Y-61600000I249999J0D01*
G01*
X120062501Y-61600000D01*
G75*
G02*
X120312500Y-61849999I0J-249999D01*
G01*
G37*
%TD*%
%TO.C,R8*%
G36*
G01*
X118287500Y-55149999D02*
X118287500Y-56050001D01*
G75*
G02*
X118037501Y-56300000I-249999J0D01*
G01*
X117512499Y-56300000D01*
G75*
G02*
X117262500Y-56050001I0J249999D01*
G01*
X117262500Y-55149999D01*
G75*
G02*
X117512499Y-54900000I249999J0D01*
G01*
X118037501Y-54900000D01*
G75*
G02*
X118287500Y-55149999I0J-249999D01*
G01*
G37*
G36*
G01*
X120112500Y-55149999D02*
X120112500Y-56050001D01*
G75*
G02*
X119862501Y-56300000I-249999J0D01*
G01*
X119337499Y-56300000D01*
G75*
G02*
X119087500Y-56050001I0J249999D01*
G01*
X119087500Y-55149999D01*
G75*
G02*
X119337499Y-54900000I249999J0D01*
G01*
X119862501Y-54900000D01*
G75*
G02*
X120112500Y-55149999I0J-249999D01*
G01*
G37*
%TD*%
%TO.C,R7*%
G36*
G01*
X118287500Y-51899999D02*
X118287500Y-52800001D01*
G75*
G02*
X118037501Y-53050000I-249999J0D01*
G01*
X117512499Y-53050000D01*
G75*
G02*
X117262500Y-52800001I0J249999D01*
G01*
X117262500Y-51899999D01*
G75*
G02*
X117512499Y-51650000I249999J0D01*
G01*
X118037501Y-51650000D01*
G75*
G02*
X118287500Y-51899999I0J-249999D01*
G01*
G37*
G36*
G01*
X120112500Y-51899999D02*
X120112500Y-52800001D01*
G75*
G02*
X119862501Y-53050000I-249999J0D01*
G01*
X119337499Y-53050000D01*
G75*
G02*
X119087500Y-52800001I0J249999D01*
G01*
X119087500Y-51899999D01*
G75*
G02*
X119337499Y-51650000I249999J0D01*
G01*
X119862501Y-51650000D01*
G75*
G02*
X120112500Y-51899999I0J-249999D01*
G01*
G37*
%TD*%
%TO.C,R6*%
G36*
G01*
X118287500Y-48649999D02*
X118287500Y-49550001D01*
G75*
G02*
X118037501Y-49800000I-249999J0D01*
G01*
X117512499Y-49800000D01*
G75*
G02*
X117262500Y-49550001I0J249999D01*
G01*
X117262500Y-48649999D01*
G75*
G02*
X117512499Y-48400000I249999J0D01*
G01*
X118037501Y-48400000D01*
G75*
G02*
X118287500Y-48649999I0J-249999D01*
G01*
G37*
G36*
G01*
X120112500Y-48649999D02*
X120112500Y-49550001D01*
G75*
G02*
X119862501Y-49800000I-249999J0D01*
G01*
X119337499Y-49800000D01*
G75*
G02*
X119087500Y-49550001I0J249999D01*
G01*
X119087500Y-48649999D01*
G75*
G02*
X119337499Y-48400000I249999J0D01*
G01*
X119862501Y-48400000D01*
G75*
G02*
X120112500Y-48649999I0J-249999D01*
G01*
G37*
%TD*%
%TO.C,R5*%
G36*
G01*
X115350001Y-59787500D02*
X114449999Y-59787500D01*
G75*
G02*
X114200000Y-59537501I0J249999D01*
G01*
X114200000Y-59012499D01*
G75*
G02*
X114449999Y-58762500I249999J0D01*
G01*
X115350001Y-58762500D01*
G75*
G02*
X115600000Y-59012499I0J-249999D01*
G01*
X115600000Y-59537501D01*
G75*
G02*
X115350001Y-59787500I-249999J0D01*
G01*
G37*
G36*
G01*
X115350001Y-61612500D02*
X114449999Y-61612500D01*
G75*
G02*
X114200000Y-61362501I0J249999D01*
G01*
X114200000Y-60837499D01*
G75*
G02*
X114449999Y-60587500I249999J0D01*
G01*
X115350001Y-60587500D01*
G75*
G02*
X115600000Y-60837499I0J-249999D01*
G01*
X115600000Y-61362501D01*
G75*
G02*
X115350001Y-61612500I-249999J0D01*
G01*
G37*
%TD*%
%TO.C,R3*%
G36*
G01*
X114449999Y-55837500D02*
X115350001Y-55837500D01*
G75*
G02*
X115600000Y-56087499I0J-249999D01*
G01*
X115600000Y-56612501D01*
G75*
G02*
X115350001Y-56862500I-249999J0D01*
G01*
X114449999Y-56862500D01*
G75*
G02*
X114200000Y-56612501I0J249999D01*
G01*
X114200000Y-56087499D01*
G75*
G02*
X114449999Y-55837500I249999J0D01*
G01*
G37*
G36*
G01*
X114449999Y-54012500D02*
X115350001Y-54012500D01*
G75*
G02*
X115600000Y-54262499I0J-249999D01*
G01*
X115600000Y-54787501D01*
G75*
G02*
X115350001Y-55037500I-249999J0D01*
G01*
X114449999Y-55037500D01*
G75*
G02*
X114200000Y-54787501I0J249999D01*
G01*
X114200000Y-54262499D01*
G75*
G02*
X114449999Y-54012500I249999J0D01*
G01*
G37*
%TD*%
%TO.C,R2*%
G36*
G01*
X93050001Y-79337500D02*
X92149999Y-79337500D01*
G75*
G02*
X91900000Y-79087501I0J249999D01*
G01*
X91900000Y-78562499D01*
G75*
G02*
X92149999Y-78312500I249999J0D01*
G01*
X93050001Y-78312500D01*
G75*
G02*
X93300000Y-78562499I0J-249999D01*
G01*
X93300000Y-79087501D01*
G75*
G02*
X93050001Y-79337500I-249999J0D01*
G01*
G37*
G36*
G01*
X93050001Y-81162500D02*
X92149999Y-81162500D01*
G75*
G02*
X91900000Y-80912501I0J249999D01*
G01*
X91900000Y-80387499D01*
G75*
G02*
X92149999Y-80137500I249999J0D01*
G01*
X93050001Y-80137500D01*
G75*
G02*
X93300000Y-80387499I0J-249999D01*
G01*
X93300000Y-80912501D01*
G75*
G02*
X93050001Y-81162500I-249999J0D01*
G01*
G37*
%TD*%
%TO.C,R1*%
G36*
G01*
X88050001Y-79162500D02*
X87149999Y-79162500D01*
G75*
G02*
X86900000Y-78912501I0J249999D01*
G01*
X86900000Y-78387499D01*
G75*
G02*
X87149999Y-78137500I249999J0D01*
G01*
X88050001Y-78137500D01*
G75*
G02*
X88300000Y-78387499I0J-249999D01*
G01*
X88300000Y-78912501D01*
G75*
G02*
X88050001Y-79162500I-249999J0D01*
G01*
G37*
G36*
G01*
X88050001Y-80987500D02*
X87149999Y-80987500D01*
G75*
G02*
X86900000Y-80737501I0J249999D01*
G01*
X86900000Y-80212499D01*
G75*
G02*
X87149999Y-79962500I249999J0D01*
G01*
X88050001Y-79962500D01*
G75*
G02*
X88300000Y-80212499I0J-249999D01*
G01*
X88300000Y-80737501D01*
G75*
G02*
X88050001Y-80987500I-249999J0D01*
G01*
G37*
%TD*%
D13*
%TO.C,J6*%
X53900000Y-95200000D03*
X53900000Y-92660000D03*
X53900000Y-90120000D03*
X53900000Y-87580000D03*
X53900000Y-85040000D03*
X53900000Y-82500000D03*
X53900000Y-79960000D03*
X53900000Y-77420000D03*
X53900000Y-74880000D03*
X53900000Y-72340000D03*
X53900000Y-69800000D03*
X53900000Y-67260000D03*
X53900000Y-64720000D03*
X53900000Y-62180000D03*
X53900000Y-59640000D03*
D14*
X53900000Y-57100000D03*
%TD*%
D13*
%TO.C,J3*%
X58600000Y-50140000D03*
D14*
X58600000Y-47600000D03*
%TD*%
D13*
%TO.C,J2*%
X53800000Y-50140000D03*
D14*
X53800000Y-47600000D03*
%TD*%
%TO.C,C26*%
G36*
G01*
X67925000Y-48000000D02*
X68875000Y-48000000D01*
G75*
G02*
X69125000Y-48250000I0J-250000D01*
G01*
X69125000Y-48750000D01*
G75*
G02*
X68875000Y-49000000I-250000J0D01*
G01*
X67925000Y-49000000D01*
G75*
G02*
X67675000Y-48750000I0J250000D01*
G01*
X67675000Y-48250000D01*
G75*
G02*
X67925000Y-48000000I250000J0D01*
G01*
G37*
G36*
G01*
X67925000Y-46100000D02*
X68875000Y-46100000D01*
G75*
G02*
X69125000Y-46350000I0J-250000D01*
G01*
X69125000Y-46850000D01*
G75*
G02*
X68875000Y-47100000I-250000J0D01*
G01*
X67925000Y-47100000D01*
G75*
G02*
X67675000Y-46850000I0J250000D01*
G01*
X67675000Y-46350000D01*
G75*
G02*
X67925000Y-46100000I250000J0D01*
G01*
G37*
%TD*%
%TO.C,C24*%
G36*
G01*
X82100000Y-45525000D02*
X82100000Y-46475000D01*
G75*
G02*
X81850000Y-46725000I-250000J0D01*
G01*
X81350000Y-46725000D01*
G75*
G02*
X81100000Y-46475000I0J250000D01*
G01*
X81100000Y-45525000D01*
G75*
G02*
X81350000Y-45275000I250000J0D01*
G01*
X81850000Y-45275000D01*
G75*
G02*
X82100000Y-45525000I0J-250000D01*
G01*
G37*
G36*
G01*
X84000000Y-45525000D02*
X84000000Y-46475000D01*
G75*
G02*
X83750000Y-46725000I-250000J0D01*
G01*
X83250000Y-46725000D01*
G75*
G02*
X83000000Y-46475000I0J250000D01*
G01*
X83000000Y-45525000D01*
G75*
G02*
X83250000Y-45275000I250000J0D01*
G01*
X83750000Y-45275000D01*
G75*
G02*
X84000000Y-45525000I0J-250000D01*
G01*
G37*
%TD*%
%TO.C,C23*%
G36*
G01*
X101000000Y-73675000D02*
X101000000Y-72725000D01*
G75*
G02*
X101250000Y-72475000I250000J0D01*
G01*
X101750000Y-72475000D01*
G75*
G02*
X102000000Y-72725000I0J-250000D01*
G01*
X102000000Y-73675000D01*
G75*
G02*
X101750000Y-73925000I-250000J0D01*
G01*
X101250000Y-73925000D01*
G75*
G02*
X101000000Y-73675000I0J250000D01*
G01*
G37*
G36*
G01*
X99100000Y-73675000D02*
X99100000Y-72725000D01*
G75*
G02*
X99350000Y-72475000I250000J0D01*
G01*
X99850000Y-72475000D01*
G75*
G02*
X100100000Y-72725000I0J-250000D01*
G01*
X100100000Y-73675000D01*
G75*
G02*
X99850000Y-73925000I-250000J0D01*
G01*
X99350000Y-73925000D01*
G75*
G02*
X99100000Y-73675000I0J250000D01*
G01*
G37*
%TD*%
%TO.C,C22*%
G36*
G01*
X77725000Y-48000000D02*
X78675000Y-48000000D01*
G75*
G02*
X78925000Y-48250000I0J-250000D01*
G01*
X78925000Y-48750000D01*
G75*
G02*
X78675000Y-49000000I-250000J0D01*
G01*
X77725000Y-49000000D01*
G75*
G02*
X77475000Y-48750000I0J250000D01*
G01*
X77475000Y-48250000D01*
G75*
G02*
X77725000Y-48000000I250000J0D01*
G01*
G37*
G36*
G01*
X77725000Y-46100000D02*
X78675000Y-46100000D01*
G75*
G02*
X78925000Y-46350000I0J-250000D01*
G01*
X78925000Y-46850000D01*
G75*
G02*
X78675000Y-47100000I-250000J0D01*
G01*
X77725000Y-47100000D01*
G75*
G02*
X77475000Y-46850000I0J250000D01*
G01*
X77475000Y-46350000D01*
G75*
G02*
X77725000Y-46100000I250000J0D01*
G01*
G37*
%TD*%
%TO.C,C21*%
G36*
G01*
X104325000Y-77150000D02*
X105275000Y-77150000D01*
G75*
G02*
X105525000Y-77400000I0J-250000D01*
G01*
X105525000Y-77900000D01*
G75*
G02*
X105275000Y-78150000I-250000J0D01*
G01*
X104325000Y-78150000D01*
G75*
G02*
X104075000Y-77900000I0J250000D01*
G01*
X104075000Y-77400000D01*
G75*
G02*
X104325000Y-77150000I250000J0D01*
G01*
G37*
G36*
G01*
X104325000Y-75250000D02*
X105275000Y-75250000D01*
G75*
G02*
X105525000Y-75500000I0J-250000D01*
G01*
X105525000Y-76000000D01*
G75*
G02*
X105275000Y-76250000I-250000J0D01*
G01*
X104325000Y-76250000D01*
G75*
G02*
X104075000Y-76000000I0J250000D01*
G01*
X104075000Y-75500000D01*
G75*
G02*
X104325000Y-75250000I250000J0D01*
G01*
G37*
%TD*%
%TO.C,C20*%
G36*
G01*
X66225000Y-75850000D02*
X65275000Y-75850000D01*
G75*
G02*
X65025000Y-75600000I0J250000D01*
G01*
X65025000Y-75100000D01*
G75*
G02*
X65275000Y-74850000I250000J0D01*
G01*
X66225000Y-74850000D01*
G75*
G02*
X66475000Y-75100000I0J-250000D01*
G01*
X66475000Y-75600000D01*
G75*
G02*
X66225000Y-75850000I-250000J0D01*
G01*
G37*
G36*
G01*
X66225000Y-77750000D02*
X65275000Y-77750000D01*
G75*
G02*
X65025000Y-77500000I0J250000D01*
G01*
X65025000Y-77000000D01*
G75*
G02*
X65275000Y-76750000I250000J0D01*
G01*
X66225000Y-76750000D01*
G75*
G02*
X66475000Y-77000000I0J-250000D01*
G01*
X66475000Y-77500000D01*
G75*
G02*
X66225000Y-77750000I-250000J0D01*
G01*
G37*
%TD*%
%TO.C,C19*%
G36*
G01*
X70500000Y-52275000D02*
X70500000Y-51325000D01*
G75*
G02*
X70750000Y-51075000I250000J0D01*
G01*
X71250000Y-51075000D01*
G75*
G02*
X71500000Y-51325000I0J-250000D01*
G01*
X71500000Y-52275000D01*
G75*
G02*
X71250000Y-52525000I-250000J0D01*
G01*
X70750000Y-52525000D01*
G75*
G02*
X70500000Y-52275000I0J250000D01*
G01*
G37*
G36*
G01*
X68600000Y-52275000D02*
X68600000Y-51325000D01*
G75*
G02*
X68850000Y-51075000I250000J0D01*
G01*
X69350000Y-51075000D01*
G75*
G02*
X69600000Y-51325000I0J-250000D01*
G01*
X69600000Y-52275000D01*
G75*
G02*
X69350000Y-52525000I-250000J0D01*
G01*
X68850000Y-52525000D01*
G75*
G02*
X68600000Y-52275000I0J250000D01*
G01*
G37*
%TD*%
%TO.C,C18*%
G36*
G01*
X66575000Y-86600000D02*
X67525000Y-86600000D01*
G75*
G02*
X67775000Y-86850000I0J-250000D01*
G01*
X67775000Y-87350000D01*
G75*
G02*
X67525000Y-87600000I-250000J0D01*
G01*
X66575000Y-87600000D01*
G75*
G02*
X66325000Y-87350000I0J250000D01*
G01*
X66325000Y-86850000D01*
G75*
G02*
X66575000Y-86600000I250000J0D01*
G01*
G37*
G36*
G01*
X66575000Y-84700000D02*
X67525000Y-84700000D01*
G75*
G02*
X67775000Y-84950000I0J-250000D01*
G01*
X67775000Y-85450000D01*
G75*
G02*
X67525000Y-85700000I-250000J0D01*
G01*
X66575000Y-85700000D01*
G75*
G02*
X66325000Y-85450000I0J250000D01*
G01*
X66325000Y-84950000D01*
G75*
G02*
X66575000Y-84700000I250000J0D01*
G01*
G37*
%TD*%
%TO.C,C17*%
G36*
G01*
X62125000Y-48000000D02*
X63075000Y-48000000D01*
G75*
G02*
X63325000Y-48250000I0J-250000D01*
G01*
X63325000Y-48750000D01*
G75*
G02*
X63075000Y-49000000I-250000J0D01*
G01*
X62125000Y-49000000D01*
G75*
G02*
X61875000Y-48750000I0J250000D01*
G01*
X61875000Y-48250000D01*
G75*
G02*
X62125000Y-48000000I250000J0D01*
G01*
G37*
G36*
G01*
X62125000Y-46100000D02*
X63075000Y-46100000D01*
G75*
G02*
X63325000Y-46350000I0J-250000D01*
G01*
X63325000Y-46850000D01*
G75*
G02*
X63075000Y-47100000I-250000J0D01*
G01*
X62125000Y-47100000D01*
G75*
G02*
X61875000Y-46850000I0J250000D01*
G01*
X61875000Y-46350000D01*
G75*
G02*
X62125000Y-46100000I250000J0D01*
G01*
G37*
%TD*%
%TO.C,C16*%
G36*
G01*
X62500000Y-56525000D02*
X62500000Y-57475000D01*
G75*
G02*
X62250000Y-57725000I-250000J0D01*
G01*
X61750000Y-57725000D01*
G75*
G02*
X61500000Y-57475000I0J250000D01*
G01*
X61500000Y-56525000D01*
G75*
G02*
X61750000Y-56275000I250000J0D01*
G01*
X62250000Y-56275000D01*
G75*
G02*
X62500000Y-56525000I0J-250000D01*
G01*
G37*
G36*
G01*
X64400000Y-56525000D02*
X64400000Y-57475000D01*
G75*
G02*
X64150000Y-57725000I-250000J0D01*
G01*
X63650000Y-57725000D01*
G75*
G02*
X63400000Y-57475000I0J250000D01*
G01*
X63400000Y-56525000D01*
G75*
G02*
X63650000Y-56275000I250000J0D01*
G01*
X64150000Y-56275000D01*
G75*
G02*
X64400000Y-56525000I0J-250000D01*
G01*
G37*
%TD*%
%TO.C,C15*%
G36*
G01*
X62300000Y-65025000D02*
X62300000Y-65975000D01*
G75*
G02*
X62050000Y-66225000I-250000J0D01*
G01*
X61550000Y-66225000D01*
G75*
G02*
X61300000Y-65975000I0J250000D01*
G01*
X61300000Y-65025000D01*
G75*
G02*
X61550000Y-64775000I250000J0D01*
G01*
X62050000Y-64775000D01*
G75*
G02*
X62300000Y-65025000I0J-250000D01*
G01*
G37*
G36*
G01*
X64200000Y-65025000D02*
X64200000Y-65975000D01*
G75*
G02*
X63950000Y-66225000I-250000J0D01*
G01*
X63450000Y-66225000D01*
G75*
G02*
X63200000Y-65975000I0J250000D01*
G01*
X63200000Y-65025000D01*
G75*
G02*
X63450000Y-64775000I250000J0D01*
G01*
X63950000Y-64775000D01*
G75*
G02*
X64200000Y-65025000I0J-250000D01*
G01*
G37*
%TD*%
%TO.C,C14*%
G36*
G01*
X114325000Y-49400000D02*
X113375000Y-49400000D01*
G75*
G02*
X113125000Y-49150000I0J250000D01*
G01*
X113125000Y-48650000D01*
G75*
G02*
X113375000Y-48400000I250000J0D01*
G01*
X114325000Y-48400000D01*
G75*
G02*
X114575000Y-48650000I0J-250000D01*
G01*
X114575000Y-49150000D01*
G75*
G02*
X114325000Y-49400000I-250000J0D01*
G01*
G37*
G36*
G01*
X114325000Y-51300000D02*
X113375000Y-51300000D01*
G75*
G02*
X113125000Y-51050000I0J250000D01*
G01*
X113125000Y-50550000D01*
G75*
G02*
X113375000Y-50300000I250000J0D01*
G01*
X114325000Y-50300000D01*
G75*
G02*
X114575000Y-50550000I0J-250000D01*
G01*
X114575000Y-51050000D01*
G75*
G02*
X114325000Y-51300000I-250000J0D01*
G01*
G37*
%TD*%
%TO.C,C13*%
G36*
G01*
X71325000Y-48000000D02*
X72275000Y-48000000D01*
G75*
G02*
X72525000Y-48250000I0J-250000D01*
G01*
X72525000Y-48750000D01*
G75*
G02*
X72275000Y-49000000I-250000J0D01*
G01*
X71325000Y-49000000D01*
G75*
G02*
X71075000Y-48750000I0J250000D01*
G01*
X71075000Y-48250000D01*
G75*
G02*
X71325000Y-48000000I250000J0D01*
G01*
G37*
G36*
G01*
X71325000Y-46100000D02*
X72275000Y-46100000D01*
G75*
G02*
X72525000Y-46350000I0J-250000D01*
G01*
X72525000Y-46850000D01*
G75*
G02*
X72275000Y-47100000I-250000J0D01*
G01*
X71325000Y-47100000D01*
G75*
G02*
X71075000Y-46850000I0J250000D01*
G01*
X71075000Y-46350000D01*
G75*
G02*
X71325000Y-46100000I250000J0D01*
G01*
G37*
%TD*%
%TO.C,C11*%
G36*
G01*
X96400000Y-71575000D02*
X96400000Y-70625000D01*
G75*
G02*
X96650000Y-70375000I250000J0D01*
G01*
X97150000Y-70375000D01*
G75*
G02*
X97400000Y-70625000I0J-250000D01*
G01*
X97400000Y-71575000D01*
G75*
G02*
X97150000Y-71825000I-250000J0D01*
G01*
X96650000Y-71825000D01*
G75*
G02*
X96400000Y-71575000I0J250000D01*
G01*
G37*
G36*
G01*
X94500000Y-71575000D02*
X94500000Y-70625000D01*
G75*
G02*
X94750000Y-70375000I250000J0D01*
G01*
X95250000Y-70375000D01*
G75*
G02*
X95500000Y-70625000I0J-250000D01*
G01*
X95500000Y-71575000D01*
G75*
G02*
X95250000Y-71825000I-250000J0D01*
G01*
X94750000Y-71825000D01*
G75*
G02*
X94500000Y-71575000I0J250000D01*
G01*
G37*
%TD*%
%TO.C,C10*%
G36*
G01*
X74525000Y-48000000D02*
X75475000Y-48000000D01*
G75*
G02*
X75725000Y-48250000I0J-250000D01*
G01*
X75725000Y-48750000D01*
G75*
G02*
X75475000Y-49000000I-250000J0D01*
G01*
X74525000Y-49000000D01*
G75*
G02*
X74275000Y-48750000I0J250000D01*
G01*
X74275000Y-48250000D01*
G75*
G02*
X74525000Y-48000000I250000J0D01*
G01*
G37*
G36*
G01*
X74525000Y-46100000D02*
X75475000Y-46100000D01*
G75*
G02*
X75725000Y-46350000I0J-250000D01*
G01*
X75725000Y-46850000D01*
G75*
G02*
X75475000Y-47100000I-250000J0D01*
G01*
X74525000Y-47100000D01*
G75*
G02*
X74275000Y-46850000I0J250000D01*
G01*
X74275000Y-46350000D01*
G75*
G02*
X74525000Y-46100000I250000J0D01*
G01*
G37*
%TD*%
%TO.C,C9*%
G36*
G01*
X100925000Y-77150000D02*
X101875000Y-77150000D01*
G75*
G02*
X102125000Y-77400000I0J-250000D01*
G01*
X102125000Y-77900000D01*
G75*
G02*
X101875000Y-78150000I-250000J0D01*
G01*
X100925000Y-78150000D01*
G75*
G02*
X100675000Y-77900000I0J250000D01*
G01*
X100675000Y-77400000D01*
G75*
G02*
X100925000Y-77150000I250000J0D01*
G01*
G37*
G36*
G01*
X100925000Y-75250000D02*
X101875000Y-75250000D01*
G75*
G02*
X102125000Y-75500000I0J-250000D01*
G01*
X102125000Y-76000000D01*
G75*
G02*
X101875000Y-76250000I-250000J0D01*
G01*
X100925000Y-76250000D01*
G75*
G02*
X100675000Y-76000000I0J250000D01*
G01*
X100675000Y-75500000D01*
G75*
G02*
X100925000Y-75250000I250000J0D01*
G01*
G37*
%TD*%
%TO.C,C7*%
G36*
G01*
X87300000Y-72675000D02*
X87300000Y-71725000D01*
G75*
G02*
X87550000Y-71475000I250000J0D01*
G01*
X88050000Y-71475000D01*
G75*
G02*
X88300000Y-71725000I0J-250000D01*
G01*
X88300000Y-72675000D01*
G75*
G02*
X88050000Y-72925000I-250000J0D01*
G01*
X87550000Y-72925000D01*
G75*
G02*
X87300000Y-72675000I0J250000D01*
G01*
G37*
G36*
G01*
X85400000Y-72675000D02*
X85400000Y-71725000D01*
G75*
G02*
X85650000Y-71475000I250000J0D01*
G01*
X86150000Y-71475000D01*
G75*
G02*
X86400000Y-71725000I0J-250000D01*
G01*
X86400000Y-72675000D01*
G75*
G02*
X86150000Y-72925000I-250000J0D01*
G01*
X85650000Y-72925000D01*
G75*
G02*
X85400000Y-72675000I0J250000D01*
G01*
G37*
%TD*%
%TO.C,C6*%
G36*
G01*
X69125000Y-86600000D02*
X70075000Y-86600000D01*
G75*
G02*
X70325000Y-86850000I0J-250000D01*
G01*
X70325000Y-87350000D01*
G75*
G02*
X70075000Y-87600000I-250000J0D01*
G01*
X69125000Y-87600000D01*
G75*
G02*
X68875000Y-87350000I0J250000D01*
G01*
X68875000Y-86850000D01*
G75*
G02*
X69125000Y-86600000I250000J0D01*
G01*
G37*
G36*
G01*
X69125000Y-84700000D02*
X70075000Y-84700000D01*
G75*
G02*
X70325000Y-84950000I0J-250000D01*
G01*
X70325000Y-85450000D01*
G75*
G02*
X70075000Y-85700000I-250000J0D01*
G01*
X69125000Y-85700000D01*
G75*
G02*
X68875000Y-85450000I0J250000D01*
G01*
X68875000Y-84950000D01*
G75*
G02*
X69125000Y-84700000I250000J0D01*
G01*
G37*
%TD*%
%TO.C,C5*%
G36*
G01*
X64925000Y-48000000D02*
X65875000Y-48000000D01*
G75*
G02*
X66125000Y-48250000I0J-250000D01*
G01*
X66125000Y-48750000D01*
G75*
G02*
X65875000Y-49000000I-250000J0D01*
G01*
X64925000Y-49000000D01*
G75*
G02*
X64675000Y-48750000I0J250000D01*
G01*
X64675000Y-48250000D01*
G75*
G02*
X64925000Y-48000000I250000J0D01*
G01*
G37*
G36*
G01*
X64925000Y-46100000D02*
X65875000Y-46100000D01*
G75*
G02*
X66125000Y-46350000I0J-250000D01*
G01*
X66125000Y-46850000D01*
G75*
G02*
X65875000Y-47100000I-250000J0D01*
G01*
X64925000Y-47100000D01*
G75*
G02*
X64675000Y-46850000I0J250000D01*
G01*
X64675000Y-46350000D01*
G75*
G02*
X64925000Y-46100000I250000J0D01*
G01*
G37*
%TD*%
%TO.C,C4*%
G36*
G01*
X68400000Y-57475000D02*
X68400000Y-56525000D01*
G75*
G02*
X68650000Y-56275000I250000J0D01*
G01*
X69150000Y-56275000D01*
G75*
G02*
X69400000Y-56525000I0J-250000D01*
G01*
X69400000Y-57475000D01*
G75*
G02*
X69150000Y-57725000I-250000J0D01*
G01*
X68650000Y-57725000D01*
G75*
G02*
X68400000Y-57475000I0J250000D01*
G01*
G37*
G36*
G01*
X66500000Y-57475000D02*
X66500000Y-56525000D01*
G75*
G02*
X66750000Y-56275000I250000J0D01*
G01*
X67250000Y-56275000D01*
G75*
G02*
X67500000Y-56525000I0J-250000D01*
G01*
X67500000Y-57475000D01*
G75*
G02*
X67250000Y-57725000I-250000J0D01*
G01*
X66750000Y-57725000D01*
G75*
G02*
X66500000Y-57475000I0J250000D01*
G01*
G37*
%TD*%
%TO.C,C3*%
G36*
G01*
X69000000Y-65975000D02*
X69000000Y-65025000D01*
G75*
G02*
X69250000Y-64775000I250000J0D01*
G01*
X69750000Y-64775000D01*
G75*
G02*
X70000000Y-65025000I0J-250000D01*
G01*
X70000000Y-65975000D01*
G75*
G02*
X69750000Y-66225000I-250000J0D01*
G01*
X69250000Y-66225000D01*
G75*
G02*
X69000000Y-65975000I0J250000D01*
G01*
G37*
G36*
G01*
X67100000Y-65975000D02*
X67100000Y-65025000D01*
G75*
G02*
X67350000Y-64775000I250000J0D01*
G01*
X67850000Y-64775000D01*
G75*
G02*
X68100000Y-65025000I0J-250000D01*
G01*
X68100000Y-65975000D01*
G75*
G02*
X67850000Y-66225000I-250000J0D01*
G01*
X67350000Y-66225000D01*
G75*
G02*
X67100000Y-65975000I0J250000D01*
G01*
G37*
%TD*%
%TO.C,C2*%
G36*
G01*
X93075000Y-85200000D02*
X92125000Y-85200000D01*
G75*
G02*
X91875000Y-84950000I0J250000D01*
G01*
X91875000Y-84450000D01*
G75*
G02*
X92125000Y-84200000I250000J0D01*
G01*
X93075000Y-84200000D01*
G75*
G02*
X93325000Y-84450000I0J-250000D01*
G01*
X93325000Y-84950000D01*
G75*
G02*
X93075000Y-85200000I-250000J0D01*
G01*
G37*
G36*
G01*
X93075000Y-87100000D02*
X92125000Y-87100000D01*
G75*
G02*
X91875000Y-86850000I0J250000D01*
G01*
X91875000Y-86350000D01*
G75*
G02*
X92125000Y-86100000I250000J0D01*
G01*
X93075000Y-86100000D01*
G75*
G02*
X93325000Y-86350000I0J-250000D01*
G01*
X93325000Y-86850000D01*
G75*
G02*
X93075000Y-87100000I-250000J0D01*
G01*
G37*
%TD*%
%TO.C,C1*%
G36*
G01*
X88075000Y-85200000D02*
X87125000Y-85200000D01*
G75*
G02*
X86875000Y-84950000I0J250000D01*
G01*
X86875000Y-84450000D01*
G75*
G02*
X87125000Y-84200000I250000J0D01*
G01*
X88075000Y-84200000D01*
G75*
G02*
X88325000Y-84450000I0J-250000D01*
G01*
X88325000Y-84950000D01*
G75*
G02*
X88075000Y-85200000I-250000J0D01*
G01*
G37*
G36*
G01*
X88075000Y-87100000D02*
X87125000Y-87100000D01*
G75*
G02*
X86875000Y-86850000I0J250000D01*
G01*
X86875000Y-86350000D01*
G75*
G02*
X87125000Y-86100000I250000J0D01*
G01*
X88075000Y-86100000D01*
G75*
G02*
X88325000Y-86350000I0J-250000D01*
G01*
X88325000Y-86850000D01*
G75*
G02*
X88075000Y-87100000I-250000J0D01*
G01*
G37*
%TD*%
M02*
