%TF.GenerationSoftware,KiCad,Pcbnew,(5.1.10)-1*%
%TF.CreationDate,2022-03-07T13:38:47+08:00*%
%TF.ProjectId,MAX7000-GPU,4d415837-3030-4302-9d47-50552e6b6963,rev?*%
%TF.SameCoordinates,Original*%
%TF.FileFunction,Legend,Top*%
%TF.FilePolarity,Positive*%
%FSLAX46Y46*%
G04 Gerber Fmt 4.6, Leading zero omitted, Abs format (unit mm)*
G04 Created by KiCad (PCBNEW (5.1.10)-1) date 2022-03-07 13:38:47*
%MOMM*%
%LPD*%
G01*
G04 APERTURE LIST*
%ADD10C,0.150000*%
%ADD11C,0.300000*%
%ADD12C,0.120000*%
G04 APERTURE END LIST*
D10*
X274554761Y-74280952D02*
X274602380Y-74138095D01*
X274602380Y-73900000D01*
X274554761Y-73804761D01*
X274507142Y-73757142D01*
X274411904Y-73709523D01*
X274316666Y-73709523D01*
X274221428Y-73757142D01*
X274173809Y-73804761D01*
X274126190Y-73900000D01*
X274078571Y-74090476D01*
X274030952Y-74185714D01*
X273983333Y-74233333D01*
X273888095Y-74280952D01*
X273792857Y-74280952D01*
X273697619Y-74233333D01*
X273650000Y-74185714D01*
X273602380Y-74090476D01*
X273602380Y-73852380D01*
X273650000Y-73709523D01*
X274602380Y-73138095D02*
X274554761Y-73233333D01*
X274459523Y-73280952D01*
X273602380Y-73280952D01*
X274602380Y-72328571D02*
X274078571Y-72328571D01*
X273983333Y-72376190D01*
X273935714Y-72471428D01*
X273935714Y-72661904D01*
X273983333Y-72757142D01*
X274554761Y-72328571D02*
X274602380Y-72423809D01*
X274602380Y-72661904D01*
X274554761Y-72757142D01*
X274459523Y-72804761D01*
X274364285Y-72804761D01*
X274269047Y-72757142D01*
X274221428Y-72661904D01*
X274221428Y-72423809D01*
X274173809Y-72328571D01*
X273935714Y-71947619D02*
X274602380Y-71709523D01*
X273935714Y-71471428D01*
X274554761Y-70709523D02*
X274602380Y-70804761D01*
X274602380Y-70995238D01*
X274554761Y-71090476D01*
X274459523Y-71138095D01*
X274078571Y-71138095D01*
X273983333Y-71090476D01*
X273935714Y-70995238D01*
X273935714Y-70804761D01*
X273983333Y-70709523D01*
X274078571Y-70661904D01*
X274173809Y-70661904D01*
X274269047Y-71138095D01*
X273602380Y-69185714D02*
X274316666Y-69185714D01*
X274459523Y-69233333D01*
X274554761Y-69328571D01*
X274602380Y-69471428D01*
X274602380Y-69566666D01*
X273602380Y-68852380D02*
X273602380Y-68280952D01*
X274602380Y-68566666D02*
X273602380Y-68566666D01*
X274316666Y-67995238D02*
X274316666Y-67519047D01*
X274602380Y-68090476D02*
X273602380Y-67757142D01*
X274602380Y-67423809D01*
X273650000Y-66566666D02*
X273602380Y-66661904D01*
X273602380Y-66804761D01*
X273650000Y-66947619D01*
X273745238Y-67042857D01*
X273840476Y-67090476D01*
X274030952Y-67138095D01*
X274173809Y-67138095D01*
X274364285Y-67090476D01*
X274459523Y-67042857D01*
X274554761Y-66947619D01*
X274602380Y-66804761D01*
X274602380Y-66709523D01*
X274554761Y-66566666D01*
X274507142Y-66519047D01*
X274173809Y-66519047D01*
X274173809Y-66709523D01*
X206438095Y-58502380D02*
X206104761Y-58026190D01*
X205866666Y-58502380D02*
X205866666Y-57502380D01*
X206247619Y-57502380D01*
X206342857Y-57550000D01*
X206390476Y-57597619D01*
X206438095Y-57692857D01*
X206438095Y-57835714D01*
X206390476Y-57930952D01*
X206342857Y-57978571D01*
X206247619Y-58026190D01*
X205866666Y-58026190D01*
X207295238Y-58502380D02*
X207295238Y-57978571D01*
X207247619Y-57883333D01*
X207152380Y-57835714D01*
X206961904Y-57835714D01*
X206866666Y-57883333D01*
X207295238Y-58454761D02*
X207200000Y-58502380D01*
X206961904Y-58502380D01*
X206866666Y-58454761D01*
X206819047Y-58359523D01*
X206819047Y-58264285D01*
X206866666Y-58169047D01*
X206961904Y-58121428D01*
X207200000Y-58121428D01*
X207295238Y-58073809D01*
X207771428Y-57835714D02*
X207771428Y-58835714D01*
X207771428Y-57883333D02*
X207866666Y-57835714D01*
X208057142Y-57835714D01*
X208152380Y-57883333D01*
X208200000Y-57930952D01*
X208247619Y-58026190D01*
X208247619Y-58311904D01*
X208200000Y-58407142D01*
X208152380Y-58454761D01*
X208057142Y-58502380D01*
X207866666Y-58502380D01*
X207771428Y-58454761D01*
X208676190Y-58502380D02*
X208676190Y-57835714D01*
X208676190Y-57502380D02*
X208628571Y-57550000D01*
X208676190Y-57597619D01*
X208723809Y-57550000D01*
X208676190Y-57502380D01*
X208676190Y-57597619D01*
X209580952Y-58502380D02*
X209580952Y-57502380D01*
X209580952Y-58454761D02*
X209485714Y-58502380D01*
X209295238Y-58502380D01*
X209200000Y-58454761D01*
X209152380Y-58407142D01*
X209104761Y-58311904D01*
X209104761Y-58026190D01*
X209152380Y-57930952D01*
X209200000Y-57883333D01*
X209295238Y-57835714D01*
X209485714Y-57835714D01*
X209580952Y-57883333D01*
X210390476Y-57978571D02*
X210533333Y-58026190D01*
X210580952Y-58073809D01*
X210628571Y-58169047D01*
X210628571Y-58311904D01*
X210580952Y-58407142D01*
X210533333Y-58454761D01*
X210438095Y-58502380D01*
X210057142Y-58502380D01*
X210057142Y-57502380D01*
X210390476Y-57502380D01*
X210485714Y-57550000D01*
X210533333Y-57597619D01*
X210580952Y-57692857D01*
X210580952Y-57788095D01*
X210533333Y-57883333D01*
X210485714Y-57930952D01*
X210390476Y-57978571D01*
X210057142Y-57978571D01*
X211200000Y-58502380D02*
X211104761Y-58454761D01*
X211057142Y-58407142D01*
X211009523Y-58311904D01*
X211009523Y-58026190D01*
X211057142Y-57930952D01*
X211104761Y-57883333D01*
X211200000Y-57835714D01*
X211342857Y-57835714D01*
X211438095Y-57883333D01*
X211485714Y-57930952D01*
X211533333Y-58026190D01*
X211533333Y-58311904D01*
X211485714Y-58407142D01*
X211438095Y-58454761D01*
X211342857Y-58502380D01*
X211200000Y-58502380D01*
X212104761Y-58502380D02*
X212009523Y-58454761D01*
X211961904Y-58407142D01*
X211914285Y-58311904D01*
X211914285Y-58026190D01*
X211961904Y-57930952D01*
X212009523Y-57883333D01*
X212104761Y-57835714D01*
X212247619Y-57835714D01*
X212342857Y-57883333D01*
X212390476Y-57930952D01*
X212438095Y-58026190D01*
X212438095Y-58311904D01*
X212390476Y-58407142D01*
X212342857Y-58454761D01*
X212247619Y-58502380D01*
X212104761Y-58502380D01*
X212723809Y-57835714D02*
X213104761Y-57835714D01*
X212866666Y-57502380D02*
X212866666Y-58359523D01*
X212914285Y-58454761D01*
X213009523Y-58502380D01*
X213104761Y-58502380D01*
X214390476Y-57502380D02*
X214580952Y-57502380D01*
X214676190Y-57550000D01*
X214771428Y-57645238D01*
X214819047Y-57835714D01*
X214819047Y-58169047D01*
X214771428Y-58359523D01*
X214676190Y-58454761D01*
X214580952Y-58502380D01*
X214390476Y-58502380D01*
X214295238Y-58454761D01*
X214200000Y-58359523D01*
X214152380Y-58169047D01*
X214152380Y-57835714D01*
X214200000Y-57645238D01*
X214295238Y-57550000D01*
X214390476Y-57502380D01*
X215200000Y-58454761D02*
X215342857Y-58502380D01*
X215580952Y-58502380D01*
X215676190Y-58454761D01*
X215723809Y-58407142D01*
X215771428Y-58311904D01*
X215771428Y-58216666D01*
X215723809Y-58121428D01*
X215676190Y-58073809D01*
X215580952Y-58026190D01*
X215390476Y-57978571D01*
X215295238Y-57930952D01*
X215247619Y-57883333D01*
X215200000Y-57788095D01*
X215200000Y-57692857D01*
X215247619Y-57597619D01*
X215295238Y-57550000D01*
X215390476Y-57502380D01*
X215628571Y-57502380D01*
X215771428Y-57550000D01*
X216961904Y-58502380D02*
X216961904Y-57502380D01*
X217438095Y-57835714D02*
X217438095Y-58502380D01*
X217438095Y-57930952D02*
X217485714Y-57883333D01*
X217580952Y-57835714D01*
X217723809Y-57835714D01*
X217819047Y-57883333D01*
X217866666Y-57978571D01*
X217866666Y-58502380D01*
X218771428Y-58454761D02*
X218676190Y-58502380D01*
X218485714Y-58502380D01*
X218390476Y-58454761D01*
X218342857Y-58407142D01*
X218295238Y-58311904D01*
X218295238Y-58026190D01*
X218342857Y-57930952D01*
X218390476Y-57883333D01*
X218485714Y-57835714D01*
X218676190Y-57835714D01*
X218771428Y-57883333D01*
X219628571Y-57835714D02*
X219628571Y-58502380D01*
X219200000Y-57835714D02*
X219200000Y-58359523D01*
X219247619Y-58454761D01*
X219342857Y-58502380D01*
X219485714Y-58502380D01*
X219580952Y-58454761D01*
X219628571Y-58407142D01*
X220104761Y-58502380D02*
X220104761Y-57502380D01*
X220104761Y-57883333D02*
X220200000Y-57835714D01*
X220390476Y-57835714D01*
X220485714Y-57883333D01*
X220533333Y-57930952D01*
X220580952Y-58026190D01*
X220580952Y-58311904D01*
X220533333Y-58407142D01*
X220485714Y-58454761D01*
X220390476Y-58502380D01*
X220200000Y-58502380D01*
X220104761Y-58454761D01*
X221438095Y-58502380D02*
X221438095Y-57978571D01*
X221390476Y-57883333D01*
X221295238Y-57835714D01*
X221104761Y-57835714D01*
X221009523Y-57883333D01*
X221438095Y-58454761D02*
X221342857Y-58502380D01*
X221104761Y-58502380D01*
X221009523Y-58454761D01*
X220961904Y-58359523D01*
X220961904Y-58264285D01*
X221009523Y-58169047D01*
X221104761Y-58121428D01*
X221342857Y-58121428D01*
X221438095Y-58073809D01*
X221771428Y-57835714D02*
X222152380Y-57835714D01*
X221914285Y-57502380D02*
X221914285Y-58359523D01*
X221961904Y-58454761D01*
X222057142Y-58502380D01*
X222152380Y-58502380D01*
X222628571Y-58502380D02*
X222533333Y-58454761D01*
X222485714Y-58407142D01*
X222438095Y-58311904D01*
X222438095Y-58026190D01*
X222485714Y-57930952D01*
X222533333Y-57883333D01*
X222628571Y-57835714D01*
X222771428Y-57835714D01*
X222866666Y-57883333D01*
X222914285Y-57930952D01*
X222961904Y-58026190D01*
X222961904Y-58311904D01*
X222914285Y-58407142D01*
X222866666Y-58454761D01*
X222771428Y-58502380D01*
X222628571Y-58502380D01*
X223390476Y-58502380D02*
X223390476Y-57835714D01*
X223390476Y-58026190D02*
X223438095Y-57930952D01*
X223485714Y-57883333D01*
X223580952Y-57835714D01*
X223676190Y-57835714D01*
X230491666Y-100354761D02*
X230634523Y-100402380D01*
X230872619Y-100402380D01*
X230967857Y-100354761D01*
X231015476Y-100307142D01*
X231063095Y-100211904D01*
X231063095Y-100116666D01*
X231015476Y-100021428D01*
X230967857Y-99973809D01*
X230872619Y-99926190D01*
X230682142Y-99878571D01*
X230586904Y-99830952D01*
X230539285Y-99783333D01*
X230491666Y-99688095D01*
X230491666Y-99592857D01*
X230539285Y-99497619D01*
X230586904Y-99450000D01*
X230682142Y-99402380D01*
X230920238Y-99402380D01*
X231063095Y-99450000D01*
X231872619Y-100354761D02*
X231777380Y-100402380D01*
X231586904Y-100402380D01*
X231491666Y-100354761D01*
X231444047Y-100259523D01*
X231444047Y-99878571D01*
X231491666Y-99783333D01*
X231586904Y-99735714D01*
X231777380Y-99735714D01*
X231872619Y-99783333D01*
X231920238Y-99878571D01*
X231920238Y-99973809D01*
X231444047Y-100069047D01*
X232348809Y-100402380D02*
X232348809Y-99735714D01*
X232348809Y-99926190D02*
X232396428Y-99830952D01*
X232444047Y-99783333D01*
X232539285Y-99735714D01*
X232634523Y-99735714D01*
X232967857Y-99735714D02*
X232967857Y-100735714D01*
X232967857Y-99783333D02*
X233063095Y-99735714D01*
X233253571Y-99735714D01*
X233348809Y-99783333D01*
X233396428Y-99830952D01*
X233444047Y-99926190D01*
X233444047Y-100211904D01*
X233396428Y-100307142D01*
X233348809Y-100354761D01*
X233253571Y-100402380D01*
X233063095Y-100402380D01*
X232967857Y-100354761D01*
X234253571Y-100354761D02*
X234158333Y-100402380D01*
X233967857Y-100402380D01*
X233872619Y-100354761D01*
X233825000Y-100259523D01*
X233825000Y-99878571D01*
X233872619Y-99783333D01*
X233967857Y-99735714D01*
X234158333Y-99735714D01*
X234253571Y-99783333D01*
X234301190Y-99878571D01*
X234301190Y-99973809D01*
X233825000Y-100069047D01*
X234729761Y-99735714D02*
X234729761Y-100402380D01*
X234729761Y-99830952D02*
X234777380Y-99783333D01*
X234872619Y-99735714D01*
X235015476Y-99735714D01*
X235110714Y-99783333D01*
X235158333Y-99878571D01*
X235158333Y-100402380D01*
X235491666Y-99735714D02*
X235872619Y-99735714D01*
X235634523Y-99402380D02*
X235634523Y-100259523D01*
X235682142Y-100354761D01*
X235777380Y-100402380D01*
X235872619Y-100402380D01*
X236967857Y-100402380D02*
X236967857Y-99402380D01*
X237348809Y-99402380D01*
X237444047Y-99450000D01*
X237491666Y-99497619D01*
X237539285Y-99592857D01*
X237539285Y-99735714D01*
X237491666Y-99830952D01*
X237444047Y-99878571D01*
X237348809Y-99926190D01*
X236967857Y-99926190D01*
X237967857Y-100402380D02*
X237967857Y-99735714D01*
X237967857Y-99402380D02*
X237920238Y-99450000D01*
X237967857Y-99497619D01*
X238015476Y-99450000D01*
X237967857Y-99402380D01*
X237967857Y-99497619D01*
X238586904Y-100402380D02*
X238491666Y-100354761D01*
X238444047Y-100307142D01*
X238396428Y-100211904D01*
X238396428Y-99926190D01*
X238444047Y-99830952D01*
X238491666Y-99783333D01*
X238586904Y-99735714D01*
X238729761Y-99735714D01*
X238825000Y-99783333D01*
X238872619Y-99830952D01*
X238920238Y-99926190D01*
X238920238Y-100211904D01*
X238872619Y-100307142D01*
X238825000Y-100354761D01*
X238729761Y-100402380D01*
X238586904Y-100402380D01*
X239348809Y-99735714D02*
X239348809Y-100402380D01*
X239348809Y-99830952D02*
X239396428Y-99783333D01*
X239491666Y-99735714D01*
X239634523Y-99735714D01*
X239729761Y-99783333D01*
X239777380Y-99878571D01*
X239777380Y-100402380D01*
X240634523Y-100354761D02*
X240539285Y-100402380D01*
X240348809Y-100402380D01*
X240253571Y-100354761D01*
X240205952Y-100259523D01*
X240205952Y-99878571D01*
X240253571Y-99783333D01*
X240348809Y-99735714D01*
X240539285Y-99735714D01*
X240634523Y-99783333D01*
X240682142Y-99878571D01*
X240682142Y-99973809D01*
X240205952Y-100069047D01*
X241491666Y-100354761D02*
X241396428Y-100402380D01*
X241205952Y-100402380D01*
X241110714Y-100354761D01*
X241063095Y-100259523D01*
X241063095Y-99878571D01*
X241110714Y-99783333D01*
X241205952Y-99735714D01*
X241396428Y-99735714D01*
X241491666Y-99783333D01*
X241539285Y-99878571D01*
X241539285Y-99973809D01*
X241063095Y-100069047D01*
X241967857Y-100402380D02*
X241967857Y-99735714D01*
X241967857Y-99926190D02*
X242015476Y-99830952D01*
X242063095Y-99783333D01*
X242158333Y-99735714D01*
X242253571Y-99735714D01*
X272073809Y-59527380D02*
X272073809Y-58527380D01*
X272311904Y-58527380D01*
X272454761Y-58575000D01*
X272550000Y-58670238D01*
X272597619Y-58765476D01*
X272645238Y-58955952D01*
X272645238Y-59098809D01*
X272597619Y-59289285D01*
X272550000Y-59384523D01*
X272454761Y-59479761D01*
X272311904Y-59527380D01*
X272073809Y-59527380D01*
X273026190Y-59479761D02*
X273169047Y-59527380D01*
X273407142Y-59527380D01*
X273502380Y-59479761D01*
X273550000Y-59432142D01*
X273597619Y-59336904D01*
X273597619Y-59241666D01*
X273550000Y-59146428D01*
X273502380Y-59098809D01*
X273407142Y-59051190D01*
X273216666Y-59003571D01*
X273121428Y-58955952D01*
X273073809Y-58908333D01*
X273026190Y-58813095D01*
X273026190Y-58717857D01*
X273073809Y-58622619D01*
X273121428Y-58575000D01*
X273216666Y-58527380D01*
X273454761Y-58527380D01*
X273597619Y-58575000D01*
X274026190Y-59527380D02*
X274026190Y-58527380D01*
X272175000Y-57002380D02*
X272175000Y-56002380D01*
X272413095Y-56002380D01*
X272555952Y-56050000D01*
X272651190Y-56145238D01*
X272698809Y-56240476D01*
X272746428Y-56430952D01*
X272746428Y-56573809D01*
X272698809Y-56764285D01*
X272651190Y-56859523D01*
X272555952Y-56954761D01*
X272413095Y-57002380D01*
X272175000Y-57002380D01*
X273175000Y-57002380D02*
X273175000Y-56002380D01*
X273413095Y-56002380D01*
X273555952Y-56050000D01*
X273651190Y-56145238D01*
X273698809Y-56240476D01*
X273746428Y-56430952D01*
X273746428Y-56573809D01*
X273698809Y-56764285D01*
X273651190Y-56859523D01*
X273555952Y-56954761D01*
X273413095Y-57002380D01*
X273175000Y-57002380D01*
X274175000Y-57002380D02*
X274175000Y-56002380D01*
X271888095Y-54402380D02*
X271888095Y-53402380D01*
X272126190Y-53402380D01*
X272269047Y-53450000D01*
X272364285Y-53545238D01*
X272411904Y-53640476D01*
X272459523Y-53830952D01*
X272459523Y-53973809D01*
X272411904Y-54164285D01*
X272364285Y-54259523D01*
X272269047Y-54354761D01*
X272126190Y-54402380D01*
X271888095Y-54402380D01*
X273459523Y-54307142D02*
X273411904Y-54354761D01*
X273269047Y-54402380D01*
X273173809Y-54402380D01*
X273030952Y-54354761D01*
X272935714Y-54259523D01*
X272888095Y-54164285D01*
X272840476Y-53973809D01*
X272840476Y-53830952D01*
X272888095Y-53640476D01*
X272935714Y-53545238D01*
X273030952Y-53450000D01*
X273173809Y-53402380D01*
X273269047Y-53402380D01*
X273411904Y-53450000D01*
X273459523Y-53497619D01*
X273888095Y-54402380D02*
X273888095Y-53402380D01*
X274459523Y-54402380D02*
X274030952Y-53830952D01*
X274459523Y-53402380D02*
X273888095Y-53973809D01*
X274983333Y-78052380D02*
X274983333Y-78766666D01*
X274935714Y-78909523D01*
X274840476Y-79004761D01*
X274697619Y-79052380D01*
X274602380Y-79052380D01*
X275316666Y-78052380D02*
X275888095Y-78052380D01*
X275602380Y-79052380D02*
X275602380Y-78052380D01*
X276173809Y-78766666D02*
X276650000Y-78766666D01*
X276078571Y-79052380D02*
X276411904Y-78052380D01*
X276745238Y-79052380D01*
X277602380Y-78100000D02*
X277507142Y-78052380D01*
X277364285Y-78052380D01*
X277221428Y-78100000D01*
X277126190Y-78195238D01*
X277078571Y-78290476D01*
X277030952Y-78480952D01*
X277030952Y-78623809D01*
X277078571Y-78814285D01*
X277126190Y-78909523D01*
X277221428Y-79004761D01*
X277364285Y-79052380D01*
X277459523Y-79052380D01*
X277602380Y-79004761D01*
X277650000Y-78957142D01*
X277650000Y-78623809D01*
X277459523Y-78623809D01*
D11*
X254157142Y-112275000D02*
X254014285Y-112203571D01*
X253800000Y-112203571D01*
X253585714Y-112275000D01*
X253442857Y-112417857D01*
X253371428Y-112560714D01*
X253300000Y-112846428D01*
X253300000Y-113060714D01*
X253371428Y-113346428D01*
X253442857Y-113489285D01*
X253585714Y-113632142D01*
X253800000Y-113703571D01*
X253942857Y-113703571D01*
X254157142Y-113632142D01*
X254228571Y-113560714D01*
X254228571Y-113060714D01*
X253942857Y-113060714D01*
X254871428Y-113703571D02*
X254871428Y-112203571D01*
X255728571Y-113703571D01*
X255728571Y-112203571D01*
X256442857Y-113703571D02*
X256442857Y-112203571D01*
X256800000Y-112203571D01*
X257014285Y-112275000D01*
X257157142Y-112417857D01*
X257228571Y-112560714D01*
X257300000Y-112846428D01*
X257300000Y-113060714D01*
X257228571Y-113346428D01*
X257157142Y-113489285D01*
X257014285Y-113632142D01*
X256800000Y-113703571D01*
X256442857Y-113703571D01*
X235696428Y-113107142D02*
X236839285Y-113107142D01*
X236267857Y-113678571D02*
X236267857Y-112535714D01*
X238267857Y-112178571D02*
X237553571Y-112178571D01*
X237482142Y-112892857D01*
X237553571Y-112821428D01*
X237696428Y-112750000D01*
X238053571Y-112750000D01*
X238196428Y-112821428D01*
X238267857Y-112892857D01*
X238339285Y-113035714D01*
X238339285Y-113392857D01*
X238267857Y-113535714D01*
X238196428Y-113607142D01*
X238053571Y-113678571D01*
X237696428Y-113678571D01*
X237553571Y-113607142D01*
X237482142Y-113535714D01*
X238767857Y-112178571D02*
X239267857Y-113678571D01*
X239767857Y-112178571D01*
D12*
%TO.C,J10*%
X278705000Y-92580000D02*
X277375000Y-92580000D01*
X278705000Y-91250000D02*
X278705000Y-92580000D01*
X276105000Y-92580000D02*
X273505000Y-92580000D01*
X276105000Y-89980000D02*
X276105000Y-92580000D01*
X278705000Y-89980000D02*
X276105000Y-89980000D01*
X273505000Y-92580000D02*
X273505000Y-79760000D01*
X278705000Y-89980000D02*
X278705000Y-79760000D01*
X278705000Y-79760000D02*
X273505000Y-79760000D01*
%TO.C,J3*%
X275170000Y-66270000D02*
X277830000Y-66270000D01*
X275170000Y-66270000D02*
X275170000Y-76490000D01*
X275170000Y-76490000D02*
X277830000Y-76490000D01*
X277830000Y-66270000D02*
X277830000Y-76490000D01*
X277830000Y-63670000D02*
X277830000Y-65000000D01*
X276500000Y-63670000D02*
X277830000Y-63670000D01*
%TO.C,Y1*%
X239065000Y-106525000D02*
X232815000Y-106525000D01*
X239065000Y-101475000D02*
X232815000Y-101475000D01*
X232815000Y-101475000D02*
G75*
G03*
X232815000Y-106525000I0J-2525000D01*
G01*
X239065000Y-101475000D02*
G75*
G02*
X239065000Y-106525000I0J-2525000D01*
G01*
%TO.C,U10*%
X182230000Y-71120000D02*
X182230000Y-60880000D01*
X186871000Y-71120000D02*
X186871000Y-60880000D01*
X182230000Y-71120000D02*
X186871000Y-71120000D01*
X182230000Y-60880000D02*
X186871000Y-60880000D01*
X183740000Y-71120000D02*
X183740000Y-60880000D01*
X182230000Y-67850000D02*
X183740000Y-67850000D01*
X182230000Y-64149000D02*
X183740000Y-64149000D01*
%TO.C,U9*%
X226310000Y-60170000D02*
X224660000Y-60170000D01*
X224660000Y-60170000D02*
X224660000Y-70450000D01*
X224660000Y-70450000D02*
X229960000Y-70450000D01*
X229960000Y-70450000D02*
X229960000Y-60170000D01*
X229960000Y-60170000D02*
X228310000Y-60170000D01*
X228310000Y-60170000D02*
G75*
G02*
X226310000Y-60170000I-1000000J0D01*
G01*
%TO.C,U8*%
X261670000Y-67190000D02*
X261670000Y-68840000D01*
X261670000Y-68840000D02*
X271950000Y-68840000D01*
X271950000Y-68840000D02*
X271950000Y-63540000D01*
X271950000Y-63540000D02*
X261670000Y-63540000D01*
X261670000Y-63540000D02*
X261670000Y-65190000D01*
X261670000Y-65190000D02*
G75*
G02*
X261670000Y-67190000I0J-1000000D01*
G01*
%TO.C,U7*%
X213310000Y-60170000D02*
X211660000Y-60170000D01*
X211660000Y-60170000D02*
X211660000Y-70450000D01*
X211660000Y-70450000D02*
X216960000Y-70450000D01*
X216960000Y-70450000D02*
X216960000Y-60170000D01*
X216960000Y-60170000D02*
X215310000Y-60170000D01*
X215310000Y-60170000D02*
G75*
G02*
X213310000Y-60170000I-1000000J0D01*
G01*
%TO.C,U6*%
X200310000Y-60170000D02*
X198660000Y-60170000D01*
X198660000Y-60170000D02*
X198660000Y-70450000D01*
X198660000Y-70450000D02*
X203960000Y-70450000D01*
X203960000Y-70450000D02*
X203960000Y-60170000D01*
X203960000Y-60170000D02*
X202310000Y-60170000D01*
X202310000Y-60170000D02*
G75*
G02*
X200310000Y-60170000I-1000000J0D01*
G01*
%TO.C,U5*%
X248670000Y-63540000D02*
X248670000Y-65190000D01*
X258950000Y-63540000D02*
X248670000Y-63540000D01*
X258950000Y-68840000D02*
X258950000Y-63540000D01*
X248670000Y-68840000D02*
X258950000Y-68840000D01*
X248670000Y-67190000D02*
X248670000Y-68840000D01*
X248670000Y-65190000D02*
G75*
G02*
X248670000Y-67190000I0J-1000000D01*
G01*
%TO.C,U4*%
X230170000Y-86880000D02*
X230170000Y-92340000D01*
X230170000Y-92340000D02*
X270930000Y-92340000D01*
X270930000Y-92340000D02*
X270930000Y-79420000D01*
X270930000Y-79420000D02*
X230170000Y-79420000D01*
X230170000Y-79420000D02*
X230170000Y-84880000D01*
X230170000Y-84880000D02*
G75*
G02*
X230170000Y-86880000I0J-1000000D01*
G01*
%TO.C,U3*%
X235670000Y-67190000D02*
X235670000Y-68840000D01*
X235670000Y-68840000D02*
X245950000Y-68840000D01*
X245950000Y-68840000D02*
X245950000Y-63540000D01*
X245950000Y-63540000D02*
X235670000Y-63540000D01*
X235670000Y-63540000D02*
X235670000Y-65190000D01*
X235670000Y-65190000D02*
G75*
G02*
X235670000Y-67190000I0J-1000000D01*
G01*
%TO.C,U2*%
X245170000Y-102690000D02*
X245170000Y-104340000D01*
X245170000Y-104340000D02*
X263070000Y-104340000D01*
X263070000Y-104340000D02*
X263070000Y-99040000D01*
X263070000Y-99040000D02*
X245170000Y-99040000D01*
X245170000Y-99040000D02*
X245170000Y-100690000D01*
X245170000Y-100690000D02*
G75*
G02*
X245170000Y-102690000I0J-1000000D01*
G01*
%TO.C,U1*%
X207740000Y-76690000D02*
X191615000Y-76690000D01*
X191615000Y-76690000D02*
X190615000Y-77690000D01*
X190615000Y-77690000D02*
X190615000Y-112910000D01*
X190615000Y-112910000D02*
X226865000Y-112910000D01*
X226865000Y-112910000D02*
X226865000Y-76690000D01*
X226865000Y-76690000D02*
X209740000Y-76690000D01*
%TO.C,SW3*%
X263825000Y-59025000D02*
X268325000Y-59025000D01*
X262575000Y-55025000D02*
X262575000Y-56525000D01*
X268325000Y-52525000D02*
X263825000Y-52525000D01*
X269575000Y-56525000D02*
X269575000Y-55025000D01*
%TO.C,SW2*%
X250975000Y-59025000D02*
X255475000Y-59025000D01*
X249725000Y-55025000D02*
X249725000Y-56525000D01*
X255475000Y-52525000D02*
X250975000Y-52525000D01*
X256725000Y-56525000D02*
X256725000Y-55025000D01*
%TO.C,SW1*%
X238000000Y-59000000D02*
X242500000Y-59000000D01*
X236750000Y-55000000D02*
X236750000Y-56500000D01*
X242500000Y-52500000D02*
X238000000Y-52500000D01*
X243750000Y-56500000D02*
X243750000Y-55000000D01*
%TO.C,R4*%
X240672936Y-97465000D02*
X241127064Y-97465000D01*
X240672936Y-98935000D02*
X241127064Y-98935000D01*
%TO.C,J9*%
X252770000Y-111830000D02*
X252770000Y-109170000D01*
X252770000Y-111830000D02*
X260450000Y-111830000D01*
X260450000Y-111830000D02*
X260450000Y-109170000D01*
X252770000Y-109170000D02*
X260450000Y-109170000D01*
X250170000Y-109170000D02*
X251500000Y-109170000D01*
X250170000Y-110500000D02*
X250170000Y-109170000D01*
%TO.C,J8*%
X232770000Y-75330000D02*
X232770000Y-72670000D01*
X232770000Y-75330000D02*
X270930000Y-75330000D01*
X270930000Y-75330000D02*
X270930000Y-72670000D01*
X232770000Y-72670000D02*
X270930000Y-72670000D01*
X230170000Y-72670000D02*
X231500000Y-72670000D01*
X230170000Y-74000000D02*
X230170000Y-72670000D01*
%TO.C,J7*%
X221730000Y-72670000D02*
X221730000Y-75330000D01*
X221730000Y-72670000D02*
X183570000Y-72670000D01*
X183570000Y-72670000D02*
X183570000Y-75330000D01*
X221730000Y-75330000D02*
X183570000Y-75330000D01*
X224330000Y-75330000D02*
X223000000Y-75330000D01*
X224330000Y-74000000D02*
X224330000Y-75330000D01*
%TO.C,J6*%
X275170000Y-55270000D02*
X277830000Y-55270000D01*
X275170000Y-55270000D02*
X275170000Y-60410000D01*
X275170000Y-60410000D02*
X277830000Y-60410000D01*
X277830000Y-55270000D02*
X277830000Y-60410000D01*
X277830000Y-52670000D02*
X277830000Y-54000000D01*
X276500000Y-52670000D02*
X277830000Y-52670000D01*
%TO.C,J5*%
X180120000Y-79135000D02*
X188720000Y-79135000D01*
X188720000Y-79135000D02*
X188720000Y-110105000D01*
X188720000Y-110105000D02*
X180120000Y-110105000D01*
X189614338Y-98685000D02*
X189614338Y-99185000D01*
X189614338Y-99185000D02*
X189181325Y-98935000D01*
X189181325Y-98935000D02*
X189614338Y-98685000D01*
%TO.C,J4*%
X188900000Y-59600000D02*
X180400000Y-59600000D01*
X180400000Y-59600000D02*
X180400000Y-50400000D01*
X180400000Y-50400000D02*
X195100000Y-50400000D01*
X195100000Y-57500000D02*
X195100000Y-59600000D01*
X195100000Y-59600000D02*
X193300000Y-59600000D01*
X195400000Y-51800000D02*
X195400000Y-50100000D01*
X195400000Y-50100000D02*
X193800000Y-50100000D01*
X195100000Y-50400000D02*
X195100000Y-52500000D01*
%TO.C,J2*%
X235770000Y-111830000D02*
X235770000Y-109170000D01*
X235770000Y-111830000D02*
X243450000Y-111830000D01*
X243450000Y-111830000D02*
X243450000Y-109170000D01*
X235770000Y-109170000D02*
X243450000Y-109170000D01*
X233170000Y-109170000D02*
X234500000Y-109170000D01*
X233170000Y-110500000D02*
X233170000Y-109170000D01*
%TO.C,J1*%
X266400000Y-97200000D02*
X279400000Y-97200000D01*
X266400000Y-113400000D02*
X279400000Y-113400000D01*
X266400000Y-113400000D02*
X266400000Y-97200000D01*
X279400000Y-113400000D02*
X279400000Y-97200000D01*
%TO.C,D8*%
X227860000Y-55400000D02*
X227860000Y-52715000D01*
X227860000Y-52715000D02*
X225940000Y-52715000D01*
X225940000Y-52715000D02*
X225940000Y-55400000D01*
%TO.C,D7*%
X224360000Y-55400000D02*
X224360000Y-52715000D01*
X224360000Y-52715000D02*
X222440000Y-52715000D01*
X222440000Y-52715000D02*
X222440000Y-55400000D01*
%TO.C,D6*%
X220860000Y-55400000D02*
X220860000Y-52715000D01*
X220860000Y-52715000D02*
X218940000Y-52715000D01*
X218940000Y-52715000D02*
X218940000Y-55400000D01*
%TO.C,D5*%
X217360000Y-55400000D02*
X217360000Y-52715000D01*
X217360000Y-52715000D02*
X215440000Y-52715000D01*
X215440000Y-52715000D02*
X215440000Y-55400000D01*
%TO.C,D4*%
X213860000Y-55400000D02*
X213860000Y-52715000D01*
X213860000Y-52715000D02*
X211940000Y-52715000D01*
X211940000Y-52715000D02*
X211940000Y-55400000D01*
%TO.C,D3*%
X210360000Y-55400000D02*
X210360000Y-52715000D01*
X210360000Y-52715000D02*
X208440000Y-52715000D01*
X208440000Y-52715000D02*
X208440000Y-55400000D01*
%TO.C,D2*%
X206860000Y-55400000D02*
X206860000Y-52715000D01*
X206860000Y-52715000D02*
X204940000Y-52715000D01*
X204940000Y-52715000D02*
X204940000Y-55400000D01*
%TO.C,D1*%
X203360000Y-55462500D02*
X203360000Y-52777500D01*
X203360000Y-52777500D02*
X201440000Y-52777500D01*
X201440000Y-52777500D02*
X201440000Y-55462500D01*
%TO.C,C25*%
X190838748Y-63065000D02*
X191361252Y-63065000D01*
X190838748Y-64535000D02*
X191361252Y-64535000D01*
%TO.C,C24*%
X190938748Y-67865000D02*
X191461252Y-67865000D01*
X190938748Y-69335000D02*
X191461252Y-69335000D01*
%TO.C,J10*%
D10*
X275295476Y-93032380D02*
X275295476Y-93746666D01*
X275247857Y-93889523D01*
X275152619Y-93984761D01*
X275009761Y-94032380D01*
X274914523Y-94032380D01*
X276295476Y-94032380D02*
X275724047Y-94032380D01*
X276009761Y-94032380D02*
X276009761Y-93032380D01*
X275914523Y-93175238D01*
X275819285Y-93270476D01*
X275724047Y-93318095D01*
X276914523Y-93032380D02*
X277009761Y-93032380D01*
X277105000Y-93080000D01*
X277152619Y-93127619D01*
X277200238Y-93222857D01*
X277247857Y-93413333D01*
X277247857Y-93651428D01*
X277200238Y-93841904D01*
X277152619Y-93937142D01*
X277105000Y-93984761D01*
X277009761Y-94032380D01*
X276914523Y-94032380D01*
X276819285Y-93984761D01*
X276771666Y-93937142D01*
X276724047Y-93841904D01*
X276676428Y-93651428D01*
X276676428Y-93413333D01*
X276724047Y-93222857D01*
X276771666Y-93127619D01*
X276819285Y-93080000D01*
X276914523Y-93032380D01*
%TO.C,J3*%
X276091666Y-61952380D02*
X276091666Y-62666666D01*
X276044047Y-62809523D01*
X275948809Y-62904761D01*
X275805952Y-62952380D01*
X275710714Y-62952380D01*
X276472619Y-61952380D02*
X277091666Y-61952380D01*
X276758333Y-62333333D01*
X276901190Y-62333333D01*
X276996428Y-62380952D01*
X277044047Y-62428571D01*
X277091666Y-62523809D01*
X277091666Y-62761904D01*
X277044047Y-62857142D01*
X276996428Y-62904761D01*
X276901190Y-62952380D01*
X276615476Y-62952380D01*
X276520238Y-62904761D01*
X276472619Y-62857142D01*
%TO.C,Y1*%
X235463809Y-107501190D02*
X235463809Y-107977380D01*
X235130476Y-106977380D02*
X235463809Y-107501190D01*
X235797142Y-106977380D01*
X236654285Y-107977380D02*
X236082857Y-107977380D01*
X236368571Y-107977380D02*
X236368571Y-106977380D01*
X236273333Y-107120238D01*
X236178095Y-107215476D01*
X236082857Y-107263095D01*
%TO.C,U10*%
X180727380Y-63738095D02*
X181536904Y-63738095D01*
X181632142Y-63690476D01*
X181679761Y-63642857D01*
X181727380Y-63547619D01*
X181727380Y-63357142D01*
X181679761Y-63261904D01*
X181632142Y-63214285D01*
X181536904Y-63166666D01*
X180727380Y-63166666D01*
X181727380Y-62166666D02*
X181727380Y-62738095D01*
X181727380Y-62452380D02*
X180727380Y-62452380D01*
X180870238Y-62547619D01*
X180965476Y-62642857D01*
X181013095Y-62738095D01*
X180727380Y-61547619D02*
X180727380Y-61452380D01*
X180775000Y-61357142D01*
X180822619Y-61309523D01*
X180917857Y-61261904D01*
X181108333Y-61214285D01*
X181346428Y-61214285D01*
X181536904Y-61261904D01*
X181632142Y-61309523D01*
X181679761Y-61357142D01*
X181727380Y-61452380D01*
X181727380Y-61547619D01*
X181679761Y-61642857D01*
X181632142Y-61690476D01*
X181536904Y-61738095D01*
X181346428Y-61785714D01*
X181108333Y-61785714D01*
X180917857Y-61738095D01*
X180822619Y-61690476D01*
X180775000Y-61642857D01*
X180727380Y-61547619D01*
%TO.C,U9*%
X220563095Y-60802380D02*
X220563095Y-61611904D01*
X220610714Y-61707142D01*
X220658333Y-61754761D01*
X220753571Y-61802380D01*
X220944047Y-61802380D01*
X221039285Y-61754761D01*
X221086904Y-61707142D01*
X221134523Y-61611904D01*
X221134523Y-60802380D01*
X221658333Y-61802380D02*
X221848809Y-61802380D01*
X221944047Y-61754761D01*
X221991666Y-61707142D01*
X222086904Y-61564285D01*
X222134523Y-61373809D01*
X222134523Y-60992857D01*
X222086904Y-60897619D01*
X222039285Y-60850000D01*
X221944047Y-60802380D01*
X221753571Y-60802380D01*
X221658333Y-60850000D01*
X221610714Y-60897619D01*
X221563095Y-60992857D01*
X221563095Y-61230952D01*
X221610714Y-61326190D01*
X221658333Y-61373809D01*
X221753571Y-61421428D01*
X221944047Y-61421428D01*
X222039285Y-61373809D01*
X222086904Y-61326190D01*
X222134523Y-61230952D01*
%TO.C,U8*%
X259613095Y-61702380D02*
X259613095Y-62511904D01*
X259660714Y-62607142D01*
X259708333Y-62654761D01*
X259803571Y-62702380D01*
X259994047Y-62702380D01*
X260089285Y-62654761D01*
X260136904Y-62607142D01*
X260184523Y-62511904D01*
X260184523Y-61702380D01*
X260803571Y-62130952D02*
X260708333Y-62083333D01*
X260660714Y-62035714D01*
X260613095Y-61940476D01*
X260613095Y-61892857D01*
X260660714Y-61797619D01*
X260708333Y-61750000D01*
X260803571Y-61702380D01*
X260994047Y-61702380D01*
X261089285Y-61750000D01*
X261136904Y-61797619D01*
X261184523Y-61892857D01*
X261184523Y-61940476D01*
X261136904Y-62035714D01*
X261089285Y-62083333D01*
X260994047Y-62130952D01*
X260803571Y-62130952D01*
X260708333Y-62178571D01*
X260660714Y-62226190D01*
X260613095Y-62321428D01*
X260613095Y-62511904D01*
X260660714Y-62607142D01*
X260708333Y-62654761D01*
X260803571Y-62702380D01*
X260994047Y-62702380D01*
X261089285Y-62654761D01*
X261136904Y-62607142D01*
X261184523Y-62511904D01*
X261184523Y-62321428D01*
X261136904Y-62226190D01*
X261089285Y-62178571D01*
X260994047Y-62130952D01*
%TO.C,U7*%
X207488095Y-60877380D02*
X207488095Y-61686904D01*
X207535714Y-61782142D01*
X207583333Y-61829761D01*
X207678571Y-61877380D01*
X207869047Y-61877380D01*
X207964285Y-61829761D01*
X208011904Y-61782142D01*
X208059523Y-61686904D01*
X208059523Y-60877380D01*
X208440476Y-60877380D02*
X209107142Y-60877380D01*
X208678571Y-61877380D01*
%TO.C,U6*%
X194513095Y-60877380D02*
X194513095Y-61686904D01*
X194560714Y-61782142D01*
X194608333Y-61829761D01*
X194703571Y-61877380D01*
X194894047Y-61877380D01*
X194989285Y-61829761D01*
X195036904Y-61782142D01*
X195084523Y-61686904D01*
X195084523Y-60877380D01*
X195989285Y-60877380D02*
X195798809Y-60877380D01*
X195703571Y-60925000D01*
X195655952Y-60972619D01*
X195560714Y-61115476D01*
X195513095Y-61305952D01*
X195513095Y-61686904D01*
X195560714Y-61782142D01*
X195608333Y-61829761D01*
X195703571Y-61877380D01*
X195894047Y-61877380D01*
X195989285Y-61829761D01*
X196036904Y-61782142D01*
X196084523Y-61686904D01*
X196084523Y-61448809D01*
X196036904Y-61353571D01*
X195989285Y-61305952D01*
X195894047Y-61258333D01*
X195703571Y-61258333D01*
X195608333Y-61305952D01*
X195560714Y-61353571D01*
X195513095Y-61448809D01*
%TO.C,U5*%
X246613095Y-61377380D02*
X246613095Y-62186904D01*
X246660714Y-62282142D01*
X246708333Y-62329761D01*
X246803571Y-62377380D01*
X246994047Y-62377380D01*
X247089285Y-62329761D01*
X247136904Y-62282142D01*
X247184523Y-62186904D01*
X247184523Y-61377380D01*
X248136904Y-61377380D02*
X247660714Y-61377380D01*
X247613095Y-61853571D01*
X247660714Y-61805952D01*
X247755952Y-61758333D01*
X247994047Y-61758333D01*
X248089285Y-61805952D01*
X248136904Y-61853571D01*
X248184523Y-61948809D01*
X248184523Y-62186904D01*
X248136904Y-62282142D01*
X248089285Y-62329761D01*
X247994047Y-62377380D01*
X247755952Y-62377380D01*
X247660714Y-62329761D01*
X247613095Y-62282142D01*
%TO.C,U4*%
X228013095Y-77952380D02*
X228013095Y-78761904D01*
X228060714Y-78857142D01*
X228108333Y-78904761D01*
X228203571Y-78952380D01*
X228394047Y-78952380D01*
X228489285Y-78904761D01*
X228536904Y-78857142D01*
X228584523Y-78761904D01*
X228584523Y-77952380D01*
X229489285Y-78285714D02*
X229489285Y-78952380D01*
X229251190Y-77904761D02*
X229013095Y-78619047D01*
X229632142Y-78619047D01*
%TO.C,U3*%
X233538095Y-61452380D02*
X233538095Y-62261904D01*
X233585714Y-62357142D01*
X233633333Y-62404761D01*
X233728571Y-62452380D01*
X233919047Y-62452380D01*
X234014285Y-62404761D01*
X234061904Y-62357142D01*
X234109523Y-62261904D01*
X234109523Y-61452380D01*
X234490476Y-61452380D02*
X235109523Y-61452380D01*
X234776190Y-61833333D01*
X234919047Y-61833333D01*
X235014285Y-61880952D01*
X235061904Y-61928571D01*
X235109523Y-62023809D01*
X235109523Y-62261904D01*
X235061904Y-62357142D01*
X235014285Y-62404761D01*
X234919047Y-62452380D01*
X234633333Y-62452380D01*
X234538095Y-62404761D01*
X234490476Y-62357142D01*
%TO.C,U2*%
X244963095Y-95427380D02*
X244963095Y-96236904D01*
X245010714Y-96332142D01*
X245058333Y-96379761D01*
X245153571Y-96427380D01*
X245344047Y-96427380D01*
X245439285Y-96379761D01*
X245486904Y-96332142D01*
X245534523Y-96236904D01*
X245534523Y-95427380D01*
X245963095Y-95522619D02*
X246010714Y-95475000D01*
X246105952Y-95427380D01*
X246344047Y-95427380D01*
X246439285Y-95475000D01*
X246486904Y-95522619D01*
X246534523Y-95617857D01*
X246534523Y-95713095D01*
X246486904Y-95855952D01*
X245915476Y-96427380D01*
X246534523Y-96427380D01*
%TO.C,U1*%
X188213095Y-76502380D02*
X188213095Y-77311904D01*
X188260714Y-77407142D01*
X188308333Y-77454761D01*
X188403571Y-77502380D01*
X188594047Y-77502380D01*
X188689285Y-77454761D01*
X188736904Y-77407142D01*
X188784523Y-77311904D01*
X188784523Y-76502380D01*
X189784523Y-77502380D02*
X189213095Y-77502380D01*
X189498809Y-77502380D02*
X189498809Y-76502380D01*
X189403571Y-76645238D01*
X189308333Y-76740476D01*
X189213095Y-76788095D01*
%TO.C,SW3*%
X264741666Y-51929761D02*
X264884523Y-51977380D01*
X265122619Y-51977380D01*
X265217857Y-51929761D01*
X265265476Y-51882142D01*
X265313095Y-51786904D01*
X265313095Y-51691666D01*
X265265476Y-51596428D01*
X265217857Y-51548809D01*
X265122619Y-51501190D01*
X264932142Y-51453571D01*
X264836904Y-51405952D01*
X264789285Y-51358333D01*
X264741666Y-51263095D01*
X264741666Y-51167857D01*
X264789285Y-51072619D01*
X264836904Y-51025000D01*
X264932142Y-50977380D01*
X265170238Y-50977380D01*
X265313095Y-51025000D01*
X265646428Y-50977380D02*
X265884523Y-51977380D01*
X266075000Y-51263095D01*
X266265476Y-51977380D01*
X266503571Y-50977380D01*
X266789285Y-50977380D02*
X267408333Y-50977380D01*
X267075000Y-51358333D01*
X267217857Y-51358333D01*
X267313095Y-51405952D01*
X267360714Y-51453571D01*
X267408333Y-51548809D01*
X267408333Y-51786904D01*
X267360714Y-51882142D01*
X267313095Y-51929761D01*
X267217857Y-51977380D01*
X266932142Y-51977380D01*
X266836904Y-51929761D01*
X266789285Y-51882142D01*
%TO.C,SW2*%
X251891666Y-51929761D02*
X252034523Y-51977380D01*
X252272619Y-51977380D01*
X252367857Y-51929761D01*
X252415476Y-51882142D01*
X252463095Y-51786904D01*
X252463095Y-51691666D01*
X252415476Y-51596428D01*
X252367857Y-51548809D01*
X252272619Y-51501190D01*
X252082142Y-51453571D01*
X251986904Y-51405952D01*
X251939285Y-51358333D01*
X251891666Y-51263095D01*
X251891666Y-51167857D01*
X251939285Y-51072619D01*
X251986904Y-51025000D01*
X252082142Y-50977380D01*
X252320238Y-50977380D01*
X252463095Y-51025000D01*
X252796428Y-50977380D02*
X253034523Y-51977380D01*
X253225000Y-51263095D01*
X253415476Y-51977380D01*
X253653571Y-50977380D01*
X253986904Y-51072619D02*
X254034523Y-51025000D01*
X254129761Y-50977380D01*
X254367857Y-50977380D01*
X254463095Y-51025000D01*
X254510714Y-51072619D01*
X254558333Y-51167857D01*
X254558333Y-51263095D01*
X254510714Y-51405952D01*
X253939285Y-51977380D01*
X254558333Y-51977380D01*
%TO.C,SW1*%
X238916666Y-51904761D02*
X239059523Y-51952380D01*
X239297619Y-51952380D01*
X239392857Y-51904761D01*
X239440476Y-51857142D01*
X239488095Y-51761904D01*
X239488095Y-51666666D01*
X239440476Y-51571428D01*
X239392857Y-51523809D01*
X239297619Y-51476190D01*
X239107142Y-51428571D01*
X239011904Y-51380952D01*
X238964285Y-51333333D01*
X238916666Y-51238095D01*
X238916666Y-51142857D01*
X238964285Y-51047619D01*
X239011904Y-51000000D01*
X239107142Y-50952380D01*
X239345238Y-50952380D01*
X239488095Y-51000000D01*
X239821428Y-50952380D02*
X240059523Y-51952380D01*
X240250000Y-51238095D01*
X240440476Y-51952380D01*
X240678571Y-50952380D01*
X241583333Y-51952380D02*
X241011904Y-51952380D01*
X241297619Y-51952380D02*
X241297619Y-50952380D01*
X241202380Y-51095238D01*
X241107142Y-51190476D01*
X241011904Y-51238095D01*
%TO.C,R4*%
X240733333Y-97002380D02*
X240400000Y-96526190D01*
X240161904Y-97002380D02*
X240161904Y-96002380D01*
X240542857Y-96002380D01*
X240638095Y-96050000D01*
X240685714Y-96097619D01*
X240733333Y-96192857D01*
X240733333Y-96335714D01*
X240685714Y-96430952D01*
X240638095Y-96478571D01*
X240542857Y-96526190D01*
X240161904Y-96526190D01*
X241590476Y-96335714D02*
X241590476Y-97002380D01*
X241352380Y-95954761D02*
X241114285Y-96669047D01*
X241733333Y-96669047D01*
%TO.C,J9*%
X248391666Y-109952380D02*
X248391666Y-110666666D01*
X248344047Y-110809523D01*
X248248809Y-110904761D01*
X248105952Y-110952380D01*
X248010714Y-110952380D01*
X248915476Y-110952380D02*
X249105952Y-110952380D01*
X249201190Y-110904761D01*
X249248809Y-110857142D01*
X249344047Y-110714285D01*
X249391666Y-110523809D01*
X249391666Y-110142857D01*
X249344047Y-110047619D01*
X249296428Y-110000000D01*
X249201190Y-109952380D01*
X249010714Y-109952380D01*
X248915476Y-110000000D01*
X248867857Y-110047619D01*
X248820238Y-110142857D01*
X248820238Y-110380952D01*
X248867857Y-110476190D01*
X248915476Y-110523809D01*
X249010714Y-110571428D01*
X249201190Y-110571428D01*
X249296428Y-110523809D01*
X249344047Y-110476190D01*
X249391666Y-110380952D01*
%TO.C,J8*%
X233416666Y-70852380D02*
X233416666Y-71566666D01*
X233369047Y-71709523D01*
X233273809Y-71804761D01*
X233130952Y-71852380D01*
X233035714Y-71852380D01*
X234035714Y-71280952D02*
X233940476Y-71233333D01*
X233892857Y-71185714D01*
X233845238Y-71090476D01*
X233845238Y-71042857D01*
X233892857Y-70947619D01*
X233940476Y-70900000D01*
X234035714Y-70852380D01*
X234226190Y-70852380D01*
X234321428Y-70900000D01*
X234369047Y-70947619D01*
X234416666Y-71042857D01*
X234416666Y-71090476D01*
X234369047Y-71185714D01*
X234321428Y-71233333D01*
X234226190Y-71280952D01*
X234035714Y-71280952D01*
X233940476Y-71328571D01*
X233892857Y-71376190D01*
X233845238Y-71471428D01*
X233845238Y-71661904D01*
X233892857Y-71757142D01*
X233940476Y-71804761D01*
X234035714Y-71852380D01*
X234226190Y-71852380D01*
X234321428Y-71804761D01*
X234369047Y-71757142D01*
X234416666Y-71661904D01*
X234416666Y-71471428D01*
X234369047Y-71376190D01*
X234321428Y-71328571D01*
X234226190Y-71280952D01*
%TO.C,J7*%
X189441666Y-70977380D02*
X189441666Y-71691666D01*
X189394047Y-71834523D01*
X189298809Y-71929761D01*
X189155952Y-71977380D01*
X189060714Y-71977380D01*
X189822619Y-70977380D02*
X190489285Y-70977380D01*
X190060714Y-71977380D01*
%TO.C,J6*%
X276166666Y-50682380D02*
X276166666Y-51396666D01*
X276119047Y-51539523D01*
X276023809Y-51634761D01*
X275880952Y-51682380D01*
X275785714Y-51682380D01*
X277071428Y-50682380D02*
X276880952Y-50682380D01*
X276785714Y-50730000D01*
X276738095Y-50777619D01*
X276642857Y-50920476D01*
X276595238Y-51110952D01*
X276595238Y-51491904D01*
X276642857Y-51587142D01*
X276690476Y-51634761D01*
X276785714Y-51682380D01*
X276976190Y-51682380D01*
X277071428Y-51634761D01*
X277119047Y-51587142D01*
X277166666Y-51491904D01*
X277166666Y-51253809D01*
X277119047Y-51158571D01*
X277071428Y-51110952D01*
X276976190Y-51063333D01*
X276785714Y-51063333D01*
X276690476Y-51110952D01*
X276642857Y-51158571D01*
X276595238Y-51253809D01*
%TO.C,J5*%
X182591666Y-77277380D02*
X182591666Y-77991666D01*
X182544047Y-78134523D01*
X182448809Y-78229761D01*
X182305952Y-78277380D01*
X182210714Y-78277380D01*
X183544047Y-77277380D02*
X183067857Y-77277380D01*
X183020238Y-77753571D01*
X183067857Y-77705952D01*
X183163095Y-77658333D01*
X183401190Y-77658333D01*
X183496428Y-77705952D01*
X183544047Y-77753571D01*
X183591666Y-77848809D01*
X183591666Y-78086904D01*
X183544047Y-78182142D01*
X183496428Y-78229761D01*
X183401190Y-78277380D01*
X183163095Y-78277380D01*
X183067857Y-78229761D01*
X183020238Y-78182142D01*
%TO.C,J4*%
X196316666Y-50902380D02*
X196316666Y-51616666D01*
X196269047Y-51759523D01*
X196173809Y-51854761D01*
X196030952Y-51902380D01*
X195935714Y-51902380D01*
X197221428Y-51235714D02*
X197221428Y-51902380D01*
X196983333Y-50854761D02*
X196745238Y-51569047D01*
X197364285Y-51569047D01*
%TO.C,J2*%
X231266666Y-109977380D02*
X231266666Y-110691666D01*
X231219047Y-110834523D01*
X231123809Y-110929761D01*
X230980952Y-110977380D01*
X230885714Y-110977380D01*
X231695238Y-110072619D02*
X231742857Y-110025000D01*
X231838095Y-109977380D01*
X232076190Y-109977380D01*
X232171428Y-110025000D01*
X232219047Y-110072619D01*
X232266666Y-110167857D01*
X232266666Y-110263095D01*
X232219047Y-110405952D01*
X231647619Y-110977380D01*
X232266666Y-110977380D01*
%TO.C,J1*%
X278316666Y-95577380D02*
X278316666Y-96291666D01*
X278269047Y-96434523D01*
X278173809Y-96529761D01*
X278030952Y-96577380D01*
X277935714Y-96577380D01*
X279316666Y-96577380D02*
X278745238Y-96577380D01*
X279030952Y-96577380D02*
X279030952Y-95577380D01*
X278935714Y-95720238D01*
X278840476Y-95815476D01*
X278745238Y-95863095D01*
%TO.C,D8*%
X229002380Y-55138095D02*
X228002380Y-55138095D01*
X228002380Y-54900000D01*
X228050000Y-54757142D01*
X228145238Y-54661904D01*
X228240476Y-54614285D01*
X228430952Y-54566666D01*
X228573809Y-54566666D01*
X228764285Y-54614285D01*
X228859523Y-54661904D01*
X228954761Y-54757142D01*
X229002380Y-54900000D01*
X229002380Y-55138095D01*
X228430952Y-53995238D02*
X228383333Y-54090476D01*
X228335714Y-54138095D01*
X228240476Y-54185714D01*
X228192857Y-54185714D01*
X228097619Y-54138095D01*
X228050000Y-54090476D01*
X228002380Y-53995238D01*
X228002380Y-53804761D01*
X228050000Y-53709523D01*
X228097619Y-53661904D01*
X228192857Y-53614285D01*
X228240476Y-53614285D01*
X228335714Y-53661904D01*
X228383333Y-53709523D01*
X228430952Y-53804761D01*
X228430952Y-53995238D01*
X228478571Y-54090476D01*
X228526190Y-54138095D01*
X228621428Y-54185714D01*
X228811904Y-54185714D01*
X228907142Y-54138095D01*
X228954761Y-54090476D01*
X229002380Y-53995238D01*
X229002380Y-53804761D01*
X228954761Y-53709523D01*
X228907142Y-53661904D01*
X228811904Y-53614285D01*
X228621428Y-53614285D01*
X228526190Y-53661904D01*
X228478571Y-53709523D01*
X228430952Y-53804761D01*
%TO.C,D7*%
X225502380Y-55138095D02*
X224502380Y-55138095D01*
X224502380Y-54900000D01*
X224550000Y-54757142D01*
X224645238Y-54661904D01*
X224740476Y-54614285D01*
X224930952Y-54566666D01*
X225073809Y-54566666D01*
X225264285Y-54614285D01*
X225359523Y-54661904D01*
X225454761Y-54757142D01*
X225502380Y-54900000D01*
X225502380Y-55138095D01*
X224502380Y-54233333D02*
X224502380Y-53566666D01*
X225502380Y-53995238D01*
%TO.C,D6*%
X222002380Y-55138095D02*
X221002380Y-55138095D01*
X221002380Y-54900000D01*
X221050000Y-54757142D01*
X221145238Y-54661904D01*
X221240476Y-54614285D01*
X221430952Y-54566666D01*
X221573809Y-54566666D01*
X221764285Y-54614285D01*
X221859523Y-54661904D01*
X221954761Y-54757142D01*
X222002380Y-54900000D01*
X222002380Y-55138095D01*
X221002380Y-53709523D02*
X221002380Y-53900000D01*
X221050000Y-53995238D01*
X221097619Y-54042857D01*
X221240476Y-54138095D01*
X221430952Y-54185714D01*
X221811904Y-54185714D01*
X221907142Y-54138095D01*
X221954761Y-54090476D01*
X222002380Y-53995238D01*
X222002380Y-53804761D01*
X221954761Y-53709523D01*
X221907142Y-53661904D01*
X221811904Y-53614285D01*
X221573809Y-53614285D01*
X221478571Y-53661904D01*
X221430952Y-53709523D01*
X221383333Y-53804761D01*
X221383333Y-53995238D01*
X221430952Y-54090476D01*
X221478571Y-54138095D01*
X221573809Y-54185714D01*
%TO.C,D5*%
X218502380Y-55138095D02*
X217502380Y-55138095D01*
X217502380Y-54900000D01*
X217550000Y-54757142D01*
X217645238Y-54661904D01*
X217740476Y-54614285D01*
X217930952Y-54566666D01*
X218073809Y-54566666D01*
X218264285Y-54614285D01*
X218359523Y-54661904D01*
X218454761Y-54757142D01*
X218502380Y-54900000D01*
X218502380Y-55138095D01*
X217502380Y-53661904D02*
X217502380Y-54138095D01*
X217978571Y-54185714D01*
X217930952Y-54138095D01*
X217883333Y-54042857D01*
X217883333Y-53804761D01*
X217930952Y-53709523D01*
X217978571Y-53661904D01*
X218073809Y-53614285D01*
X218311904Y-53614285D01*
X218407142Y-53661904D01*
X218454761Y-53709523D01*
X218502380Y-53804761D01*
X218502380Y-54042857D01*
X218454761Y-54138095D01*
X218407142Y-54185714D01*
%TO.C,D4*%
X215002380Y-55138095D02*
X214002380Y-55138095D01*
X214002380Y-54900000D01*
X214050000Y-54757142D01*
X214145238Y-54661904D01*
X214240476Y-54614285D01*
X214430952Y-54566666D01*
X214573809Y-54566666D01*
X214764285Y-54614285D01*
X214859523Y-54661904D01*
X214954761Y-54757142D01*
X215002380Y-54900000D01*
X215002380Y-55138095D01*
X214335714Y-53709523D02*
X215002380Y-53709523D01*
X213954761Y-53947619D02*
X214669047Y-54185714D01*
X214669047Y-53566666D01*
%TO.C,D3*%
X211502380Y-55138095D02*
X210502380Y-55138095D01*
X210502380Y-54900000D01*
X210550000Y-54757142D01*
X210645238Y-54661904D01*
X210740476Y-54614285D01*
X210930952Y-54566666D01*
X211073809Y-54566666D01*
X211264285Y-54614285D01*
X211359523Y-54661904D01*
X211454761Y-54757142D01*
X211502380Y-54900000D01*
X211502380Y-55138095D01*
X210502380Y-54233333D02*
X210502380Y-53614285D01*
X210883333Y-53947619D01*
X210883333Y-53804761D01*
X210930952Y-53709523D01*
X210978571Y-53661904D01*
X211073809Y-53614285D01*
X211311904Y-53614285D01*
X211407142Y-53661904D01*
X211454761Y-53709523D01*
X211502380Y-53804761D01*
X211502380Y-54090476D01*
X211454761Y-54185714D01*
X211407142Y-54233333D01*
%TO.C,D2*%
X208002380Y-55138095D02*
X207002380Y-55138095D01*
X207002380Y-54900000D01*
X207050000Y-54757142D01*
X207145238Y-54661904D01*
X207240476Y-54614285D01*
X207430952Y-54566666D01*
X207573809Y-54566666D01*
X207764285Y-54614285D01*
X207859523Y-54661904D01*
X207954761Y-54757142D01*
X208002380Y-54900000D01*
X208002380Y-55138095D01*
X207097619Y-54185714D02*
X207050000Y-54138095D01*
X207002380Y-54042857D01*
X207002380Y-53804761D01*
X207050000Y-53709523D01*
X207097619Y-53661904D01*
X207192857Y-53614285D01*
X207288095Y-53614285D01*
X207430952Y-53661904D01*
X208002380Y-54233333D01*
X208002380Y-53614285D01*
%TO.C,D1*%
X204502380Y-55200595D02*
X203502380Y-55200595D01*
X203502380Y-54962500D01*
X203550000Y-54819642D01*
X203645238Y-54724404D01*
X203740476Y-54676785D01*
X203930952Y-54629166D01*
X204073809Y-54629166D01*
X204264285Y-54676785D01*
X204359523Y-54724404D01*
X204454761Y-54819642D01*
X204502380Y-54962500D01*
X204502380Y-55200595D01*
X204502380Y-53676785D02*
X204502380Y-54248214D01*
X204502380Y-53962500D02*
X203502380Y-53962500D01*
X203645238Y-54057738D01*
X203740476Y-54152976D01*
X203788095Y-54248214D01*
%TO.C,C25*%
X190457142Y-62477142D02*
X190409523Y-62524761D01*
X190266666Y-62572380D01*
X190171428Y-62572380D01*
X190028571Y-62524761D01*
X189933333Y-62429523D01*
X189885714Y-62334285D01*
X189838095Y-62143809D01*
X189838095Y-62000952D01*
X189885714Y-61810476D01*
X189933333Y-61715238D01*
X190028571Y-61620000D01*
X190171428Y-61572380D01*
X190266666Y-61572380D01*
X190409523Y-61620000D01*
X190457142Y-61667619D01*
X190838095Y-61667619D02*
X190885714Y-61620000D01*
X190980952Y-61572380D01*
X191219047Y-61572380D01*
X191314285Y-61620000D01*
X191361904Y-61667619D01*
X191409523Y-61762857D01*
X191409523Y-61858095D01*
X191361904Y-62000952D01*
X190790476Y-62572380D01*
X191409523Y-62572380D01*
X192314285Y-61572380D02*
X191838095Y-61572380D01*
X191790476Y-62048571D01*
X191838095Y-62000952D01*
X191933333Y-61953333D01*
X192171428Y-61953333D01*
X192266666Y-62000952D01*
X192314285Y-62048571D01*
X192361904Y-62143809D01*
X192361904Y-62381904D01*
X192314285Y-62477142D01*
X192266666Y-62524761D01*
X192171428Y-62572380D01*
X191933333Y-62572380D01*
X191838095Y-62524761D01*
X191790476Y-62477142D01*
%TO.C,C24*%
X190557142Y-67277142D02*
X190509523Y-67324761D01*
X190366666Y-67372380D01*
X190271428Y-67372380D01*
X190128571Y-67324761D01*
X190033333Y-67229523D01*
X189985714Y-67134285D01*
X189938095Y-66943809D01*
X189938095Y-66800952D01*
X189985714Y-66610476D01*
X190033333Y-66515238D01*
X190128571Y-66420000D01*
X190271428Y-66372380D01*
X190366666Y-66372380D01*
X190509523Y-66420000D01*
X190557142Y-66467619D01*
X190938095Y-66467619D02*
X190985714Y-66420000D01*
X191080952Y-66372380D01*
X191319047Y-66372380D01*
X191414285Y-66420000D01*
X191461904Y-66467619D01*
X191509523Y-66562857D01*
X191509523Y-66658095D01*
X191461904Y-66800952D01*
X190890476Y-67372380D01*
X191509523Y-67372380D01*
X192366666Y-66705714D02*
X192366666Y-67372380D01*
X192128571Y-66324761D02*
X191890476Y-67039047D01*
X192509523Y-67039047D01*
%TD*%
M02*
