%TF.GenerationSoftware,KiCad,Pcbnew,(5.1.10)-1*%
%TF.CreationDate,2022-03-07T13:38:47+08:00*%
%TF.ProjectId,MAX7000-GPU,4d415837-3030-4302-9d47-50552e6b6963,rev?*%
%TF.SameCoordinates,Original*%
%TF.FileFunction,Paste,Bot*%
%TF.FilePolarity,Positive*%
%FSLAX46Y46*%
G04 Gerber Fmt 4.6, Leading zero omitted, Abs format (unit mm)*
G04 Created by KiCad (PCBNEW (5.1.10)-1) date 2022-03-07 13:38:47*
%MOMM*%
%LPD*%
G01*
G04 APERTURE LIST*
G04 APERTURE END LIST*
%TO.C,R25*%
G36*
G01*
X227350001Y-54000000D02*
X226449999Y-54000000D01*
G75*
G02*
X226200000Y-53750001I0J249999D01*
G01*
X226200000Y-53224999D01*
G75*
G02*
X226449999Y-52975000I249999J0D01*
G01*
X227350001Y-52975000D01*
G75*
G02*
X227600000Y-53224999I0J-249999D01*
G01*
X227600000Y-53750001D01*
G75*
G02*
X227350001Y-54000000I-249999J0D01*
G01*
G37*
G36*
G01*
X227350001Y-55825000D02*
X226449999Y-55825000D01*
G75*
G02*
X226200000Y-55575001I0J249999D01*
G01*
X226200000Y-55049999D01*
G75*
G02*
X226449999Y-54800000I249999J0D01*
G01*
X227350001Y-54800000D01*
G75*
G02*
X227600000Y-55049999I0J-249999D01*
G01*
X227600000Y-55575001D01*
G75*
G02*
X227350001Y-55825000I-249999J0D01*
G01*
G37*
%TD*%
%TO.C,R24*%
G36*
G01*
X223850001Y-54000000D02*
X222949999Y-54000000D01*
G75*
G02*
X222700000Y-53750001I0J249999D01*
G01*
X222700000Y-53224999D01*
G75*
G02*
X222949999Y-52975000I249999J0D01*
G01*
X223850001Y-52975000D01*
G75*
G02*
X224100000Y-53224999I0J-249999D01*
G01*
X224100000Y-53750001D01*
G75*
G02*
X223850001Y-54000000I-249999J0D01*
G01*
G37*
G36*
G01*
X223850001Y-55825000D02*
X222949999Y-55825000D01*
G75*
G02*
X222700000Y-55575001I0J249999D01*
G01*
X222700000Y-55049999D01*
G75*
G02*
X222949999Y-54800000I249999J0D01*
G01*
X223850001Y-54800000D01*
G75*
G02*
X224100000Y-55049999I0J-249999D01*
G01*
X224100000Y-55575001D01*
G75*
G02*
X223850001Y-55825000I-249999J0D01*
G01*
G37*
%TD*%
%TO.C,R23*%
G36*
G01*
X220350001Y-54000000D02*
X219449999Y-54000000D01*
G75*
G02*
X219200000Y-53750001I0J249999D01*
G01*
X219200000Y-53224999D01*
G75*
G02*
X219449999Y-52975000I249999J0D01*
G01*
X220350001Y-52975000D01*
G75*
G02*
X220600000Y-53224999I0J-249999D01*
G01*
X220600000Y-53750001D01*
G75*
G02*
X220350001Y-54000000I-249999J0D01*
G01*
G37*
G36*
G01*
X220350001Y-55825000D02*
X219449999Y-55825000D01*
G75*
G02*
X219200000Y-55575001I0J249999D01*
G01*
X219200000Y-55049999D01*
G75*
G02*
X219449999Y-54800000I249999J0D01*
G01*
X220350001Y-54800000D01*
G75*
G02*
X220600000Y-55049999I0J-249999D01*
G01*
X220600000Y-55575001D01*
G75*
G02*
X220350001Y-55825000I-249999J0D01*
G01*
G37*
%TD*%
%TO.C,R22*%
G36*
G01*
X216850001Y-54000000D02*
X215949999Y-54000000D01*
G75*
G02*
X215700000Y-53750001I0J249999D01*
G01*
X215700000Y-53224999D01*
G75*
G02*
X215949999Y-52975000I249999J0D01*
G01*
X216850001Y-52975000D01*
G75*
G02*
X217100000Y-53224999I0J-249999D01*
G01*
X217100000Y-53750001D01*
G75*
G02*
X216850001Y-54000000I-249999J0D01*
G01*
G37*
G36*
G01*
X216850001Y-55825000D02*
X215949999Y-55825000D01*
G75*
G02*
X215700000Y-55575001I0J249999D01*
G01*
X215700000Y-55049999D01*
G75*
G02*
X215949999Y-54800000I249999J0D01*
G01*
X216850001Y-54800000D01*
G75*
G02*
X217100000Y-55049999I0J-249999D01*
G01*
X217100000Y-55575001D01*
G75*
G02*
X216850001Y-55825000I-249999J0D01*
G01*
G37*
%TD*%
%TO.C,R21*%
G36*
G01*
X213350001Y-54000000D02*
X212449999Y-54000000D01*
G75*
G02*
X212200000Y-53750001I0J249999D01*
G01*
X212200000Y-53224999D01*
G75*
G02*
X212449999Y-52975000I249999J0D01*
G01*
X213350001Y-52975000D01*
G75*
G02*
X213600000Y-53224999I0J-249999D01*
G01*
X213600000Y-53750001D01*
G75*
G02*
X213350001Y-54000000I-249999J0D01*
G01*
G37*
G36*
G01*
X213350001Y-55825000D02*
X212449999Y-55825000D01*
G75*
G02*
X212200000Y-55575001I0J249999D01*
G01*
X212200000Y-55049999D01*
G75*
G02*
X212449999Y-54800000I249999J0D01*
G01*
X213350001Y-54800000D01*
G75*
G02*
X213600000Y-55049999I0J-249999D01*
G01*
X213600000Y-55575001D01*
G75*
G02*
X213350001Y-55825000I-249999J0D01*
G01*
G37*
%TD*%
%TO.C,R20*%
G36*
G01*
X209850001Y-54000000D02*
X208949999Y-54000000D01*
G75*
G02*
X208700000Y-53750001I0J249999D01*
G01*
X208700000Y-53224999D01*
G75*
G02*
X208949999Y-52975000I249999J0D01*
G01*
X209850001Y-52975000D01*
G75*
G02*
X210100000Y-53224999I0J-249999D01*
G01*
X210100000Y-53750001D01*
G75*
G02*
X209850001Y-54000000I-249999J0D01*
G01*
G37*
G36*
G01*
X209850001Y-55825000D02*
X208949999Y-55825000D01*
G75*
G02*
X208700000Y-55575001I0J249999D01*
G01*
X208700000Y-55049999D01*
G75*
G02*
X208949999Y-54800000I249999J0D01*
G01*
X209850001Y-54800000D01*
G75*
G02*
X210100000Y-55049999I0J-249999D01*
G01*
X210100000Y-55575001D01*
G75*
G02*
X209850001Y-55825000I-249999J0D01*
G01*
G37*
%TD*%
%TO.C,R19*%
G36*
G01*
X188550001Y-110988000D02*
X187649999Y-110988000D01*
G75*
G02*
X187400000Y-110738001I0J249999D01*
G01*
X187400000Y-110212999D01*
G75*
G02*
X187649999Y-109963000I249999J0D01*
G01*
X188550001Y-109963000D01*
G75*
G02*
X188800000Y-110212999I0J-249999D01*
G01*
X188800000Y-110738001D01*
G75*
G02*
X188550001Y-110988000I-249999J0D01*
G01*
G37*
G36*
G01*
X188550001Y-112813000D02*
X187649999Y-112813000D01*
G75*
G02*
X187400000Y-112563001I0J249999D01*
G01*
X187400000Y-112037999D01*
G75*
G02*
X187649999Y-111788000I249999J0D01*
G01*
X188550001Y-111788000D01*
G75*
G02*
X188800000Y-112037999I0J-249999D01*
G01*
X188800000Y-112563001D01*
G75*
G02*
X188550001Y-112813000I-249999J0D01*
G01*
G37*
%TD*%
%TO.C,R18*%
G36*
G01*
X191850001Y-110888000D02*
X190949999Y-110888000D01*
G75*
G02*
X190700000Y-110638001I0J249999D01*
G01*
X190700000Y-110112999D01*
G75*
G02*
X190949999Y-109863000I249999J0D01*
G01*
X191850001Y-109863000D01*
G75*
G02*
X192100000Y-110112999I0J-249999D01*
G01*
X192100000Y-110638001D01*
G75*
G02*
X191850001Y-110888000I-249999J0D01*
G01*
G37*
G36*
G01*
X191850001Y-112713000D02*
X190949999Y-112713000D01*
G75*
G02*
X190700000Y-112463001I0J249999D01*
G01*
X190700000Y-111937999D01*
G75*
G02*
X190949999Y-111688000I249999J0D01*
G01*
X191850001Y-111688000D01*
G75*
G02*
X192100000Y-111937999I0J-249999D01*
G01*
X192100000Y-112463001D01*
G75*
G02*
X191850001Y-112713000I-249999J0D01*
G01*
G37*
%TD*%
%TO.C,R17*%
G36*
G01*
X206350001Y-54000000D02*
X205449999Y-54000000D01*
G75*
G02*
X205200000Y-53750001I0J249999D01*
G01*
X205200000Y-53224999D01*
G75*
G02*
X205449999Y-52975000I249999J0D01*
G01*
X206350001Y-52975000D01*
G75*
G02*
X206600000Y-53224999I0J-249999D01*
G01*
X206600000Y-53750001D01*
G75*
G02*
X206350001Y-54000000I-249999J0D01*
G01*
G37*
G36*
G01*
X206350001Y-55825000D02*
X205449999Y-55825000D01*
G75*
G02*
X205200000Y-55575001I0J249999D01*
G01*
X205200000Y-55049999D01*
G75*
G02*
X205449999Y-54800000I249999J0D01*
G01*
X206350001Y-54800000D01*
G75*
G02*
X206600000Y-55049999I0J-249999D01*
G01*
X206600000Y-55575001D01*
G75*
G02*
X206350001Y-55825000I-249999J0D01*
G01*
G37*
%TD*%
%TO.C,R16*%
G36*
G01*
X189400000Y-104649999D02*
X189400000Y-105550001D01*
G75*
G02*
X189150001Y-105800000I-249999J0D01*
G01*
X188624999Y-105800000D01*
G75*
G02*
X188375000Y-105550001I0J249999D01*
G01*
X188375000Y-104649999D01*
G75*
G02*
X188624999Y-104400000I249999J0D01*
G01*
X189150001Y-104400000D01*
G75*
G02*
X189400000Y-104649999I0J-249999D01*
G01*
G37*
G36*
G01*
X191225000Y-104649999D02*
X191225000Y-105550001D01*
G75*
G02*
X190975001Y-105800000I-249999J0D01*
G01*
X190449999Y-105800000D01*
G75*
G02*
X190200000Y-105550001I0J249999D01*
G01*
X190200000Y-104649999D01*
G75*
G02*
X190449999Y-104400000I249999J0D01*
G01*
X190975001Y-104400000D01*
G75*
G02*
X191225000Y-104649999I0J-249999D01*
G01*
G37*
%TD*%
%TO.C,R15*%
G36*
G01*
X189400000Y-101149999D02*
X189400000Y-102050001D01*
G75*
G02*
X189150001Y-102300000I-249999J0D01*
G01*
X188624999Y-102300000D01*
G75*
G02*
X188375000Y-102050001I0J249999D01*
G01*
X188375000Y-101149999D01*
G75*
G02*
X188624999Y-100900000I249999J0D01*
G01*
X189150001Y-100900000D01*
G75*
G02*
X189400000Y-101149999I0J-249999D01*
G01*
G37*
G36*
G01*
X191225000Y-101149999D02*
X191225000Y-102050001D01*
G75*
G02*
X190975001Y-102300000I-249999J0D01*
G01*
X190449999Y-102300000D01*
G75*
G02*
X190200000Y-102050001I0J249999D01*
G01*
X190200000Y-101149999D01*
G75*
G02*
X190449999Y-100900000I249999J0D01*
G01*
X190975001Y-100900000D01*
G75*
G02*
X191225000Y-101149999I0J-249999D01*
G01*
G37*
%TD*%
%TO.C,R14*%
G36*
G01*
X189700000Y-87350001D02*
X189700000Y-86449999D01*
G75*
G02*
X189949999Y-86200000I249999J0D01*
G01*
X190475001Y-86200000D01*
G75*
G02*
X190725000Y-86449999I0J-249999D01*
G01*
X190725000Y-87350001D01*
G75*
G02*
X190475001Y-87600000I-249999J0D01*
G01*
X189949999Y-87600000D01*
G75*
G02*
X189700000Y-87350001I0J249999D01*
G01*
G37*
G36*
G01*
X187875000Y-87350001D02*
X187875000Y-86449999D01*
G75*
G02*
X188124999Y-86200000I249999J0D01*
G01*
X188650001Y-86200000D01*
G75*
G02*
X188900000Y-86449999I0J-249999D01*
G01*
X188900000Y-87350001D01*
G75*
G02*
X188650001Y-87600000I-249999J0D01*
G01*
X188124999Y-87600000D01*
G75*
G02*
X187875000Y-87350001I0J249999D01*
G01*
G37*
%TD*%
%TO.C,R13*%
G36*
G01*
X189800000Y-83950001D02*
X189800000Y-83049999D01*
G75*
G02*
X190049999Y-82800000I249999J0D01*
G01*
X190575001Y-82800000D01*
G75*
G02*
X190825000Y-83049999I0J-249999D01*
G01*
X190825000Y-83950001D01*
G75*
G02*
X190575001Y-84200000I-249999J0D01*
G01*
X190049999Y-84200000D01*
G75*
G02*
X189800000Y-83950001I0J249999D01*
G01*
G37*
G36*
G01*
X187975000Y-83950001D02*
X187975000Y-83049999D01*
G75*
G02*
X188224999Y-82800000I249999J0D01*
G01*
X188750001Y-82800000D01*
G75*
G02*
X189000000Y-83049999I0J-249999D01*
G01*
X189000000Y-83950001D01*
G75*
G02*
X188750001Y-84200000I-249999J0D01*
G01*
X188224999Y-84200000D01*
G75*
G02*
X187975000Y-83950001I0J249999D01*
G01*
G37*
%TD*%
%TO.C,R12*%
G36*
G01*
X202850001Y-54062500D02*
X201949999Y-54062500D01*
G75*
G02*
X201700000Y-53812501I0J249999D01*
G01*
X201700000Y-53287499D01*
G75*
G02*
X201949999Y-53037500I249999J0D01*
G01*
X202850001Y-53037500D01*
G75*
G02*
X203100000Y-53287499I0J-249999D01*
G01*
X203100000Y-53812501D01*
G75*
G02*
X202850001Y-54062500I-249999J0D01*
G01*
G37*
G36*
G01*
X202850001Y-55887500D02*
X201949999Y-55887500D01*
G75*
G02*
X201700000Y-55637501I0J249999D01*
G01*
X201700000Y-55112499D01*
G75*
G02*
X201949999Y-54862500I249999J0D01*
G01*
X202850001Y-54862500D01*
G75*
G02*
X203100000Y-55112499I0J-249999D01*
G01*
X203100000Y-55637501D01*
G75*
G02*
X202850001Y-55887500I-249999J0D01*
G01*
G37*
%TD*%
%TO.C,R11*%
G36*
G01*
X271049999Y-66587500D02*
X271950001Y-66587500D01*
G75*
G02*
X272200000Y-66837499I0J-249999D01*
G01*
X272200000Y-67362501D01*
G75*
G02*
X271950001Y-67612500I-249999J0D01*
G01*
X271049999Y-67612500D01*
G75*
G02*
X270800000Y-67362501I0J249999D01*
G01*
X270800000Y-66837499D01*
G75*
G02*
X271049999Y-66587500I249999J0D01*
G01*
G37*
G36*
G01*
X271049999Y-64762500D02*
X271950001Y-64762500D01*
G75*
G02*
X272200000Y-65012499I0J-249999D01*
G01*
X272200000Y-65537501D01*
G75*
G02*
X271950001Y-65787500I-249999J0D01*
G01*
X271049999Y-65787500D01*
G75*
G02*
X270800000Y-65537501I0J249999D01*
G01*
X270800000Y-65012499D01*
G75*
G02*
X271049999Y-64762500I249999J0D01*
G01*
G37*
%TD*%
%TO.C,R10*%
G36*
G01*
X265600000Y-105349999D02*
X265600000Y-106250001D01*
G75*
G02*
X265350001Y-106500000I-249999J0D01*
G01*
X264824999Y-106500000D01*
G75*
G02*
X264575000Y-106250001I0J249999D01*
G01*
X264575000Y-105349999D01*
G75*
G02*
X264824999Y-105100000I249999J0D01*
G01*
X265350001Y-105100000D01*
G75*
G02*
X265600000Y-105349999I0J-249999D01*
G01*
G37*
G36*
G01*
X267425000Y-105349999D02*
X267425000Y-106250001D01*
G75*
G02*
X267175001Y-106500000I-249999J0D01*
G01*
X266649999Y-106500000D01*
G75*
G02*
X266400000Y-106250001I0J249999D01*
G01*
X266400000Y-105349999D01*
G75*
G02*
X266649999Y-105100000I249999J0D01*
G01*
X267175001Y-105100000D01*
G75*
G02*
X267425000Y-105349999I0J-249999D01*
G01*
G37*
%TD*%
%TO.C,R9*%
G36*
G01*
X262449999Y-66687500D02*
X263350001Y-66687500D01*
G75*
G02*
X263600000Y-66937499I0J-249999D01*
G01*
X263600000Y-67462501D01*
G75*
G02*
X263350001Y-67712500I-249999J0D01*
G01*
X262449999Y-67712500D01*
G75*
G02*
X262200000Y-67462501I0J249999D01*
G01*
X262200000Y-66937499D01*
G75*
G02*
X262449999Y-66687500I249999J0D01*
G01*
G37*
G36*
G01*
X262449999Y-64862500D02*
X263350001Y-64862500D01*
G75*
G02*
X263600000Y-65112499I0J-249999D01*
G01*
X263600000Y-65637501D01*
G75*
G02*
X263350001Y-65887500I-249999J0D01*
G01*
X262449999Y-65887500D01*
G75*
G02*
X262200000Y-65637501I0J249999D01*
G01*
X262200000Y-65112499D01*
G75*
G02*
X262449999Y-64862500I249999J0D01*
G01*
G37*
%TD*%
%TO.C,R8*%
G36*
G01*
X257350001Y-81100000D02*
X256449999Y-81100000D01*
G75*
G02*
X256200000Y-80850001I0J249999D01*
G01*
X256200000Y-80324999D01*
G75*
G02*
X256449999Y-80075000I249999J0D01*
G01*
X257350001Y-80075000D01*
G75*
G02*
X257600000Y-80324999I0J-249999D01*
G01*
X257600000Y-80850001D01*
G75*
G02*
X257350001Y-81100000I-249999J0D01*
G01*
G37*
G36*
G01*
X257350001Y-82925000D02*
X256449999Y-82925000D01*
G75*
G02*
X256200000Y-82675001I0J249999D01*
G01*
X256200000Y-82149999D01*
G75*
G02*
X256449999Y-81900000I249999J0D01*
G01*
X257350001Y-81900000D01*
G75*
G02*
X257600000Y-82149999I0J-249999D01*
G01*
X257600000Y-82675001D01*
G75*
G02*
X257350001Y-82925000I-249999J0D01*
G01*
G37*
%TD*%
%TO.C,R7*%
G36*
G01*
X257149999Y-66800000D02*
X258050001Y-66800000D01*
G75*
G02*
X258300000Y-67049999I0J-249999D01*
G01*
X258300000Y-67575001D01*
G75*
G02*
X258050001Y-67825000I-249999J0D01*
G01*
X257149999Y-67825000D01*
G75*
G02*
X256900000Y-67575001I0J249999D01*
G01*
X256900000Y-67049999D01*
G75*
G02*
X257149999Y-66800000I249999J0D01*
G01*
G37*
G36*
G01*
X257149999Y-64975000D02*
X258050001Y-64975000D01*
G75*
G02*
X258300000Y-65224999I0J-249999D01*
G01*
X258300000Y-65750001D01*
G75*
G02*
X258050001Y-66000000I-249999J0D01*
G01*
X257149999Y-66000000D01*
G75*
G02*
X256900000Y-65750001I0J249999D01*
G01*
X256900000Y-65224999D01*
G75*
G02*
X257149999Y-64975000I249999J0D01*
G01*
G37*
%TD*%
%TO.C,R6*%
G36*
G01*
X268450001Y-98100000D02*
X267549999Y-98100000D01*
G75*
G02*
X267300000Y-97850001I0J249999D01*
G01*
X267300000Y-97324999D01*
G75*
G02*
X267549999Y-97075000I249999J0D01*
G01*
X268450001Y-97075000D01*
G75*
G02*
X268700000Y-97324999I0J-249999D01*
G01*
X268700000Y-97850001D01*
G75*
G02*
X268450001Y-98100000I-249999J0D01*
G01*
G37*
G36*
G01*
X268450001Y-99925000D02*
X267549999Y-99925000D01*
G75*
G02*
X267300000Y-99675001I0J249999D01*
G01*
X267300000Y-99149999D01*
G75*
G02*
X267549999Y-98900000I249999J0D01*
G01*
X268450001Y-98900000D01*
G75*
G02*
X268700000Y-99149999I0J-249999D01*
G01*
X268700000Y-99675001D01*
G75*
G02*
X268450001Y-99925000I-249999J0D01*
G01*
G37*
%TD*%
%TO.C,R5*%
G36*
G01*
X248649999Y-66712500D02*
X249550001Y-66712500D01*
G75*
G02*
X249800000Y-66962499I0J-249999D01*
G01*
X249800000Y-67487501D01*
G75*
G02*
X249550001Y-67737500I-249999J0D01*
G01*
X248649999Y-67737500D01*
G75*
G02*
X248400000Y-67487501I0J249999D01*
G01*
X248400000Y-66962499D01*
G75*
G02*
X248649999Y-66712500I249999J0D01*
G01*
G37*
G36*
G01*
X248649999Y-64887500D02*
X249550001Y-64887500D01*
G75*
G02*
X249800000Y-65137499I0J-249999D01*
G01*
X249800000Y-65662501D01*
G75*
G02*
X249550001Y-65912500I-249999J0D01*
G01*
X248649999Y-65912500D01*
G75*
G02*
X248400000Y-65662501I0J249999D01*
G01*
X248400000Y-65137499D01*
G75*
G02*
X248649999Y-64887500I249999J0D01*
G01*
G37*
%TD*%
%TO.C,R3*%
G36*
G01*
X244249999Y-66600000D02*
X245150001Y-66600000D01*
G75*
G02*
X245400000Y-66849999I0J-249999D01*
G01*
X245400000Y-67375001D01*
G75*
G02*
X245150001Y-67625000I-249999J0D01*
G01*
X244249999Y-67625000D01*
G75*
G02*
X244000000Y-67375001I0J249999D01*
G01*
X244000000Y-66849999D01*
G75*
G02*
X244249999Y-66600000I249999J0D01*
G01*
G37*
G36*
G01*
X244249999Y-64775000D02*
X245150001Y-64775000D01*
G75*
G02*
X245400000Y-65024999I0J-249999D01*
G01*
X245400000Y-65550001D01*
G75*
G02*
X245150001Y-65800000I-249999J0D01*
G01*
X244249999Y-65800000D01*
G75*
G02*
X244000000Y-65550001I0J249999D01*
G01*
X244000000Y-65024999D01*
G75*
G02*
X244249999Y-64775000I249999J0D01*
G01*
G37*
%TD*%
%TO.C,R2*%
G36*
G01*
X236049999Y-66712500D02*
X236950001Y-66712500D01*
G75*
G02*
X237200000Y-66962499I0J-249999D01*
G01*
X237200000Y-67487501D01*
G75*
G02*
X236950001Y-67737500I-249999J0D01*
G01*
X236049999Y-67737500D01*
G75*
G02*
X235800000Y-67487501I0J249999D01*
G01*
X235800000Y-66962499D01*
G75*
G02*
X236049999Y-66712500I249999J0D01*
G01*
G37*
G36*
G01*
X236049999Y-64887500D02*
X236950001Y-64887500D01*
G75*
G02*
X237200000Y-65137499I0J-249999D01*
G01*
X237200000Y-65662501D01*
G75*
G02*
X236950001Y-65912500I-249999J0D01*
G01*
X236049999Y-65912500D01*
G75*
G02*
X235800000Y-65662501I0J249999D01*
G01*
X235800000Y-65137499D01*
G75*
G02*
X236049999Y-64887500I249999J0D01*
G01*
G37*
%TD*%
%TO.C,R1*%
G36*
G01*
X249900000Y-101949999D02*
X249900000Y-102850001D01*
G75*
G02*
X249650001Y-103100000I-249999J0D01*
G01*
X249124999Y-103100000D01*
G75*
G02*
X248875000Y-102850001I0J249999D01*
G01*
X248875000Y-101949999D01*
G75*
G02*
X249124999Y-101700000I249999J0D01*
G01*
X249650001Y-101700000D01*
G75*
G02*
X249900000Y-101949999I0J-249999D01*
G01*
G37*
G36*
G01*
X251725000Y-101949999D02*
X251725000Y-102850001D01*
G75*
G02*
X251475001Y-103100000I-249999J0D01*
G01*
X250949999Y-103100000D01*
G75*
G02*
X250700000Y-102850001I0J249999D01*
G01*
X250700000Y-101949999D01*
G75*
G02*
X250949999Y-101700000I249999J0D01*
G01*
X251475001Y-101700000D01*
G75*
G02*
X251725000Y-101949999I0J-249999D01*
G01*
G37*
%TD*%
%TO.C,C23*%
G36*
G01*
X267425000Y-66550000D02*
X268375000Y-66550000D01*
G75*
G02*
X268625000Y-66800000I0J-250000D01*
G01*
X268625000Y-67300000D01*
G75*
G02*
X268375000Y-67550000I-250000J0D01*
G01*
X267425000Y-67550000D01*
G75*
G02*
X267175000Y-67300000I0J250000D01*
G01*
X267175000Y-66800000D01*
G75*
G02*
X267425000Y-66550000I250000J0D01*
G01*
G37*
G36*
G01*
X267425000Y-64650000D02*
X268375000Y-64650000D01*
G75*
G02*
X268625000Y-64900000I0J-250000D01*
G01*
X268625000Y-65400000D01*
G75*
G02*
X268375000Y-65650000I-250000J0D01*
G01*
X267425000Y-65650000D01*
G75*
G02*
X267175000Y-65400000I0J250000D01*
G01*
X267175000Y-64900000D01*
G75*
G02*
X267425000Y-64650000I250000J0D01*
G01*
G37*
%TD*%
%TO.C,C22*%
G36*
G01*
X272875000Y-58550000D02*
X271925000Y-58550000D01*
G75*
G02*
X271675000Y-58300000I0J250000D01*
G01*
X271675000Y-57800000D01*
G75*
G02*
X271925000Y-57550000I250000J0D01*
G01*
X272875000Y-57550000D01*
G75*
G02*
X273125000Y-57800000I0J-250000D01*
G01*
X273125000Y-58300000D01*
G75*
G02*
X272875000Y-58550000I-250000J0D01*
G01*
G37*
G36*
G01*
X272875000Y-60450000D02*
X271925000Y-60450000D01*
G75*
G02*
X271675000Y-60200000I0J250000D01*
G01*
X271675000Y-59700000D01*
G75*
G02*
X271925000Y-59450000I250000J0D01*
G01*
X272875000Y-59450000D01*
G75*
G02*
X273125000Y-59700000I0J-250000D01*
G01*
X273125000Y-60200000D01*
G75*
G02*
X272875000Y-60450000I-250000J0D01*
G01*
G37*
%TD*%
%TO.C,C21*%
G36*
G01*
X253325000Y-66750000D02*
X254275000Y-66750000D01*
G75*
G02*
X254525000Y-67000000I0J-250000D01*
G01*
X254525000Y-67500000D01*
G75*
G02*
X254275000Y-67750000I-250000J0D01*
G01*
X253325000Y-67750000D01*
G75*
G02*
X253075000Y-67500000I0J250000D01*
G01*
X253075000Y-67000000D01*
G75*
G02*
X253325000Y-66750000I250000J0D01*
G01*
G37*
G36*
G01*
X253325000Y-64850000D02*
X254275000Y-64850000D01*
G75*
G02*
X254525000Y-65100000I0J-250000D01*
G01*
X254525000Y-65600000D01*
G75*
G02*
X254275000Y-65850000I-250000J0D01*
G01*
X253325000Y-65850000D01*
G75*
G02*
X253075000Y-65600000I0J250000D01*
G01*
X253075000Y-65100000D01*
G75*
G02*
X253325000Y-64850000I250000J0D01*
G01*
G37*
%TD*%
%TO.C,C20*%
G36*
G01*
X259775000Y-58750000D02*
X258825000Y-58750000D01*
G75*
G02*
X258575000Y-58500000I0J250000D01*
G01*
X258575000Y-58000000D01*
G75*
G02*
X258825000Y-57750000I250000J0D01*
G01*
X259775000Y-57750000D01*
G75*
G02*
X260025000Y-58000000I0J-250000D01*
G01*
X260025000Y-58500000D01*
G75*
G02*
X259775000Y-58750000I-250000J0D01*
G01*
G37*
G36*
G01*
X259775000Y-60650000D02*
X258825000Y-60650000D01*
G75*
G02*
X258575000Y-60400000I0J250000D01*
G01*
X258575000Y-59900000D01*
G75*
G02*
X258825000Y-59650000I250000J0D01*
G01*
X259775000Y-59650000D01*
G75*
G02*
X260025000Y-59900000I0J-250000D01*
G01*
X260025000Y-60400000D01*
G75*
G02*
X259775000Y-60650000I-250000J0D01*
G01*
G37*
%TD*%
%TO.C,C19*%
G36*
G01*
X234075000Y-97450000D02*
X233125000Y-97450000D01*
G75*
G02*
X232875000Y-97200000I0J250000D01*
G01*
X232875000Y-96700000D01*
G75*
G02*
X233125000Y-96450000I250000J0D01*
G01*
X234075000Y-96450000D01*
G75*
G02*
X234325000Y-96700000I0J-250000D01*
G01*
X234325000Y-97200000D01*
G75*
G02*
X234075000Y-97450000I-250000J0D01*
G01*
G37*
G36*
G01*
X234075000Y-99350000D02*
X233125000Y-99350000D01*
G75*
G02*
X232875000Y-99100000I0J250000D01*
G01*
X232875000Y-98600000D01*
G75*
G02*
X233125000Y-98350000I250000J0D01*
G01*
X234075000Y-98350000D01*
G75*
G02*
X234325000Y-98600000I0J-250000D01*
G01*
X234325000Y-99100000D01*
G75*
G02*
X234075000Y-99350000I-250000J0D01*
G01*
G37*
%TD*%
%TO.C,C18*%
G36*
G01*
X238975000Y-97450000D02*
X238025000Y-97450000D01*
G75*
G02*
X237775000Y-97200000I0J250000D01*
G01*
X237775000Y-96700000D01*
G75*
G02*
X238025000Y-96450000I250000J0D01*
G01*
X238975000Y-96450000D01*
G75*
G02*
X239225000Y-96700000I0J-250000D01*
G01*
X239225000Y-97200000D01*
G75*
G02*
X238975000Y-97450000I-250000J0D01*
G01*
G37*
G36*
G01*
X238975000Y-99350000D02*
X238025000Y-99350000D01*
G75*
G02*
X237775000Y-99100000I0J250000D01*
G01*
X237775000Y-98600000D01*
G75*
G02*
X238025000Y-98350000I250000J0D01*
G01*
X238975000Y-98350000D01*
G75*
G02*
X239225000Y-98600000I0J-250000D01*
G01*
X239225000Y-99100000D01*
G75*
G02*
X238975000Y-99350000I-250000J0D01*
G01*
G37*
%TD*%
%TO.C,C17*%
G36*
G01*
X240725000Y-66650000D02*
X241675000Y-66650000D01*
G75*
G02*
X241925000Y-66900000I0J-250000D01*
G01*
X241925000Y-67400000D01*
G75*
G02*
X241675000Y-67650000I-250000J0D01*
G01*
X240725000Y-67650000D01*
G75*
G02*
X240475000Y-67400000I0J250000D01*
G01*
X240475000Y-66900000D01*
G75*
G02*
X240725000Y-66650000I250000J0D01*
G01*
G37*
G36*
G01*
X240725000Y-64750000D02*
X241675000Y-64750000D01*
G75*
G02*
X241925000Y-65000000I0J-250000D01*
G01*
X241925000Y-65500000D01*
G75*
G02*
X241675000Y-65750000I-250000J0D01*
G01*
X240725000Y-65750000D01*
G75*
G02*
X240475000Y-65500000I0J250000D01*
G01*
X240475000Y-65000000D01*
G75*
G02*
X240725000Y-64750000I250000J0D01*
G01*
G37*
%TD*%
%TO.C,C16*%
G36*
G01*
X246875000Y-58850000D02*
X245925000Y-58850000D01*
G75*
G02*
X245675000Y-58600000I0J250000D01*
G01*
X245675000Y-58100000D01*
G75*
G02*
X245925000Y-57850000I250000J0D01*
G01*
X246875000Y-57850000D01*
G75*
G02*
X247125000Y-58100000I0J-250000D01*
G01*
X247125000Y-58600000D01*
G75*
G02*
X246875000Y-58850000I-250000J0D01*
G01*
G37*
G36*
G01*
X246875000Y-60750000D02*
X245925000Y-60750000D01*
G75*
G02*
X245675000Y-60500000I0J250000D01*
G01*
X245675000Y-60000000D01*
G75*
G02*
X245925000Y-59750000I250000J0D01*
G01*
X246875000Y-59750000D01*
G75*
G02*
X247125000Y-60000000I0J-250000D01*
G01*
X247125000Y-60500000D01*
G75*
G02*
X246875000Y-60750000I-250000J0D01*
G01*
G37*
%TD*%
%TO.C,C15*%
G36*
G01*
X246875000Y-110775000D02*
X246875000Y-109825000D01*
G75*
G02*
X247125000Y-109575000I250000J0D01*
G01*
X247625000Y-109575000D01*
G75*
G02*
X247875000Y-109825000I0J-250000D01*
G01*
X247875000Y-110775000D01*
G75*
G02*
X247625000Y-111025000I-250000J0D01*
G01*
X247125000Y-111025000D01*
G75*
G02*
X246875000Y-110775000I0J250000D01*
G01*
G37*
G36*
G01*
X244975000Y-110775000D02*
X244975000Y-109825000D01*
G75*
G02*
X245225000Y-109575000I250000J0D01*
G01*
X245725000Y-109575000D01*
G75*
G02*
X245975000Y-109825000I0J-250000D01*
G01*
X245975000Y-110775000D01*
G75*
G02*
X245725000Y-111025000I-250000J0D01*
G01*
X245225000Y-111025000D01*
G75*
G02*
X244975000Y-110775000I0J250000D01*
G01*
G37*
%TD*%
%TO.C,C14*%
G36*
G01*
X226900000Y-61325000D02*
X226900000Y-62275000D01*
G75*
G02*
X226650000Y-62525000I-250000J0D01*
G01*
X226150000Y-62525000D01*
G75*
G02*
X225900000Y-62275000I0J250000D01*
G01*
X225900000Y-61325000D01*
G75*
G02*
X226150000Y-61075000I250000J0D01*
G01*
X226650000Y-61075000D01*
G75*
G02*
X226900000Y-61325000I0J-250000D01*
G01*
G37*
G36*
G01*
X228800000Y-61325000D02*
X228800000Y-62275000D01*
G75*
G02*
X228550000Y-62525000I-250000J0D01*
G01*
X228050000Y-62525000D01*
G75*
G02*
X227800000Y-62275000I0J250000D01*
G01*
X227800000Y-61325000D01*
G75*
G02*
X228050000Y-61075000I250000J0D01*
G01*
X228550000Y-61075000D01*
G75*
G02*
X228800000Y-61325000I0J-250000D01*
G01*
G37*
%TD*%
%TO.C,C13*%
G36*
G01*
X231025000Y-82650000D02*
X231975000Y-82650000D01*
G75*
G02*
X232225000Y-82900000I0J-250000D01*
G01*
X232225000Y-83400000D01*
G75*
G02*
X231975000Y-83650000I-250000J0D01*
G01*
X231025000Y-83650000D01*
G75*
G02*
X230775000Y-83400000I0J250000D01*
G01*
X230775000Y-82900000D01*
G75*
G02*
X231025000Y-82650000I250000J0D01*
G01*
G37*
G36*
G01*
X231025000Y-80750000D02*
X231975000Y-80750000D01*
G75*
G02*
X232225000Y-81000000I0J-250000D01*
G01*
X232225000Y-81500000D01*
G75*
G02*
X231975000Y-81750000I-250000J0D01*
G01*
X231025000Y-81750000D01*
G75*
G02*
X230775000Y-81500000I0J250000D01*
G01*
X230775000Y-81000000D01*
G75*
G02*
X231025000Y-80750000I250000J0D01*
G01*
G37*
%TD*%
%TO.C,C12*%
G36*
G01*
X214000000Y-61700000D02*
X214000000Y-62650000D01*
G75*
G02*
X213750000Y-62900000I-250000J0D01*
G01*
X213250000Y-62900000D01*
G75*
G02*
X213000000Y-62650000I0J250000D01*
G01*
X213000000Y-61700000D01*
G75*
G02*
X213250000Y-61450000I250000J0D01*
G01*
X213750000Y-61450000D01*
G75*
G02*
X214000000Y-61700000I0J-250000D01*
G01*
G37*
G36*
G01*
X215900000Y-61700000D02*
X215900000Y-62650000D01*
G75*
G02*
X215650000Y-62900000I-250000J0D01*
G01*
X215150000Y-62900000D01*
G75*
G02*
X214900000Y-62650000I0J250000D01*
G01*
X214900000Y-61700000D01*
G75*
G02*
X215150000Y-61450000I250000J0D01*
G01*
X215650000Y-61450000D01*
G75*
G02*
X215900000Y-61700000I0J-250000D01*
G01*
G37*
%TD*%
%TO.C,C11*%
G36*
G01*
X200850000Y-61400000D02*
X200850000Y-62350000D01*
G75*
G02*
X200600000Y-62600000I-250000J0D01*
G01*
X200100000Y-62600000D01*
G75*
G02*
X199850000Y-62350000I0J250000D01*
G01*
X199850000Y-61400000D01*
G75*
G02*
X200100000Y-61150000I250000J0D01*
G01*
X200600000Y-61150000D01*
G75*
G02*
X200850000Y-61400000I0J-250000D01*
G01*
G37*
G36*
G01*
X202750000Y-61400000D02*
X202750000Y-62350000D01*
G75*
G02*
X202500000Y-62600000I-250000J0D01*
G01*
X202000000Y-62600000D01*
G75*
G02*
X201750000Y-62350000I0J250000D01*
G01*
X201750000Y-61400000D01*
G75*
G02*
X202000000Y-61150000I250000J0D01*
G01*
X202500000Y-61150000D01*
G75*
G02*
X202750000Y-61400000I0J-250000D01*
G01*
G37*
%TD*%
%TO.C,C10*%
G36*
G01*
X269175000Y-90050000D02*
X270125000Y-90050000D01*
G75*
G02*
X270375000Y-90300000I0J-250000D01*
G01*
X270375000Y-90800000D01*
G75*
G02*
X270125000Y-91050000I-250000J0D01*
G01*
X269175000Y-91050000D01*
G75*
G02*
X268925000Y-90800000I0J250000D01*
G01*
X268925000Y-90300000D01*
G75*
G02*
X269175000Y-90050000I250000J0D01*
G01*
G37*
G36*
G01*
X269175000Y-88150000D02*
X270125000Y-88150000D01*
G75*
G02*
X270375000Y-88400000I0J-250000D01*
G01*
X270375000Y-88900000D01*
G75*
G02*
X270125000Y-89150000I-250000J0D01*
G01*
X269175000Y-89150000D01*
G75*
G02*
X268925000Y-88900000I0J250000D01*
G01*
X268925000Y-88400000D01*
G75*
G02*
X269175000Y-88150000I250000J0D01*
G01*
G37*
%TD*%
%TO.C,C9*%
G36*
G01*
X217600000Y-97650000D02*
X216650000Y-97650000D01*
G75*
G02*
X216400000Y-97400000I0J250000D01*
G01*
X216400000Y-96900000D01*
G75*
G02*
X216650000Y-96650000I250000J0D01*
G01*
X217600000Y-96650000D01*
G75*
G02*
X217850000Y-96900000I0J-250000D01*
G01*
X217850000Y-97400000D01*
G75*
G02*
X217600000Y-97650000I-250000J0D01*
G01*
G37*
G36*
G01*
X217600000Y-99550000D02*
X216650000Y-99550000D01*
G75*
G02*
X216400000Y-99300000I0J250000D01*
G01*
X216400000Y-98800000D01*
G75*
G02*
X216650000Y-98550000I250000J0D01*
G01*
X217600000Y-98550000D01*
G75*
G02*
X217850000Y-98800000I0J-250000D01*
G01*
X217850000Y-99300000D01*
G75*
G02*
X217600000Y-99550000I-250000J0D01*
G01*
G37*
%TD*%
%TO.C,C8*%
G36*
G01*
X216600000Y-91900000D02*
X217550000Y-91900000D01*
G75*
G02*
X217800000Y-92150000I0J-250000D01*
G01*
X217800000Y-92650000D01*
G75*
G02*
X217550000Y-92900000I-250000J0D01*
G01*
X216600000Y-92900000D01*
G75*
G02*
X216350000Y-92650000I0J250000D01*
G01*
X216350000Y-92150000D01*
G75*
G02*
X216600000Y-91900000I250000J0D01*
G01*
G37*
G36*
G01*
X216600000Y-90000000D02*
X217550000Y-90000000D01*
G75*
G02*
X217800000Y-90250000I0J-250000D01*
G01*
X217800000Y-90750000D01*
G75*
G02*
X217550000Y-91000000I-250000J0D01*
G01*
X216600000Y-91000000D01*
G75*
G02*
X216350000Y-90750000I0J250000D01*
G01*
X216350000Y-90250000D01*
G75*
G02*
X216600000Y-90000000I250000J0D01*
G01*
G37*
%TD*%
%TO.C,C7*%
G36*
G01*
X212275000Y-103100000D02*
X212275000Y-104050000D01*
G75*
G02*
X212025000Y-104300000I-250000J0D01*
G01*
X211525000Y-104300000D01*
G75*
G02*
X211275000Y-104050000I0J250000D01*
G01*
X211275000Y-103100000D01*
G75*
G02*
X211525000Y-102850000I250000J0D01*
G01*
X212025000Y-102850000D01*
G75*
G02*
X212275000Y-103100000I0J-250000D01*
G01*
G37*
G36*
G01*
X214175000Y-103100000D02*
X214175000Y-104050000D01*
G75*
G02*
X213925000Y-104300000I-250000J0D01*
G01*
X213425000Y-104300000D01*
G75*
G02*
X213175000Y-104050000I0J250000D01*
G01*
X213175000Y-103100000D01*
G75*
G02*
X213425000Y-102850000I250000J0D01*
G01*
X213925000Y-102850000D01*
G75*
G02*
X214175000Y-103100000I0J-250000D01*
G01*
G37*
%TD*%
%TO.C,C6*%
G36*
G01*
X205500000Y-104100000D02*
X205500000Y-103150000D01*
G75*
G02*
X205750000Y-102900000I250000J0D01*
G01*
X206250000Y-102900000D01*
G75*
G02*
X206500000Y-103150000I0J-250000D01*
G01*
X206500000Y-104100000D01*
G75*
G02*
X206250000Y-104350000I-250000J0D01*
G01*
X205750000Y-104350000D01*
G75*
G02*
X205500000Y-104100000I0J250000D01*
G01*
G37*
G36*
G01*
X203600000Y-104100000D02*
X203600000Y-103150000D01*
G75*
G02*
X203850000Y-102900000I250000J0D01*
G01*
X204350000Y-102900000D01*
G75*
G02*
X204600000Y-103150000I0J-250000D01*
G01*
X204600000Y-104100000D01*
G75*
G02*
X204350000Y-104350000I-250000J0D01*
G01*
X203850000Y-104350000D01*
G75*
G02*
X203600000Y-104100000I0J250000D01*
G01*
G37*
%TD*%
%TO.C,C5*%
G36*
G01*
X200525000Y-100650000D02*
X199575000Y-100650000D01*
G75*
G02*
X199325000Y-100400000I0J250000D01*
G01*
X199325000Y-99900000D01*
G75*
G02*
X199575000Y-99650000I250000J0D01*
G01*
X200525000Y-99650000D01*
G75*
G02*
X200775000Y-99900000I0J-250000D01*
G01*
X200775000Y-100400000D01*
G75*
G02*
X200525000Y-100650000I-250000J0D01*
G01*
G37*
G36*
G01*
X200525000Y-102550000D02*
X199575000Y-102550000D01*
G75*
G02*
X199325000Y-102300000I0J250000D01*
G01*
X199325000Y-101800000D01*
G75*
G02*
X199575000Y-101550000I250000J0D01*
G01*
X200525000Y-101550000D01*
G75*
G02*
X200775000Y-101800000I0J-250000D01*
G01*
X200775000Y-102300000D01*
G75*
G02*
X200525000Y-102550000I-250000J0D01*
G01*
G37*
%TD*%
%TO.C,C4*%
G36*
G01*
X199525000Y-93700000D02*
X200475000Y-93700000D01*
G75*
G02*
X200725000Y-93950000I0J-250000D01*
G01*
X200725000Y-94450000D01*
G75*
G02*
X200475000Y-94700000I-250000J0D01*
G01*
X199525000Y-94700000D01*
G75*
G02*
X199275000Y-94450000I0J250000D01*
G01*
X199275000Y-93950000D01*
G75*
G02*
X199525000Y-93700000I250000J0D01*
G01*
G37*
G36*
G01*
X199525000Y-91800000D02*
X200475000Y-91800000D01*
G75*
G02*
X200725000Y-92050000I0J-250000D01*
G01*
X200725000Y-92550000D01*
G75*
G02*
X200475000Y-92800000I-250000J0D01*
G01*
X199525000Y-92800000D01*
G75*
G02*
X199275000Y-92550000I0J250000D01*
G01*
X199275000Y-92050000D01*
G75*
G02*
X199525000Y-91800000I250000J0D01*
G01*
G37*
%TD*%
%TO.C,C3*%
G36*
G01*
X211400000Y-86975000D02*
X211400000Y-87925000D01*
G75*
G02*
X211150000Y-88175000I-250000J0D01*
G01*
X210650000Y-88175000D01*
G75*
G02*
X210400000Y-87925000I0J250000D01*
G01*
X210400000Y-86975000D01*
G75*
G02*
X210650000Y-86725000I250000J0D01*
G01*
X211150000Y-86725000D01*
G75*
G02*
X211400000Y-86975000I0J-250000D01*
G01*
G37*
G36*
G01*
X213300000Y-86975000D02*
X213300000Y-87925000D01*
G75*
G02*
X213050000Y-88175000I-250000J0D01*
G01*
X212550000Y-88175000D01*
G75*
G02*
X212300000Y-87925000I0J250000D01*
G01*
X212300000Y-86975000D01*
G75*
G02*
X212550000Y-86725000I250000J0D01*
G01*
X213050000Y-86725000D01*
G75*
G02*
X213300000Y-86975000I0J-250000D01*
G01*
G37*
%TD*%
%TO.C,C2*%
G36*
G01*
X203250000Y-87925000D02*
X203250000Y-86975000D01*
G75*
G02*
X203500000Y-86725000I250000J0D01*
G01*
X204000000Y-86725000D01*
G75*
G02*
X204250000Y-86975000I0J-250000D01*
G01*
X204250000Y-87925000D01*
G75*
G02*
X204000000Y-88175000I-250000J0D01*
G01*
X203500000Y-88175000D01*
G75*
G02*
X203250000Y-87925000I0J250000D01*
G01*
G37*
G36*
G01*
X201350000Y-87925000D02*
X201350000Y-86975000D01*
G75*
G02*
X201600000Y-86725000I250000J0D01*
G01*
X202100000Y-86725000D01*
G75*
G02*
X202350000Y-86975000I0J-250000D01*
G01*
X202350000Y-87925000D01*
G75*
G02*
X202100000Y-88175000I-250000J0D01*
G01*
X201600000Y-88175000D01*
G75*
G02*
X201350000Y-87925000I0J250000D01*
G01*
G37*
%TD*%
%TO.C,C1*%
G36*
G01*
X208525000Y-95650000D02*
X208525000Y-94700000D01*
G75*
G02*
X208775000Y-94450000I250000J0D01*
G01*
X209275000Y-94450000D01*
G75*
G02*
X209525000Y-94700000I0J-250000D01*
G01*
X209525000Y-95650000D01*
G75*
G02*
X209275000Y-95900000I-250000J0D01*
G01*
X208775000Y-95900000D01*
G75*
G02*
X208525000Y-95650000I0J250000D01*
G01*
G37*
G36*
G01*
X206625000Y-95650000D02*
X206625000Y-94700000D01*
G75*
G02*
X206875000Y-94450000I250000J0D01*
G01*
X207375000Y-94450000D01*
G75*
G02*
X207625000Y-94700000I0J-250000D01*
G01*
X207625000Y-95650000D01*
G75*
G02*
X207375000Y-95900000I-250000J0D01*
G01*
X206875000Y-95900000D01*
G75*
G02*
X206625000Y-95650000I0J250000D01*
G01*
G37*
%TD*%
M02*
