%TF.GenerationSoftware,KiCad,Pcbnew,(5.1.10)-1*%
%TF.CreationDate,2022-03-07T13:38:47+08:00*%
%TF.ProjectId,MAX7000-GPU,4d415837-3030-4302-9d47-50552e6b6963,rev?*%
%TF.SameCoordinates,Original*%
%TF.FileFunction,Soldermask,Top*%
%TF.FilePolarity,Negative*%
%FSLAX46Y46*%
G04 Gerber Fmt 4.6, Leading zero omitted, Abs format (unit mm)*
G04 Created by KiCad (PCBNEW (5.1.10)-1) date 2022-03-07 13:38:47*
%MOMM*%
%LPD*%
G01*
G04 APERTURE LIST*
%ADD10O,1.700000X1.700000*%
%ADD11R,1.700000X1.700000*%
%ADD12C,1.500000*%
%ADD13O,2.000000X1.905000*%
%ADD14R,2.000000X1.905000*%
%ADD15O,1.600000X1.600000*%
%ADD16R,1.600000X1.600000*%
%ADD17C,1.422400*%
%ADD18R,1.422400X1.422400*%
%ADD19C,2.000000*%
%ADD20C,4.000000*%
%ADD21C,1.600000*%
%ADD22R,1.800000X4.400000*%
%ADD23O,1.800000X4.000000*%
%ADD24O,4.000000X1.800000*%
%ADD25O,2.000000X4.000000*%
%ADD26O,3.500000X2.000000*%
G04 APERTURE END LIST*
D10*
%TO.C,J10*%
X274835000Y-81090000D03*
X277375000Y-81090000D03*
X274835000Y-83630000D03*
X277375000Y-83630000D03*
X274835000Y-86170000D03*
X277375000Y-86170000D03*
X274835000Y-88710000D03*
X277375000Y-88710000D03*
X274835000Y-91250000D03*
D11*
X277375000Y-91250000D03*
%TD*%
D10*
%TO.C,J3*%
X276500000Y-75160000D03*
X276500000Y-72620000D03*
X276500000Y-70080000D03*
X276500000Y-67540000D03*
D11*
X276500000Y-65000000D03*
%TD*%
D12*
%TO.C,Y1*%
X233500000Y-104000000D03*
X238380000Y-104000000D03*
%TD*%
D13*
%TO.C,U10*%
X185500000Y-63460000D03*
X185500000Y-66000000D03*
D14*
X185500000Y-68540000D03*
%TD*%
D15*
%TO.C,U9*%
X231120000Y-61500000D03*
X223500000Y-69120000D03*
X231120000Y-64040000D03*
X223500000Y-66580000D03*
X231120000Y-66580000D03*
X223500000Y-64040000D03*
X231120000Y-69120000D03*
D16*
X223500000Y-61500000D03*
%TD*%
D15*
%TO.C,U8*%
X263000000Y-62380000D03*
X270620000Y-70000000D03*
X265540000Y-62380000D03*
X268080000Y-70000000D03*
X268080000Y-62380000D03*
X265540000Y-70000000D03*
X270620000Y-62380000D03*
D16*
X263000000Y-70000000D03*
%TD*%
D15*
%TO.C,U7*%
X218120000Y-61500000D03*
X210500000Y-69120000D03*
X218120000Y-64040000D03*
X210500000Y-66580000D03*
X218120000Y-66580000D03*
X210500000Y-64040000D03*
X218120000Y-69120000D03*
D16*
X210500000Y-61500000D03*
%TD*%
D15*
%TO.C,U6*%
X205120000Y-61500000D03*
X197500000Y-69120000D03*
X205120000Y-64040000D03*
X197500000Y-66580000D03*
X205120000Y-66580000D03*
X197500000Y-64040000D03*
X205120000Y-69120000D03*
D16*
X197500000Y-61500000D03*
%TD*%
%TO.C,U5*%
X250000000Y-70000000D03*
D15*
X257620000Y-62380000D03*
X252540000Y-70000000D03*
X255080000Y-62380000D03*
X255080000Y-70000000D03*
X252540000Y-62380000D03*
X257620000Y-70000000D03*
X250000000Y-62380000D03*
%TD*%
%TO.C,U4*%
X231500000Y-78260000D03*
X269600000Y-93500000D03*
X234040000Y-78260000D03*
X267060000Y-93500000D03*
X236580000Y-78260000D03*
X264520000Y-93500000D03*
X239120000Y-78260000D03*
X261980000Y-93500000D03*
X241660000Y-78260000D03*
X259440000Y-93500000D03*
X244200000Y-78260000D03*
X256900000Y-93500000D03*
X246740000Y-78260000D03*
X254360000Y-93500000D03*
X249280000Y-78260000D03*
X251820000Y-93500000D03*
X251820000Y-78260000D03*
X249280000Y-93500000D03*
X254360000Y-78260000D03*
X246740000Y-93500000D03*
X256900000Y-78260000D03*
X244200000Y-93500000D03*
X259440000Y-78260000D03*
X241660000Y-93500000D03*
X261980000Y-78260000D03*
X239120000Y-93500000D03*
X264520000Y-78260000D03*
X236580000Y-93500000D03*
X267060000Y-78260000D03*
X234040000Y-93500000D03*
X269600000Y-78260000D03*
D16*
X231500000Y-93500000D03*
%TD*%
D15*
%TO.C,U3*%
X237000000Y-62380000D03*
X244620000Y-70000000D03*
X239540000Y-62380000D03*
X242080000Y-70000000D03*
X242080000Y-62380000D03*
X239540000Y-70000000D03*
X244620000Y-62380000D03*
D16*
X237000000Y-70000000D03*
%TD*%
D15*
%TO.C,U2*%
X246500000Y-97880000D03*
X261740000Y-105500000D03*
X249040000Y-97880000D03*
X259200000Y-105500000D03*
X251580000Y-97880000D03*
X256660000Y-105500000D03*
X254120000Y-97880000D03*
X254120000Y-105500000D03*
X256660000Y-97880000D03*
X251580000Y-105500000D03*
X259200000Y-97880000D03*
X249040000Y-105500000D03*
X261740000Y-97880000D03*
D16*
X246500000Y-105500000D03*
%TD*%
D17*
%TO.C,U1*%
X223980000Y-84640000D03*
X223980000Y-87180000D03*
X223980000Y-89720000D03*
X223980000Y-92260000D03*
X223980000Y-94800000D03*
X223980000Y-97340000D03*
X223980000Y-99880000D03*
X223980000Y-102420000D03*
X223980000Y-104960000D03*
X223980000Y-107500000D03*
X221440000Y-84640000D03*
X221440000Y-87180000D03*
X221440000Y-89720000D03*
X221440000Y-92260000D03*
X221440000Y-94800000D03*
X221440000Y-97340000D03*
X221440000Y-99880000D03*
X221440000Y-102420000D03*
X221440000Y-104960000D03*
X221440000Y-107500000D03*
X221440000Y-110040000D03*
X218900000Y-110040000D03*
X216360000Y-110040000D03*
X213820000Y-110040000D03*
X211280000Y-110040000D03*
X208740000Y-110040000D03*
X206200000Y-110040000D03*
X203660000Y-110040000D03*
X201120000Y-110040000D03*
X198580000Y-110040000D03*
X196040000Y-110040000D03*
X218900000Y-107500000D03*
X216360000Y-107500000D03*
X213820000Y-107500000D03*
X211280000Y-107500000D03*
X208740000Y-107500000D03*
X206200000Y-107500000D03*
X203660000Y-107500000D03*
X201120000Y-107500000D03*
X198580000Y-107500000D03*
X196040000Y-107500000D03*
X193500000Y-107500000D03*
X193500000Y-104960000D03*
X193500000Y-102420000D03*
X193500000Y-99880000D03*
X193500000Y-97340000D03*
X193500000Y-94800000D03*
X193500000Y-92260000D03*
X193500000Y-89720000D03*
X193500000Y-87180000D03*
X193500000Y-84640000D03*
X193500000Y-82100000D03*
X196040000Y-104960000D03*
X196040000Y-102420000D03*
X196040000Y-99880000D03*
X196040000Y-97340000D03*
X196040000Y-94800000D03*
X196040000Y-92260000D03*
X196040000Y-89720000D03*
X196040000Y-87180000D03*
X196040000Y-84640000D03*
X196040000Y-82100000D03*
X221440000Y-79560000D03*
X218900000Y-79560000D03*
X216360000Y-79560000D03*
X213820000Y-79560000D03*
X211280000Y-79560000D03*
X196040000Y-79560000D03*
X198580000Y-79560000D03*
X201120000Y-79560000D03*
X203660000Y-79560000D03*
X206200000Y-79560000D03*
D18*
X208740000Y-79560000D03*
D17*
X223980000Y-82100000D03*
X221440000Y-82100000D03*
X218900000Y-82100000D03*
X216360000Y-82100000D03*
X213820000Y-82100000D03*
X211280000Y-82100000D03*
X198580000Y-82100000D03*
X201120000Y-82100000D03*
X203660000Y-82100000D03*
X206200000Y-82100000D03*
X208740000Y-82100000D03*
%TD*%
D19*
%TO.C,SW3*%
X269325000Y-53525000D03*
X269325000Y-58025000D03*
X262825000Y-53525000D03*
X262825000Y-58025000D03*
%TD*%
%TO.C,SW2*%
X256475000Y-53525000D03*
X256475000Y-58025000D03*
X249975000Y-53525000D03*
X249975000Y-58025000D03*
%TD*%
%TO.C,SW1*%
X243500000Y-53500000D03*
X243500000Y-58000000D03*
X237000000Y-53500000D03*
X237000000Y-58000000D03*
%TD*%
%TO.C,R4*%
G36*
G01*
X241300000Y-98650001D02*
X241300000Y-97749999D01*
G75*
G02*
X241549999Y-97500000I249999J0D01*
G01*
X242075001Y-97500000D01*
G75*
G02*
X242325000Y-97749999I0J-249999D01*
G01*
X242325000Y-98650001D01*
G75*
G02*
X242075001Y-98900000I-249999J0D01*
G01*
X241549999Y-98900000D01*
G75*
G02*
X241300000Y-98650001I0J249999D01*
G01*
G37*
G36*
G01*
X239475000Y-98650001D02*
X239475000Y-97749999D01*
G75*
G02*
X239724999Y-97500000I249999J0D01*
G01*
X240250001Y-97500000D01*
G75*
G02*
X240500000Y-97749999I0J-249999D01*
G01*
X240500000Y-98650001D01*
G75*
G02*
X240250001Y-98900000I-249999J0D01*
G01*
X239724999Y-98900000D01*
G75*
G02*
X239475000Y-98650001I0J249999D01*
G01*
G37*
%TD*%
D10*
%TO.C,J9*%
X259120000Y-110500000D03*
X256580000Y-110500000D03*
X254040000Y-110500000D03*
D11*
X251500000Y-110500000D03*
%TD*%
D10*
%TO.C,J8*%
X269600000Y-74000000D03*
X267060000Y-74000000D03*
X264520000Y-74000000D03*
X261980000Y-74000000D03*
X259440000Y-74000000D03*
X256900000Y-74000000D03*
X254360000Y-74000000D03*
X251820000Y-74000000D03*
X249280000Y-74000000D03*
X246740000Y-74000000D03*
X244200000Y-74000000D03*
X241660000Y-74000000D03*
X239120000Y-74000000D03*
X236580000Y-74000000D03*
X234040000Y-74000000D03*
D11*
X231500000Y-74000000D03*
%TD*%
D10*
%TO.C,J7*%
X184900000Y-74000000D03*
X187440000Y-74000000D03*
X189980000Y-74000000D03*
X192520000Y-74000000D03*
X195060000Y-74000000D03*
X197600000Y-74000000D03*
X200140000Y-74000000D03*
X202680000Y-74000000D03*
X205220000Y-74000000D03*
X207760000Y-74000000D03*
X210300000Y-74000000D03*
X212840000Y-74000000D03*
X215380000Y-74000000D03*
X217920000Y-74000000D03*
X220460000Y-74000000D03*
D11*
X223000000Y-74000000D03*
%TD*%
D10*
%TO.C,J6*%
X276500000Y-59080000D03*
X276500000Y-56540000D03*
D11*
X276500000Y-54000000D03*
%TD*%
D20*
%TO.C,J5*%
X185000000Y-107120000D03*
X185000000Y-82120000D03*
D21*
X183090000Y-89775000D03*
X183090000Y-92065000D03*
X183090000Y-94355000D03*
X183090000Y-96645000D03*
X183090000Y-98935000D03*
X185070000Y-90920000D03*
X185070000Y-93210000D03*
X185070000Y-95500000D03*
X185070000Y-97790000D03*
X185070000Y-100080000D03*
X187050000Y-89775000D03*
X187050000Y-92065000D03*
X187050000Y-94355000D03*
X187050000Y-96645000D03*
D16*
X187050000Y-98935000D03*
%TD*%
D22*
%TO.C,J4*%
X194100000Y-55000000D03*
D23*
X188300000Y-55000000D03*
D24*
X191100000Y-59800000D03*
%TD*%
D10*
%TO.C,J2*%
X242120000Y-110500000D03*
X239580000Y-110500000D03*
X237040000Y-110500000D03*
D11*
X234500000Y-110500000D03*
%TD*%
D25*
%TO.C,J1*%
X274450000Y-105300000D03*
D21*
X268000000Y-108700000D03*
X268000000Y-101900000D03*
X270800000Y-108700000D03*
X270800000Y-101900000D03*
X270800000Y-106600000D03*
D16*
X270800000Y-104000000D03*
D26*
X273650000Y-98450000D03*
X273650000Y-112150000D03*
%TD*%
%TO.C,D8*%
G36*
G01*
X226443750Y-54850000D02*
X227356250Y-54850000D01*
G75*
G02*
X227600000Y-55093750I0J-243750D01*
G01*
X227600000Y-55581250D01*
G75*
G02*
X227356250Y-55825000I-243750J0D01*
G01*
X226443750Y-55825000D01*
G75*
G02*
X226200000Y-55581250I0J243750D01*
G01*
X226200000Y-55093750D01*
G75*
G02*
X226443750Y-54850000I243750J0D01*
G01*
G37*
G36*
G01*
X226443750Y-52975000D02*
X227356250Y-52975000D01*
G75*
G02*
X227600000Y-53218750I0J-243750D01*
G01*
X227600000Y-53706250D01*
G75*
G02*
X227356250Y-53950000I-243750J0D01*
G01*
X226443750Y-53950000D01*
G75*
G02*
X226200000Y-53706250I0J243750D01*
G01*
X226200000Y-53218750D01*
G75*
G02*
X226443750Y-52975000I243750J0D01*
G01*
G37*
%TD*%
%TO.C,D7*%
G36*
G01*
X222943750Y-54850000D02*
X223856250Y-54850000D01*
G75*
G02*
X224100000Y-55093750I0J-243750D01*
G01*
X224100000Y-55581250D01*
G75*
G02*
X223856250Y-55825000I-243750J0D01*
G01*
X222943750Y-55825000D01*
G75*
G02*
X222700000Y-55581250I0J243750D01*
G01*
X222700000Y-55093750D01*
G75*
G02*
X222943750Y-54850000I243750J0D01*
G01*
G37*
G36*
G01*
X222943750Y-52975000D02*
X223856250Y-52975000D01*
G75*
G02*
X224100000Y-53218750I0J-243750D01*
G01*
X224100000Y-53706250D01*
G75*
G02*
X223856250Y-53950000I-243750J0D01*
G01*
X222943750Y-53950000D01*
G75*
G02*
X222700000Y-53706250I0J243750D01*
G01*
X222700000Y-53218750D01*
G75*
G02*
X222943750Y-52975000I243750J0D01*
G01*
G37*
%TD*%
%TO.C,D6*%
G36*
G01*
X219443750Y-54850000D02*
X220356250Y-54850000D01*
G75*
G02*
X220600000Y-55093750I0J-243750D01*
G01*
X220600000Y-55581250D01*
G75*
G02*
X220356250Y-55825000I-243750J0D01*
G01*
X219443750Y-55825000D01*
G75*
G02*
X219200000Y-55581250I0J243750D01*
G01*
X219200000Y-55093750D01*
G75*
G02*
X219443750Y-54850000I243750J0D01*
G01*
G37*
G36*
G01*
X219443750Y-52975000D02*
X220356250Y-52975000D01*
G75*
G02*
X220600000Y-53218750I0J-243750D01*
G01*
X220600000Y-53706250D01*
G75*
G02*
X220356250Y-53950000I-243750J0D01*
G01*
X219443750Y-53950000D01*
G75*
G02*
X219200000Y-53706250I0J243750D01*
G01*
X219200000Y-53218750D01*
G75*
G02*
X219443750Y-52975000I243750J0D01*
G01*
G37*
%TD*%
%TO.C,D5*%
G36*
G01*
X215943750Y-54850000D02*
X216856250Y-54850000D01*
G75*
G02*
X217100000Y-55093750I0J-243750D01*
G01*
X217100000Y-55581250D01*
G75*
G02*
X216856250Y-55825000I-243750J0D01*
G01*
X215943750Y-55825000D01*
G75*
G02*
X215700000Y-55581250I0J243750D01*
G01*
X215700000Y-55093750D01*
G75*
G02*
X215943750Y-54850000I243750J0D01*
G01*
G37*
G36*
G01*
X215943750Y-52975000D02*
X216856250Y-52975000D01*
G75*
G02*
X217100000Y-53218750I0J-243750D01*
G01*
X217100000Y-53706250D01*
G75*
G02*
X216856250Y-53950000I-243750J0D01*
G01*
X215943750Y-53950000D01*
G75*
G02*
X215700000Y-53706250I0J243750D01*
G01*
X215700000Y-53218750D01*
G75*
G02*
X215943750Y-52975000I243750J0D01*
G01*
G37*
%TD*%
%TO.C,D4*%
G36*
G01*
X212443750Y-54850000D02*
X213356250Y-54850000D01*
G75*
G02*
X213600000Y-55093750I0J-243750D01*
G01*
X213600000Y-55581250D01*
G75*
G02*
X213356250Y-55825000I-243750J0D01*
G01*
X212443750Y-55825000D01*
G75*
G02*
X212200000Y-55581250I0J243750D01*
G01*
X212200000Y-55093750D01*
G75*
G02*
X212443750Y-54850000I243750J0D01*
G01*
G37*
G36*
G01*
X212443750Y-52975000D02*
X213356250Y-52975000D01*
G75*
G02*
X213600000Y-53218750I0J-243750D01*
G01*
X213600000Y-53706250D01*
G75*
G02*
X213356250Y-53950000I-243750J0D01*
G01*
X212443750Y-53950000D01*
G75*
G02*
X212200000Y-53706250I0J243750D01*
G01*
X212200000Y-53218750D01*
G75*
G02*
X212443750Y-52975000I243750J0D01*
G01*
G37*
%TD*%
%TO.C,D3*%
G36*
G01*
X208943750Y-54850000D02*
X209856250Y-54850000D01*
G75*
G02*
X210100000Y-55093750I0J-243750D01*
G01*
X210100000Y-55581250D01*
G75*
G02*
X209856250Y-55825000I-243750J0D01*
G01*
X208943750Y-55825000D01*
G75*
G02*
X208700000Y-55581250I0J243750D01*
G01*
X208700000Y-55093750D01*
G75*
G02*
X208943750Y-54850000I243750J0D01*
G01*
G37*
G36*
G01*
X208943750Y-52975000D02*
X209856250Y-52975000D01*
G75*
G02*
X210100000Y-53218750I0J-243750D01*
G01*
X210100000Y-53706250D01*
G75*
G02*
X209856250Y-53950000I-243750J0D01*
G01*
X208943750Y-53950000D01*
G75*
G02*
X208700000Y-53706250I0J243750D01*
G01*
X208700000Y-53218750D01*
G75*
G02*
X208943750Y-52975000I243750J0D01*
G01*
G37*
%TD*%
%TO.C,D2*%
G36*
G01*
X205443750Y-54850000D02*
X206356250Y-54850000D01*
G75*
G02*
X206600000Y-55093750I0J-243750D01*
G01*
X206600000Y-55581250D01*
G75*
G02*
X206356250Y-55825000I-243750J0D01*
G01*
X205443750Y-55825000D01*
G75*
G02*
X205200000Y-55581250I0J243750D01*
G01*
X205200000Y-55093750D01*
G75*
G02*
X205443750Y-54850000I243750J0D01*
G01*
G37*
G36*
G01*
X205443750Y-52975000D02*
X206356250Y-52975000D01*
G75*
G02*
X206600000Y-53218750I0J-243750D01*
G01*
X206600000Y-53706250D01*
G75*
G02*
X206356250Y-53950000I-243750J0D01*
G01*
X205443750Y-53950000D01*
G75*
G02*
X205200000Y-53706250I0J243750D01*
G01*
X205200000Y-53218750D01*
G75*
G02*
X205443750Y-52975000I243750J0D01*
G01*
G37*
%TD*%
%TO.C,D1*%
G36*
G01*
X201943750Y-54912500D02*
X202856250Y-54912500D01*
G75*
G02*
X203100000Y-55156250I0J-243750D01*
G01*
X203100000Y-55643750D01*
G75*
G02*
X202856250Y-55887500I-243750J0D01*
G01*
X201943750Y-55887500D01*
G75*
G02*
X201700000Y-55643750I0J243750D01*
G01*
X201700000Y-55156250D01*
G75*
G02*
X201943750Y-54912500I243750J0D01*
G01*
G37*
G36*
G01*
X201943750Y-53037500D02*
X202856250Y-53037500D01*
G75*
G02*
X203100000Y-53281250I0J-243750D01*
G01*
X203100000Y-53768750D01*
G75*
G02*
X202856250Y-54012500I-243750J0D01*
G01*
X201943750Y-54012500D01*
G75*
G02*
X201700000Y-53768750I0J243750D01*
G01*
X201700000Y-53281250D01*
G75*
G02*
X201943750Y-53037500I243750J0D01*
G01*
G37*
%TD*%
%TO.C,C25*%
G36*
G01*
X191550000Y-64275000D02*
X191550000Y-63325000D01*
G75*
G02*
X191800000Y-63075000I250000J0D01*
G01*
X192300000Y-63075000D01*
G75*
G02*
X192550000Y-63325000I0J-250000D01*
G01*
X192550000Y-64275000D01*
G75*
G02*
X192300000Y-64525000I-250000J0D01*
G01*
X191800000Y-64525000D01*
G75*
G02*
X191550000Y-64275000I0J250000D01*
G01*
G37*
G36*
G01*
X189650000Y-64275000D02*
X189650000Y-63325000D01*
G75*
G02*
X189900000Y-63075000I250000J0D01*
G01*
X190400000Y-63075000D01*
G75*
G02*
X190650000Y-63325000I0J-250000D01*
G01*
X190650000Y-64275000D01*
G75*
G02*
X190400000Y-64525000I-250000J0D01*
G01*
X189900000Y-64525000D01*
G75*
G02*
X189650000Y-64275000I0J250000D01*
G01*
G37*
%TD*%
%TO.C,C24*%
G36*
G01*
X191650000Y-69075000D02*
X191650000Y-68125000D01*
G75*
G02*
X191900000Y-67875000I250000J0D01*
G01*
X192400000Y-67875000D01*
G75*
G02*
X192650000Y-68125000I0J-250000D01*
G01*
X192650000Y-69075000D01*
G75*
G02*
X192400000Y-69325000I-250000J0D01*
G01*
X191900000Y-69325000D01*
G75*
G02*
X191650000Y-69075000I0J250000D01*
G01*
G37*
G36*
G01*
X189750000Y-69075000D02*
X189750000Y-68125000D01*
G75*
G02*
X190000000Y-67875000I250000J0D01*
G01*
X190500000Y-67875000D01*
G75*
G02*
X190750000Y-68125000I0J-250000D01*
G01*
X190750000Y-69075000D01*
G75*
G02*
X190500000Y-69325000I-250000J0D01*
G01*
X190000000Y-69325000D01*
G75*
G02*
X189750000Y-69075000I0J250000D01*
G01*
G37*
%TD*%
M02*
