M48
; DRILL file {KiCad (5.1.10)-1} date 03/07/22 13:38:19
; FORMAT={-:-/ absolute / metric / decimal}
; #@! TF.CreationDate,2022-03-07T13:38:19+08:00
; #@! TF.GenerationSoftware,Kicad,Pcbnew,(5.1.10)-1
FMAT,2
METRIC
T1C0.400
T2C0.800
T3C1.000
T4C1.100
T5C3.200
%
G90
G05
T1
X191.14Y-107.245
X191.895Y-103.649
X192.836Y-75.593
X195.003Y-106.568
X198.65Y-102.251
X199.65Y-95.43
X201.453Y-52.578
X201.662Y-102.404
X206.111Y-52.355
X209.715Y-52.355
X212.9Y-52.336
X214.748Y-78.632
X215.78Y-97.012
X216.4Y-52.355
X216.431Y-103.111
X217.437Y-103.183
X219.144Y-92.589
X219.717Y-103.033
X220.162Y-52.355
X224.096Y-52.373
X225.241Y-111.818
X227.121Y-80.565
X227.297Y-99.194
X227.71Y-87.459
X227.799Y-110.721
X228.232Y-53.462
X228.95Y-98.178
X228.969Y-96.582
X229.609Y-73.915
X230.925Y-84.301
X233.879Y-89.508
X234.903Y-79.757
X236.854Y-88.79
X236.856Y-99.527
X238.228Y-79.732
X238.885Y-75.998
X240.063Y-59.814
X242.035Y-85.374
X243.279Y-90.678
X244.84Y-84.301
X245.186Y-86.364
X249.15Y-109.411
X251.49Y-96.413
X251.826Y-82.536
X254.857Y-88.444
X255.66Y-86.287
X255.684Y-81.293
X259.931Y-83.552
X263.67Y-108.448
X267.898Y-96.315
X268.815Y-71.38
X269.625Y-105.408
X277.553Y-76.762
T2
X193.5Y-82.1
X193.5Y-84.64
X193.5Y-87.18
X193.5Y-89.72
X193.5Y-92.26
X193.5Y-94.8
X193.5Y-97.34
X193.5Y-99.88
X193.5Y-102.42
X193.5Y-104.96
X193.5Y-107.5
X196.04Y-79.56
X196.04Y-82.1
X196.04Y-84.64
X196.04Y-87.18
X196.04Y-89.72
X196.04Y-92.26
X196.04Y-94.8
X196.04Y-97.34
X196.04Y-99.88
X196.04Y-102.42
X196.04Y-104.96
X196.04Y-107.5
X196.04Y-110.04
X197.5Y-61.5
X197.5Y-64.04
X197.5Y-66.58
X197.5Y-69.12
X198.58Y-79.56
X198.58Y-82.1
X198.58Y-107.5
X198.58Y-110.04
X201.12Y-79.56
X201.12Y-82.1
X201.12Y-107.5
X201.12Y-110.04
X203.66Y-79.56
X203.66Y-82.1
X203.66Y-107.5
X203.66Y-110.04
X205.12Y-61.5
X205.12Y-64.04
X205.12Y-66.58
X205.12Y-69.12
X206.2Y-79.56
X206.2Y-82.1
X206.2Y-107.5
X206.2Y-110.04
X208.74Y-79.56
X208.74Y-82.1
X208.74Y-107.5
X208.74Y-110.04
X210.5Y-61.5
X210.5Y-64.04
X210.5Y-66.58
X210.5Y-69.12
X211.28Y-79.56
X211.28Y-82.1
X211.28Y-107.5
X211.28Y-110.04
X213.82Y-79.56
X213.82Y-82.1
X213.82Y-107.5
X213.82Y-110.04
X216.36Y-79.56
X216.36Y-82.1
X216.36Y-107.5
X216.36Y-110.04
X218.12Y-61.5
X218.12Y-64.04
X218.12Y-66.58
X218.12Y-69.12
X218.9Y-79.56
X218.9Y-82.1
X218.9Y-107.5
X218.9Y-110.04
X221.44Y-79.56
X221.44Y-82.1
X221.44Y-84.64
X221.44Y-87.18
X221.44Y-89.72
X221.44Y-92.26
X221.44Y-94.8
X221.44Y-97.34
X221.44Y-99.88
X221.44Y-102.42
X221.44Y-104.96
X221.44Y-107.5
X221.44Y-110.04
X223.5Y-61.5
X223.5Y-64.04
X223.5Y-66.58
X223.5Y-69.12
X223.98Y-82.1
X223.98Y-84.64
X223.98Y-87.18
X223.98Y-89.72
X223.98Y-92.26
X223.98Y-94.8
X223.98Y-97.34
X223.98Y-99.88
X223.98Y-102.42
X223.98Y-104.96
X223.98Y-107.5
X231.12Y-61.5
X231.12Y-64.04
X231.12Y-66.58
X231.12Y-69.12
X231.5Y-78.26
X231.5Y-93.5
X233.5Y-104.0
X234.04Y-78.26
X234.04Y-93.5
X236.58Y-78.26
X236.58Y-93.5
X237.0Y-62.38
X237.0Y-70.0
X238.38Y-104.0
X239.12Y-78.26
X239.12Y-93.5
X239.54Y-62.38
X239.54Y-70.0
X241.66Y-78.26
X241.66Y-93.5
X242.08Y-62.38
X242.08Y-70.0
X244.2Y-78.26
X244.2Y-93.5
X244.62Y-62.38
X244.62Y-70.0
X246.5Y-97.88
X246.5Y-105.5
X246.74Y-78.26
X246.74Y-93.5
X249.04Y-97.88
X249.04Y-105.5
X249.28Y-78.26
X249.28Y-93.5
X250.0Y-62.38
X250.0Y-70.0
X251.58Y-97.88
X251.58Y-105.5
X251.82Y-78.26
X251.82Y-93.5
X252.54Y-62.38
X252.54Y-70.0
X254.12Y-97.88
X254.12Y-105.5
X254.36Y-78.26
X254.36Y-93.5
X255.08Y-62.38
X255.08Y-70.0
X256.66Y-97.88
X256.66Y-105.5
X256.9Y-78.26
X256.9Y-93.5
X257.62Y-62.38
X257.62Y-70.0
X259.2Y-97.88
X259.2Y-105.5
X259.44Y-78.26
X259.44Y-93.5
X261.74Y-97.88
X261.74Y-105.5
X261.98Y-78.26
X261.98Y-93.5
X263.0Y-62.38
X263.0Y-70.0
X264.52Y-78.26
X264.52Y-93.5
X265.54Y-62.38
X265.54Y-70.0
X267.06Y-78.26
X267.06Y-93.5
X268.0Y-101.9
X268.0Y-108.7
X268.08Y-62.38
X268.08Y-70.0
X269.6Y-78.26
X269.6Y-93.5
X270.62Y-62.38
X270.62Y-70.0
X270.8Y-101.9
X270.8Y-104.0
X270.8Y-106.6
X270.8Y-108.7
T3
X183.09Y-89.775
X183.09Y-92.065
X183.09Y-94.355
X183.09Y-96.645
X183.09Y-98.935
X184.9Y-74.0
X185.07Y-90.92
X185.07Y-93.21
X185.07Y-95.5
X185.07Y-97.79
X185.07Y-100.08
X187.05Y-89.775
X187.05Y-92.065
X187.05Y-94.355
X187.05Y-96.645
X187.05Y-98.935
X187.44Y-74.0
X189.98Y-74.0
X192.52Y-74.0
X195.06Y-74.0
X197.6Y-74.0
X200.14Y-74.0
X202.68Y-74.0
X205.22Y-74.0
X207.76Y-74.0
X210.3Y-74.0
X212.84Y-74.0
X215.38Y-74.0
X217.92Y-74.0
X220.46Y-74.0
X223.0Y-74.0
X231.5Y-74.0
X234.04Y-74.0
X234.5Y-110.5
X236.58Y-74.0
X237.04Y-110.5
X239.12Y-74.0
X239.58Y-110.5
X241.66Y-74.0
X242.12Y-110.5
X244.2Y-74.0
X246.74Y-74.0
X249.28Y-74.0
X251.5Y-110.5
X251.82Y-74.0
X254.04Y-110.5
X254.36Y-74.0
X256.58Y-110.5
X256.9Y-74.0
X259.12Y-110.5
X259.44Y-74.0
X261.98Y-74.0
X264.52Y-74.0
X267.06Y-74.0
X269.6Y-74.0
X274.835Y-81.09
X274.835Y-83.63
X274.835Y-86.17
X274.835Y-88.71
X274.835Y-91.25
X276.5Y-54.0
X276.5Y-56.54
X276.5Y-59.08
X276.5Y-65.0
X276.5Y-67.54
X276.5Y-70.08
X276.5Y-72.62
X276.5Y-75.16
X277.375Y-81.09
X277.375Y-83.63
X277.375Y-86.17
X277.375Y-88.71
X277.375Y-91.25
T4
X185.5Y-63.46
X185.5Y-66.0
X185.5Y-68.54
X237.0Y-53.5
X237.0Y-58.0
X243.5Y-53.5
X243.5Y-58.0
X249.975Y-53.525
X249.975Y-58.025
X256.475Y-53.525
X256.475Y-58.025
X262.825Y-53.525
X262.825Y-58.025
X269.325Y-53.525
X269.325Y-58.025
T5
X185.0Y-82.12
X185.0Y-107.12
T2
X188.3Y-53.9G85X188.3Y-56.1
G05
X190.0Y-59.8G85X192.2Y-59.8
G05
X194.1Y-53.7G85X194.1Y-56.3
G05
T3
X272.9Y-98.45G85X274.4Y-98.45
G05
X272.9Y-112.15G85X274.4Y-112.15
G05
X274.45Y-106.3G85X274.45Y-104.3
G05
T0
M30
