%FSLAX45Y45*%
G04 Gerber Fmt 4.5, Leading zero omitted, Abs format (unit mm)*
G04 Created by KiCad (PCBNEW (5.1.10)-1) date 2022-03-07 13:38:20*
%MOMM*%
%LPD*%
G01*
G04 APERTURE LIST*
%TA.AperFunction,Profile*%
%ADD10C,0.050000*%
%TD*%
%ADD11C,0.200000*%
%ADD12C,0.300000*%
G04 APERTURE END LIST*
D10*
X28000000Y-5000000D02*
X28000000Y-6200000D01*
X18000000Y-5000000D02*
X28000000Y-5000000D01*
X18000000Y-6200000D02*
X18000000Y-5000000D01*
X18000000Y-11400000D02*
X18000000Y-6200000D01*
X28000000Y-11400000D02*
X18000000Y-11400000D01*
X28000000Y-6200000D02*
X28000000Y-11400000D01*
D11*
X19093970Y-10704540D02*
X19133970Y-10744540D01*
X19133970Y-10704540D02*
X19093970Y-10744540D01*
X19169480Y-10344900D02*
X19209480Y-10384900D01*
X19209480Y-10344900D02*
X19169480Y-10384900D01*
X19263590Y-7539250D02*
X19303590Y-7579250D01*
X19303590Y-7539250D02*
X19263590Y-7579250D01*
X19480340Y-10636810D02*
X19520340Y-10676810D01*
X19520340Y-10636810D02*
X19480340Y-10676810D01*
X19844960Y-10205060D02*
X19884960Y-10245060D01*
X19884960Y-10205060D02*
X19844960Y-10245060D01*
X19944990Y-9522990D02*
X19984990Y-9562990D01*
X19984990Y-9522990D02*
X19944990Y-9562990D01*
X20125320Y-5237810D02*
X20165320Y-5277810D01*
X20165320Y-5237810D02*
X20125320Y-5277810D01*
X20146230Y-10220370D02*
X20186230Y-10260370D01*
X20186230Y-10220370D02*
X20146230Y-10260370D01*
X20591050Y-5215550D02*
X20631050Y-5255550D01*
X20631050Y-5215550D02*
X20591050Y-5255550D01*
X20951520Y-5215550D02*
X20991520Y-5255550D01*
X20991520Y-5215550D02*
X20951520Y-5255550D01*
X21270000Y-5213580D02*
X21310000Y-5253580D01*
X21310000Y-5213580D02*
X21270000Y-5253580D01*
X21454750Y-7843160D02*
X21494750Y-7883160D01*
X21494750Y-7843160D02*
X21454750Y-7883160D01*
X21558050Y-9681230D02*
X21598050Y-9721230D01*
X21598050Y-9681230D02*
X21558050Y-9721230D01*
X21620000Y-5215550D02*
X21660000Y-5255550D01*
X21660000Y-5215550D02*
X21620000Y-5255550D01*
X21623120Y-10291130D02*
X21663120Y-10331130D01*
X21663120Y-10291130D02*
X21623120Y-10331130D01*
X21723710Y-10298320D02*
X21763710Y-10338320D01*
X21763710Y-10298320D02*
X21723710Y-10338320D01*
X21894370Y-9238940D02*
X21934370Y-9278940D01*
X21934370Y-9238940D02*
X21894370Y-9278940D01*
X21951720Y-10283260D02*
X21991720Y-10323260D01*
X21991720Y-10283260D02*
X21951720Y-10323260D01*
X21996210Y-5215490D02*
X22036210Y-5255490D01*
X22036210Y-5215490D02*
X21996210Y-5255490D01*
X22389580Y-5217280D02*
X22429580Y-5257280D01*
X22429580Y-5217280D02*
X22389580Y-5257280D01*
X22504130Y-11161790D02*
X22544130Y-11201790D01*
X22544130Y-11161790D02*
X22504130Y-11201790D01*
X22692100Y-8036520D02*
X22732100Y-8076520D01*
X22732100Y-8036520D02*
X22692100Y-8076520D01*
X22709720Y-9899410D02*
X22749720Y-9939410D01*
X22749720Y-9899410D02*
X22709720Y-9939410D01*
X22751050Y-8725870D02*
X22791050Y-8765870D01*
X22791050Y-8725870D02*
X22751050Y-8765870D01*
X22759930Y-11052110D02*
X22799930Y-11092110D01*
X22799930Y-11052110D02*
X22759930Y-11092110D01*
X22803230Y-5326250D02*
X22843230Y-5366250D01*
X22843230Y-5326250D02*
X22803230Y-5366250D01*
X22875050Y-9797760D02*
X22915050Y-9837760D01*
X22915050Y-9797760D02*
X22875050Y-9837760D01*
X22876910Y-9638160D02*
X22916910Y-9678160D01*
X22916910Y-9638160D02*
X22876910Y-9678160D01*
X22940940Y-7371530D02*
X22980940Y-7411530D01*
X22980940Y-7371530D02*
X22940940Y-7411530D01*
X23072480Y-8410110D02*
X23112480Y-8450110D01*
X23112480Y-8410110D02*
X23072480Y-8450110D01*
X23367900Y-8930800D02*
X23407900Y-8970800D01*
X23407900Y-8930800D02*
X23367900Y-8970800D01*
X23470250Y-7955730D02*
X23510250Y-7995730D01*
X23510250Y-7955730D02*
X23470250Y-7995730D01*
X23665390Y-8859020D02*
X23705390Y-8899020D01*
X23705390Y-8859020D02*
X23665390Y-8899020D01*
X23665600Y-9932730D02*
X23705600Y-9972730D01*
X23705600Y-9932730D02*
X23665600Y-9972730D01*
X23802790Y-7953180D02*
X23842790Y-7993180D01*
X23842790Y-7953180D02*
X23802790Y-7993180D01*
X23868470Y-7579840D02*
X23908470Y-7619840D01*
X23908470Y-7579840D02*
X23868470Y-7619840D01*
X23986340Y-5961360D02*
X24026340Y-6001360D01*
X24026340Y-5961360D02*
X23986340Y-6001360D01*
X24183510Y-8517430D02*
X24223510Y-8557430D01*
X24223510Y-8517430D02*
X24183510Y-8557430D01*
X24307880Y-9047830D02*
X24347880Y-9087830D01*
X24347880Y-9047830D02*
X24307880Y-9087830D01*
X24464000Y-8410110D02*
X24504000Y-8450110D01*
X24504000Y-8410110D02*
X24464000Y-8450110D01*
X24498620Y-8616350D02*
X24538620Y-8656350D01*
X24538620Y-8616350D02*
X24498620Y-8656350D01*
X24895040Y-10921120D02*
X24935040Y-10961120D01*
X24935040Y-10921120D02*
X24895040Y-10961120D01*
X25129020Y-9621260D02*
X25169020Y-9661260D01*
X25169020Y-9621260D02*
X25129020Y-9661260D01*
X25162610Y-8233630D02*
X25202610Y-8273630D01*
X25202610Y-8233630D02*
X25162610Y-8273630D01*
X25465680Y-8824420D02*
X25505680Y-8864420D01*
X25505680Y-8824420D02*
X25465680Y-8864420D01*
X25545990Y-8608740D02*
X25585990Y-8648740D01*
X25585990Y-8608740D02*
X25545990Y-8648740D01*
X25548450Y-8109290D02*
X25588450Y-8149290D01*
X25588450Y-8109290D02*
X25548450Y-8149290D01*
X25973120Y-8335220D02*
X26013120Y-8375220D01*
X26013120Y-8335220D02*
X25973120Y-8375220D01*
X26347040Y-10824770D02*
X26387040Y-10864770D01*
X26387040Y-10824770D02*
X26347040Y-10864770D01*
X26769790Y-9611480D02*
X26809790Y-9651480D01*
X26809790Y-9611480D02*
X26769790Y-9651480D01*
X26861500Y-7118050D02*
X26901500Y-7158050D01*
X26901500Y-7118050D02*
X26861500Y-7158050D01*
X26942550Y-10520820D02*
X26982550Y-10560820D01*
X26982550Y-10520820D02*
X26942550Y-10560820D01*
X27735250Y-7656230D02*
X27775250Y-7696230D01*
X27775250Y-7656230D02*
X27735250Y-7696230D01*
X18870000Y-5500000D02*
G75*
G03*
X18870000Y-5500000I-40000J0D01*
G01*
X18800000Y-5390000D02*
X18800000Y-5610000D01*
X18860000Y-5390000D02*
X18860000Y-5610000D01*
X18800000Y-5610000D02*
G75*
G03*
X18860000Y-5610000I30000J0D01*
G01*
X18860000Y-5390000D02*
G75*
G03*
X18800000Y-5390000I-30000J0D01*
G01*
X19150000Y-5980000D02*
G75*
G03*
X19150000Y-5980000I-40000J0D01*
G01*
X19000000Y-6010000D02*
X19220000Y-6010000D01*
X19000000Y-5950000D02*
X19220000Y-5950000D01*
X19220000Y-6010000D02*
G75*
G03*
X19220000Y-5950000I0J30000D01*
G01*
X19000000Y-5950000D02*
G75*
G03*
X19000000Y-6010000I0J-30000D01*
G01*
X19390000Y-8210000D02*
G75*
G03*
X19390000Y-8210000I-40000J0D01*
G01*
X19390000Y-8464000D02*
G75*
G03*
X19390000Y-8464000I-40000J0D01*
G01*
X19390000Y-8718000D02*
G75*
G03*
X19390000Y-8718000I-40000J0D01*
G01*
X19390000Y-8972000D02*
G75*
G03*
X19390000Y-8972000I-40000J0D01*
G01*
X19390000Y-9226000D02*
G75*
G03*
X19390000Y-9226000I-40000J0D01*
G01*
X19390000Y-9480000D02*
G75*
G03*
X19390000Y-9480000I-40000J0D01*
G01*
X19390000Y-9734000D02*
G75*
G03*
X19390000Y-9734000I-40000J0D01*
G01*
X19390000Y-9988000D02*
G75*
G03*
X19390000Y-9988000I-40000J0D01*
G01*
X19390000Y-10242000D02*
G75*
G03*
X19390000Y-10242000I-40000J0D01*
G01*
X19390000Y-10496000D02*
G75*
G03*
X19390000Y-10496000I-40000J0D01*
G01*
X19390000Y-10750000D02*
G75*
G03*
X19390000Y-10750000I-40000J0D01*
G01*
X19450000Y-5500000D02*
G75*
G03*
X19450000Y-5500000I-40000J0D01*
G01*
X19380000Y-5370000D02*
X19380000Y-5630000D01*
X19440000Y-5370000D02*
X19440000Y-5630000D01*
X19380000Y-5630000D02*
G75*
G03*
X19440000Y-5630000I30000J0D01*
G01*
X19440000Y-5370000D02*
G75*
G03*
X19380000Y-5370000I-30000J0D01*
G01*
X19644000Y-7956000D02*
G75*
G03*
X19644000Y-7956000I-40000J0D01*
G01*
X19644000Y-8210000D02*
G75*
G03*
X19644000Y-8210000I-40000J0D01*
G01*
X19644000Y-8464000D02*
G75*
G03*
X19644000Y-8464000I-40000J0D01*
G01*
X19644000Y-8718000D02*
G75*
G03*
X19644000Y-8718000I-40000J0D01*
G01*
X19644000Y-8972000D02*
G75*
G03*
X19644000Y-8972000I-40000J0D01*
G01*
X19644000Y-9226000D02*
G75*
G03*
X19644000Y-9226000I-40000J0D01*
G01*
X19644000Y-9480000D02*
G75*
G03*
X19644000Y-9480000I-40000J0D01*
G01*
X19644000Y-9734000D02*
G75*
G03*
X19644000Y-9734000I-40000J0D01*
G01*
X19644000Y-9988000D02*
G75*
G03*
X19644000Y-9988000I-40000J0D01*
G01*
X19644000Y-10242000D02*
G75*
G03*
X19644000Y-10242000I-40000J0D01*
G01*
X19644000Y-10496000D02*
G75*
G03*
X19644000Y-10496000I-40000J0D01*
G01*
X19644000Y-10750000D02*
G75*
G03*
X19644000Y-10750000I-40000J0D01*
G01*
X19644000Y-11004000D02*
G75*
G03*
X19644000Y-11004000I-40000J0D01*
G01*
X19790000Y-6150000D02*
G75*
G03*
X19790000Y-6150000I-40000J0D01*
G01*
X19790000Y-6404000D02*
G75*
G03*
X19790000Y-6404000I-40000J0D01*
G01*
X19790000Y-6658000D02*
G75*
G03*
X19790000Y-6658000I-40000J0D01*
G01*
X19790000Y-6912000D02*
G75*
G03*
X19790000Y-6912000I-40000J0D01*
G01*
X19898000Y-7956000D02*
G75*
G03*
X19898000Y-7956000I-40000J0D01*
G01*
X19898000Y-8210000D02*
G75*
G03*
X19898000Y-8210000I-40000J0D01*
G01*
X19898000Y-10750000D02*
G75*
G03*
X19898000Y-10750000I-40000J0D01*
G01*
X19898000Y-11004000D02*
G75*
G03*
X19898000Y-11004000I-40000J0D01*
G01*
X20152000Y-7956000D02*
G75*
G03*
X20152000Y-7956000I-40000J0D01*
G01*
X20152000Y-8210000D02*
G75*
G03*
X20152000Y-8210000I-40000J0D01*
G01*
X20152000Y-10750000D02*
G75*
G03*
X20152000Y-10750000I-40000J0D01*
G01*
X20152000Y-11004000D02*
G75*
G03*
X20152000Y-11004000I-40000J0D01*
G01*
X20406000Y-7956000D02*
G75*
G03*
X20406000Y-7956000I-40000J0D01*
G01*
X20406000Y-8210000D02*
G75*
G03*
X20406000Y-8210000I-40000J0D01*
G01*
X20406000Y-10750000D02*
G75*
G03*
X20406000Y-10750000I-40000J0D01*
G01*
X20406000Y-11004000D02*
G75*
G03*
X20406000Y-11004000I-40000J0D01*
G01*
X20552000Y-6150000D02*
G75*
G03*
X20552000Y-6150000I-40000J0D01*
G01*
X20552000Y-6404000D02*
G75*
G03*
X20552000Y-6404000I-40000J0D01*
G01*
X20552000Y-6658000D02*
G75*
G03*
X20552000Y-6658000I-40000J0D01*
G01*
X20552000Y-6912000D02*
G75*
G03*
X20552000Y-6912000I-40000J0D01*
G01*
X20660000Y-7956000D02*
G75*
G03*
X20660000Y-7956000I-40000J0D01*
G01*
X20660000Y-8210000D02*
G75*
G03*
X20660000Y-8210000I-40000J0D01*
G01*
X20660000Y-10750000D02*
G75*
G03*
X20660000Y-10750000I-40000J0D01*
G01*
X20660000Y-11004000D02*
G75*
G03*
X20660000Y-11004000I-40000J0D01*
G01*
X20914000Y-7956000D02*
G75*
G03*
X20914000Y-7956000I-40000J0D01*
G01*
X20914000Y-8210000D02*
G75*
G03*
X20914000Y-8210000I-40000J0D01*
G01*
X20914000Y-10750000D02*
G75*
G03*
X20914000Y-10750000I-40000J0D01*
G01*
X20914000Y-11004000D02*
G75*
G03*
X20914000Y-11004000I-40000J0D01*
G01*
X21090000Y-6150000D02*
G75*
G03*
X21090000Y-6150000I-40000J0D01*
G01*
X21090000Y-6404000D02*
G75*
G03*
X21090000Y-6404000I-40000J0D01*
G01*
X21090000Y-6658000D02*
G75*
G03*
X21090000Y-6658000I-40000J0D01*
G01*
X21090000Y-6912000D02*
G75*
G03*
X21090000Y-6912000I-40000J0D01*
G01*
X21168000Y-7956000D02*
G75*
G03*
X21168000Y-7956000I-40000J0D01*
G01*
X21168000Y-8210000D02*
G75*
G03*
X21168000Y-8210000I-40000J0D01*
G01*
X21168000Y-10750000D02*
G75*
G03*
X21168000Y-10750000I-40000J0D01*
G01*
X21168000Y-11004000D02*
G75*
G03*
X21168000Y-11004000I-40000J0D01*
G01*
X21422000Y-7956000D02*
G75*
G03*
X21422000Y-7956000I-40000J0D01*
G01*
X21422000Y-8210000D02*
G75*
G03*
X21422000Y-8210000I-40000J0D01*
G01*
X21422000Y-10750000D02*
G75*
G03*
X21422000Y-10750000I-40000J0D01*
G01*
X21422000Y-11004000D02*
G75*
G03*
X21422000Y-11004000I-40000J0D01*
G01*
X21676000Y-7956000D02*
G75*
G03*
X21676000Y-7956000I-40000J0D01*
G01*
X21676000Y-8210000D02*
G75*
G03*
X21676000Y-8210000I-40000J0D01*
G01*
X21676000Y-10750000D02*
G75*
G03*
X21676000Y-10750000I-40000J0D01*
G01*
X21676000Y-11004000D02*
G75*
G03*
X21676000Y-11004000I-40000J0D01*
G01*
X21852000Y-6150000D02*
G75*
G03*
X21852000Y-6150000I-40000J0D01*
G01*
X21852000Y-6404000D02*
G75*
G03*
X21852000Y-6404000I-40000J0D01*
G01*
X21852000Y-6658000D02*
G75*
G03*
X21852000Y-6658000I-40000J0D01*
G01*
X21852000Y-6912000D02*
G75*
G03*
X21852000Y-6912000I-40000J0D01*
G01*
X21930000Y-7956000D02*
G75*
G03*
X21930000Y-7956000I-40000J0D01*
G01*
X21930000Y-8210000D02*
G75*
G03*
X21930000Y-8210000I-40000J0D01*
G01*
X21930000Y-10750000D02*
G75*
G03*
X21930000Y-10750000I-40000J0D01*
G01*
X21930000Y-11004000D02*
G75*
G03*
X21930000Y-11004000I-40000J0D01*
G01*
X22184000Y-7956000D02*
G75*
G03*
X22184000Y-7956000I-40000J0D01*
G01*
X22184000Y-8210000D02*
G75*
G03*
X22184000Y-8210000I-40000J0D01*
G01*
X22184000Y-8464000D02*
G75*
G03*
X22184000Y-8464000I-40000J0D01*
G01*
X22184000Y-8718000D02*
G75*
G03*
X22184000Y-8718000I-40000J0D01*
G01*
X22184000Y-8972000D02*
G75*
G03*
X22184000Y-8972000I-40000J0D01*
G01*
X22184000Y-9226000D02*
G75*
G03*
X22184000Y-9226000I-40000J0D01*
G01*
X22184000Y-9480000D02*
G75*
G03*
X22184000Y-9480000I-40000J0D01*
G01*
X22184000Y-9734000D02*
G75*
G03*
X22184000Y-9734000I-40000J0D01*
G01*
X22184000Y-9988000D02*
G75*
G03*
X22184000Y-9988000I-40000J0D01*
G01*
X22184000Y-10242000D02*
G75*
G03*
X22184000Y-10242000I-40000J0D01*
G01*
X22184000Y-10496000D02*
G75*
G03*
X22184000Y-10496000I-40000J0D01*
G01*
X22184000Y-10750000D02*
G75*
G03*
X22184000Y-10750000I-40000J0D01*
G01*
X22184000Y-11004000D02*
G75*
G03*
X22184000Y-11004000I-40000J0D01*
G01*
X22390000Y-6150000D02*
G75*
G03*
X22390000Y-6150000I-40000J0D01*
G01*
X22390000Y-6404000D02*
G75*
G03*
X22390000Y-6404000I-40000J0D01*
G01*
X22390000Y-6658000D02*
G75*
G03*
X22390000Y-6658000I-40000J0D01*
G01*
X22390000Y-6912000D02*
G75*
G03*
X22390000Y-6912000I-40000J0D01*
G01*
X22438000Y-8210000D02*
G75*
G03*
X22438000Y-8210000I-40000J0D01*
G01*
X22438000Y-8464000D02*
G75*
G03*
X22438000Y-8464000I-40000J0D01*
G01*
X22438000Y-8718000D02*
G75*
G03*
X22438000Y-8718000I-40000J0D01*
G01*
X22438000Y-8972000D02*
G75*
G03*
X22438000Y-8972000I-40000J0D01*
G01*
X22438000Y-9226000D02*
G75*
G03*
X22438000Y-9226000I-40000J0D01*
G01*
X22438000Y-9480000D02*
G75*
G03*
X22438000Y-9480000I-40000J0D01*
G01*
X22438000Y-9734000D02*
G75*
G03*
X22438000Y-9734000I-40000J0D01*
G01*
X22438000Y-9988000D02*
G75*
G03*
X22438000Y-9988000I-40000J0D01*
G01*
X22438000Y-10242000D02*
G75*
G03*
X22438000Y-10242000I-40000J0D01*
G01*
X22438000Y-10496000D02*
G75*
G03*
X22438000Y-10496000I-40000J0D01*
G01*
X22438000Y-10750000D02*
G75*
G03*
X22438000Y-10750000I-40000J0D01*
G01*
X23152000Y-6150000D02*
G75*
G03*
X23152000Y-6150000I-40000J0D01*
G01*
X23152000Y-6404000D02*
G75*
G03*
X23152000Y-6404000I-40000J0D01*
G01*
X23152000Y-6658000D02*
G75*
G03*
X23152000Y-6658000I-40000J0D01*
G01*
X23152000Y-6912000D02*
G75*
G03*
X23152000Y-6912000I-40000J0D01*
G01*
X23190000Y-7826000D02*
G75*
G03*
X23190000Y-7826000I-40000J0D01*
G01*
X23190000Y-9350000D02*
G75*
G03*
X23190000Y-9350000I-40000J0D01*
G01*
X23390000Y-10400000D02*
G75*
G03*
X23390000Y-10400000I-40000J0D01*
G01*
X23444000Y-7826000D02*
G75*
G03*
X23444000Y-7826000I-40000J0D01*
G01*
X23444000Y-9350000D02*
G75*
G03*
X23444000Y-9350000I-40000J0D01*
G01*
X23698000Y-7826000D02*
G75*
G03*
X23698000Y-7826000I-40000J0D01*
G01*
X23698000Y-9350000D02*
G75*
G03*
X23698000Y-9350000I-40000J0D01*
G01*
X23740000Y-6238000D02*
G75*
G03*
X23740000Y-6238000I-40000J0D01*
G01*
X23740000Y-7000000D02*
G75*
G03*
X23740000Y-7000000I-40000J0D01*
G01*
X23878000Y-10400000D02*
G75*
G03*
X23878000Y-10400000I-40000J0D01*
G01*
X23952000Y-7826000D02*
G75*
G03*
X23952000Y-7826000I-40000J0D01*
G01*
X23952000Y-9350000D02*
G75*
G03*
X23952000Y-9350000I-40000J0D01*
G01*
X23994000Y-6238000D02*
G75*
G03*
X23994000Y-6238000I-40000J0D01*
G01*
X23994000Y-7000000D02*
G75*
G03*
X23994000Y-7000000I-40000J0D01*
G01*
X24206000Y-7826000D02*
G75*
G03*
X24206000Y-7826000I-40000J0D01*
G01*
X24206000Y-9350000D02*
G75*
G03*
X24206000Y-9350000I-40000J0D01*
G01*
X24248000Y-6238000D02*
G75*
G03*
X24248000Y-6238000I-40000J0D01*
G01*
X24248000Y-7000000D02*
G75*
G03*
X24248000Y-7000000I-40000J0D01*
G01*
X24460000Y-7826000D02*
G75*
G03*
X24460000Y-7826000I-40000J0D01*
G01*
X24460000Y-9350000D02*
G75*
G03*
X24460000Y-9350000I-40000J0D01*
G01*
X24502000Y-6238000D02*
G75*
G03*
X24502000Y-6238000I-40000J0D01*
G01*
X24502000Y-7000000D02*
G75*
G03*
X24502000Y-7000000I-40000J0D01*
G01*
X24690000Y-9788000D02*
G75*
G03*
X24690000Y-9788000I-40000J0D01*
G01*
X24690000Y-10550000D02*
G75*
G03*
X24690000Y-10550000I-40000J0D01*
G01*
X24714000Y-7826000D02*
G75*
G03*
X24714000Y-7826000I-40000J0D01*
G01*
X24714000Y-9350000D02*
G75*
G03*
X24714000Y-9350000I-40000J0D01*
G01*
X24944000Y-9788000D02*
G75*
G03*
X24944000Y-9788000I-40000J0D01*
G01*
X24944000Y-10550000D02*
G75*
G03*
X24944000Y-10550000I-40000J0D01*
G01*
X24968000Y-7826000D02*
G75*
G03*
X24968000Y-7826000I-40000J0D01*
G01*
X24968000Y-9350000D02*
G75*
G03*
X24968000Y-9350000I-40000J0D01*
G01*
X25040000Y-6238000D02*
G75*
G03*
X25040000Y-6238000I-40000J0D01*
G01*
X25040000Y-7000000D02*
G75*
G03*
X25040000Y-7000000I-40000J0D01*
G01*
X25198000Y-9788000D02*
G75*
G03*
X25198000Y-9788000I-40000J0D01*
G01*
X25198000Y-10550000D02*
G75*
G03*
X25198000Y-10550000I-40000J0D01*
G01*
X25222000Y-7826000D02*
G75*
G03*
X25222000Y-7826000I-40000J0D01*
G01*
X25222000Y-9350000D02*
G75*
G03*
X25222000Y-9350000I-40000J0D01*
G01*
X25294000Y-6238000D02*
G75*
G03*
X25294000Y-6238000I-40000J0D01*
G01*
X25294000Y-7000000D02*
G75*
G03*
X25294000Y-7000000I-40000J0D01*
G01*
X25452000Y-9788000D02*
G75*
G03*
X25452000Y-9788000I-40000J0D01*
G01*
X25452000Y-10550000D02*
G75*
G03*
X25452000Y-10550000I-40000J0D01*
G01*
X25476000Y-7826000D02*
G75*
G03*
X25476000Y-7826000I-40000J0D01*
G01*
X25476000Y-9350000D02*
G75*
G03*
X25476000Y-9350000I-40000J0D01*
G01*
X25548000Y-6238000D02*
G75*
G03*
X25548000Y-6238000I-40000J0D01*
G01*
X25548000Y-7000000D02*
G75*
G03*
X25548000Y-7000000I-40000J0D01*
G01*
X25706000Y-9788000D02*
G75*
G03*
X25706000Y-9788000I-40000J0D01*
G01*
X25706000Y-10550000D02*
G75*
G03*
X25706000Y-10550000I-40000J0D01*
G01*
X25730000Y-7826000D02*
G75*
G03*
X25730000Y-7826000I-40000J0D01*
G01*
X25730000Y-9350000D02*
G75*
G03*
X25730000Y-9350000I-40000J0D01*
G01*
X25802000Y-6238000D02*
G75*
G03*
X25802000Y-6238000I-40000J0D01*
G01*
X25802000Y-7000000D02*
G75*
G03*
X25802000Y-7000000I-40000J0D01*
G01*
X25960000Y-9788000D02*
G75*
G03*
X25960000Y-9788000I-40000J0D01*
G01*
X25960000Y-10550000D02*
G75*
G03*
X25960000Y-10550000I-40000J0D01*
G01*
X25984000Y-7826000D02*
G75*
G03*
X25984000Y-7826000I-40000J0D01*
G01*
X25984000Y-9350000D02*
G75*
G03*
X25984000Y-9350000I-40000J0D01*
G01*
X26214000Y-9788000D02*
G75*
G03*
X26214000Y-9788000I-40000J0D01*
G01*
X26214000Y-10550000D02*
G75*
G03*
X26214000Y-10550000I-40000J0D01*
G01*
X26238000Y-7826000D02*
G75*
G03*
X26238000Y-7826000I-40000J0D01*
G01*
X26238000Y-9350000D02*
G75*
G03*
X26238000Y-9350000I-40000J0D01*
G01*
X26340000Y-6238000D02*
G75*
G03*
X26340000Y-6238000I-40000J0D01*
G01*
X26340000Y-7000000D02*
G75*
G03*
X26340000Y-7000000I-40000J0D01*
G01*
X26492000Y-7826000D02*
G75*
G03*
X26492000Y-7826000I-40000J0D01*
G01*
X26492000Y-9350000D02*
G75*
G03*
X26492000Y-9350000I-40000J0D01*
G01*
X26594000Y-6238000D02*
G75*
G03*
X26594000Y-6238000I-40000J0D01*
G01*
X26594000Y-7000000D02*
G75*
G03*
X26594000Y-7000000I-40000J0D01*
G01*
X26746000Y-7826000D02*
G75*
G03*
X26746000Y-7826000I-40000J0D01*
G01*
X26746000Y-9350000D02*
G75*
G03*
X26746000Y-9350000I-40000J0D01*
G01*
X26840000Y-10190000D02*
G75*
G03*
X26840000Y-10190000I-40000J0D01*
G01*
X26840000Y-10870000D02*
G75*
G03*
X26840000Y-10870000I-40000J0D01*
G01*
X26848000Y-6238000D02*
G75*
G03*
X26848000Y-6238000I-40000J0D01*
G01*
X26848000Y-7000000D02*
G75*
G03*
X26848000Y-7000000I-40000J0D01*
G01*
X27000000Y-7826000D02*
G75*
G03*
X27000000Y-7826000I-40000J0D01*
G01*
X27000000Y-9350000D02*
G75*
G03*
X27000000Y-9350000I-40000J0D01*
G01*
X27102000Y-6238000D02*
G75*
G03*
X27102000Y-6238000I-40000J0D01*
G01*
X27102000Y-7000000D02*
G75*
G03*
X27102000Y-7000000I-40000J0D01*
G01*
X27120000Y-10190000D02*
G75*
G03*
X27120000Y-10190000I-40000J0D01*
G01*
X27120000Y-10400000D02*
G75*
G03*
X27120000Y-10400000I-40000J0D01*
G01*
X27120000Y-10660000D02*
G75*
G03*
X27120000Y-10660000I-40000J0D01*
G01*
X27120000Y-10870000D02*
G75*
G03*
X27120000Y-10870000I-40000J0D01*
G01*
X18309000Y-8927500D02*
X18309000Y-9027500D01*
X18259000Y-8977500D02*
X18359000Y-8977500D01*
X18309000Y-9156500D02*
X18309000Y-9256500D01*
X18259000Y-9206500D02*
X18359000Y-9206500D01*
X18309000Y-9385500D02*
X18309000Y-9485500D01*
X18259000Y-9435500D02*
X18359000Y-9435500D01*
X18309000Y-9614500D02*
X18309000Y-9714500D01*
X18259000Y-9664500D02*
X18359000Y-9664500D01*
X18309000Y-9843500D02*
X18309000Y-9943500D01*
X18259000Y-9893500D02*
X18359000Y-9893500D01*
X18490000Y-7350000D02*
X18490000Y-7450000D01*
X18440000Y-7400000D02*
X18540000Y-7400000D01*
X18507000Y-9042000D02*
X18507000Y-9142000D01*
X18457000Y-9092000D02*
X18557000Y-9092000D01*
X18507000Y-9271000D02*
X18507000Y-9371000D01*
X18457000Y-9321000D02*
X18557000Y-9321000D01*
X18507000Y-9500000D02*
X18507000Y-9600000D01*
X18457000Y-9550000D02*
X18557000Y-9550000D01*
X18507000Y-9729000D02*
X18507000Y-9829000D01*
X18457000Y-9779000D02*
X18557000Y-9779000D01*
X18507000Y-9958000D02*
X18507000Y-10058000D01*
X18457000Y-10008000D02*
X18557000Y-10008000D01*
X18705000Y-8927500D02*
X18705000Y-9027500D01*
X18655000Y-8977500D02*
X18755000Y-8977500D01*
X18705000Y-9156500D02*
X18705000Y-9256500D01*
X18655000Y-9206500D02*
X18755000Y-9206500D01*
X18705000Y-9385500D02*
X18705000Y-9485500D01*
X18655000Y-9435500D02*
X18755000Y-9435500D01*
X18705000Y-9614500D02*
X18705000Y-9714500D01*
X18655000Y-9664500D02*
X18755000Y-9664500D01*
X18705000Y-9843500D02*
X18705000Y-9943500D01*
X18655000Y-9893500D02*
X18755000Y-9893500D01*
X18744000Y-7350000D02*
X18744000Y-7450000D01*
X18694000Y-7400000D02*
X18794000Y-7400000D01*
X18998000Y-7350000D02*
X18998000Y-7450000D01*
X18948000Y-7400000D02*
X19048000Y-7400000D01*
X19252000Y-7350000D02*
X19252000Y-7450000D01*
X19202000Y-7400000D02*
X19302000Y-7400000D01*
X19506000Y-7350000D02*
X19506000Y-7450000D01*
X19456000Y-7400000D02*
X19556000Y-7400000D01*
X19760000Y-7350000D02*
X19760000Y-7450000D01*
X19710000Y-7400000D02*
X19810000Y-7400000D01*
X20014000Y-7350000D02*
X20014000Y-7450000D01*
X19964000Y-7400000D02*
X20064000Y-7400000D01*
X20268000Y-7350000D02*
X20268000Y-7450000D01*
X20218000Y-7400000D02*
X20318000Y-7400000D01*
X20522000Y-7350000D02*
X20522000Y-7450000D01*
X20472000Y-7400000D02*
X20572000Y-7400000D01*
X20776000Y-7350000D02*
X20776000Y-7450000D01*
X20726000Y-7400000D02*
X20826000Y-7400000D01*
X21030000Y-7350000D02*
X21030000Y-7450000D01*
X20980000Y-7400000D02*
X21080000Y-7400000D01*
X21284000Y-7350000D02*
X21284000Y-7450000D01*
X21234000Y-7400000D02*
X21334000Y-7400000D01*
X21538000Y-7350000D02*
X21538000Y-7450000D01*
X21488000Y-7400000D02*
X21588000Y-7400000D01*
X21792000Y-7350000D02*
X21792000Y-7450000D01*
X21742000Y-7400000D02*
X21842000Y-7400000D01*
X22046000Y-7350000D02*
X22046000Y-7450000D01*
X21996000Y-7400000D02*
X22096000Y-7400000D01*
X22300000Y-7350000D02*
X22300000Y-7450000D01*
X22250000Y-7400000D02*
X22350000Y-7400000D01*
X23150000Y-7350000D02*
X23150000Y-7450000D01*
X23100000Y-7400000D02*
X23200000Y-7400000D01*
X23404000Y-7350000D02*
X23404000Y-7450000D01*
X23354000Y-7400000D02*
X23454000Y-7400000D01*
X23450000Y-11000000D02*
X23450000Y-11100000D01*
X23400000Y-11050000D02*
X23500000Y-11050000D01*
X23658000Y-7350000D02*
X23658000Y-7450000D01*
X23608000Y-7400000D02*
X23708000Y-7400000D01*
X23704000Y-11000000D02*
X23704000Y-11100000D01*
X23654000Y-11050000D02*
X23754000Y-11050000D01*
X23912000Y-7350000D02*
X23912000Y-7450000D01*
X23862000Y-7400000D02*
X23962000Y-7400000D01*
X23958000Y-11000000D02*
X23958000Y-11100000D01*
X23908000Y-11050000D02*
X24008000Y-11050000D01*
X24166000Y-7350000D02*
X24166000Y-7450000D01*
X24116000Y-7400000D02*
X24216000Y-7400000D01*
X24212000Y-11000000D02*
X24212000Y-11100000D01*
X24162000Y-11050000D02*
X24262000Y-11050000D01*
X24420000Y-7350000D02*
X24420000Y-7450000D01*
X24370000Y-7400000D02*
X24470000Y-7400000D01*
X24674000Y-7350000D02*
X24674000Y-7450000D01*
X24624000Y-7400000D02*
X24724000Y-7400000D01*
X24928000Y-7350000D02*
X24928000Y-7450000D01*
X24878000Y-7400000D02*
X24978000Y-7400000D01*
X25150000Y-11000000D02*
X25150000Y-11100000D01*
X25100000Y-11050000D02*
X25200000Y-11050000D01*
X25182000Y-7350000D02*
X25182000Y-7450000D01*
X25132000Y-7400000D02*
X25232000Y-7400000D01*
X25404000Y-11000000D02*
X25404000Y-11100000D01*
X25354000Y-11050000D02*
X25454000Y-11050000D01*
X25436000Y-7350000D02*
X25436000Y-7450000D01*
X25386000Y-7400000D02*
X25486000Y-7400000D01*
X25658000Y-11000000D02*
X25658000Y-11100000D01*
X25608000Y-11050000D02*
X25708000Y-11050000D01*
X25690000Y-7350000D02*
X25690000Y-7450000D01*
X25640000Y-7400000D02*
X25740000Y-7400000D01*
X25912000Y-11000000D02*
X25912000Y-11100000D01*
X25862000Y-11050000D02*
X25962000Y-11050000D01*
X25944000Y-7350000D02*
X25944000Y-7450000D01*
X25894000Y-7400000D02*
X25994000Y-7400000D01*
X26198000Y-7350000D02*
X26198000Y-7450000D01*
X26148000Y-7400000D02*
X26248000Y-7400000D01*
X26452000Y-7350000D02*
X26452000Y-7450000D01*
X26402000Y-7400000D02*
X26502000Y-7400000D01*
X26706000Y-7350000D02*
X26706000Y-7450000D01*
X26656000Y-7400000D02*
X26756000Y-7400000D01*
X26960000Y-7350000D02*
X26960000Y-7450000D01*
X26910000Y-7400000D02*
X27010000Y-7400000D01*
X27365000Y-9795000D02*
X27365000Y-9895000D01*
X27315000Y-9845000D02*
X27415000Y-9845000D01*
X27290000Y-9885000D02*
X27440000Y-9885000D01*
X27290000Y-9805000D02*
X27440000Y-9805000D01*
X27440000Y-9885000D02*
G75*
G03*
X27440000Y-9805000I0J40000D01*
G01*
X27290000Y-9805000D02*
G75*
G03*
X27290000Y-9885000I0J-40000D01*
G01*
X27365000Y-11165000D02*
X27365000Y-11265000D01*
X27315000Y-11215000D02*
X27415000Y-11215000D01*
X27290000Y-11255000D02*
X27440000Y-11255000D01*
X27290000Y-11175000D02*
X27440000Y-11175000D01*
X27440000Y-11255000D02*
G75*
G03*
X27440000Y-11175000I0J40000D01*
G01*
X27290000Y-11175000D02*
G75*
G03*
X27290000Y-11255000I0J-40000D01*
G01*
X27445000Y-10480000D02*
X27445000Y-10580000D01*
X27395000Y-10530000D02*
X27495000Y-10530000D01*
X27485000Y-10630000D02*
X27485000Y-10430000D01*
X27405000Y-10630000D02*
X27405000Y-10430000D01*
X27485000Y-10430000D02*
G75*
G03*
X27405000Y-10430000I-40000J0D01*
G01*
X27405000Y-10630000D02*
G75*
G03*
X27485000Y-10630000I40000J0D01*
G01*
X27483500Y-8059000D02*
X27483500Y-8159000D01*
X27433500Y-8109000D02*
X27533500Y-8109000D01*
X27483500Y-8313000D02*
X27483500Y-8413000D01*
X27433500Y-8363000D02*
X27533500Y-8363000D01*
X27483500Y-8567000D02*
X27483500Y-8667000D01*
X27433500Y-8617000D02*
X27533500Y-8617000D01*
X27483500Y-8821000D02*
X27483500Y-8921000D01*
X27433500Y-8871000D02*
X27533500Y-8871000D01*
X27483500Y-9075000D02*
X27483500Y-9175000D01*
X27433500Y-9125000D02*
X27533500Y-9125000D01*
X27650000Y-5350000D02*
X27650000Y-5450000D01*
X27600000Y-5400000D02*
X27700000Y-5400000D01*
X27650000Y-5604000D02*
X27650000Y-5704000D01*
X27600000Y-5654000D02*
X27700000Y-5654000D01*
X27650000Y-5858000D02*
X27650000Y-5958000D01*
X27600000Y-5908000D02*
X27700000Y-5908000D01*
X27650000Y-6450000D02*
X27650000Y-6550000D01*
X27600000Y-6500000D02*
X27700000Y-6500000D01*
X27650000Y-6704000D02*
X27650000Y-6804000D01*
X27600000Y-6754000D02*
X27700000Y-6754000D01*
X27650000Y-6958000D02*
X27650000Y-7058000D01*
X27600000Y-7008000D02*
X27700000Y-7008000D01*
X27650000Y-7212000D02*
X27650000Y-7312000D01*
X27600000Y-7262000D02*
X27700000Y-7262000D01*
X27650000Y-7466000D02*
X27650000Y-7566000D01*
X27600000Y-7516000D02*
X27700000Y-7516000D01*
X27737500Y-8059000D02*
X27737500Y-8159000D01*
X27687500Y-8109000D02*
X27787500Y-8109000D01*
X27737500Y-8313000D02*
X27737500Y-8413000D01*
X27687500Y-8363000D02*
X27787500Y-8363000D01*
X27737500Y-8567000D02*
X27737500Y-8667000D01*
X27687500Y-8617000D02*
X27787500Y-8617000D01*
X27737500Y-8821000D02*
X27737500Y-8921000D01*
X27687500Y-8871000D02*
X27787500Y-8871000D01*
X27737500Y-9075000D02*
X27737500Y-9175000D01*
X27687500Y-9125000D02*
X27787500Y-9125000D01*
X18588891Y-6384891D02*
X18588891Y-6307109D01*
X18511109Y-6307109D01*
X18511109Y-6384891D01*
X18588891Y-6384891D01*
X18588891Y-6638891D02*
X18588891Y-6561109D01*
X18511109Y-6561109D01*
X18511109Y-6638891D01*
X18588891Y-6638891D01*
X18588891Y-6892891D02*
X18588891Y-6815109D01*
X18511109Y-6815109D01*
X18511109Y-6892891D01*
X18588891Y-6892891D01*
X23738891Y-5388891D02*
X23738891Y-5311109D01*
X23661109Y-5311109D01*
X23661109Y-5388891D01*
X23738891Y-5388891D01*
X23738891Y-5838891D02*
X23738891Y-5761109D01*
X23661109Y-5761109D01*
X23661109Y-5838891D01*
X23738891Y-5838891D01*
X24388891Y-5388891D02*
X24388891Y-5311109D01*
X24311109Y-5311109D01*
X24311109Y-5388891D01*
X24388891Y-5388891D01*
X24388891Y-5838891D02*
X24388891Y-5761109D01*
X24311109Y-5761109D01*
X24311109Y-5838891D01*
X24388891Y-5838891D01*
X25036391Y-5391391D02*
X25036391Y-5313609D01*
X24958609Y-5313609D01*
X24958609Y-5391391D01*
X25036391Y-5391391D01*
X25036391Y-5841391D02*
X25036391Y-5763609D01*
X24958609Y-5763609D01*
X24958609Y-5841391D01*
X25036391Y-5841391D01*
X25686391Y-5391391D02*
X25686391Y-5313609D01*
X25608609Y-5313609D01*
X25608609Y-5391391D01*
X25686391Y-5391391D01*
X25686391Y-5841391D02*
X25686391Y-5763609D01*
X25608609Y-5763609D01*
X25608609Y-5841391D01*
X25686391Y-5841391D01*
X26321391Y-5391391D02*
X26321391Y-5313609D01*
X26243609Y-5313609D01*
X26243609Y-5391391D01*
X26321391Y-5391391D01*
X26321391Y-5841391D02*
X26321391Y-5763609D01*
X26243609Y-5763609D01*
X26243609Y-5841391D01*
X26321391Y-5841391D01*
X26971391Y-5391391D02*
X26971391Y-5313609D01*
X26893609Y-5313609D01*
X26893609Y-5391391D01*
X26971391Y-5391391D01*
X26971391Y-5841391D02*
X26971391Y-5763609D01*
X26893609Y-5763609D01*
X26893609Y-5841391D01*
X26971391Y-5841391D01*
X18500000Y-8372000D02*
X18660000Y-8212000D01*
X18500000Y-8052000D01*
X18340000Y-8212000D01*
X18500000Y-8372000D01*
X18500000Y-10872000D02*
X18660000Y-10712000D01*
X18500000Y-10552000D01*
X18340000Y-10712000D01*
X18500000Y-10872000D01*
D12*
X18283928Y-11868214D02*
X18283928Y-11568214D01*
X18355357Y-11568214D01*
X18398214Y-11582500D01*
X18426786Y-11611071D01*
X18441071Y-11639643D01*
X18455357Y-11696786D01*
X18455357Y-11739643D01*
X18441071Y-11796786D01*
X18426786Y-11825357D01*
X18398214Y-11853929D01*
X18355357Y-11868214D01*
X18283928Y-11868214D01*
X18583928Y-11868214D02*
X18583928Y-11668214D01*
X18583928Y-11725357D02*
X18598214Y-11696786D01*
X18612500Y-11682500D01*
X18641071Y-11668214D01*
X18669643Y-11668214D01*
X18769643Y-11868214D02*
X18769643Y-11668214D01*
X18769643Y-11568214D02*
X18755357Y-11582500D01*
X18769643Y-11596786D01*
X18783928Y-11582500D01*
X18769643Y-11568214D01*
X18769643Y-11596786D01*
X18955357Y-11868214D02*
X18926786Y-11853929D01*
X18912500Y-11825357D01*
X18912500Y-11568214D01*
X19112500Y-11868214D02*
X19083928Y-11853929D01*
X19069643Y-11825357D01*
X19069643Y-11568214D01*
X19455357Y-11868214D02*
X19455357Y-11568214D01*
X19555357Y-11782500D01*
X19655357Y-11568214D01*
X19655357Y-11868214D01*
X19926786Y-11868214D02*
X19926786Y-11711071D01*
X19912500Y-11682500D01*
X19883928Y-11668214D01*
X19826786Y-11668214D01*
X19798214Y-11682500D01*
X19926786Y-11853929D02*
X19898214Y-11868214D01*
X19826786Y-11868214D01*
X19798214Y-11853929D01*
X19783928Y-11825357D01*
X19783928Y-11796786D01*
X19798214Y-11768214D01*
X19826786Y-11753929D01*
X19898214Y-11753929D01*
X19926786Y-11739643D01*
X20069643Y-11668214D02*
X20069643Y-11968214D01*
X20069643Y-11682500D02*
X20098214Y-11668214D01*
X20155357Y-11668214D01*
X20183928Y-11682500D01*
X20198214Y-11696786D01*
X20212500Y-11725357D01*
X20212500Y-11811071D01*
X20198214Y-11839643D01*
X20183928Y-11853929D01*
X20155357Y-11868214D01*
X20098214Y-11868214D01*
X20069643Y-11853929D01*
X20341071Y-11839643D02*
X20355357Y-11853929D01*
X20341071Y-11868214D01*
X20326786Y-11853929D01*
X20341071Y-11839643D01*
X20341071Y-11868214D01*
X20341071Y-11682500D02*
X20355357Y-11696786D01*
X20341071Y-11711071D01*
X20326786Y-11696786D01*
X20341071Y-11682500D01*
X20341071Y-11711071D01*
X17957500Y-12342500D02*
X17997500Y-12382500D01*
X17997500Y-12342500D02*
X17957500Y-12382500D01*
X18341071Y-12198214D02*
X18369643Y-12198214D01*
X18398214Y-12212500D01*
X18412500Y-12226786D01*
X18426786Y-12255357D01*
X18441071Y-12312500D01*
X18441071Y-12383929D01*
X18426786Y-12441071D01*
X18412500Y-12469643D01*
X18398214Y-12483929D01*
X18369643Y-12498214D01*
X18341071Y-12498214D01*
X18312500Y-12483929D01*
X18298214Y-12469643D01*
X18283928Y-12441071D01*
X18269643Y-12383929D01*
X18269643Y-12312500D01*
X18283928Y-12255357D01*
X18298214Y-12226786D01*
X18312500Y-12212500D01*
X18341071Y-12198214D01*
X18569643Y-12469643D02*
X18583928Y-12483929D01*
X18569643Y-12498214D01*
X18555357Y-12483929D01*
X18569643Y-12469643D01*
X18569643Y-12498214D01*
X18841071Y-12298214D02*
X18841071Y-12498214D01*
X18769643Y-12183929D02*
X18698214Y-12398214D01*
X18883928Y-12398214D01*
X19055357Y-12198214D02*
X19083928Y-12198214D01*
X19112500Y-12212500D01*
X19126786Y-12226786D01*
X19141071Y-12255357D01*
X19155357Y-12312500D01*
X19155357Y-12383929D01*
X19141071Y-12441071D01*
X19126786Y-12469643D01*
X19112500Y-12483929D01*
X19083928Y-12498214D01*
X19055357Y-12498214D01*
X19026786Y-12483929D01*
X19012500Y-12469643D01*
X18998214Y-12441071D01*
X18983928Y-12383929D01*
X18983928Y-12312500D01*
X18998214Y-12255357D01*
X19012500Y-12226786D01*
X19026786Y-12212500D01*
X19055357Y-12198214D01*
X19341071Y-12198214D02*
X19369643Y-12198214D01*
X19398214Y-12212500D01*
X19412500Y-12226786D01*
X19426786Y-12255357D01*
X19441071Y-12312500D01*
X19441071Y-12383929D01*
X19426786Y-12441071D01*
X19412500Y-12469643D01*
X19398214Y-12483929D01*
X19369643Y-12498214D01*
X19341071Y-12498214D01*
X19312500Y-12483929D01*
X19298214Y-12469643D01*
X19283928Y-12441071D01*
X19269643Y-12383929D01*
X19269643Y-12312500D01*
X19283928Y-12255357D01*
X19298214Y-12226786D01*
X19312500Y-12212500D01*
X19341071Y-12198214D01*
X19569643Y-12498214D02*
X19569643Y-12298214D01*
X19569643Y-12326786D02*
X19583928Y-12312500D01*
X19612500Y-12298214D01*
X19655357Y-12298214D01*
X19683928Y-12312500D01*
X19698214Y-12341071D01*
X19698214Y-12498214D01*
X19698214Y-12341071D02*
X19712500Y-12312500D01*
X19741071Y-12298214D01*
X19783928Y-12298214D01*
X19812500Y-12312500D01*
X19826786Y-12341071D01*
X19826786Y-12498214D01*
X19969643Y-12498214D02*
X19969643Y-12298214D01*
X19969643Y-12326786D02*
X19983928Y-12312500D01*
X20012500Y-12298214D01*
X20055357Y-12298214D01*
X20083928Y-12312500D01*
X20098214Y-12341071D01*
X20098214Y-12498214D01*
X20098214Y-12341071D02*
X20112500Y-12312500D01*
X20141071Y-12298214D01*
X20183928Y-12298214D01*
X20212500Y-12312500D01*
X20226786Y-12341071D01*
X20226786Y-12498214D01*
X20812500Y-12183929D02*
X20555357Y-12569643D01*
X21198214Y-12198214D02*
X21226786Y-12198214D01*
X21255357Y-12212500D01*
X21269643Y-12226786D01*
X21283928Y-12255357D01*
X21298214Y-12312500D01*
X21298214Y-12383929D01*
X21283928Y-12441071D01*
X21269643Y-12469643D01*
X21255357Y-12483929D01*
X21226786Y-12498214D01*
X21198214Y-12498214D01*
X21169643Y-12483929D01*
X21155357Y-12469643D01*
X21141071Y-12441071D01*
X21126786Y-12383929D01*
X21126786Y-12312500D01*
X21141071Y-12255357D01*
X21155357Y-12226786D01*
X21169643Y-12212500D01*
X21198214Y-12198214D01*
X21426786Y-12469643D02*
X21441071Y-12483929D01*
X21426786Y-12498214D01*
X21412500Y-12483929D01*
X21426786Y-12469643D01*
X21426786Y-12498214D01*
X21626786Y-12198214D02*
X21655357Y-12198214D01*
X21683928Y-12212500D01*
X21698214Y-12226786D01*
X21712500Y-12255357D01*
X21726786Y-12312500D01*
X21726786Y-12383929D01*
X21712500Y-12441071D01*
X21698214Y-12469643D01*
X21683928Y-12483929D01*
X21655357Y-12498214D01*
X21626786Y-12498214D01*
X21598214Y-12483929D01*
X21583928Y-12469643D01*
X21569643Y-12441071D01*
X21555357Y-12383929D01*
X21555357Y-12312500D01*
X21569643Y-12255357D01*
X21583928Y-12226786D01*
X21598214Y-12212500D01*
X21626786Y-12198214D01*
X22012500Y-12498214D02*
X21841071Y-12498214D01*
X21926786Y-12498214D02*
X21926786Y-12198214D01*
X21898214Y-12241071D01*
X21869643Y-12269643D01*
X21841071Y-12283929D01*
X22283928Y-12198214D02*
X22141071Y-12198214D01*
X22126786Y-12341071D01*
X22141071Y-12326786D01*
X22169643Y-12312500D01*
X22241071Y-12312500D01*
X22269643Y-12326786D01*
X22283928Y-12341071D01*
X22298214Y-12369643D01*
X22298214Y-12441071D01*
X22283928Y-12469643D01*
X22269643Y-12483929D01*
X22241071Y-12498214D01*
X22169643Y-12498214D01*
X22141071Y-12483929D01*
X22126786Y-12469643D01*
X22398214Y-12198214D02*
X22598214Y-12198214D01*
X22469643Y-12498214D01*
X22698214Y-12198214D02*
X22698214Y-12255357D01*
X22812500Y-12198214D02*
X22812500Y-12255357D01*
X23255357Y-12612500D02*
X23241071Y-12598214D01*
X23212500Y-12555357D01*
X23198214Y-12526786D01*
X23183928Y-12483929D01*
X23169643Y-12412500D01*
X23169643Y-12355357D01*
X23183928Y-12283929D01*
X23198214Y-12241071D01*
X23212500Y-12212500D01*
X23241071Y-12169643D01*
X23255357Y-12155357D01*
X23512500Y-12198214D02*
X23369643Y-12198214D01*
X23355357Y-12341071D01*
X23369643Y-12326786D01*
X23398214Y-12312500D01*
X23469643Y-12312500D01*
X23498214Y-12326786D01*
X23512500Y-12341071D01*
X23526786Y-12369643D01*
X23526786Y-12441071D01*
X23512500Y-12469643D01*
X23498214Y-12483929D01*
X23469643Y-12498214D01*
X23398214Y-12498214D01*
X23369643Y-12483929D01*
X23355357Y-12469643D01*
X23626786Y-12198214D02*
X23812500Y-12198214D01*
X23712500Y-12312500D01*
X23755357Y-12312500D01*
X23783928Y-12326786D01*
X23798214Y-12341071D01*
X23812500Y-12369643D01*
X23812500Y-12441071D01*
X23798214Y-12469643D01*
X23783928Y-12483929D01*
X23755357Y-12498214D01*
X23669643Y-12498214D01*
X23641071Y-12483929D01*
X23626786Y-12469643D01*
X24169643Y-12498214D02*
X24169643Y-12198214D01*
X24298214Y-12498214D02*
X24298214Y-12341071D01*
X24283928Y-12312500D01*
X24255357Y-12298214D01*
X24212500Y-12298214D01*
X24183928Y-12312500D01*
X24169643Y-12326786D01*
X24483928Y-12498214D02*
X24455357Y-12483929D01*
X24441071Y-12469643D01*
X24426786Y-12441071D01*
X24426786Y-12355357D01*
X24441071Y-12326786D01*
X24455357Y-12312500D01*
X24483928Y-12298214D01*
X24526786Y-12298214D01*
X24555357Y-12312500D01*
X24569643Y-12326786D01*
X24583928Y-12355357D01*
X24583928Y-12441071D01*
X24569643Y-12469643D01*
X24555357Y-12483929D01*
X24526786Y-12498214D01*
X24483928Y-12498214D01*
X24755357Y-12498214D02*
X24726786Y-12483929D01*
X24712500Y-12455357D01*
X24712500Y-12198214D01*
X24983928Y-12483929D02*
X24955357Y-12498214D01*
X24898214Y-12498214D01*
X24869643Y-12483929D01*
X24855357Y-12455357D01*
X24855357Y-12341071D01*
X24869643Y-12312500D01*
X24898214Y-12298214D01*
X24955357Y-12298214D01*
X24983928Y-12312500D01*
X24998214Y-12341071D01*
X24998214Y-12369643D01*
X24855357Y-12398214D01*
X25112500Y-12483929D02*
X25141071Y-12498214D01*
X25198214Y-12498214D01*
X25226786Y-12483929D01*
X25241071Y-12455357D01*
X25241071Y-12441071D01*
X25226786Y-12412500D01*
X25198214Y-12398214D01*
X25155357Y-12398214D01*
X25126786Y-12383929D01*
X25112500Y-12355357D01*
X25112500Y-12341071D01*
X25126786Y-12312500D01*
X25155357Y-12298214D01*
X25198214Y-12298214D01*
X25226786Y-12312500D01*
X25341071Y-12612500D02*
X25355357Y-12598214D01*
X25383928Y-12555357D01*
X25398214Y-12526786D01*
X25412500Y-12483929D01*
X25426786Y-12412500D01*
X25426786Y-12355357D01*
X25412500Y-12283929D01*
X25398214Y-12241071D01*
X25383928Y-12212500D01*
X25355357Y-12169643D01*
X25341071Y-12155357D01*
X17997500Y-12758500D02*
G75*
G03*
X17997500Y-12758500I-40000J0D01*
G01*
X18341071Y-12594214D02*
X18369643Y-12594214D01*
X18398214Y-12608500D01*
X18412500Y-12622786D01*
X18426786Y-12651357D01*
X18441071Y-12708500D01*
X18441071Y-12779929D01*
X18426786Y-12837071D01*
X18412500Y-12865643D01*
X18398214Y-12879929D01*
X18369643Y-12894214D01*
X18341071Y-12894214D01*
X18312500Y-12879929D01*
X18298214Y-12865643D01*
X18283928Y-12837071D01*
X18269643Y-12779929D01*
X18269643Y-12708500D01*
X18283928Y-12651357D01*
X18298214Y-12622786D01*
X18312500Y-12608500D01*
X18341071Y-12594214D01*
X18569643Y-12865643D02*
X18583928Y-12879929D01*
X18569643Y-12894214D01*
X18555357Y-12879929D01*
X18569643Y-12865643D01*
X18569643Y-12894214D01*
X18755357Y-12722786D02*
X18726786Y-12708500D01*
X18712500Y-12694214D01*
X18698214Y-12665643D01*
X18698214Y-12651357D01*
X18712500Y-12622786D01*
X18726786Y-12608500D01*
X18755357Y-12594214D01*
X18812500Y-12594214D01*
X18841071Y-12608500D01*
X18855357Y-12622786D01*
X18869643Y-12651357D01*
X18869643Y-12665643D01*
X18855357Y-12694214D01*
X18841071Y-12708500D01*
X18812500Y-12722786D01*
X18755357Y-12722786D01*
X18726786Y-12737071D01*
X18712500Y-12751357D01*
X18698214Y-12779929D01*
X18698214Y-12837071D01*
X18712500Y-12865643D01*
X18726786Y-12879929D01*
X18755357Y-12894214D01*
X18812500Y-12894214D01*
X18841071Y-12879929D01*
X18855357Y-12865643D01*
X18869643Y-12837071D01*
X18869643Y-12779929D01*
X18855357Y-12751357D01*
X18841071Y-12737071D01*
X18812500Y-12722786D01*
X19055357Y-12594214D02*
X19083928Y-12594214D01*
X19112500Y-12608500D01*
X19126786Y-12622786D01*
X19141071Y-12651357D01*
X19155357Y-12708500D01*
X19155357Y-12779929D01*
X19141071Y-12837071D01*
X19126786Y-12865643D01*
X19112500Y-12879929D01*
X19083928Y-12894214D01*
X19055357Y-12894214D01*
X19026786Y-12879929D01*
X19012500Y-12865643D01*
X18998214Y-12837071D01*
X18983928Y-12779929D01*
X18983928Y-12708500D01*
X18998214Y-12651357D01*
X19012500Y-12622786D01*
X19026786Y-12608500D01*
X19055357Y-12594214D01*
X19341071Y-12594214D02*
X19369643Y-12594214D01*
X19398214Y-12608500D01*
X19412500Y-12622786D01*
X19426786Y-12651357D01*
X19441071Y-12708500D01*
X19441071Y-12779929D01*
X19426786Y-12837071D01*
X19412500Y-12865643D01*
X19398214Y-12879929D01*
X19369643Y-12894214D01*
X19341071Y-12894214D01*
X19312500Y-12879929D01*
X19298214Y-12865643D01*
X19283928Y-12837071D01*
X19269643Y-12779929D01*
X19269643Y-12708500D01*
X19283928Y-12651357D01*
X19298214Y-12622786D01*
X19312500Y-12608500D01*
X19341071Y-12594214D01*
X19569643Y-12894214D02*
X19569643Y-12694214D01*
X19569643Y-12722786D02*
X19583928Y-12708500D01*
X19612500Y-12694214D01*
X19655357Y-12694214D01*
X19683928Y-12708500D01*
X19698214Y-12737071D01*
X19698214Y-12894214D01*
X19698214Y-12737071D02*
X19712500Y-12708500D01*
X19741071Y-12694214D01*
X19783928Y-12694214D01*
X19812500Y-12708500D01*
X19826786Y-12737071D01*
X19826786Y-12894214D01*
X19969643Y-12894214D02*
X19969643Y-12694214D01*
X19969643Y-12722786D02*
X19983928Y-12708500D01*
X20012500Y-12694214D01*
X20055357Y-12694214D01*
X20083928Y-12708500D01*
X20098214Y-12737071D01*
X20098214Y-12894214D01*
X20098214Y-12737071D02*
X20112500Y-12708500D01*
X20141071Y-12694214D01*
X20183928Y-12694214D01*
X20212500Y-12708500D01*
X20226786Y-12737071D01*
X20226786Y-12894214D01*
X20812500Y-12579929D02*
X20555357Y-12965643D01*
X21198214Y-12594214D02*
X21226786Y-12594214D01*
X21255357Y-12608500D01*
X21269643Y-12622786D01*
X21283928Y-12651357D01*
X21298214Y-12708500D01*
X21298214Y-12779929D01*
X21283928Y-12837071D01*
X21269643Y-12865643D01*
X21255357Y-12879929D01*
X21226786Y-12894214D01*
X21198214Y-12894214D01*
X21169643Y-12879929D01*
X21155357Y-12865643D01*
X21141071Y-12837071D01*
X21126786Y-12779929D01*
X21126786Y-12708500D01*
X21141071Y-12651357D01*
X21155357Y-12622786D01*
X21169643Y-12608500D01*
X21198214Y-12594214D01*
X21426786Y-12865643D02*
X21441071Y-12879929D01*
X21426786Y-12894214D01*
X21412500Y-12879929D01*
X21426786Y-12865643D01*
X21426786Y-12894214D01*
X21626786Y-12594214D02*
X21655357Y-12594214D01*
X21683928Y-12608500D01*
X21698214Y-12622786D01*
X21712500Y-12651357D01*
X21726786Y-12708500D01*
X21726786Y-12779929D01*
X21712500Y-12837071D01*
X21698214Y-12865643D01*
X21683928Y-12879929D01*
X21655357Y-12894214D01*
X21626786Y-12894214D01*
X21598214Y-12879929D01*
X21583928Y-12865643D01*
X21569643Y-12837071D01*
X21555357Y-12779929D01*
X21555357Y-12708500D01*
X21569643Y-12651357D01*
X21583928Y-12622786D01*
X21598214Y-12608500D01*
X21626786Y-12594214D01*
X21826786Y-12594214D02*
X22012500Y-12594214D01*
X21912500Y-12708500D01*
X21955357Y-12708500D01*
X21983928Y-12722786D01*
X21998214Y-12737071D01*
X22012500Y-12765643D01*
X22012500Y-12837071D01*
X21998214Y-12865643D01*
X21983928Y-12879929D01*
X21955357Y-12894214D01*
X21869643Y-12894214D01*
X21841071Y-12879929D01*
X21826786Y-12865643D01*
X22298214Y-12894214D02*
X22126786Y-12894214D01*
X22212500Y-12894214D02*
X22212500Y-12594214D01*
X22183928Y-12637071D01*
X22155357Y-12665643D01*
X22126786Y-12679929D01*
X22569643Y-12594214D02*
X22426786Y-12594214D01*
X22412500Y-12737071D01*
X22426786Y-12722786D01*
X22455357Y-12708500D01*
X22526786Y-12708500D01*
X22555357Y-12722786D01*
X22569643Y-12737071D01*
X22583928Y-12765643D01*
X22583928Y-12837071D01*
X22569643Y-12865643D01*
X22555357Y-12879929D01*
X22526786Y-12894214D01*
X22455357Y-12894214D01*
X22426786Y-12879929D01*
X22412500Y-12865643D01*
X22698214Y-12594214D02*
X22698214Y-12651357D01*
X22812500Y-12594214D02*
X22812500Y-12651357D01*
X23255357Y-13008500D02*
X23241071Y-12994214D01*
X23212500Y-12951357D01*
X23198214Y-12922786D01*
X23183928Y-12879929D01*
X23169643Y-12808500D01*
X23169643Y-12751357D01*
X23183928Y-12679929D01*
X23198214Y-12637071D01*
X23212500Y-12608500D01*
X23241071Y-12565643D01*
X23255357Y-12551357D01*
X23526786Y-12894214D02*
X23355357Y-12894214D01*
X23441071Y-12894214D02*
X23441071Y-12594214D01*
X23412500Y-12637071D01*
X23383928Y-12665643D01*
X23355357Y-12679929D01*
X23698214Y-12722786D02*
X23669643Y-12708500D01*
X23655357Y-12694214D01*
X23641071Y-12665643D01*
X23641071Y-12651357D01*
X23655357Y-12622786D01*
X23669643Y-12608500D01*
X23698214Y-12594214D01*
X23755357Y-12594214D01*
X23783928Y-12608500D01*
X23798214Y-12622786D01*
X23812500Y-12651357D01*
X23812500Y-12665643D01*
X23798214Y-12694214D01*
X23783928Y-12708500D01*
X23755357Y-12722786D01*
X23698214Y-12722786D01*
X23669643Y-12737071D01*
X23655357Y-12751357D01*
X23641071Y-12779929D01*
X23641071Y-12837071D01*
X23655357Y-12865643D01*
X23669643Y-12879929D01*
X23698214Y-12894214D01*
X23755357Y-12894214D01*
X23783928Y-12879929D01*
X23798214Y-12865643D01*
X23812500Y-12837071D01*
X23812500Y-12779929D01*
X23798214Y-12751357D01*
X23783928Y-12737071D01*
X23755357Y-12722786D01*
X24069643Y-12594214D02*
X24012500Y-12594214D01*
X23983928Y-12608500D01*
X23969643Y-12622786D01*
X23941071Y-12665643D01*
X23926786Y-12722786D01*
X23926786Y-12837071D01*
X23941071Y-12865643D01*
X23955357Y-12879929D01*
X23983928Y-12894214D01*
X24041071Y-12894214D01*
X24069643Y-12879929D01*
X24083928Y-12865643D01*
X24098214Y-12837071D01*
X24098214Y-12765643D01*
X24083928Y-12737071D01*
X24069643Y-12722786D01*
X24041071Y-12708500D01*
X23983928Y-12708500D01*
X23955357Y-12722786D01*
X23941071Y-12737071D01*
X23926786Y-12765643D01*
X24455357Y-12894214D02*
X24455357Y-12594214D01*
X24583928Y-12894214D02*
X24583928Y-12737071D01*
X24569643Y-12708500D01*
X24541071Y-12694214D01*
X24498214Y-12694214D01*
X24469643Y-12708500D01*
X24455357Y-12722786D01*
X24769643Y-12894214D02*
X24741071Y-12879929D01*
X24726786Y-12865643D01*
X24712500Y-12837071D01*
X24712500Y-12751357D01*
X24726786Y-12722786D01*
X24741071Y-12708500D01*
X24769643Y-12694214D01*
X24812500Y-12694214D01*
X24841071Y-12708500D01*
X24855357Y-12722786D01*
X24869643Y-12751357D01*
X24869643Y-12837071D01*
X24855357Y-12865643D01*
X24841071Y-12879929D01*
X24812500Y-12894214D01*
X24769643Y-12894214D01*
X25041071Y-12894214D02*
X25012500Y-12879929D01*
X24998214Y-12851357D01*
X24998214Y-12594214D01*
X25269643Y-12879929D02*
X25241071Y-12894214D01*
X25183928Y-12894214D01*
X25155357Y-12879929D01*
X25141071Y-12851357D01*
X25141071Y-12737071D01*
X25155357Y-12708500D01*
X25183928Y-12694214D01*
X25241071Y-12694214D01*
X25269643Y-12708500D01*
X25283928Y-12737071D01*
X25283928Y-12765643D01*
X25141071Y-12794214D01*
X25398214Y-12879929D02*
X25426786Y-12894214D01*
X25483928Y-12894214D01*
X25512500Y-12879929D01*
X25526786Y-12851357D01*
X25526786Y-12837071D01*
X25512500Y-12808500D01*
X25483928Y-12794214D01*
X25441071Y-12794214D01*
X25412500Y-12779929D01*
X25398214Y-12751357D01*
X25398214Y-12737071D01*
X25412500Y-12708500D01*
X25441071Y-12694214D01*
X25483928Y-12694214D01*
X25512500Y-12708500D01*
X25883928Y-12779929D02*
X26112500Y-12779929D01*
X25998214Y-12894214D02*
X25998214Y-12665643D01*
X26455357Y-12594214D02*
X26641071Y-12594214D01*
X26541071Y-12708500D01*
X26583928Y-12708500D01*
X26612500Y-12722786D01*
X26626786Y-12737071D01*
X26641071Y-12765643D01*
X26641071Y-12837071D01*
X26626786Y-12865643D01*
X26612500Y-12879929D01*
X26583928Y-12894214D01*
X26498214Y-12894214D01*
X26469643Y-12879929D01*
X26455357Y-12865643D01*
X26983928Y-12879929D02*
X27012500Y-12894214D01*
X27069643Y-12894214D01*
X27098214Y-12879929D01*
X27112500Y-12851357D01*
X27112500Y-12837071D01*
X27098214Y-12808500D01*
X27069643Y-12794214D01*
X27026786Y-12794214D01*
X26998214Y-12779929D01*
X26983928Y-12751357D01*
X26983928Y-12737071D01*
X26998214Y-12708500D01*
X27026786Y-12694214D01*
X27069643Y-12694214D01*
X27098214Y-12708500D01*
X27283928Y-12894214D02*
X27255357Y-12879929D01*
X27241071Y-12851357D01*
X27241071Y-12594214D01*
X27441071Y-12894214D02*
X27412500Y-12879929D01*
X27398214Y-12865643D01*
X27383928Y-12837071D01*
X27383928Y-12751357D01*
X27398214Y-12722786D01*
X27412500Y-12708500D01*
X27441071Y-12694214D01*
X27483928Y-12694214D01*
X27512500Y-12708500D01*
X27526786Y-12722786D01*
X27541071Y-12751357D01*
X27541071Y-12837071D01*
X27526786Y-12865643D01*
X27512500Y-12879929D01*
X27483928Y-12894214D01*
X27441071Y-12894214D01*
X27626786Y-12694214D02*
X27741071Y-12694214D01*
X27669643Y-12594214D02*
X27669643Y-12851357D01*
X27683928Y-12879929D01*
X27712500Y-12894214D01*
X27741071Y-12894214D01*
X27826786Y-12879929D02*
X27855357Y-12894214D01*
X27912500Y-12894214D01*
X27941071Y-12879929D01*
X27955357Y-12851357D01*
X27955357Y-12837071D01*
X27941071Y-12808500D01*
X27912500Y-12794214D01*
X27869643Y-12794214D01*
X27841071Y-12779929D01*
X27826786Y-12751357D01*
X27826786Y-12737071D01*
X27841071Y-12708500D01*
X27869643Y-12694214D01*
X27912500Y-12694214D01*
X27941071Y-12708500D01*
X28055357Y-13008500D02*
X28069643Y-12994214D01*
X28098214Y-12951357D01*
X28112500Y-12922786D01*
X28126786Y-12879929D01*
X28141071Y-12808500D01*
X28141071Y-12751357D01*
X28126786Y-12679929D01*
X28112500Y-12637071D01*
X28098214Y-12608500D01*
X28069643Y-12565643D01*
X28055357Y-12551357D01*
X17947500Y-13104500D02*
X17947500Y-13204500D01*
X17897500Y-13154500D02*
X17997500Y-13154500D01*
X18441071Y-13290214D02*
X18269643Y-13290214D01*
X18355357Y-13290214D02*
X18355357Y-12990214D01*
X18326786Y-13033071D01*
X18298214Y-13061643D01*
X18269643Y-13075929D01*
X18569643Y-13261643D02*
X18583928Y-13275929D01*
X18569643Y-13290214D01*
X18555357Y-13275929D01*
X18569643Y-13261643D01*
X18569643Y-13290214D01*
X18769643Y-12990214D02*
X18798214Y-12990214D01*
X18826786Y-13004500D01*
X18841071Y-13018786D01*
X18855357Y-13047357D01*
X18869643Y-13104500D01*
X18869643Y-13175929D01*
X18855357Y-13233071D01*
X18841071Y-13261643D01*
X18826786Y-13275929D01*
X18798214Y-13290214D01*
X18769643Y-13290214D01*
X18741071Y-13275929D01*
X18726786Y-13261643D01*
X18712500Y-13233071D01*
X18698214Y-13175929D01*
X18698214Y-13104500D01*
X18712500Y-13047357D01*
X18726786Y-13018786D01*
X18741071Y-13004500D01*
X18769643Y-12990214D01*
X19055357Y-12990214D02*
X19083928Y-12990214D01*
X19112500Y-13004500D01*
X19126786Y-13018786D01*
X19141071Y-13047357D01*
X19155357Y-13104500D01*
X19155357Y-13175929D01*
X19141071Y-13233071D01*
X19126786Y-13261643D01*
X19112500Y-13275929D01*
X19083928Y-13290214D01*
X19055357Y-13290214D01*
X19026786Y-13275929D01*
X19012500Y-13261643D01*
X18998214Y-13233071D01*
X18983928Y-13175929D01*
X18983928Y-13104500D01*
X18998214Y-13047357D01*
X19012500Y-13018786D01*
X19026786Y-13004500D01*
X19055357Y-12990214D01*
X19341071Y-12990214D02*
X19369643Y-12990214D01*
X19398214Y-13004500D01*
X19412500Y-13018786D01*
X19426786Y-13047357D01*
X19441071Y-13104500D01*
X19441071Y-13175929D01*
X19426786Y-13233071D01*
X19412500Y-13261643D01*
X19398214Y-13275929D01*
X19369643Y-13290214D01*
X19341071Y-13290214D01*
X19312500Y-13275929D01*
X19298214Y-13261643D01*
X19283928Y-13233071D01*
X19269643Y-13175929D01*
X19269643Y-13104500D01*
X19283928Y-13047357D01*
X19298214Y-13018786D01*
X19312500Y-13004500D01*
X19341071Y-12990214D01*
X19569643Y-13290214D02*
X19569643Y-13090214D01*
X19569643Y-13118786D02*
X19583928Y-13104500D01*
X19612500Y-13090214D01*
X19655357Y-13090214D01*
X19683928Y-13104500D01*
X19698214Y-13133071D01*
X19698214Y-13290214D01*
X19698214Y-13133071D02*
X19712500Y-13104500D01*
X19741071Y-13090214D01*
X19783928Y-13090214D01*
X19812500Y-13104500D01*
X19826786Y-13133071D01*
X19826786Y-13290214D01*
X19969643Y-13290214D02*
X19969643Y-13090214D01*
X19969643Y-13118786D02*
X19983928Y-13104500D01*
X20012500Y-13090214D01*
X20055357Y-13090214D01*
X20083928Y-13104500D01*
X20098214Y-13133071D01*
X20098214Y-13290214D01*
X20098214Y-13133071D02*
X20112500Y-13104500D01*
X20141071Y-13090214D01*
X20183928Y-13090214D01*
X20212500Y-13104500D01*
X20226786Y-13133071D01*
X20226786Y-13290214D01*
X20812500Y-12975929D02*
X20555357Y-13361643D01*
X21198214Y-12990214D02*
X21226786Y-12990214D01*
X21255357Y-13004500D01*
X21269643Y-13018786D01*
X21283928Y-13047357D01*
X21298214Y-13104500D01*
X21298214Y-13175929D01*
X21283928Y-13233071D01*
X21269643Y-13261643D01*
X21255357Y-13275929D01*
X21226786Y-13290214D01*
X21198214Y-13290214D01*
X21169643Y-13275929D01*
X21155357Y-13261643D01*
X21141071Y-13233071D01*
X21126786Y-13175929D01*
X21126786Y-13104500D01*
X21141071Y-13047357D01*
X21155357Y-13018786D01*
X21169643Y-13004500D01*
X21198214Y-12990214D01*
X21426786Y-13261643D02*
X21441071Y-13275929D01*
X21426786Y-13290214D01*
X21412500Y-13275929D01*
X21426786Y-13261643D01*
X21426786Y-13290214D01*
X21626786Y-12990214D02*
X21655357Y-12990214D01*
X21683928Y-13004500D01*
X21698214Y-13018786D01*
X21712500Y-13047357D01*
X21726786Y-13104500D01*
X21726786Y-13175929D01*
X21712500Y-13233071D01*
X21698214Y-13261643D01*
X21683928Y-13275929D01*
X21655357Y-13290214D01*
X21626786Y-13290214D01*
X21598214Y-13275929D01*
X21583928Y-13261643D01*
X21569643Y-13233071D01*
X21555357Y-13175929D01*
X21555357Y-13104500D01*
X21569643Y-13047357D01*
X21583928Y-13018786D01*
X21598214Y-13004500D01*
X21626786Y-12990214D01*
X21826786Y-12990214D02*
X22012500Y-12990214D01*
X21912500Y-13104500D01*
X21955357Y-13104500D01*
X21983928Y-13118786D01*
X21998214Y-13133071D01*
X22012500Y-13161643D01*
X22012500Y-13233071D01*
X21998214Y-13261643D01*
X21983928Y-13275929D01*
X21955357Y-13290214D01*
X21869643Y-13290214D01*
X21841071Y-13275929D01*
X21826786Y-13261643D01*
X22155357Y-13290214D02*
X22212500Y-13290214D01*
X22241071Y-13275929D01*
X22255357Y-13261643D01*
X22283928Y-13218786D01*
X22298214Y-13161643D01*
X22298214Y-13047357D01*
X22283928Y-13018786D01*
X22269643Y-13004500D01*
X22241071Y-12990214D01*
X22183928Y-12990214D01*
X22155357Y-13004500D01*
X22141071Y-13018786D01*
X22126786Y-13047357D01*
X22126786Y-13118786D01*
X22141071Y-13147357D01*
X22155357Y-13161643D01*
X22183928Y-13175929D01*
X22241071Y-13175929D01*
X22269643Y-13161643D01*
X22283928Y-13147357D01*
X22298214Y-13118786D01*
X22555357Y-13090214D02*
X22555357Y-13290214D01*
X22483928Y-12975929D02*
X22412500Y-13190214D01*
X22598214Y-13190214D01*
X22698214Y-12990214D02*
X22698214Y-13047357D01*
X22812500Y-12990214D02*
X22812500Y-13047357D01*
X23255357Y-13404500D02*
X23241071Y-13390214D01*
X23212500Y-13347357D01*
X23198214Y-13318786D01*
X23183928Y-13275929D01*
X23169643Y-13204500D01*
X23169643Y-13147357D01*
X23183928Y-13075929D01*
X23198214Y-13033071D01*
X23212500Y-13004500D01*
X23241071Y-12961643D01*
X23255357Y-12947357D01*
X23341071Y-12990214D02*
X23541071Y-12990214D01*
X23412500Y-13290214D01*
X23626786Y-12990214D02*
X23812500Y-12990214D01*
X23712500Y-13104500D01*
X23755357Y-13104500D01*
X23783928Y-13118786D01*
X23798214Y-13133071D01*
X23812500Y-13161643D01*
X23812500Y-13233071D01*
X23798214Y-13261643D01*
X23783928Y-13275929D01*
X23755357Y-13290214D01*
X23669643Y-13290214D01*
X23641071Y-13275929D01*
X23626786Y-13261643D01*
X24169643Y-13290214D02*
X24169643Y-12990214D01*
X24298214Y-13290214D02*
X24298214Y-13133071D01*
X24283928Y-13104500D01*
X24255357Y-13090214D01*
X24212500Y-13090214D01*
X24183928Y-13104500D01*
X24169643Y-13118786D01*
X24483928Y-13290214D02*
X24455357Y-13275929D01*
X24441071Y-13261643D01*
X24426786Y-13233071D01*
X24426786Y-13147357D01*
X24441071Y-13118786D01*
X24455357Y-13104500D01*
X24483928Y-13090214D01*
X24526786Y-13090214D01*
X24555357Y-13104500D01*
X24569643Y-13118786D01*
X24583928Y-13147357D01*
X24583928Y-13233071D01*
X24569643Y-13261643D01*
X24555357Y-13275929D01*
X24526786Y-13290214D01*
X24483928Y-13290214D01*
X24755357Y-13290214D02*
X24726786Y-13275929D01*
X24712500Y-13247357D01*
X24712500Y-12990214D01*
X24983928Y-13275929D02*
X24955357Y-13290214D01*
X24898214Y-13290214D01*
X24869643Y-13275929D01*
X24855357Y-13247357D01*
X24855357Y-13133071D01*
X24869643Y-13104500D01*
X24898214Y-13090214D01*
X24955357Y-13090214D01*
X24983928Y-13104500D01*
X24998214Y-13133071D01*
X24998214Y-13161643D01*
X24855357Y-13190214D01*
X25112500Y-13275929D02*
X25141071Y-13290214D01*
X25198214Y-13290214D01*
X25226786Y-13275929D01*
X25241071Y-13247357D01*
X25241071Y-13233071D01*
X25226786Y-13204500D01*
X25198214Y-13190214D01*
X25155357Y-13190214D01*
X25126786Y-13175929D01*
X25112500Y-13147357D01*
X25112500Y-13133071D01*
X25126786Y-13104500D01*
X25155357Y-13090214D01*
X25198214Y-13090214D01*
X25226786Y-13104500D01*
X25598214Y-13175929D02*
X25826786Y-13175929D01*
X25712500Y-13290214D02*
X25712500Y-13061643D01*
X26169643Y-12990214D02*
X26355357Y-12990214D01*
X26255357Y-13104500D01*
X26298214Y-13104500D01*
X26326786Y-13118786D01*
X26341071Y-13133071D01*
X26355357Y-13161643D01*
X26355357Y-13233071D01*
X26341071Y-13261643D01*
X26326786Y-13275929D01*
X26298214Y-13290214D01*
X26212500Y-13290214D01*
X26183928Y-13275929D01*
X26169643Y-13261643D01*
X26698214Y-13275929D02*
X26726786Y-13290214D01*
X26783928Y-13290214D01*
X26812500Y-13275929D01*
X26826786Y-13247357D01*
X26826786Y-13233071D01*
X26812500Y-13204500D01*
X26783928Y-13190214D01*
X26741071Y-13190214D01*
X26712500Y-13175929D01*
X26698214Y-13147357D01*
X26698214Y-13133071D01*
X26712500Y-13104500D01*
X26741071Y-13090214D01*
X26783928Y-13090214D01*
X26812500Y-13104500D01*
X26998214Y-13290214D02*
X26969643Y-13275929D01*
X26955357Y-13247357D01*
X26955357Y-12990214D01*
X27155357Y-13290214D02*
X27126786Y-13275929D01*
X27112500Y-13261643D01*
X27098214Y-13233071D01*
X27098214Y-13147357D01*
X27112500Y-13118786D01*
X27126786Y-13104500D01*
X27155357Y-13090214D01*
X27198214Y-13090214D01*
X27226786Y-13104500D01*
X27241071Y-13118786D01*
X27255357Y-13147357D01*
X27255357Y-13233071D01*
X27241071Y-13261643D01*
X27226786Y-13275929D01*
X27198214Y-13290214D01*
X27155357Y-13290214D01*
X27341071Y-13090214D02*
X27455357Y-13090214D01*
X27383928Y-12990214D02*
X27383928Y-13247357D01*
X27398214Y-13275929D01*
X27426786Y-13290214D01*
X27455357Y-13290214D01*
X27541071Y-13275929D02*
X27569643Y-13290214D01*
X27626786Y-13290214D01*
X27655357Y-13275929D01*
X27669643Y-13247357D01*
X27669643Y-13233071D01*
X27655357Y-13204500D01*
X27626786Y-13190214D01*
X27583928Y-13190214D01*
X27555357Y-13175929D01*
X27541071Y-13147357D01*
X27541071Y-13133071D01*
X27555357Y-13104500D01*
X27583928Y-13090214D01*
X27626786Y-13090214D01*
X27655357Y-13104500D01*
X27769643Y-13404500D02*
X27783928Y-13390214D01*
X27812500Y-13347357D01*
X27826786Y-13318786D01*
X27841071Y-13275929D01*
X27855357Y-13204500D01*
X27855357Y-13147357D01*
X27841071Y-13075929D01*
X27826786Y-13033071D01*
X27812500Y-13004500D01*
X27783928Y-12961643D01*
X27769643Y-12947357D01*
X17981391Y-13589391D02*
X17981391Y-13511609D01*
X17903609Y-13511609D01*
X17903609Y-13589391D01*
X17981391Y-13589391D01*
X18441071Y-13686214D02*
X18269643Y-13686214D01*
X18355357Y-13686214D02*
X18355357Y-13386214D01*
X18326786Y-13429071D01*
X18298214Y-13457643D01*
X18269643Y-13471929D01*
X18569643Y-13657643D02*
X18583928Y-13671929D01*
X18569643Y-13686214D01*
X18555357Y-13671929D01*
X18569643Y-13657643D01*
X18569643Y-13686214D01*
X18869643Y-13686214D02*
X18698214Y-13686214D01*
X18783928Y-13686214D02*
X18783928Y-13386214D01*
X18755357Y-13429071D01*
X18726786Y-13457643D01*
X18698214Y-13471929D01*
X19055357Y-13386214D02*
X19083928Y-13386214D01*
X19112500Y-13400500D01*
X19126786Y-13414786D01*
X19141071Y-13443357D01*
X19155357Y-13500500D01*
X19155357Y-13571929D01*
X19141071Y-13629071D01*
X19126786Y-13657643D01*
X19112500Y-13671929D01*
X19083928Y-13686214D01*
X19055357Y-13686214D01*
X19026786Y-13671929D01*
X19012500Y-13657643D01*
X18998214Y-13629071D01*
X18983928Y-13571929D01*
X18983928Y-13500500D01*
X18998214Y-13443357D01*
X19012500Y-13414786D01*
X19026786Y-13400500D01*
X19055357Y-13386214D01*
X19341071Y-13386214D02*
X19369643Y-13386214D01*
X19398214Y-13400500D01*
X19412500Y-13414786D01*
X19426786Y-13443357D01*
X19441071Y-13500500D01*
X19441071Y-13571929D01*
X19426786Y-13629071D01*
X19412500Y-13657643D01*
X19398214Y-13671929D01*
X19369643Y-13686214D01*
X19341071Y-13686214D01*
X19312500Y-13671929D01*
X19298214Y-13657643D01*
X19283928Y-13629071D01*
X19269643Y-13571929D01*
X19269643Y-13500500D01*
X19283928Y-13443357D01*
X19298214Y-13414786D01*
X19312500Y-13400500D01*
X19341071Y-13386214D01*
X19569643Y-13686214D02*
X19569643Y-13486214D01*
X19569643Y-13514786D02*
X19583928Y-13500500D01*
X19612500Y-13486214D01*
X19655357Y-13486214D01*
X19683928Y-13500500D01*
X19698214Y-13529071D01*
X19698214Y-13686214D01*
X19698214Y-13529071D02*
X19712500Y-13500500D01*
X19741071Y-13486214D01*
X19783928Y-13486214D01*
X19812500Y-13500500D01*
X19826786Y-13529071D01*
X19826786Y-13686214D01*
X19969643Y-13686214D02*
X19969643Y-13486214D01*
X19969643Y-13514786D02*
X19983928Y-13500500D01*
X20012500Y-13486214D01*
X20055357Y-13486214D01*
X20083928Y-13500500D01*
X20098214Y-13529071D01*
X20098214Y-13686214D01*
X20098214Y-13529071D02*
X20112500Y-13500500D01*
X20141071Y-13486214D01*
X20183928Y-13486214D01*
X20212500Y-13500500D01*
X20226786Y-13529071D01*
X20226786Y-13686214D01*
X20812500Y-13371929D02*
X20555357Y-13757643D01*
X21198214Y-13386214D02*
X21226786Y-13386214D01*
X21255357Y-13400500D01*
X21269643Y-13414786D01*
X21283928Y-13443357D01*
X21298214Y-13500500D01*
X21298214Y-13571929D01*
X21283928Y-13629071D01*
X21269643Y-13657643D01*
X21255357Y-13671929D01*
X21226786Y-13686214D01*
X21198214Y-13686214D01*
X21169643Y-13671929D01*
X21155357Y-13657643D01*
X21141071Y-13629071D01*
X21126786Y-13571929D01*
X21126786Y-13500500D01*
X21141071Y-13443357D01*
X21155357Y-13414786D01*
X21169643Y-13400500D01*
X21198214Y-13386214D01*
X21426786Y-13657643D02*
X21441071Y-13671929D01*
X21426786Y-13686214D01*
X21412500Y-13671929D01*
X21426786Y-13657643D01*
X21426786Y-13686214D01*
X21626786Y-13386214D02*
X21655357Y-13386214D01*
X21683928Y-13400500D01*
X21698214Y-13414786D01*
X21712500Y-13443357D01*
X21726786Y-13500500D01*
X21726786Y-13571929D01*
X21712500Y-13629071D01*
X21698214Y-13657643D01*
X21683928Y-13671929D01*
X21655357Y-13686214D01*
X21626786Y-13686214D01*
X21598214Y-13671929D01*
X21583928Y-13657643D01*
X21569643Y-13629071D01*
X21555357Y-13571929D01*
X21555357Y-13500500D01*
X21569643Y-13443357D01*
X21583928Y-13414786D01*
X21598214Y-13400500D01*
X21626786Y-13386214D01*
X21983928Y-13486214D02*
X21983928Y-13686214D01*
X21912500Y-13371929D02*
X21841071Y-13586214D01*
X22026786Y-13586214D01*
X22112500Y-13386214D02*
X22298214Y-13386214D01*
X22198214Y-13500500D01*
X22241071Y-13500500D01*
X22269643Y-13514786D01*
X22283928Y-13529071D01*
X22298214Y-13557643D01*
X22298214Y-13629071D01*
X22283928Y-13657643D01*
X22269643Y-13671929D01*
X22241071Y-13686214D01*
X22155357Y-13686214D01*
X22126786Y-13671929D01*
X22112500Y-13657643D01*
X22398214Y-13386214D02*
X22583928Y-13386214D01*
X22483928Y-13500500D01*
X22526786Y-13500500D01*
X22555357Y-13514786D01*
X22569643Y-13529071D01*
X22583928Y-13557643D01*
X22583928Y-13629071D01*
X22569643Y-13657643D01*
X22555357Y-13671929D01*
X22526786Y-13686214D01*
X22441071Y-13686214D01*
X22412500Y-13671929D01*
X22398214Y-13657643D01*
X22698214Y-13386214D02*
X22698214Y-13443357D01*
X22812500Y-13386214D02*
X22812500Y-13443357D01*
X23255357Y-13800500D02*
X23241071Y-13786214D01*
X23212500Y-13743357D01*
X23198214Y-13714786D01*
X23183928Y-13671929D01*
X23169643Y-13600500D01*
X23169643Y-13543357D01*
X23183928Y-13471929D01*
X23198214Y-13429071D01*
X23212500Y-13400500D01*
X23241071Y-13357643D01*
X23255357Y-13343357D01*
X23526786Y-13686214D02*
X23355357Y-13686214D01*
X23441071Y-13686214D02*
X23441071Y-13386214D01*
X23412500Y-13429071D01*
X23383928Y-13457643D01*
X23355357Y-13471929D01*
X23798214Y-13386214D02*
X23655357Y-13386214D01*
X23641071Y-13529071D01*
X23655357Y-13514786D01*
X23683928Y-13500500D01*
X23755357Y-13500500D01*
X23783928Y-13514786D01*
X23798214Y-13529071D01*
X23812500Y-13557643D01*
X23812500Y-13629071D01*
X23798214Y-13657643D01*
X23783928Y-13671929D01*
X23755357Y-13686214D01*
X23683928Y-13686214D01*
X23655357Y-13671929D01*
X23641071Y-13657643D01*
X24169643Y-13686214D02*
X24169643Y-13386214D01*
X24298214Y-13686214D02*
X24298214Y-13529071D01*
X24283928Y-13500500D01*
X24255357Y-13486214D01*
X24212500Y-13486214D01*
X24183928Y-13500500D01*
X24169643Y-13514786D01*
X24483928Y-13686214D02*
X24455357Y-13671929D01*
X24441071Y-13657643D01*
X24426786Y-13629071D01*
X24426786Y-13543357D01*
X24441071Y-13514786D01*
X24455357Y-13500500D01*
X24483928Y-13486214D01*
X24526786Y-13486214D01*
X24555357Y-13500500D01*
X24569643Y-13514786D01*
X24583928Y-13543357D01*
X24583928Y-13629071D01*
X24569643Y-13657643D01*
X24555357Y-13671929D01*
X24526786Y-13686214D01*
X24483928Y-13686214D01*
X24755357Y-13686214D02*
X24726786Y-13671929D01*
X24712500Y-13643357D01*
X24712500Y-13386214D01*
X24983928Y-13671929D02*
X24955357Y-13686214D01*
X24898214Y-13686214D01*
X24869643Y-13671929D01*
X24855357Y-13643357D01*
X24855357Y-13529071D01*
X24869643Y-13500500D01*
X24898214Y-13486214D01*
X24955357Y-13486214D01*
X24983928Y-13500500D01*
X24998214Y-13529071D01*
X24998214Y-13557643D01*
X24855357Y-13586214D01*
X25112500Y-13671929D02*
X25141071Y-13686214D01*
X25198214Y-13686214D01*
X25226786Y-13671929D01*
X25241071Y-13643357D01*
X25241071Y-13629071D01*
X25226786Y-13600500D01*
X25198214Y-13586214D01*
X25155357Y-13586214D01*
X25126786Y-13571929D01*
X25112500Y-13543357D01*
X25112500Y-13529071D01*
X25126786Y-13500500D01*
X25155357Y-13486214D01*
X25198214Y-13486214D01*
X25226786Y-13500500D01*
X25341071Y-13800500D02*
X25355357Y-13786214D01*
X25383928Y-13743357D01*
X25398214Y-13714786D01*
X25412500Y-13671929D01*
X25426786Y-13600500D01*
X25426786Y-13543357D01*
X25412500Y-13471929D01*
X25398214Y-13429071D01*
X25383928Y-13400500D01*
X25355357Y-13357643D01*
X25341071Y-13343357D01*
X17837500Y-14106500D02*
X17997500Y-13946500D01*
X17837500Y-13786500D01*
X17677500Y-13946500D01*
X17837500Y-14106500D01*
X18255357Y-13782214D02*
X18441071Y-13782214D01*
X18341071Y-13896500D01*
X18383928Y-13896500D01*
X18412500Y-13910786D01*
X18426786Y-13925071D01*
X18441071Y-13953643D01*
X18441071Y-14025071D01*
X18426786Y-14053643D01*
X18412500Y-14067929D01*
X18383928Y-14082214D01*
X18298214Y-14082214D01*
X18269643Y-14067929D01*
X18255357Y-14053643D01*
X18569643Y-14053643D02*
X18583928Y-14067929D01*
X18569643Y-14082214D01*
X18555357Y-14067929D01*
X18569643Y-14053643D01*
X18569643Y-14082214D01*
X18698214Y-13810786D02*
X18712500Y-13796500D01*
X18741071Y-13782214D01*
X18812500Y-13782214D01*
X18841071Y-13796500D01*
X18855357Y-13810786D01*
X18869643Y-13839357D01*
X18869643Y-13867929D01*
X18855357Y-13910786D01*
X18683928Y-14082214D01*
X18869643Y-14082214D01*
X19055357Y-13782214D02*
X19083928Y-13782214D01*
X19112500Y-13796500D01*
X19126786Y-13810786D01*
X19141071Y-13839357D01*
X19155357Y-13896500D01*
X19155357Y-13967929D01*
X19141071Y-14025071D01*
X19126786Y-14053643D01*
X19112500Y-14067929D01*
X19083928Y-14082214D01*
X19055357Y-14082214D01*
X19026786Y-14067929D01*
X19012500Y-14053643D01*
X18998214Y-14025071D01*
X18983928Y-13967929D01*
X18983928Y-13896500D01*
X18998214Y-13839357D01*
X19012500Y-13810786D01*
X19026786Y-13796500D01*
X19055357Y-13782214D01*
X19341071Y-13782214D02*
X19369643Y-13782214D01*
X19398214Y-13796500D01*
X19412500Y-13810786D01*
X19426786Y-13839357D01*
X19441071Y-13896500D01*
X19441071Y-13967929D01*
X19426786Y-14025071D01*
X19412500Y-14053643D01*
X19398214Y-14067929D01*
X19369643Y-14082214D01*
X19341071Y-14082214D01*
X19312500Y-14067929D01*
X19298214Y-14053643D01*
X19283928Y-14025071D01*
X19269643Y-13967929D01*
X19269643Y-13896500D01*
X19283928Y-13839357D01*
X19298214Y-13810786D01*
X19312500Y-13796500D01*
X19341071Y-13782214D01*
X19569643Y-14082214D02*
X19569643Y-13882214D01*
X19569643Y-13910786D02*
X19583928Y-13896500D01*
X19612500Y-13882214D01*
X19655357Y-13882214D01*
X19683928Y-13896500D01*
X19698214Y-13925071D01*
X19698214Y-14082214D01*
X19698214Y-13925071D02*
X19712500Y-13896500D01*
X19741071Y-13882214D01*
X19783928Y-13882214D01*
X19812500Y-13896500D01*
X19826786Y-13925071D01*
X19826786Y-14082214D01*
X19969643Y-14082214D02*
X19969643Y-13882214D01*
X19969643Y-13910786D02*
X19983928Y-13896500D01*
X20012500Y-13882214D01*
X20055357Y-13882214D01*
X20083928Y-13896500D01*
X20098214Y-13925071D01*
X20098214Y-14082214D01*
X20098214Y-13925071D02*
X20112500Y-13896500D01*
X20141071Y-13882214D01*
X20183928Y-13882214D01*
X20212500Y-13896500D01*
X20226786Y-13925071D01*
X20226786Y-14082214D01*
X20812500Y-13767929D02*
X20555357Y-14153643D01*
X21198214Y-13782214D02*
X21226786Y-13782214D01*
X21255357Y-13796500D01*
X21269643Y-13810786D01*
X21283928Y-13839357D01*
X21298214Y-13896500D01*
X21298214Y-13967929D01*
X21283928Y-14025071D01*
X21269643Y-14053643D01*
X21255357Y-14067929D01*
X21226786Y-14082214D01*
X21198214Y-14082214D01*
X21169643Y-14067929D01*
X21155357Y-14053643D01*
X21141071Y-14025071D01*
X21126786Y-13967929D01*
X21126786Y-13896500D01*
X21141071Y-13839357D01*
X21155357Y-13810786D01*
X21169643Y-13796500D01*
X21198214Y-13782214D01*
X21426786Y-14053643D02*
X21441071Y-14067929D01*
X21426786Y-14082214D01*
X21412500Y-14067929D01*
X21426786Y-14053643D01*
X21426786Y-14082214D01*
X21726786Y-14082214D02*
X21555357Y-14082214D01*
X21641071Y-14082214D02*
X21641071Y-13782214D01*
X21612500Y-13825071D01*
X21583928Y-13853643D01*
X21555357Y-13867929D01*
X21841071Y-13810786D02*
X21855357Y-13796500D01*
X21883928Y-13782214D01*
X21955357Y-13782214D01*
X21983928Y-13796500D01*
X21998214Y-13810786D01*
X22012500Y-13839357D01*
X22012500Y-13867929D01*
X21998214Y-13910786D01*
X21826786Y-14082214D01*
X22012500Y-14082214D01*
X22269643Y-13782214D02*
X22212500Y-13782214D01*
X22183928Y-13796500D01*
X22169643Y-13810786D01*
X22141071Y-13853643D01*
X22126786Y-13910786D01*
X22126786Y-14025071D01*
X22141071Y-14053643D01*
X22155357Y-14067929D01*
X22183928Y-14082214D01*
X22241071Y-14082214D01*
X22269643Y-14067929D01*
X22283928Y-14053643D01*
X22298214Y-14025071D01*
X22298214Y-13953643D01*
X22283928Y-13925071D01*
X22269643Y-13910786D01*
X22241071Y-13896500D01*
X22183928Y-13896500D01*
X22155357Y-13910786D01*
X22141071Y-13925071D01*
X22126786Y-13953643D01*
X22483928Y-13782214D02*
X22512500Y-13782214D01*
X22541071Y-13796500D01*
X22555357Y-13810786D01*
X22569643Y-13839357D01*
X22583928Y-13896500D01*
X22583928Y-13967929D01*
X22569643Y-14025071D01*
X22555357Y-14053643D01*
X22541071Y-14067929D01*
X22512500Y-14082214D01*
X22483928Y-14082214D01*
X22455357Y-14067929D01*
X22441071Y-14053643D01*
X22426786Y-14025071D01*
X22412500Y-13967929D01*
X22412500Y-13896500D01*
X22426786Y-13839357D01*
X22441071Y-13810786D01*
X22455357Y-13796500D01*
X22483928Y-13782214D01*
X22698214Y-13782214D02*
X22698214Y-13839357D01*
X22812500Y-13782214D02*
X22812500Y-13839357D01*
X23255357Y-14196500D02*
X23241071Y-14182214D01*
X23212500Y-14139357D01*
X23198214Y-14110786D01*
X23183928Y-14067929D01*
X23169643Y-13996500D01*
X23169643Y-13939357D01*
X23183928Y-13867929D01*
X23198214Y-13825071D01*
X23212500Y-13796500D01*
X23241071Y-13753643D01*
X23255357Y-13739357D01*
X23355357Y-13810786D02*
X23369643Y-13796500D01*
X23398214Y-13782214D01*
X23469643Y-13782214D01*
X23498214Y-13796500D01*
X23512500Y-13810786D01*
X23526786Y-13839357D01*
X23526786Y-13867929D01*
X23512500Y-13910786D01*
X23341071Y-14082214D01*
X23526786Y-14082214D01*
X23883928Y-14082214D02*
X23883928Y-13782214D01*
X24012500Y-14082214D02*
X24012500Y-13925071D01*
X23998214Y-13896500D01*
X23969643Y-13882214D01*
X23926786Y-13882214D01*
X23898214Y-13896500D01*
X23883928Y-13910786D01*
X24198214Y-14082214D02*
X24169643Y-14067929D01*
X24155357Y-14053643D01*
X24141071Y-14025071D01*
X24141071Y-13939357D01*
X24155357Y-13910786D01*
X24169643Y-13896500D01*
X24198214Y-13882214D01*
X24241071Y-13882214D01*
X24269643Y-13896500D01*
X24283928Y-13910786D01*
X24298214Y-13939357D01*
X24298214Y-14025071D01*
X24283928Y-14053643D01*
X24269643Y-14067929D01*
X24241071Y-14082214D01*
X24198214Y-14082214D01*
X24469643Y-14082214D02*
X24441071Y-14067929D01*
X24426786Y-14039357D01*
X24426786Y-13782214D01*
X24698214Y-14067929D02*
X24669643Y-14082214D01*
X24612500Y-14082214D01*
X24583928Y-14067929D01*
X24569643Y-14039357D01*
X24569643Y-13925071D01*
X24583928Y-13896500D01*
X24612500Y-13882214D01*
X24669643Y-13882214D01*
X24698214Y-13896500D01*
X24712500Y-13925071D01*
X24712500Y-13953643D01*
X24569643Y-13982214D01*
X24826786Y-14067929D02*
X24855357Y-14082214D01*
X24912500Y-14082214D01*
X24941071Y-14067929D01*
X24955357Y-14039357D01*
X24955357Y-14025071D01*
X24941071Y-13996500D01*
X24912500Y-13982214D01*
X24869643Y-13982214D01*
X24841071Y-13967929D01*
X24826786Y-13939357D01*
X24826786Y-13925071D01*
X24841071Y-13896500D01*
X24869643Y-13882214D01*
X24912500Y-13882214D01*
X24941071Y-13896500D01*
X25055357Y-14196500D02*
X25069643Y-14182214D01*
X25098214Y-14139357D01*
X25112500Y-14110786D01*
X25126786Y-14067929D01*
X25141071Y-13996500D01*
X25141071Y-13939357D01*
X25126786Y-13867929D01*
X25112500Y-13825071D01*
X25098214Y-13796500D01*
X25069643Y-13753643D01*
X25055357Y-13739357D01*
M02*
